<?xml version="1.0" encoding="utf-8"?>
<!-- Generator: Adobe Illustrator 25.0.1, SVG Export Plug-In . SVG Version: 6.00 Build 0)  -->
<svg version="1.1" id="レイヤー_1" xmlns="http://www.w3.org/2000/svg" xmlns:xlink="http://www.w3.org/1999/xlink" x="0px"
	 y="0px" viewBox="0 0 345 66" style="enable-background:new 0 0 345 66;" xml:space="preserve">
<style type="text/css">
	.st0{fill:#FFFFFF;}
	.st1{fill:none;stroke:#FFFFFF;stroke-width:0.8504;stroke-miterlimit:10;}
</style>
<g>
	<g>
		<path class="st0" d="M101.3,5.5v22.8H98V18.1H84.9v10.2h-3.3V5.5h3.3v9.8H98V5.5H101.3z"/>
		<path class="st0" d="M106.1,19.7c0-5.1,3.8-8.8,9-8.8c5.2,0,9,3.7,9,8.8c0,5.1-3.8,8.8-9,8.8C109.9,28.5,106.1,24.8,106.1,19.7z
			 M120.9,19.7c0-3.7-2.5-6.1-5.8-6.1c-3.3,0-5.8,2.4-5.8,6.1c0,3.7,2.5,6.1,5.8,6.1C118.4,25.8,120.9,23.3,120.9,19.7z"/>
		<path class="st0" d="M126.2,26.5l1.3-2.5c1.5,1,3.8,1.8,6.1,1.8c2.9,0,4.1-0.9,4.1-2.3c0-3.9-10.9-0.5-10.9-7.4
			c0-3.1,2.8-5.2,7.2-5.2c2.2,0,4.8,0.6,6.3,1.6l-1.3,2.5c-1.6-1-3.3-1.4-5-1.4c-2.7,0-4.1,1-4.1,2.4c0,4.1,11,0.7,11,7.5
			c0,3.1-2.9,5.1-7.5,5.1C130.4,28.5,127.6,27.6,126.2,26.5z"/>
		<path class="st0" d="M161.1,18.4v9.9h-3.1v-9.6c0-3.4-1.7-5.1-4.7-5.1c-3.3,0-5.5,2-5.5,5.7v8.9h-3.1V4.1h3.1v9.4
			c1.3-1.7,3.5-2.6,6.1-2.6C158.1,10.9,161.1,13.3,161.1,18.4z"/>
		<path class="st0" d="M166.3,5.7c0-1.1,0.9-2.1,2.1-2.1s2.1,0.9,2.1,2c0,1.2-0.9,2.1-2.1,2.1C167.2,7.7,166.3,6.8,166.3,5.7z
			 M166.9,11h3.1v17.3h-3.1V11z"/>
		<path class="st0" d="M182.7,20.2l-3.6,3.3v4.7H176V4.1h3.1v15.5l9.4-8.6h3.8l-7.3,7.1l8,10.1h-3.8L182.7,20.2z"/>
		<path class="st0" d="M209.7,17.9v10.4h-3V26c-1,1.6-3,2.5-5.7,2.5c-3.9,0-6.4-2.1-6.4-5.1c0-2.8,1.8-5.1,6.9-5.1h5v-0.6
			c0-2.6-1.5-4.2-4.6-4.2c-2.1,0-4.1,0.7-5.5,1.9l-1.3-2.3c1.8-1.4,4.4-2.2,7.1-2.2C207.1,10.9,209.7,13.1,209.7,17.9z M206.6,23
			v-2.4h-4.8c-3.1,0-4,1.2-4,2.7c0,1.7,1.4,2.8,3.8,2.8C204,26.1,205.8,25,206.6,23z"/>
		<path class="st0" d="M222.3,20.2l-3.6,3.3v4.7h-3.1V4.1h3.1v15.5l9.4-8.6h3.8l-7.3,7.1l8,10.1h-3.8L222.3,20.2z"/>
		<path class="st0" d="M251.2,20.7h-14c0.4,3,2.8,5.1,6.3,5.1c2,0,3.7-0.7,5-2.1l1.7,2c-1.6,1.8-3.9,2.8-6.8,2.8
			c-5.6,0-9.3-3.7-9.3-8.8c0-5.1,3.7-8.8,8.7-8.8c5,0,8.5,3.6,8.5,8.9C251.2,20,251.2,20.4,251.2,20.7z M237.2,18.5h11.1
			c-0.3-2.9-2.5-5-5.5-5C239.7,13.5,237.5,15.5,237.2,18.5z"/>
		<path class="st0" d="M84.9,40.9v8h11.4v2.8H84.9v9.2h-3.3V38.1h16.1v2.8H84.9z"/>
		<path class="st0" d="M101.3,38.3c0-1.1,0.9-2.1,2.1-2.1s2.1,0.9,2.1,2c0,1.2-0.9,2.1-2.1,2.1C102.2,40.3,101.3,39.4,101.3,38.3z
			 M101.9,43.6h3.1v17.3h-3.1V43.6z"/>
		<path class="st0" d="M120.3,43.5v3c-0.3,0-0.5,0-0.7,0c-3.4,0-5.4,2.1-5.4,5.8v8.6H111V43.6h3v2.9
			C115.1,44.5,117.2,43.5,120.3,43.5z"/>
		<path class="st0" d="M139.9,53.3h-14c0.4,3,2.8,5.1,6.3,5.1c2,0,3.7-0.7,5-2.1l1.7,2c-1.6,1.8-3.9,2.8-6.8,2.8
			c-5.6,0-9.3-3.7-9.3-8.8c0-5.1,3.7-8.8,8.7-8.8c5,0,8.5,3.6,8.5,8.9C140,52.6,139.9,53,139.9,53.3z M125.9,51.1H137
			c-0.3-2.9-2.5-5-5.5-5C128.4,46.1,126.2,48.1,125.9,51.1z"/>
		<path class="st0" d="M170.4,43.6L164,60.9h-3l-5-13.1l-5.1,13.1h-3l-6.4-17.3h3l5,13.8l5.2-13.8h2.6l5.1,13.8l5.2-13.8H170.4z"/>
		<path class="st0" d="M172,52.3c0-5.2,3.8-8.8,9-8.8c5.2,0,9,3.6,9,8.8c0,5.1-3.8,8.8-9,8.8C175.8,61.1,172,57.4,172,52.3z
			 M186.8,52.3c0-3.7-2.5-6.1-5.8-6.1c-3.3,0-5.8,2.4-5.8,6.1c0,3.7,2.5,6.1,5.8,6.1C184.3,58.4,186.8,55.9,186.8,52.3z"/>
		<path class="st0" d="M203.6,43.5v3c-0.3,0-0.5,0-0.7,0c-3.4,0-5.4,2.1-5.4,5.8v8.6h-3.1V43.6h3v2.9
			C198.4,44.5,200.6,43.5,203.6,43.5z"/>
		<path class="st0" d="M214.4,52.8l-3.6,3.3v4.7h-3.1V36.7h3.1v15.5l9.4-8.6h3.8l-7.3,7.1l8,10.1h-3.8L214.4,52.8z"/>
		<path class="st0" d="M225.6,59.1l1.3-2.5c1.5,1,3.8,1.8,6.1,1.8c2.9,0,4.1-0.9,4.1-2.3c0-3.9-10.9-0.5-10.9-7.4
			c0-3.1,2.8-5.2,7.2-5.2c2.2,0,4.8,0.6,6.3,1.6l-1.3,2.5c-1.6-1-3.3-1.4-5-1.4c-2.7,0-4.1,1-4.1,2.4c0,4.1,11,0.7,11,7.5
			c0,3.1-2.9,5.1-7.5,5.1C229.8,61.1,227,60.2,225.6,59.1z"/>
		<path class="st0" d="M251.2,58.3l1.2-2.5c1.7,1.5,4.6,2.6,7.5,2.6c3.9,0,5.6-1.5,5.6-3.5c0-5.6-13.8-2.1-13.8-10.5
			c0-3.5,2.7-6.5,8.7-6.5c2.7,0,5.4,0.7,7.3,2l-1.1,2.6c-2-1.3-4.2-1.9-6.3-1.9c-3.9,0-5.5,1.6-5.5,3.6c0,5.6,13.8,2.1,13.8,10.5
			c0,3.5-2.8,6.5-8.8,6.5C256.5,61.2,253,60,251.2,58.3z"/>
		<path class="st0" d="M289.5,51v9.9h-3.1v-9.6c0-3.4-1.7-5.1-4.7-5.1c-3.3,0-5.5,2-5.5,5.7v8.9h-3.1V36.7h3.1v9.4
			c1.3-1.7,3.5-2.6,6.1-2.6C286.5,43.5,289.5,45.9,289.5,51z"/>
		<path class="st0" d="M293.7,52.3c0-5.2,3.8-8.8,9-8.8c5.2,0,9,3.6,9,8.8c0,5.1-3.8,8.8-9,8.8C297.5,61.1,293.7,57.4,293.7,52.3z
			 M308.5,52.3c0-3.7-2.5-6.1-5.8-6.1c-3.3,0-5.8,2.4-5.8,6.1c0,3.7,2.5,6.1,5.8,6.1C306,58.4,308.5,55.9,308.5,52.3z"/>
		<path class="st0" d="M342.1,43.6l-6.5,17.3h-3l-5-13.1l-5.1,13.1h-3l-6.4-17.3h3l5,13.8l5.2-13.8h2.6l5.1,13.8l5.2-13.8H342.1z"/>
	</g>
</g>
<g>
	<path class="st0" d="M21.6,48.9c0-0.7,0-0.7-0.4-3.2c-0.4-3.1-0.7-7.1-0.7-10.5c0-5.7,0.6-10.6,2.3-18.7c0.3-1.3,0.3-1.6,0.4-2.3
		l3.3,0.5c-0.5,1.2-1.1,3.4-1.7,6.5c-1,4.6-1.5,9.7-1.5,14.2c0,1,0,2,0.1,3c0,1.1,0,1.1,0,2.1c0,0.4,0,0.7,0,2.3l0.1,0
		c0.2-0.6,0.2-0.6,0.5-1.6c0.3-1.4,1.4-4.1,2.5-6.7l2,1c-2.1,4.5-3.9,10.3-3.9,12.6c0,0.1,0,0.3,0,0.5L21.6,48.9z M53.3,45.9
		c-1.1-1.2-2.9-2.6-5.6-4.1c-0.9-0.5-0.9-0.5-0.9-0.5c-0.5-0.2-0.5-0.2-0.7-0.3c0.1,0.4,0.1,0.6,0.1,1.2c0,1.3-0.2,2.2-0.6,3.1
		c-0.9,2-3.7,3.3-7.2,3.3c-4.8,0-7.8-2.3-7.8-5.9c0-3.5,3.4-6,8.2-6c1.7,0,3.1,0.3,4.5,0.8c-0.1-0.6-0.2-3.3-0.3-8.1
		c-2.3,0.1-3.2,0.1-5.1,0.1c-1.9,0-2.9,0-6-0.2c-0.3,0-0.6,0-0.9,0c0,0-0.2,0-0.3,0l0.1-2.8c1.7,0.4,3.9,0.6,7.1,0.6
		c1.4,0,3.1,0,5.1-0.1c0-2.2,0-2.8,0-3.4c0-0.8,0-1.6,0.1-3.5c-1.7,0.1-2.7,0.1-4.3,0.1c-1.7,0-3.5,0-5.1-0.2
		c-1.5-0.1-1.7-0.1-2.6-0.1l0.1-2.8c1.7,0.4,4,0.6,7.3,0.6c5.4,0,10.8-0.6,14.2-1.6l0.1,2.8c-0.6,0.1-0.6,0.1-2.4,0.4
		c-1.5,0.3-2.8,0.5-4.6,0.6c0,1.4-0.1,2.3-0.1,3.5c0,0.3,0,0.4,0,3.3c3.2-0.3,6-0.9,7.4-1.4l0.1,2.8c-0.4,0-0.6,0.1-1.2,0.2
		c-1.9,0.4-3.9,0.7-6.3,0.9c0.1,5,0.1,6.3,0.3,9c2.3,0.9,5.2,2.4,7.4,4c0.7,0.5,0.8,0.6,1.1,0.8L53.3,45.9z M39,39.1
		c-3.5,0-5.6,1.3-5.6,3.5c0,2.1,1.9,3.4,5.1,3.4c3.4,0,4.9-1.4,4.9-4.3c0-0.3,0-1.8-0.1-1.8C41.4,39.3,40.5,39.1,39,39.1z"/>
</g>
<path class="st1" d="M51.4,2.6H23.5c-2.1,0-4.1,1.1-5.2,3l-14,24.2c-1.1,1.8-1.1,4.1,0,6l14,24.2c1.1,1.8,3,3,5.2,3h27.9
	c2.1,0,4.1-1.1,5.2-3l14-24.2c1.1-1.8,1.1-4.1,0-6l-14-24.2C55.5,3.7,53.6,2.6,51.4,2.6z"/>
</svg>
