<?xml version="1.0" encoding="utf-8"?>
<!-- Generator: Adobe Illustrator 25.0.1, SVG Export Plug-In . SVG Version: 6.00 Build 0)  -->
<svg version="1.1" xmlns="http://www.w3.org/2000/svg" xmlns:xlink="http://www.w3.org/1999/xlink" x="0px" y="0px"
	 viewBox="0 0 492 853.5" style="enable-background:new 0 0 492 853.5;" xml:space="preserve">
<style type="text/css">
	.st0{fill:#FFFFFF;}
	.st1{fill:#E4007F;}
	.st2{fill:none;stroke:#E4007F;stroke-width:5.6693;stroke-miterlimit:10;}
	.st3{fill:#231815;}
</style>
<g id="背景">
</g>
<g id="山海">
</g>
<g id="船_1_">
</g>
<g id="花火_1_">
</g>
<g id="font_1_">
	<path class="st0" d="M349.4,815.4H136.1c-15.7,0-28.5-12.8-28.5-28.5v-9c0-15.7,12.8-28.5,28.5-28.5h213.3
		c15.7,0,28.5,12.8,28.5,28.5v9C377.9,802.6,365.1,815.4,349.4,815.4z"/>
	<path class="st0" d="M345.1,67.6H151.4c-13.2,0-25.3,7-31.9,18.4L22.6,253.8c-6.6,11.4-6.6,25.4,0,36.8l96.9,167.8
		c6.6,11.4,18.7,18.4,31.9,18.4h193.7c13.2,0,25.3-7,31.9-18.4l96.9-167.8c6.6-11.4,6.6-25.4,0-36.8L377,86
		C370.5,74.6,358.3,67.6,345.1,67.6z"/>
	<g>
		<g>
			<path class="st1" d="M173.1,48.1h-26.3c0-3.2,0.8-6,2.3-8.4c1.5-2.4,3.6-4.5,6.2-6.2c1.2-0.9,2.5-1.8,3.9-2.7
				c1.4-0.9,2.6-1.8,3.7-2.8c1.1-1,2.1-2.1,2.8-3.2s1.1-2.5,1.2-4c0-0.7-0.1-1.4-0.2-2.2c-0.2-0.8-0.5-1.5-1-2.2
				c-0.5-0.7-1.1-1.2-2-1.7c-0.8-0.5-1.9-0.7-3.3-0.7c-1.2,0-2.3,0.2-3.1,0.7c-0.8,0.5-1.5,1.2-2,2c-0.5,0.9-0.9,1.9-1.1,3.1
				c-0.2,1.2-0.4,2.4-0.4,3.8h-6.3c0-2.1,0.3-4.1,0.9-5.9c0.6-1.8,1.4-3.4,2.6-4.7c1.1-1.3,2.5-2.4,4.2-3.1c1.6-0.8,3.5-1.1,5.7-1.1
				c2.3,0,4.3,0.4,5.9,1.2c1.6,0.8,2.8,1.7,3.8,2.9c1,1.2,1.7,2.4,2.1,3.8c0.4,1.4,0.6,2.7,0.6,3.9c0,1.5-0.2,2.9-0.7,4.2
				c-0.5,1.2-1.1,2.4-1.9,3.4c-0.8,1-1.7,2-2.7,2.9c-1,0.9-2.1,1.7-3.2,2.5s-2.2,1.5-3.3,2.2c-1.1,0.7-2.1,1.4-3.1,2.1
				c-0.9,0.7-1.8,1.4-2.4,2.2c-0.7,0.8-1.2,1.5-1.4,2.4h18.8V48.1z"/>
			<path class="st1" d="M218,8.9c2.7,0,5,0.6,6.7,1.9c1.7,1.3,3.1,2.9,4.1,4.8c1,2,1.6,4.1,2,6.5c0.3,2.3,0.5,4.6,0.5,6.8
				s-0.2,4.5-0.5,6.8c-0.3,2.3-1,4.5-2,6.5c-1,2-2.3,3.6-4.1,4.8c-1.7,1.3-4,1.9-6.7,1.9c-2.8,0-5-0.6-6.7-1.9
				c-1.7-1.3-3.1-2.9-4.1-4.8c-1-2-1.6-4.1-2-6.5c-0.3-2.3-0.5-4.6-0.5-6.8s0.2-4.5,0.5-6.8c0.3-2.3,1-4.5,2-6.5
				c1-2,2.3-3.6,4.1-4.8C213,9.5,215.3,8.9,218,8.9z M218,43.7c1.4,0,2.5-0.4,3.4-1.2c0.9-0.8,1.6-1.9,2.2-3.2
				c0.5-1.3,0.9-2.9,1.1-4.7c0.2-1.8,0.3-3.7,0.3-5.7c0-2-0.1-3.9-0.3-5.7c-0.2-1.8-0.6-3.3-1.1-4.7c-0.5-1.4-1.3-2.4-2.2-3.2
				c-0.9-0.8-2.1-1.2-3.4-1.2c-1.4,0-2.5,0.4-3.4,1.2c-0.9,0.8-1.6,1.9-2.1,3.2c-0.5,1.4-0.9,2.9-1.1,4.7c-0.2,1.8-0.3,3.7-0.3,5.7
				c0,2,0.1,3.9,0.3,5.7c0.2,1.8,0.6,3.4,1.1,4.7c0.5,1.3,1.2,2.4,2.1,3.2C215.5,43.3,216.6,43.7,218,43.7z"/>
			<path class="st1" d="M289.2,48.1H263c0-3.2,0.8-6,2.3-8.4c1.5-2.4,3.6-4.5,6.2-6.2c1.2-0.9,2.5-1.8,3.9-2.7
				c1.4-0.9,2.6-1.8,3.7-2.8c1.1-1,2.1-2.1,2.8-3.2s1.1-2.5,1.2-4c0-0.7-0.1-1.4-0.2-2.2c-0.2-0.8-0.5-1.5-1-2.2
				c-0.5-0.7-1.1-1.2-2-1.7c-0.8-0.5-1.9-0.7-3.3-0.7c-1.2,0-2.3,0.2-3.1,0.7c-0.8,0.5-1.5,1.2-2,2c-0.5,0.9-0.9,1.9-1.1,3.1
				c-0.2,1.2-0.4,2.4-0.4,3.8h-6.3c0-2.1,0.3-4.1,0.9-5.9c0.6-1.8,1.4-3.4,2.6-4.7c1.1-1.3,2.5-2.4,4.2-3.1c1.6-0.8,3.5-1.1,5.7-1.1
				c2.3,0,4.3,0.4,5.9,1.2c1.6,0.8,2.8,1.7,3.8,2.9c1,1.2,1.7,2.4,2.1,3.8c0.4,1.4,0.6,2.7,0.6,3.9c0,1.5-0.2,2.9-0.7,4.2
				c-0.5,1.2-1.1,2.4-1.9,3.4c-0.8,1-1.7,2-2.7,2.9c-1,0.9-2.1,1.7-3.2,2.5s-2.2,1.5-3.3,2.2c-1.1,0.7-2.1,1.4-3.1,2.1
				c-0.9,0.7-1.8,1.4-2.4,2.2c-0.7,0.8-1.2,1.5-1.4,2.4h18.8V48.1z"/>
			<path class="st1" d="M321.8,16c1.3,0,2.6-0.1,3.8-0.3c1.2-0.2,2.4-0.6,3.4-1.1c1-0.5,1.9-1.2,2.6-2c0.7-0.8,1.2-1.8,1.4-3h5.1
				v38.5h-6.9V21h-9.5V16z"/>
		</g>
	</g>
	<g>
		<path class="st1" d="M162.5,617.9c4.3,3.1,6.4,7.7,6.4,13.4c0,11.7-8.5,18.2-23.5,18.2c-15.6,0-24.2-6.5-24.2-18.2
			c0-6.1,2.5-10.8,7.6-14.1c2.6-1.7,4.5-2.4,7.7-2.9c-7.5-1.4-12.3-7.4-12.3-15.3c0-10.3,8.1-16.9,20.9-16.9c13,0,21,6.4,21,16.9
			c0,7.9-4.8,13.9-12.3,15.3C157.3,614.7,159.7,615.7,162.5,617.9z M128.1,630.8c0,8.1,6.2,12.9,16.8,12.9c6,0,10.8-1.5,13.7-4.4
			c2.1-2,3.2-4.9,3.2-8.4c0-8.3-6.4-13.4-16.9-13.4C134.5,617.4,128.1,622.5,128.1,630.8z M130.7,599.4c0,7.6,5.4,12.2,14.4,12.2
			c8.9,0,14.3-4.6,14.3-12.2c0-7.2-5.6-11.7-14.4-11.7C136.3,587.7,130.7,592.3,130.7,599.4z"/>
	</g>
	<line class="st2" x1="242.3" y1="586.9" x2="146" y2="706.7"/>
	<g>
		<path class="st1" d="M213.9,693.3c1.4,4.4,2.6,6.2,5.2,8.1c2.9,2,6.6,3.1,11,3.1c9.9,0,16.1-5.1,16.1-13.2c0-8.4-6-13-17.4-13
			c-2.4,0-4.5,0.2-6.8,0.4v-6.7c2,0.3,4,0.5,6.3,0.5c5.6,0,9.8-1.3,12.4-3.9c2.1-2,3.4-5.2,3.4-8.3c0-7.3-5.1-11.6-13.7-11.6
			c-5.2,0-8.9,1.4-11.3,4.5c-1.2,1.5-1.8,2.9-2.7,6l-7.1-1.5c1.4-4.3,2.5-6.3,4.6-8.5c3.7-4.1,9.5-6.2,16.9-6.2
			c12.3,0,20.2,6.5,20.2,16.7c0,5.2-2.2,9.8-6,12.4c-2.2,1.6-4.1,2.3-8,3.1c4.9,0.5,7.6,1.4,10.5,3.7c3.7,2.9,5.7,7.4,5.7,12.9
			c0,11.5-8.9,18.6-23.1,18.6c-8.6,0-15-2.4-19.1-7c-1.8-2-2.8-3.9-4.3-8.3L213.9,693.3z"/>
		<path class="st1" d="M276,643.9c2.2,0.3,3.8,0.4,7.1,0.4h5.4c2.9,0,4.3-0.1,7.1-0.4c-0.5,5.2-0.8,9.5-0.8,14.1v41.4
			c0,4,0.2,6.5,0.7,9.6h-8.1c0.5-3,0.7-5.7,0.7-9.6v-49.3h-4.6c-2.7,0-4.9,0.2-7.4,0.5V643.9z"/>
	</g>
	<circle class="st0" cx="342.1" cy="680.6" r="28.5"/>
	<g>
		<path class="st1" d="M329.3,669c0-1.4-0.1-2.7-0.2-4c1.2,0.1,2.4,0.2,4.1,0.2h17.9c1.7,0,2.9,0,4-0.2c-0.1,1.4-0.2,2.5-0.2,3.8
			v23.9c0,1.9,0.1,3.1,0.2,4.5h-4.5v-2.2h-17.2v2.2H329c0.1-1.3,0.2-2.7,0.2-4.5V669z M333.4,677.7h17.2v-8.6h-17.2V677.7z
			 M333.4,691h17.2v-9.5h-17.2V691z"/>
	</g>
	<g>
		<g>
			<path class="st0" d="M117.3,519.9c-1.5,0-2.4,0-3.3,0.2V516c0.9,0.2,1.6,0.2,3.3,0.2h5.2v-3.8c0-1.8-0.1-2.8-0.2-4h4.3
				c-0.2,1.1-0.2,2.1-0.2,4v23.4c0,2,0,3.1,0.2,4.2h-4.3c0.1-1.2,0.2-2.2,0.2-4.2v-3.7c-2.1,1.2-4,2.1-6.5,3.2
				c-0.6,0.2-1.2,0.5-1.5,0.7l-1.3-4.1c1.1-0.2,1.7-0.4,3-0.9c2.8-1.1,4-1.7,6.3-2.9v-8.2H117.3z M134.6,534.5c0,0.9,0.5,1,2.8,1
				c2.4,0,3.2-0.2,3.6-1c0.4-0.7,0.6-3.2,0.6-6.4c1.3,0.7,2.5,1.2,3.7,1.5c-0.2,4.7-0.8,7.2-2,8.3c-0.6,0.5-1.5,0.8-2.5,1
				c-0.8,0.1-1.7,0.1-3.5,0.1c-3.1,0-4.1-0.1-5-0.6c-1-0.5-1.5-1.4-1.5-3v-23.1c0-1.9-0.1-2.9-0.2-4h4.3c-0.2,1.2-0.2,2.2-0.2,4v6.9
				c3.2-1.8,6.5-4.3,7.8-5.9l2.7,3.3c-0.3,0.2-0.6,0.4-1.1,0.9c-1,0.8-3.9,2.8-5.5,3.8c-1.4,0.9-1.4,0.9-3.9,2.2V534.5z"/>
			<path class="st0" d="M177.5,518.4c3,5.8,7.3,10,13.5,13.4c-1.3,1.4-1.6,1.8-2.7,3.7c-3.1-2.2-5-3.8-6.7-5.5
				c-2.3-2.4-3.9-4.7-5.6-7.9c0.2,1.6,0.2,2.8,0.2,3.9v9.7c0,1.7,0.1,3.1,0.2,4.3H172c0.2-1.3,0.2-2.6,0.2-4.3v-9.7
				c0-0.9,0.1-2.4,0.2-3.8c-2.6,5.3-6.3,9.5-11.9,13.4c-0.8-1.6-1.5-2.5-2.6-3.5c5.8-3.3,10.6-8.4,13.1-13.7h-7.6
				c-1.6,0-2.8,0.1-4.2,0.2v-4.1c1.3,0.2,2.5,0.2,4.2,0.2h8.9v-3.3c0-1.4-0.1-2.3-0.2-3.2h4.5c-0.2,1-0.2,1.9-0.2,3.2v3.3h9.3
				c1.8,0,3.1-0.1,4.2-0.2v4.1c-1.3-0.2-2.7-0.2-4.2-0.2H177.5z"/>
			<path class="st0" d="M213.8,530.8h-3c-1.3,0-1.9,0-2.8,0.1c0.1-1,0.1-2,0.1-3.6v-13.4c0-1.2-0.1-2.2-0.2-3.1
				c0.9,0.1,1.6,0.1,3,0.1h4.2c0.6-1,1-1.9,1.3-3.1l4.1,0.4c-0.5,1-1,1.9-1.5,2.7h7.8c1.4,0,2.2,0,3-0.1c-0.1,0.8-0.1,1.5-0.1,2.7
				v5.7c0,1.1,0,1.9,0.1,2.8c-1-0.1-1.8-0.1-2.9-0.1h-15.2v1.6H232c1.5,0,2.4,0,3.3-0.2v3.2c-1-0.1-2-0.2-3.3-0.2h-20.2v1.6h20.1
				c1.2,0,1.9,0,2.6-0.1c0,0.3,0,0.3-0.1,0.7c0,0.1,0,0.2,0,0.5c0,0.3,0,0.3-0.2,2.1c-0.2,2.6-0.7,5.2-1.1,6.2c-0.4,1-1.1,1.7-2,2.2
				c-0.7,0.3-1.7,0.4-3.3,0.4c-0.3,0-0.8,0-1.6,0c-0.1-0.8-0.1-1.1-0.4-2c-0.8,0-0.8,0-2-0.1c-0.4,0-0.8,0-1.5,0h-13.1v1.4h-3.8
				c0.1-0.9,0.2-1.7,0.2-2.9v-2.4c0-0.8-0.1-1.4-0.2-2.1h3.9c-0.1,0.6-0.1,1-0.1,1.7v1.1h4.5V530.8z M226,515.1v-1.5h-14.2v1.5H226z
				 M211.8,519.1H226v-1.6h-14.2V519.1z M222.2,534.4v-1.1c0-0.7-0.1-1.2-0.1-1.7h3.8c-0.1,0.3-0.1,1.4-0.1,2.1v1.7
				c0,0.3,0,0.4,0,0.9c0.8,0.1,1.7,0.2,2.5,0.2c1,0,1.3-0.2,1.6-1.1c0.3-0.9,0.6-2.7,0.7-4.6h-13.1v3.6H222.2z"/>
			<path class="st0" d="M255.9,527.9c-1.5,2-2.4,3-4.1,4.4c-1.2-1.4-1.5-1.7-2.9-2.7c2.9-2,5.2-4.8,6.2-7.3c-1.5,0-1.8,0-2.5,0.1
				c0.1-0.9,0.1-1.8,0.1-3.1v-6.9c0-1.4,0-2.2-0.1-3.2c1,0.1,1.7,0.1,3.4,0.1h17.9c1.7,0,2.4,0,3.4-0.1c-0.1,0.9-0.1,1.6-0.1,3.1v7
				c0,1.5,0,2.3,0.1,3.2c-0.8-0.1-1.6-0.1-3.3-0.1h-7v2.6h8.1c2,0,3.2-0.1,4.1-0.2v3.4c-1-0.1-2.3-0.2-4.1-0.2H267v2.3h6.2
				c2.3,0,3.4,0,4.3-0.2v3.4c-1.1-0.1-2.4-0.2-4.3-0.2H267v2.6h9.3c2,0,3.3-0.1,4.3-0.2v3.7c-1.2-0.2-2.7-0.2-4.5-0.2h-22.5
				c-1.7,0-3,0.1-4.2,0.2v-3.7c1.1,0.1,2.2,0.2,4,0.2h9.8v-2.6h-4.9c-1.8,0-2.9,0-3.9,0.2V530c0.9,0.1,1.7,0.1,3.9,0.1h4.9v-2.3
				H255.9z M258.8,523.2c-0.5,0.9-0.5,1-0.9,1.7h5.4v-2.6h-7L258.8,523.2z M256.5,514.5h16.9v-1.9h-16.9V514.5z M256.5,519.2h16.9
				v-1.9h-16.9V519.2z"/>
			<path class="st0" d="M298.2,528.8c-0.5,5.1-0.7,6.5-1.7,9.7l-2.5-1.1c1-2.6,1.5-5.1,1.8-9.1L298.2,528.8z M305,524.3h1.1
				c1.4,0,2.2,0,2.8-0.1c-0.1,0.7-0.1,0.7-0.1,3.6c-0.1,3.5-0.4,6.9-0.8,8.7c-0.5,2.5-1.6,3.2-4.5,3.2c-0.6,0-1,0-1.9-0.1
				c0-1.4-0.1-2.2-0.6-3.5c1.3,0.2,1.9,0.3,2.6,0.3c1.2,0,1.5-0.3,1.7-2.3c0-0.1,0-0.4,0.1-0.8l0.1-0.8l-1.3,0.6
				c-0.3-2.2-0.5-2.7-1.2-4.9l1.5-0.5c0.5,1.2,0.8,2.3,1.1,3.8c0.1-2,0.1-3.2,0.1-4.6h-7c-1.2,0-2.2,0-3.1,0.1
				c0.1-0.8,0.1-1.7,0.1-3.4v-10.8c0-2.1,0-2.9-0.1-4c0.8,0.1,1.9,0.2,3.9,0.2h5.5c1.6,0,2.6,0,3.8-0.2v3.3
				c-0.9-0.1-1.7-0.1-2.9-0.1H305v2.2h0.7c1,0,1.7,0,2.4-0.1v3.1c-0.8-0.1-1.4-0.1-2.4-0.1H305v2h0.7c1.1,0,1.7,0,2.4-0.1v3.1
				c-0.8-0.1-1.5-0.1-2.4-0.1H305V524.3z M300.3,528.5c0.4,2.8,0.5,5.2,0.5,8.4l-2.1,0.3c0.1-1.5,0.1-2.2,0.1-3.2
				c0-1.9-0.1-2.9-0.3-5.3L300.3,528.5z M301.9,512.2h-2.7v2.2h2.7V512.2z M301.9,517.2h-2.7v2h2.7V517.2z M299.2,522v2.4h2.7V522
				H299.2z M302.5,528.4c0.6,2.6,0.9,4.1,1.1,6.9l-1.9,0.5c-0.1-3.3-0.3-4.5-0.9-7.1L302.5,528.4z M323.1,533.4
				c-0.7-1.5-0.7-1.7-2.9-5.3c-1.6,3.2-2.7,4.9-4.1,6.6c-0.9-1.3-1.7-2-2.6-2.5v3.1h9.3c1.4,0,2.7-0.1,3.6-0.2v3.8
				c-1-0.1-2.3-0.2-3.7-0.2h-9.2v1.6h-3.8c0.1-1.1,0.2-2.4,0.2-3.9v-23.7c0-1.2,0-2.1-0.1-3.1c0.8,0.1,1.7,0.1,3.1,0.1h9.4
				c1.4,0,2.6-0.1,3.8-0.2v3.8c-1-0.1-2-0.2-3.5-0.2h-9.1v5.2l2.2-2.3c0.5,0.6,0.8,1,1,1.3c1.5,1.9,1.7,2.1,2.8,3.7
				c0.9-2.7,1.5-5.2,1.6-6.9l3.5,0.9c-0.2,0.6-0.3,0.9-0.8,2.7c-0.5,2-1.4,4.6-2.1,6.5c2.2,3.4,3.3,5.1,3.9,6.5L323.1,533.4z
				 M313.5,531.9c1.9-2.3,3.1-4.2,4.5-7.3c-1.7-2.5-2.8-4-4.5-6.1V531.9z"/>
			<path class="st0" d="M357.3,531.9c0,1.2,0.1,2.4,0.2,3.3h-3.7v-1.8h-9.1v3H341c0.1-1.2,0.2-2.8,0.2-4.7V513c0-1.6,0-2.5-0.1-3.6
				c1.1,0.1,2,0.1,3.7,0.1h9c1.7,0,2.6,0,3.7-0.1c-0.1,0.8-0.1,1.5-0.1,2.8h10.1c1.9,0,3.3-0.1,4.4-0.2v4c-1-0.1-2-0.2-4.1-0.2v20.1
				c0,1.7-0.2,2.5-0.9,3.1c-0.6,0.5-1.8,0.7-3.8,0.7c-1,0-2.7,0-3.9-0.1c-0.1-1.5-0.3-2.3-0.8-3.7c1.6,0.2,3,0.3,4.2,0.3
				c1.1,0,1.4-0.1,1.4-0.8v-19.6h-6.6V531.9z M344.7,519.4h2.8v-6.5h-2.8V519.4z M344.7,529.9h2.8v-7.1h-2.8V529.9z M350.9,519.4
				h2.9v-6.5h-2.9V519.4z M350.9,529.9h2.9v-7.1h-2.9V529.9z"/>
		</g>
	</g>
	<g>
		<path class="st3" d="M271.2,180.2c0-1.3,0-1.3-0.7-6.2c-0.8-5.8-1.3-13-1.3-19.9c0-9.2,0.9-17.1,3.4-31.4c0.6-3.2,0.7-3.5,0.7-4.8
			l9.5,1c-2.3,5.7-4.7,19.9-5.6,32.9c-0.1,1-0.1,4.6-0.2,6.8c0,0.9,0,1.7-0.1,2.4c0,0.5,0,0.7,0,1.5h0.1c0.3-0.7,0.3-0.7,1-2.7
			c0.4-1.1,1.5-3.9,2-4.8c0.8-1.8,0.8-1.8,1-2.4l5.9,2.9c-4.5,8.6-7.1,17.1-7.1,22.9c0,0.6,0,0.7,0.1,1.5L271.2,180.2z M327.7,175.6
			c-1.9-2.2-4.8-4.5-8.9-6.9c-0.9-0.5-1.2-0.7-1.7-1c0.1,0.5,0.1,0.7,0.1,1.5c0,1.9-0.4,3.5-1.5,5.3c-1.9,3.2-7.1,5.3-13.4,5.3
			c-9.4,0-15.2-4.5-15.2-11.8c0-6.9,6.2-11.7,15.2-11.7c2.6,0,5.2,0.4,6.5,0.9c-0.1-0.9-0.1-1.7-0.4-10.4c-4.7,0.1-7.3,0.2-7.7,0.2
			c-2,0-3.4-0.1-9.9-0.3c-0.7-0.1-1.2-0.1-1.7-0.1c-0.2,0-0.7,0-1.2,0l0.2-8.1c2.9,0.7,7,1,12.7,1c2,0,4.4-0.1,7.3-0.2
			c-0.1-3.3-0.1-4-0.1-4.9c0-1.4,0-2.2,0.1-4.1c-2.4,0.1-5.5,0.2-7.5,0.2c-2.9,0-4-0.1-10-0.4c-0.6-0.1-1-0.1-1.4-0.1
			c-0.2,0-0.6,0-1,0.1l0.3-8c2.9,0.7,7.1,1,13.2,1c9.6,0,20.2-1,25.9-2.6l0.2,7.9c-1.2,0.1-1.2,0.1-4.7,0.6
			c-2.9,0.4-4.7,0.6-6.7,0.8c-0.2,2-0.2,2.9-0.2,5.3c0,0.1,0.1,2.1,0.1,3.7c4.6-0.4,9.7-1.3,11.9-2.1l0.3,8c-1,0.1-1.2,0.1-2.5,0.3
			c-3.7,0.6-7.2,1-9.7,1.2c0.1,5.4,0.1,7,0.5,12.7c4.8,2.1,8.2,4,11.9,6.7c1,0.7,1.2,0.9,2,1.3L327.7,175.6z M302.5,163.5
			c-4,0-6.9,1.9-6.9,4.6s2.5,4.4,6.7,4.4c4.7,0,6.8-1.8,6.8-5.8c0-0.6-0.1-2.2-0.1-2.2C306.3,163.7,305,163.5,302.5,163.5z"/>
		<path class="st3" d="M287.2,203.2c-0.4,2.1-0.6,4.2-0.9,9.9c-0.3,6.8-0.7,21.7-0.7,26.9c0,7,0.4,9.6,1.9,11.8
			c1.7,2.4,5.2,3.8,9.8,3.8c7.9,0,14.3-4.5,17.7-12.5c1.6-3.8,2.6-7.3,3.4-12.3c4,3.2,5.3,4,8.9,5.6c-2.9,9.9-5.1,14.7-8.7,18.7
			c-5.5,6.2-12.7,9.3-22,9.3c-5.1,0-9.7-1.2-12.8-3.2c-5.1-3.4-7.2-9-7.2-18.8c0-3.8,0.1-11.1,0.6-29.5c0.1-2.2,0.1-3.7,0.1-4.8
			c0-2.1-0.1-3.1-0.3-5L287.2,203.2z"/>
		<path class="st3" d="M293.7,286.7c-0.2,0.7-0.4,1.5-0.6,2.3c-0.1,1-0.2,1.3-0.4,2.5c-0.2,1.5-0.2,1.5-1.2,7
			c-0.3,1.6-0.3,1.8-0.5,2.7c2.1-0.1,3.2-0.2,4.5-0.2c4.8,0,8.4,1.3,10.8,3.9c2.5,2.8,3.4,6.3,3.4,13c0,12.6-2.1,22.6-5.6,26.7
			c-2.1,2.4-4.2,3.3-8.1,3.3c-3.4,0-6.4-0.6-11.3-2.1c0.1-1.5,0.1-2.5,0.1-3.2c0-1.9-0.1-3.4-0.7-6.2c4,1.8,8.1,2.9,10.7,2.9
			c2.1,0,3.3-1.4,4.4-5c1.2-3.8,1.9-10.5,1.9-16.7c0-6.7-1.7-8.7-7.5-8.7c-1.5,0-2.6,0.1-4.2,0.2c-2.2,8.9-2.9,11.1-4.5,15.9
			c-2.6,7.3-4.5,12-8.8,20.6c-0.4,0.7-0.4,0.7-1.1,2.2c-0.2,0.4-0.2,0.5-0.6,1.2l-8.5-4.7c2.2-2.9,5.1-8.2,7.6-13.8
			c3.2-7.2,4.2-10.3,7.1-20.7c-3.7,0.4-10.7,1.7-13.1,2.3l-0.9-8.6c2.7,0,11.6-0.9,15.6-1.5c1.3-7.9,1.9-12.4,1.9-14.8
			c0-0.3,0-0.8,0-1.4L293.7,286.7z M318,296.1c7.3,8.6,11.9,17.3,15.1,28.6l-8.4,4.2c-1.4-6.3-3.1-11.1-5.9-16.6
			c-2.6-5.4-5-8.8-8.4-12.5L318,296.1z"/>
		<path class="st3" d="M290.8,407.4c-4.8,8.9-8.2,18.2-8.4,23.5l-8.5,0.4c-0.1-1-0.1-1.4-0.5-2.8c-1.8-8.3-2.6-15.5-2.6-23.8
			c0-8.3,0.4-12.6,2.7-27.8c0.4-3.1,0.5-3.9,0.5-5.4l9.7,1c-0.9,2.9-1.3,4.6-2.1,8.9c-1.2,6.2-1.5,8.3-1.9,14.4
			c-0.4,4.8-0.5,7-0.5,8.4c0,0.2,0,1.1,0.1,2.3c0,0.8,0,2.1,0.1,5.6c0,0.6,0,1,0,1.3c0.1,1.2,0.1,1.6,0.1,2.8
			c1.2-4,3.1-8.8,4.8-12.1L290.8,407.4z M289,386.3c3.2,0.7,7.1,1,13,1c2.8,0,4-0.1,7.8-0.3c-0.4-12.9-0.5-13.6-1-16.2l9.3-0.1
			c-0.1,1.2-0.1,1.6-0.1,2.5c0,0.7,0,1.4,0.1,4.7c0,0.8,0.1,3.6,0.3,8.3c5.2-0.8,8.4-1.6,10.9-2.8l0.5,8.7c-1.2,0.1-1.7,0.2-4.1,0.7
			c-3.3,0.7-4,0.9-7.1,1.2c0.1,1.5,0.1,2.2,0.1,3.5c0,7.8-0.5,13.8-1.5,17.5c-1.6,6.1-4.2,10.5-8.4,14.2c-2.3,2-4.2,3.4-8,5.6
			c-2.6-3.3-3.7-4.4-7.1-6.9c5-2.3,8.4-4.7,11.2-8c3.8-4.6,5.1-9.7,5.1-20.6c0-1.5,0-2.2-0.1-4.6c-2.5,0.2-6.3,0.3-10,0.3
			c-2.1,0-4.8-0.1-6.7-0.1c-2.1-0.1-2.4-0.1-3.3-0.1c-0.3,0-0.7,0-1.1,0V386.3z"/>
		<path class="st3" d="M191.2,120.5c0-1.5-0.1-2.9-0.4-4.3h8.4c-0.3,1.4-0.4,2.8-0.4,4.3v1.9h15.4v-1.9c0-1.5-0.1-2.9-0.4-4.3h8.4
			c-0.2,1.3-0.4,2.8-0.4,4.3v1.9h9.6c3.8,0,6.2-0.1,8.5-0.4v8.2c-2.3-0.3-4.5-0.4-8.5-0.4H222v1.7c0,1.6,0.1,2.6,0.3,4H214
			c0.1-1.2,0.2-2.3,0.2-3.8v-1.8h-15.4v1.5c0,1.9,0.1,2.9,0.2,4.1h-7.4l6.8,2.9c-0.4,0.6-0.5,0.7-1,1.6c-1.7,3.3-2.5,4.6-4.2,7.3
			v27.5c0,2.9,0.1,5.3,0.5,8.2H185c0.4-2.9,0.4-4.8,0.4-8.2v-10.6c0-2.3,0.1-5.2,0.2-7.8c-2.6,3.2-5,5.4-9.1,8.4
			c-1-2.9-2.2-5.1-4.2-7.7c8.3-5.1,15.9-14.1,18.4-22l0.3,0.1c0.1-1.2,0.2-2.3,0.2-3.7v-1.7h-8.4c-4.1,0-6.3,0.1-8.6,0.4V122
			c2.4,0.3,4.8,0.4,8.6,0.4h8.4V120.5z M214.4,172.4c0,0.9,0.2,1.3,0.8,1.6c0.8,0.4,3.2,0.7,6.2,0.7c6.3,0,8.6-0.4,9.5-1.5
			c0.9-1.2,1.3-4.4,1.6-11.5c3,1.7,4.3,2.2,7.8,3.1c-1.1,9.9-1.5,11.6-2.9,13.7c-2,2.7-5.7,3.4-17.4,3.4c-11.6,0-13.6-1.1-13.6-7.5
			v-29.7c0-3.7-0.1-5.3-0.4-7.7h8.7c-0.3,2.4-0.4,4.3-0.4,7.4v7.6c7-3.2,13.9-8.1,17.4-11.9l6.3,5.9c-1.2,0.7-1.2,0.7-3.4,2.4
			c-2.6,1.9-8,5.4-10.8,7c-3.3,1.9-3.7,2.1-9.5,4.8V172.4z"/>
		<path class="st3" d="M211.6,201.1c-0.4,2.1-0.4,3.6-0.4,10.3c0,11.7,1.1,18.5,4,25c3.2,7,8.2,12.9,14.3,17.1
			c3.7,2.5,6.9,4.1,11.6,5.9c-2.6,3-3.7,4.5-5.3,8.1c-7.1-3.2-12.7-7-17.7-11.9c-5.2-5.3-8.8-11.6-11.1-19.6
			c-2.3,8.9-6.3,15.7-12.3,21.2c-4.2,3.9-8.9,7-16,10.2c-1.4-3.2-2.7-5.1-5.4-7.7c9.8-3.6,16.8-8.4,21.2-15c3-4.4,5.4-10.6,6.5-16.7
			c1-5.6,1.5-11.3,1.5-19.3c0-4.1-0.1-5.9-0.4-7.7H211.6z M176.3,233.3c2.9-4,4.1-6.2,5.7-10.3c1.3-3.5,2.1-5.9,3-11l8,2.7
			c-1.2,5.2-2,7.9-3.6,12.1c-1.8,4.6-2.9,6.7-5.6,10.8L176.3,233.3z M218.3,231.9c5.1-7.2,7.8-12.2,10.7-20.3l8.1,3.7
			c-4.3,9.6-6.2,13-11.7,21L218.3,231.9z"/>
		<path class="st3" d="M211.3,309.8c1.8,6.6,5.7,13.7,10.5,19.2c5.4,6.2,11.5,10.3,20.2,13.9c-2.5,2.9-3.5,4.5-5.3,8.4
			c-7.8-4-12.9-7.8-18.1-13.4c-4.8-5.1-8.4-10.9-11.1-17.7c-2.2,7.5-6.1,13.8-11.9,19.6c-5,4.9-10.3,8.4-17.5,11.5
			c-1.2-2.8-2.8-5.1-5.1-7.7c5.3-2.1,8.2-3.7,11.9-6.2c9.8-7,14.7-15.2,16.5-27.6H184c-4.6,0-6.7,0.1-9.2,0.5V301
			c2.3,0.4,4.9,0.5,9.2,0.5H202c0.1-3.7,0.2-4.8,0.2-8.6c0-3.1-0.2-5.3-0.5-7.3h9.7c-0.4,2.6-0.4,3.7-0.5,8.6c0,3-0.1,4.7-0.1,7.4
			h19.4c4.2,0,6.7-0.1,9.2-0.5v9.3c-2.9-0.4-5.1-0.5-9.2-0.5H211.3z"/>
		<path class="st3" d="M188.5,392.5c-4.5,2.9-6.6,4-11.7,6.3c-1.2-2.9-2.4-5-4.2-7.5c7.9-3.1,12.8-5.9,18.4-10.2
			c4.8-3.7,8.6-7.6,11.6-12.3h8.7c3.9,5.4,6.8,8.3,12.4,12.2c6.2,4.4,12.2,7.5,18.8,9.9c-2.1,3.2-3,5.2-4,8.2
			c-4.6-2-7.4-3.4-12.5-6.7v5.7c-1.9-0.2-3.8-0.3-6.6-0.3h-24.5c-2.1,0-4.3,0.1-6.3,0.3V392.5z M184.5,411.4c-3.7,0-6.2,0.1-8.6,0.4
			v-8.5c2.4,0.3,5.2,0.4,8.6,0.4h45.6c3.6,0,6.2-0.1,8.6-0.4v8.5c-2.4-0.3-4.9-0.4-8.6-0.4H205c-2.3,5.3-4.5,9.7-7.6,14.2
			c13-0.7,13-0.7,23.2-1.8c-2.3-2.6-3.6-3.9-7.7-8.1l7.3-3.2c7.8,7.9,11,11.6,16.9,19.6l-7,4.6c-2.4-3.6-3.2-4.6-4.4-6.4
			c-6.1,0.8-10.5,1.3-13.2,1.6c-7.3,0.7-21.8,2-24.7,2.2c-4.1,0.3-7.8,0.7-9.5,1l-1.2-8.9c2,0.1,3.2,0.2,4.2,0.2
			c0.5,0,2.7-0.1,6.4-0.3c3.6-5.4,5.9-9.7,7.8-14.7H184.5z M219.2,390.2c1.2,0,1.8,0,3.2-0.1c-6.7-4.6-10.9-8.4-15.3-14.2
			c-3.9,5.2-8.4,9.5-15.2,14.2c1.2,0.1,1.7,0.1,3,0.1H219.2z"/>
	</g>
	<g>
		<g>
			<path class="st3" d="M142.5,796.6c0.2-1.4,0.3-2.7,0.3-4.5v-19.1h-1.7c-1.3,0-2.3,0.1-3.6,0.2v-4.4c1.1,0.2,1.8,0.2,3.5,0.2h3.2
				c1.8,0,2.3,0,3.5-0.2c-0.2,2-0.3,3.6-0.3,5.7V792c0,1.8,0.1,3.1,0.3,4.5H142.5z"/>
			<path class="st3" d="M164.6,789.9c0.4,1,0.7,1.5,1.1,1.9c0.9,0.9,2.2,1.4,4,1.4c1.7,0,3-0.5,3.9-1.4c1.7-1.7,2.5-4.2,2.7-8.3
				c-0.7,1-1,1.4-1.8,2c-1.6,1.1-3.3,1.6-5.6,1.6c-5.8,0-9.4-3.5-9.4-9.1c0-3.5,1.6-6.4,4.4-8.2c1.6-1,3.7-1.5,6.1-1.5
				c4.4,0,8.1,2.6,9.6,6.8c0.7,1.9,1,4.3,1,7.2c0,5.2-1.4,9.8-3.7,12.1c-1.8,1.8-4.1,2.6-7.4,2.6c-2.9,0-5-0.6-6.7-2
				c-1.2-0.9-1.8-1.8-2.8-3.9L164.6,789.9z M175.5,777.7c0-3.3-2.4-5.6-5.8-5.6c-3.3,0-5.7,2.4-5.7,5.7c0,3.4,2.2,5.6,5.5,5.6
				C172.9,783.3,175.5,780.9,175.5,777.7z"/>
			<path class="st3" d="M188.6,772.3c0-1.6,0-2.5-0.1-3.5c0.8,0.1,1.4,0.1,3.1,0.1h4.2c1.6,0,2.2,0,3-0.1c-0.1,0.8-0.1,1.4-0.1,3.4
				v19.9c0,1.8,0,2.6,0.1,3.5h-3.5v-1.7h-3.2v2.9h-3.6c0.1-1.1,0.2-2.3,0.2-4.1V772.3z M192.1,779.5h3.1v-7.3h-3.1V779.5z
				 M192.1,790.5h3.1v-7.8h-3.1V790.5z M204.1,774.1c-2.9,0.1-2.9,0.1-3.7,0.2v-3.7c1,0.1,2.1,0.2,3.6,0.2h3.1v-0.9
				c0-1-0.1-1.7-0.2-2.6h4c-0.1,0.8-0.2,1.5-0.2,2.6v0.9h3.8c1.5,0,2.6-0.1,3.6-0.2v3.7c-1-0.1-2-0.2-3.6-0.2h-3.8v3.3h4.8
				c1.7,0,2.9-0.1,3.8-0.2v3.7c-0.9-0.1-1.9-0.2-3.4-0.2h-0.6v3h0.5c1.7,0,2.6,0,3.4-0.2v3.8c-1-0.2-1.9-0.2-3.4-0.2h-0.5v7.8
				c0,2-0.3,2.8-1.4,3.3c-0.9,0.4-2.1,0.6-3.8,0.6c-0.3,0-0.3,0-2.7,0c-0.1-1.5-0.3-2.5-0.8-3.6c0.9,0.1,2.7,0.3,3.9,0.3
				c1.1,0,1.3-0.2,1.3-0.9V787h-8.3c-1.3,0-2.6,0.1-3.7,0.2v-3.8c0.9,0.1,2,0.2,3.8,0.2h8.2v-3h-8.2c-1.5,0-2.7,0.1-3.8,0.2v-3.7
				c0.9,0.1,2.2,0.2,3.9,0.2h3.6v-3.3H204.1z M205.4,795.1c-1.4-2.3-2.7-4-4.4-5.7l3-1.9c1.7,1.5,3.1,3.1,4.5,5.3L205.4,795.1z"/>
			<path class="st3" d="M227.6,783c1.3-1.6,1.9-2.1,3.4-3.1c2.1-1.3,3.7-1.8,5.7-1.8c1.6,0,3,0.3,4.5,1c0.9,0.5,0.9,0.5,3.2,1.9
				c2.6,1.7,4.5,2.4,6.1,2.4c0.7,0,1.7-0.3,2.6-0.7c1.5-0.8,2.4-1.5,3.6-3.2l2.8,2.8c-1.4,1.8-2.2,2.5-3.3,3.4c-1.8,1.3-3.8,2-6,2
				c-1,0-2.1-0.2-3.1-0.5c-1.4-0.5-2-0.8-4.8-2.6c-3.1-1.9-4.1-2.4-6-2.4c-2.3,0-3.9,0.8-6,3.2L227.6,783z"/>
			<path class="st3" d="M272.1,796.6c-2.7,0-3.3,0-4.5,0.2c0.2-2,0.5-3.2,0.9-4.4c0.9-2.5,2.5-4.8,4.8-6.8c1.2-1.1,2.3-1.9,5.7-4.2
				c3.2-2.2,4.2-3.3,4.2-5.1c0-2.4-1.8-3.8-4.8-3.8c-2,0-3.5,0.7-4.4,2c-0.6,0.8-0.8,1.6-1.1,3.2l-5-0.6c0.5-2.6,1.1-4.1,2.4-5.6
				c1.7-2,4.5-3.1,8-3.1c6.1,0,9.8,2.9,9.8,7.7c0,2.3-0.8,4-2.5,5.6c-1,0.9-1.3,1.2-5.8,4.3c-1.5,1.1-3.3,2.5-4.1,3.5
				c-1,1.1-1.5,1.8-2,3.1h9.7c2.2,0,3.9-0.1,5.1-0.3v4.6c-1.6-0.1-3-0.2-5.2-0.2H272.1z"/>
			<path class="st3" d="M301.5,796.6c0.2-1.4,0.3-2.7,0.3-4.5v-19.1h-1.7c-1.3,0-2.3,0.1-3.6,0.2v-4.4c1.1,0.2,1.8,0.2,3.5,0.2h3.2
				c1.8,0,2.3,0,3.5-0.2c-0.2,2-0.3,3.6-0.3,5.7V792c0,1.8,0.1,3.1,0.3,4.5H301.5z"/>
			<path class="st3" d="M318.7,772.3c0-1.6,0-2.5-0.1-3.5c0.8,0.1,1.4,0.1,3.1,0.1h4.2c1.6,0,2.2,0,3-0.1c-0.1,0.8-0.1,1.4-0.1,3.4
				v19.9c0,1.8,0,2.6,0.1,3.5h-3.5v-1.7h-3.2v2.9h-3.6c0.1-1.1,0.2-2.3,0.2-4.1V772.3z M322.1,779.5h3.1v-7.3h-3.1V779.5z
				 M322.1,790.5h3.1v-7.8h-3.1V790.5z M334.1,774.1c-2.9,0.1-2.9,0.1-3.7,0.2v-3.7c1,0.1,2.1,0.2,3.6,0.2h3.1v-0.9
				c0-1-0.1-1.7-0.2-2.6h4c-0.1,0.8-0.2,1.5-0.2,2.6v0.9h3.8c1.5,0,2.6-0.1,3.6-0.2v3.7c-1-0.1-2-0.2-3.6-0.2h-3.8v3.3h4.8
				c1.7,0,2.9-0.1,3.8-0.2v3.7c-0.9-0.1-1.9-0.2-3.4-0.2h-0.6v3h0.5c1.7,0,2.6,0,3.4-0.2v3.8c-1-0.2-1.9-0.2-3.4-0.2h-0.5v7.8
				c0,2-0.3,2.8-1.4,3.3c-0.9,0.4-2.1,0.6-3.8,0.6c-0.3,0-0.3,0-2.7,0c-0.1-1.5-0.3-2.5-0.8-3.6c0.9,0.1,2.7,0.3,3.9,0.3
				c1.1,0,1.3-0.2,1.3-0.9V787h-8.3c-1.3,0-2.6,0.1-3.7,0.2v-3.8c0.9,0.1,2,0.2,3.8,0.2h8.2v-3h-8.2c-1.5,0-2.7,0.1-3.8,0.2v-3.7
				c0.9,0.1,2.2,0.2,3.9,0.2h3.6v-3.3H334.1z M335.4,795.1c-1.4-2.3-2.7-4-4.4-5.7l3-1.9c1.7,1.5,3.1,3.1,4.5,5.3L335.4,795.1z"/>
		</g>
	</g>
</g>
</svg>
