<?xml version="1.0" encoding="utf-8"?>
<!-- Generator: Adobe Illustrator 25.0.1, SVG Export Plug-In . SVG Version: 6.00 Build 0)  -->
<svg version="1.1" xmlns="http://www.w3.org/2000/svg" xmlns:xlink="http://www.w3.org/1999/xlink" x="0px" y="0px"
	 viewBox="0 0 375 375" style="enable-background:new 0 0 375 375;" xml:space="preserve">
<style type="text/css">
	.st0{fill:#9DCDD8;}
	.st1{clip-path:url(#SVGID_2_);fill:#F7F8F8;}
	.st2{clip-path:url(#SVGID_2_);fill:#FCEEC8;}
	.st3{fill:#FCEEC8;}
	.st4{fill:none;stroke:#FFFFFF;stroke-width:0.5669;stroke-miterlimit:10;}
	.st5{fill:#B3881C;}
	.st6{fill:#9A3F24;}
	.st7{fill:#D81618;}
	.st8{fill:#430312;}
	.st9{fill:#224A9E;}
	.st10{fill:#4C4B4C;}
	.st11{fill:#B5B5B6;stroke:#898989;stroke-miterlimit:10;}
	.st12{display:none;}
</style>
<g id="海">
	<rect class="st0" width="375" height="375"/>
</g>
<g id="北木島_xFF1A_星駆町">
	<g>
		<defs>
			<rect id="SVGID_1_" y="-3.7" width="375" height="375"/>
		</defs>
		<clipPath id="SVGID_2_">
			<use xlink:href="#SVGID_1_"  style="overflow:visible;"/>
		</clipPath>
		<polygon class="st1" points="107.6,221 8.2,241.6 6.3,253.7 106,233.6 		"/>
		<path class="st2" d="M-113,218.1c-8.5,6.9-27-1.6-25.2,9.3c0.9,5.4-41.5,0.6-40.4,6c1.1,5.4,1,45-2.7,49.1
			c-1.7,1.9,53.5,18.4,51.8,20.3c-1.7,1.9,16.4-3.6,17.8-1.5c0.8,1.3,2.4,2,3.8,2.6c6.2,2.6,13.5,5.1,19.4,2
			c2.8-1.5,5.2-4.2,8.4-4.4c2.8-0.2,5.3,1.6,7.7,3.1c2.1,1.3,4.4,2.5,6.7,3.6c1.6-5.7,3-8.7,5.9-12.8c3.3-4.6,7.8-6.6,12.4-7.3
			c4.6-0.7,11.1-0.7,18.3,2c7.2,2.6,5.9,6.6,11.8,6.6s7.8-11.9,8.5-15.8c0.7-4-1.3-7.3-4.6-9.2c-3.3-2,3.3-5.9,5.9-9.9
			c2.6-4,12.4-7.9,18.3-9.2s10.5,0.7,12.4,6.6c2,5.9,6.5,4.6,6.5,4.6l1.3-5.9c0,0,0.7-7.3-3.3-6.6c-3.9,0.7-2.6-3.3-4.6-7.9
			c-2-4.6,2-5.3,5.2-11.2c3.3-5.9-0.7-7.3-1.3-11.2c-0.7-4-5.9,1.3-11.8-0.7c-5.9-2-6.5-1.3-11.8,2.6c-5.2,4-1.3,11.2-2,17.2
			c-0.7,5.9-6.5,5.9-18.3,5.3c-11.8-0.7-11.8-4.6-15.7-9.2c-3.9-4.6-5.9-2.6-9.1,1.3c-3.3,4-0.7,5.9-0.7,10.6c0,4.6,0,7.3,2.6,12.5
			c2.6,5.3-2,5.3-8.5,4c-6.5-1.3-7.2-8.6-7.2-8.6s-0.7-6.6-3.3-9.9c-2.6-3.3-3.3-7.9-1.3-11.9c2-4-11.1-23.1-16.3-25.7
			c-1.5-0.8-2.4-1.7-3.1-2.7c-0.7,5.5-2.2,10.6-5.8,14.7C-87.9,223.5-109.7,215.3-113,218.1z"/>
	</g>
</g>
<g id="桃源島">
	<path class="st3" d="M350.3,260.4l-4.2-13.1l-3.8-0.5c0.6-1.4-5.3-1.6-10.1-5.4s-5.4-5.7-5.4-5.7s-4.9-3.2-7.7-5.1
		c-2.7-2,0.4-6.3-1.7-7.1c-2.1-0.8-2.4-1.4-2.2-4.8s2.3-2.7,4.4-4.1c2.1-1.4,2,0.4,3.4,2.1c1.4,1.7,2.9-1.9,4.2-4.3
		c1.3-2.3-2.6-3.7-5.1-4.4c-2.5-0.7-2.3-4.2-2.9-7.5c-0.6-3.3,4.1-7.2,6.5-8c2.5-0.8,3.7-2.5,3.4-6.3c-0.3-3.8-5.3-6.3-9.8-6.3
		c-4.5,0-6-1.1-9.4-2.7c-3.3-1.7-0.8-7.8-0.2-11.4c0.6-3.5-0.1-6.2-1.5-9.4c-1.5-3.2,2.5-4,5.2-6.8c2.7-2.8,4.4-4.1,7-4.4
		c2.5-0.4,2.7,2,3.2,3.4c0.5,1.4,4.5,2.1,7.9,3.2c3.4,1,2.1-1.4,6.8,0.5c4.7,1.9,3.4-0.1,4-5.1c0.6-5,1.2-2.8,3.8-6.4
		c2.6-3.6,2-5.4,0.6-8.7c-1.5-3.2,1.5-3.7-0.9-8.3s-4.9-9-8.1-11.3c-3.2-2.3-3.6-4.4-2.1-8.1c1.5-3.7,1.7-3.5-0.2-8.1
		c-1.9-4.7-4.8-2.7-8.7-5.2c-3.9-2.4-0.1-3-5.2-4.8c-5.1-1.8-5.3-0.5-6.7-3.3c-1.4-2.8-2.6-1.1-3.7,1c-1.1,2.1-0.8,1.6-3.3,2
		c-2.5,0.4-4.4,3-7.7,6.1c-3.3,3.1-9.9,1.2-9.9,1.2s-3.3,0.9-6.7,4.6c-3.4,3.7-6.4,0.5-6.4,0.5s-4.4,0.8-9.5,3.7
		c-5.1,2.9-6.5,2.2-9.2,0.7c-2.7-1.5-5.7,2.1-4.1,4.7c1.6,2.6-0.1,4.3-2.8,8.1c-2.7,3.8-5.5,0.8-11.3,2.1c-5.8,1.3-9.1-1.1-12,1.5
		c-3,2.6-9.5-1-12.7-1.8c-3.2-0.8-7.1-2.2-11.5-2.4c-4.4-0.2-4.9,3.7-6.2,6.5c-1.2,2.8,3.1,3.6,1.2,7.8c-1.8,4.1-9.8,5.3-14.2,6.1
		c-4.4,0.8-2.7-3-2.7-3s-11.5,1.2-16.7,2.2c-5.2,1-5.7,0.6-9.9,2.7c-4.2,2.1-10.7,2.8-14.9,2.4c-4.2-0.5-4.2,0.6-7.5,1.5
		c-3.3,0.9-9.6,6.5-13,8.1c-3.4,1.6,0.6,5.5-0.1,8.6c-0.7,3.1,4.1,4.4,6.4,7.5c2.3,3.1-1.4,5.1-5.7,10.1c-4.3,4.9-11,7.4-15,7.8
		s-4.4,1.9-6.1,4.3c-1.7,2.4-7,4.4-8.7,5.3c-1.8,0.9,0.3,5.3-1.1,7.9c-1.5,2.6-5.4,4.4-8,4.8c-2.5,0.4-5.1,6.1-5.3,7.9
		c-0.1,1.7,4.7,3.4,8.2,5.9c3.5,2.5,1.9,3.2,2.2,5.9c0.3,2.8,3.2,8.1,4.8,9.6c1.6,1.5,8.6,0.7,12.7-0.3c4.1-1,6,2.1,6,2.1l12.1,3.6
		c0,0,3.3,2.7,1.9,5.3c-1.5,2.6-2,4.4-1,6.2c1,1.8,2.2,2.7,1.6,6.2c-0.6,3.5,3.1,1.5,6.3,2.3c3.2,0.8,0.7-1,0.8-3.8
		c0.1-2.8,3.1-3.2,3.3-7.8c0.2-4.5-3.5-5.1-3.2-8.1c0.3-3.1,3.6-5,4.9-7.4c1.3-2.3,2.4-2.3,1.2-4.3c-1.2-2,1.8-2,6.8-4.2
		c5-2.2,4.6,2.6,6.5-0.1c1.9-2.6,4-1.9,5.9-3c2-1.1,1.7-2.4-0.5-5.1c-2.2-2.7-0.2-4.5-0.4-6.8c-0.2-2.3,5.4-9.6,5.4-9.6l16.8-1.8
		c0,0,6.4-2.6,8.7-2.1c2.3,0.5,3.3,2.7,7.4,4.9c4.1,2.2,6.9,0.9,6.9,0.9s-0.2,1.3,1.2,3c1.4,1.7,6,5.4,6,5.4l-1.7,1.3l1.8,6
		c0,0-0.7,6.8,1.8,11.1c2.5,4.4,4.1,6.9,7.5,7.9s2.9,1.7,3.6,5.5c0.7,3.8,1.6,7.7,3.5,10.9c1.9,3.2-1.5,2.2-0.4,4.8
		c1.1,2.6,1.3,2.4,5,5.7c3.6,3.3,4.7,0.8,4.7,0.8s0.7,2.7,3.6,4.4c2.9,1.7,3.8,1.6,6,4.3c2.2,2.7,3.1,4.1,4,6.5c0,0,0,0,0,0.1
		c1.1-0.3,2.2-0.4,3.3-0.4c7.4,0,13.8,5.9,17.4,14.7c1,0.5,1.9,1.2,2.5,2.3c1,1.8,11.7,2.2,14,1c2.4-1.2,3.8,0.5,5.4,1.4
		c1.7,0.8,3.8,0.5,5.4-1.2c1.6-1.7,5.7-0.6,8-0.1c2.3,0.5,2.1,2.9,2.4,4.6c0.3,1.7,4.5,1.1,7.6,0.4c3.1-0.7,8.1-2.9,10.8-4.6
		c2.7-1.7,3.1,1.5,6.8,0.5c3.7-1,1.5-3.7,1.1-5.7s4-2.9,6.4-3.7c2.5-0.8,2.6-2.5,2.5-5.1c0-2.6-2.8-2.4-2.9-5c0-2.6,3.8-4.2,3.8-4.2
		s3.9-5.9,6.3-10.4C351.5,259.8,350.3,260.4,350.3,260.4z"/>
</g>
<g id="マーク">
	<line class="st4" x1="142.3" y1="225.7" x2="159.8" y2="289.3"/>
	<g>
		<polygon class="st5" points="230.7,261.5 258.4,261.5 243,227.6 		"/>
		<polygon class="st5" points="253.3,262 281,262 265.6,228.2 		"/>
		<polygon class="st5" points="241.6,258.7 269.3,258.7 253.9,224.8 		"/>
		<polygon class="st6" points="247.1,262 267.6,262 256.2,236.9 		"/>
	</g>
	<g>
		<rect x="285.1" y="67.3" class="st7" width="44.9" height="7.4"/>
		<rect x="280.9" y="52.2" class="st7" width="54" height="7.3"/>
		<g>
			<polygon class="st7" points="302.5,55.4 295.2,54.7 292.1,87.5 299.4,87.5 			"/>
			<polygon class="st8" points="298.4,98 299.4,87.5 292.1,87.5 291.1,98 			"/>
		</g>
		<g>
			<polygon class="st7" points="312.1,55.4 319.4,54.7 322.5,87.5 315.2,87.5 			"/>
			<polygon class="st8" points="316.2,98 315.2,87.5 322.5,87.5 323.5,98 			"/>
		</g>
	</g>
	<g>
		<path class="st9" d="M120.3,217.5c0.5,4.2,3.9,7.1,7.7,6.5c3.7-0.6,6.3-4.4,5.8-8.6c-0.3-2.9-2.1-5.2-4.4-6.1l0.6-2.5l10.1-1.5
			l0.9,2.1c-2.2,1.5-3.5,4.4-3.1,7.5c0.5,4.2,3.9,7.1,7.7,6.5c3.7-0.6,6.3-4.4,5.8-8.6c-0.5-4.2-3.9-7.1-7.7-6.5
			c-0.5,0.1-0.9,0.2-1.3,0.4l-2.8-6.6c-0.6-1.5-2-2.3-3.4-2.1l-2.3,0.4l0.2,1.7l2.3-0.4c0.8-0.1,1.5,0.3,1.9,1.1l1.3,2.9l-10.6,1.6
			l-0.8,3.6c-0.6-0.1-1.2-0.1-1.8,0C122.4,209.5,119.8,213.4,120.3,217.5z M141.8,209.5l2.1,4.8l1.4-0.7l-2.1-4.8
			c0.2-0.1,0.5-0.1,0.7-0.2c1.3-0.2,2.6,0.2,3.5,1c1,0.8,1.7,2.1,1.8,3.6c0.2,1.5-0.2,2.9-0.9,4c-0.7,1.1-1.9,1.9-3.2,2.1
			c-1.3,0.2-2.6-0.2-3.5-1c-1-0.8-1.7-2.1-1.8-3.6c-0.2-1.5,0.2-2.9,0.9-4C141,210.2,141.4,209.8,141.8,209.5z M122.3,217.2
			c-0.2-1.5,0.2-2.9,0.9-4c0.7-1.1,1.9-1.9,3.2-2.1c0.4-0.1,0.7-0.1,1,0l-1.1,5.1l1.5,0.4l1.1-5.1c0.4,0.2,0.7,0.4,1,0.7
			c1,0.8,1.7,2.1,1.8,3.6c0.2,1.5-0.2,2.9-0.9,4c-0.7,1.1-1.9,1.9-3.2,2.1c-1.3,0.2-2.6-0.2-3.5-1
			C123.1,219.9,122.5,218.7,122.3,217.2z"/>
		<polygon class="st9" points="126.3,204.7 125.5,202.8 130.9,202 130.5,204.1 		"/>
	</g>
	<g>
		<path class="st10" d="M44.7,221.2L44.7,221.2c0.5,0.3,1.1,0.1,1.5-0.4l2.5-3.7l2.8-1.5l1.5,6.2l-1.1,7.4l-3.6,4.1
			c-0.3,0.3-0.4,0.7-0.4,1.1c0,0.4,0.2,0.8,0.5,1l0.1,0.1c0.6,0.5,1.4,0.5,2-0.1l4.3-4.3c0.2-0.2,0.4-0.5,0.6-0.8l1.4-5.9l8.3,7.8
			c0.6,0.5,1.4,0.6,2,0l0,0c0.6-0.5,0.7-1.5,0.1-2.1l-7.6-8.7c-0.3-0.3-0.3-0.6-0.4-1l-1-5.5l1.9,0.8c0.7,0.2,1.4,0.3,2.1,0.3
			l2.8-0.2c0.7,0,1.2-0.6,1.2-1.3l0-0.1c0-0.7-0.5-1.3-1.2-1.3l-3.6-0.2l-4.7-2.7c-0.6-0.4-1.4-0.5-2.1-0.3l-1.2,0.3
			c-1,0.2-1.6,0.7-2.5,1.3l-3.7,3c-0.7,0.5-1.2,1.2-1.5,2l-1.5,3.2C43.8,220.2,44.1,220.9,44.7,221.2z"/>
		<path class="st10" d="M56.2,204.6c-0.6-1.6-2.4-2.5-4-1.9c-1.6,0.6-2.5,2.4-1.9,4c0.6,1.6,2.4,2.5,4,1.9
			C55.9,208.1,56.8,206.3,56.2,204.6z"/>
	</g>
	<path class="st11" d="M81.7,172.2c-0.6-0.1-1.2-0.2-1.6-0.5c-0.8-0.6-0.9-1.8-1-2.9c-0.2-3.6-0.3-7.4,1-10.7
		c0.5-1.4,1.5-2.8,2.9-2.9c1.6-0.1,2.8,1.5,3.6,3c1.7,3.2,3.2,6.5,4.7,9.8c1.3,2.9,1.2,3.9-2,4.3C86.9,172.7,84.2,172.5,81.7,172.2z
		"/>
	<line class="st4" x1="58.6" y1="242.6" x2="58.6" y2="296.1"/>
</g>
<g id="文字">
	<g>
		<g>
			<path d="M286.8,110.3c0.4,1.5,1,2.7,1.9,3.9c1.1,1.4,2.4,2.4,4.2,3.1c-0.2,0.3-0.4,0.5-0.6,0.9c-1-0.5-1.5-0.8-2.1-1.3
				c-1.9-1.5-3.1-3.3-3.9-5.6c-0.4,1.6-0.9,2.8-1.8,3.9c-0.9,1.2-2,2-3.7,2.8c-0.2-0.3-0.3-0.5-0.7-0.8c1.7-0.7,2.8-1.5,3.7-2.6
				c0.9-1.1,1.5-2.4,1.8-4.3h-3.6c-0.6,0-1,0-1.5,0.1v-1c0.4,0.1,0.9,0.1,1.5,0.1h3.7c0.1-0.8,0.1-1.5,0.1-2.5c0-0.5,0-0.9-0.1-1.1
				h1.1c-0.1,0.3-0.1,0.6-0.1,1.1c0,1.1,0,1.7-0.1,2.6h4.4c0.6,0,1.1,0,1.5-0.1v1c-0.4-0.1-0.9-0.1-1.5-0.1H286.8z M290.2,108.8
				c-0.9-1-1.4-1.4-2.3-2l0.7-0.6c0.9,0.7,1.3,1,2.3,1.9L290.2,108.8z"/>
			<path d="M297.1,116.7c0,0.6,0,1,0.1,1.5h-1c0.1-0.4,0.1-0.9,0.1-1.5v-4.2c-0.7,0.7-1,1-1.9,1.7c-0.2-0.4-0.3-0.5-0.5-0.8
				c1.8-1.2,3.2-2.9,4-4.8h-2.5c-0.5,0-0.8,0-1.1,0.1v-0.9c0.3,0.1,0.6,0.1,1.1,0.1h0.8v-1.3c0-0.3,0-0.8-0.1-1.1h1
				c-0.1,0.2-0.1,0.7-0.1,1.1v1.3h0.7c0.4,0,0.6,0,0.8,0l0.4,0.5c-0.1,0.1-0.1,0.1-0.2,0.4c-0.3,0.7-1,1.8-1.6,2.6
				c0.6,0.6,1.1,1.1,2,1.7c-0.2,0.3-0.3,0.5-0.4,0.8c-0.8-0.6-1.2-1-1.7-1.6V116.7z M302.3,107c0-0.6,0-1.1-0.1-1.5h1
				c-0.1,0.5-0.1,0.9-0.1,1.5v0.7h1.8c0.7,0,1,0,1.4-0.1c0,0.3-0.1,0.6-0.1,1.2v4.7c0,0.6,0,0.9,0.1,1.3h-0.9V114h-2.3v2.7
				c0,0.7,0,1.2,0.1,1.6h-1c0.1-0.5,0.1-0.9,0.1-1.6V114h-2.1v0.9h-0.9c0-0.4,0.1-0.7,0.1-1.3v-4.7c0-0.6,0-0.9-0.1-1.2
				c0.3,0,0.7,0.1,1.4,0.1h1.6V107z M300.3,108.5v1.9h2.1v-1.9H300.3z M300.3,111.2v2.1h2.1v-2.1H300.3z M305.4,110.4v-1.9h-2.3v1.9
				H305.4z M305.4,113.2v-2.1h-2.3v2.1H305.4z"/>
			<path d="M311.1,116.7c0,0.6,0,1,0.1,1.5h-1c0.1-0.4,0.1-0.9,0.1-1.5v-4.2c-0.7,0.7-1,1-1.9,1.7c-0.2-0.4-0.3-0.5-0.5-0.8
				c1.8-1.2,3.2-2.9,4-4.8h-2.5c-0.5,0-0.8,0-1.1,0.1v-0.9c0.3,0.1,0.6,0.1,1.1,0.1h0.8v-1.3c0-0.3,0-0.8-0.1-1.1h1
				c-0.1,0.2-0.1,0.7-0.1,1.1v1.3h0.7c0.4,0,0.6,0,0.8,0l0.4,0.5c-0.1,0.1-0.1,0.1-0.2,0.4c-0.3,0.7-1,1.8-1.6,2.6
				c0.6,0.6,1.1,1.1,2,1.7c-0.2,0.3-0.3,0.5-0.4,0.8c-0.8-0.6-1.2-1-1.7-1.6V116.7z M316.3,107c0-0.6,0-1.1-0.1-1.5h1
				c-0.1,0.5-0.1,0.9-0.1,1.5v0.7h1.8c0.7,0,1,0,1.4-0.1c0,0.3-0.1,0.6-0.1,1.2v4.7c0,0.6,0,0.9,0.1,1.3h-0.9V114h-2.3v2.7
				c0,0.7,0,1.2,0.1,1.6h-1c0.1-0.5,0.1-0.9,0.1-1.6V114h-2.1v0.9h-0.9c0-0.4,0.1-0.7,0.1-1.3v-4.7c0-0.6,0-0.9-0.1-1.2
				c0.3,0,0.7,0.1,1.4,0.1h1.6V107z M314.3,108.5v1.9h2.1v-1.9H314.3z M314.3,111.2v2.1h2.1v-2.1H314.3z M319.4,110.4v-1.9h-2.3v1.9
				H319.4z M319.4,113.2v-2.1h-2.3v2.1H319.4z"/>
			<path d="M325.3,116.9c0,0.6,0,1,0.1,1.4h-1c0.1-0.4,0.1-0.8,0.1-1.4v-4.4c-0.7,0.7-1.1,1-1.9,1.7c-0.2-0.3-0.3-0.5-0.5-0.8
				c1-0.6,1.8-1.2,2.5-2.1c0.7-0.8,1.2-1.5,1.7-2.6h-2.6c-0.4,0-0.7,0-1.1,0.1v-0.9c0.4,0,0.7,0.1,1.1,0.1h0.8v-1.3
				c0-0.4,0-0.8-0.1-1.1h1.1c-0.1,0.3-0.1,0.7-0.1,1.1v1.3h0.8c0.4,0,0.6,0,0.8,0l0.4,0.5c-0.1,0.2-0.2,0.3-0.3,0.6
				c-0.4,0.9-0.9,1.6-1.5,2.4c0.7,0.8,1.3,1.3,2.3,1.9c-0.2,0.3-0.3,0.5-0.5,0.8c-0.9-0.6-1.4-1.1-2-1.8V116.9z M330.1,106.8
				c0-0.5,0-0.7-0.1-1.3h1.1c-0.1,0.5-0.1,0.8-0.1,1.3v3h1.8c0.6,0,1,0,1.4-0.1v1c-0.4,0-0.9-0.1-1.4-0.1H331v6h2.2
				c0.7,0,1.1,0,1.5-0.1v1.1c-0.5-0.1-0.9-0.1-1.5-0.1h-5c-0.6,0-1.1,0-1.5,0.1v-1.1c0.4,0.1,0.8,0.1,1.5,0.1h1.9v-6h-1.4
				c-0.5,0-0.9,0-1.4,0.1v-1c0.4,0.1,0.8,0.1,1.4,0.1h1.4V106.8z"/>
		</g>
	</g>
	<g>
		<g>
			<path d="M235.9,270.9c-0.9,1.1-1.2,1.5-1.9,2.1c0.6,1.5,1,3.3,1,5.4c0,2.1-0.2,3.5-0.6,4c-0.2,0.3-0.5,0.4-1,0.4
				c-0.4,0-0.8-0.1-1.5-0.2c0-0.4,0-0.6-0.1-0.9c0.6,0.2,1.3,0.3,1.6,0.3c0.3,0,0.5-0.2,0.6-0.8c0.1-0.6,0.2-1.8,0.2-3.1
				c0-0.4,0-0.9-0.1-1.5c-0.7,1-1.4,1.8-2.5,2.5c-0.2-0.3-0.3-0.5-0.5-0.7c1.3-0.9,2.1-1.7,2.9-3c-0.1-0.7-0.3-1.3-0.5-2
				c-0.6,0.5-1,0.8-1.8,1.2c-0.2-0.3-0.3-0.5-0.6-0.7c0.9-0.4,1.3-0.7,2-1.2c-0.3-0.7-0.8-1.2-1.2-1.6c-0.1-0.1-0.1-0.1-0.1-0.1
				l0.7-0.5c0.8,0.9,0.9,1.1,1.3,1.7c0.7-0.6,1.1-1.2,1.5-1.9L235.9,270.9z M239.3,278c-0.4,0.5-0.6,0.7-1.1,1.1v2.6
				c0.9-0.2,1.3-0.3,2.5-0.6v0.8c-1.8,0.5-2.5,0.7-4.4,1c-0.2,0-0.4,0.1-0.6,0.1l-0.2-0.9c0.5,0,0.9-0.1,1.8-0.2v-2.2
				c-0.6,0.4-1,0.6-1.9,1c-0.1-0.3-0.2-0.4-0.4-0.7c1.4-0.5,2.4-1.1,3.3-2h-0.9c-0.6,0-0.9,0-1.3,0.1c0-0.3,0.1-0.6,0.1-1v-1
				c0-0.4,0-0.6-0.1-0.9c0.4,0.1,0.7,0.1,1.3,0.1h4.2c0.5,0,0.9,0,1.3-0.1c0,0.3-0.1,0.5-0.1,1v1c0,0.4,0,0.6,0.1,0.9
				c-0.3,0-0.7-0.1-1.3-0.1h-1.4c0.3,0.7,0.5,1.1,0.9,1.7c1-0.6,1.5-1,2-1.7l0.7,0.5c-0.8,0.8-1.4,1.2-2.2,1.7
				c0.8,0.9,1.6,1.4,2.8,1.8c-0.3,0.3-0.4,0.4-0.6,0.8C241.6,281.9,240.4,280.5,239.3,278L239.3,278z M239.1,272.5h-1.6
				c-0.7,0-1,0-1.4,0.1v-0.9c0.4,0.1,0.7,0.1,1.4,0.1h1.6v-0.2c0-0.5,0-0.8-0.1-1.1h1c-0.1,0.3-0.1,0.6-0.1,1.1v0.2h1.9
				c0.8,0,1.1,0,1.5-0.1v0.9c-0.4-0.1-0.8-0.1-1.4-0.1h-1.9v1.2h2.7c0.6,0,0.9,0,1.3-0.1v0.9c-0.4-0.1-0.7-0.1-1.3-0.1h-6
				c-0.6,0-1,0-1.4,0.1v-0.9c0.4,0.1,0.7,0.1,1.4,0.1h2.4V272.5z M237.1,277.4h4.9V276h-4.9V277.4z"/>
			<path d="M247.7,272.2c-0.7,0-1.1,0-1.6,0.1v-1c0.4,0.1,0.9,0.1,1.6,0.1h8.1c0.7,0,1.2,0,1.6-0.1v1c-0.5-0.1-0.9-0.1-1.6-0.1h-3.6
				v3.7h2.9c0.7,0,1.1,0,1.5-0.1v1c-0.4,0-0.8-0.1-1.5-0.1h-2.9v4.4h4.2c0.7,0,1.1,0,1.6-0.1v1.1c-0.4-0.1-0.9-0.1-1.6-0.1h-9.1
				c-0.7,0-1.1,0-1.6,0.1v-1.1c0.5,0.1,0.9,0.1,1.6,0.1h3.9v-4.4h-2.7c-0.6,0-1.1,0-1.5,0.1v-1c0.4,0.1,0.8,0.1,1.5,0.1h2.7v-3.7
				H247.7z"/>
			<path d="M259.7,273.8c1,0.6,1.6,1,2.4,1.8l-0.6,0.8c-0.9-0.9-1.4-1.4-2.4-1.9L259.7,273.8z M262.1,278.4c-0.7,1.6-1,2.3-1.8,3.7
				c0,0-0.1,0.2-0.2,0.3c-0.1,0.1-0.1,0.2-0.2,0.3l-0.8-0.7c0.7-0.7,1.5-2.2,2.2-4.1L262.1,278.4z M260.4,270.4c1,0.6,1.5,1,2.2,1.8
				l-0.5,0.7c-0.8-0.8-1.3-1.3-2.3-1.9L260.4,270.4z M263,272.4c0-0.8,0-1.1-0.1-1.6c0.3,0,0.3,0,1.5,0.1h5.5c0.8,0,1.3,0,1.5-0.1
				c0,0.3-0.1,1.1-0.1,1.6v9.4c0,0.8-0.3,1-1.4,1c-0.3,0-0.9,0-1.3,0c0-0.4-0.1-0.6-0.2-0.9c0.5,0.1,1.1,0.1,1.4,0.1
				c0.5,0,0.6-0.1,0.6-0.3v-10h-6.7v9.2c0,1.2,0,1.6,0.1,2.1h-1.1c0.1-0.4,0.1-0.9,0.1-2.1V272.4z M269.9,274.1
				c-0.3-0.1-0.6-0.1-1.2-0.1h-2.8c-0.6,0-0.9,0-1.3,0.1v-0.9c0.4,0.1,0.6,0.1,1.3,0.1h2.8c1,0,1,0,1.3-0.1V274.1z M269.2,278.6
				c0,0.5,0,0.7,0,1c-0.3,0-0.5,0-1,0h-2.2v1h-0.9c0-0.4,0.1-0.6,0.1-1.2v-2.9c0-0.4,0-0.7,0-1c0.3,0,0.5,0,1,0h1.9
				c0.5,0,0.9,0,1.1,0c0,0.1,0,0.6,0,1V278.6z M266.1,278.9h2.3v-2.6h-2.3V278.9z"/>
			<path d="M277.9,283.2c-1.1-1.2-1.5-1.9-1.9-3c-0.5-1.1-0.7-2.2-0.7-3.4s0.2-2.3,0.7-3.4c0.5-1.1,0.9-1.8,1.9-3h1.2
				c-1.2,1.2-1.6,1.8-2.1,2.9c-0.5,1.1-0.8,2.3-0.8,3.6c0,1.3,0.3,2.4,0.8,3.6c0.5,1.1,1,1.7,2.1,2.9H277.9z"/>
			<path d="M282.4,274.6c-0.3,0-0.5,0-0.8,0.1v-0.8c-0.3,0.3-0.4,0.4-0.7,0.7c-0.2-0.3-0.3-0.5-0.5-0.7c1.2-1,2-2.1,2.4-3.3h1
				c0.4,1,1.1,1.9,1.8,2.4c-0.2,0.2-0.3,0.4-0.5,0.7c-0.8-0.8-1.3-1.4-1.8-2.5c-0.4,0.9-0.9,1.7-1.7,2.6c0.2,0,0.4,0,0.8,0h1.9
				c0.4,0,0.6,0,0.8-0.1v0.8c-0.2,0-0.4-0.1-0.8-0.1h-0.7v1.5h0.8c0.5,0,0.8,0,1.1-0.1v0.9c-0.3-0.1-0.6-0.1-1.1-0.1h-0.8v4.2
				c0.7-0.2,1-0.3,1.8-0.6v0.8c-1.4,0.5-2.5,0.8-4,1.1c-0.4,0.1-0.5,0.1-0.8,0.2l-0.2-0.9c0.6,0,1.3-0.2,2.4-0.5v-4.4h-1.1
				c-0.5,0-0.8,0-1.1,0.1V276c0.3,0.1,0.6,0.1,1.1,0.1h1.1v-1.5H282.4z M281.4,280.7c-0.2-1.2-0.4-2-0.7-3l0.7-0.2
				c0.3,1,0.5,1.7,0.7,3L281.4,280.7z M284.1,279.9c0.3-0.8,0.5-1.4,0.6-2.4l0.7,0.2c-0.2,1-0.4,1.5-0.7,2.3L284.1,279.9z
				 M288.7,271.9c-1.1,0.1-1.5,0.1-2.7,0.2c-0.1-0.3-0.1-0.5-0.3-0.8c0.3,0,0.5,0,0.7,0c2,0,4.7-0.4,5.6-0.8l0.6,0.7
				c-0.8,0.2-2.1,0.4-3.1,0.5v1.1h2.2c0.6,0,0.9,0,1.3-0.1v0.9c-0.4,0-0.8-0.1-1.2-0.1h-2.2v1h1.7c0.5,0,0.9,0,1.3,0
				c0,0.3,0,0.5,0,1.2v2c0,0.8,0,1,0,1.3c-0.4,0-0.7,0-1.3,0h-1.7v1h1.9c0.6,0,1,0,1.3-0.1v0.9c-0.4-0.1-0.8-0.1-1.3-0.1h-1.9v1.1
				h2.2c0.6,0,1,0,1.4-0.1v0.9c-0.4-0.1-0.8-0.1-1.5-0.1h-4.9c-0.6,0-1,0-1.4,0.1v-0.9c0.4,0.1,0.7,0.1,1.4,0.1h2v-1.1h-1.6
				c-0.5,0-0.9,0-1.2,0.1V280c0.3,0,0.6,0.1,1.2,0.1h1.6v-1h-1.5c-0.6,0-1,0-1.2,0c0-0.3,0-0.6,0-1.3v-2c0-0.5,0-0.8,0-1.2
				c0.4,0,0.7,0,1.3,0h1.5v-1h-1.9c-0.5,0-0.9,0-1.2,0.1v-0.8c0.3,0,0.7,0.1,1.2,0.1h1.9V271.9z M286.8,275.3v1.2h1.9v-1.2H286.8z
				 M286.8,277.1v1.2h1.9v-1.2H286.8z M289.5,276.4h2.1v-1.2h-2.1V276.4z M289.5,278.3h2.1v-1.2h-2.1V278.3z"/>
			<path d="M301.6,272.5c-0.6,1.3-1,2.1-1.6,2.9c0.6,0,0.8,0,1-0.1l0.4,0.6c-0.3,0.2-0.3,0.2-0.6,0.5c-0.5,0.4-1.2,0.9-1.9,1.3v0.6
				c1.1-0.2,1.6-0.3,3-0.5v0.8c-1.2,0.3-1.5,0.3-3,0.6v2.6c0,0.5-0.1,0.8-0.5,0.9c-0.3,0.1-0.6,0.2-1.1,0.2c-0.6,0-1,0-1.5-0.1
				c0-0.3-0.1-0.5-0.2-0.9c0.6,0.1,1.1,0.2,1.9,0.2c0.5,0,0.6-0.1,0.6-0.4v-2.3c-1.4,0.2-1.4,0.2-2.6,0.3c-0.2,0-0.4,0.1-0.6,0.1
				l-0.1-1c0.1,0,0.2,0,0.3,0c0.5,0,1.8-0.1,3.1-0.3v-0.3c0-0.4,0-0.6-0.1-0.9h0.5c0.7-0.4,1.1-0.6,1.6-1.1h-4c-0.6,0-0.9,0-1.2,0.1
				v-0.9c0.3,0.1,0.6,0.1,1.2,0.1h2.9c0.8-1.1,1.2-2,1.6-3.3L301.6,272.5z M301.5,271.1c-0.3,0.1-0.3,0.1-1.5,0.4
				c-1.3,0.4-3.2,0.7-5.1,0.9c-0.1-0.3-0.2-0.5-0.4-0.8c2.2-0.1,4.9-0.6,6.2-1.3L301.5,271.1z M296.1,272.7c0.4,0.7,0.6,1.2,0.9,2
				l-0.8,0.3c-0.2-0.8-0.4-1.3-0.9-2.1L296.1,272.7z M298.1,272.4c0.4,0.7,0.6,1.3,0.9,2.1l-0.8,0.3c-0.2-0.8-0.4-1.3-0.9-2.1
				L298.1,272.4z M303.4,281.4c0,0.4,0.2,0.5,1,0.5c1.2,0,1.5-0.1,1.6-0.6c0.1-0.5,0.2-1.2,0.2-2.4c0.4,0.2,0.6,0.3,0.9,0.3
				c-0.1,1.5-0.2,2.5-0.4,2.9c-0.3,0.5-0.9,0.7-2.3,0.7c-1.4,0-1.8-0.3-1.8-1.1V272c0-0.6,0-1.1-0.1-1.4h1c-0.1,0.4-0.1,0.9-0.1,1.4
				V281.4z"/>
			<path d="M308.7,273.8c1,0.6,1.6,1,2.4,1.8l-0.6,0.8c-0.9-0.9-1.4-1.4-2.4-1.9L308.7,273.8z M311.1,278.4c-0.7,1.6-1,2.3-1.8,3.7
				c0,0-0.1,0.2-0.2,0.3c-0.1,0.1-0.1,0.2-0.2,0.3l-0.8-0.7c0.7-0.7,1.5-2.2,2.2-4.1L311.1,278.4z M309.4,270.4c1,0.6,1.5,1,2.2,1.8
				l-0.5,0.7c-0.8-0.8-1.3-1.3-2.3-1.9L309.4,270.4z M312,272.4c0-0.8,0-1.1-0.1-1.6c0.3,0,0.3,0,1.5,0.1h5.5c0.8,0,1.3,0,1.5-0.1
				c0,0.3-0.1,1.1-0.1,1.6v9.4c0,0.8-0.3,1-1.4,1c-0.3,0-0.9,0-1.3,0c0-0.4-0.1-0.6-0.2-0.9c0.5,0.1,1.1,0.1,1.4,0.1
				c0.5,0,0.6-0.1,0.6-0.3v-10h-6.7v9.2c0,1.2,0,1.6,0.1,2.1h-1.1c0.1-0.4,0.1-0.9,0.1-2.1V272.4z M318.9,274.1
				c-0.3-0.1-0.6-0.1-1.2-0.1h-2.8c-0.6,0-0.9,0-1.3,0.1v-0.9c0.4,0.1,0.6,0.1,1.3,0.1h2.8c1,0,1,0,1.3-0.1V274.1z M318.2,278.6
				c0,0.5,0,0.7,0,1c-0.3,0-0.5,0-1,0h-2.2v1h-0.9c0-0.4,0.1-0.6,0.1-1.2v-2.9c0-0.4,0-0.7,0-1c0.3,0,0.5,0,1,0h1.9
				c0.5,0,0.9,0,1.1,0c0,0.1,0,0.6,0,1V278.6z M315.1,278.9h2.3v-2.6h-2.3V278.9z"/>
			<path d="M322.2,283.2c1.2-1.2,1.6-1.8,2.1-2.9c0.5-1.1,0.8-2.3,0.8-3.6c0-1.3-0.3-2.4-0.8-3.6c-0.5-1.1-1-1.7-2.1-2.9h1.2
				c1.1,1.2,1.5,1.9,1.9,3c0.5,1.1,0.7,2.2,0.7,3.4s-0.2,2.3-0.7,3.4c-0.5,1.1-0.9,1.8-1.9,3H322.2z"/>
		</g>
	</g>
	<g>
		<g>
			<path d="M21,315.9c0-0.3,0-0.3-0.1-1.2c-0.2-1.2-0.3-2.7-0.3-4c0-2.2,0.2-4,0.8-7c0.1-0.5,0.1-0.6,0.2-0.9l1.2,0.2
				c-0.2,0.4-0.4,1.3-0.7,2.5c-0.4,1.7-0.6,3.6-0.6,5.3c0,0.4,0,0.8,0,1.1c0,0.4,0,0.4,0,0.8c0,0.1,0,0.3,0,0.9l0,0
				c0.1-0.2,0.1-0.2,0.2-0.6c0.1-0.5,0.5-1.5,0.9-2.5l0.8,0.4c-0.8,1.7-1.5,3.9-1.5,4.7c0,0,0,0.1,0,0.2L21,315.9z M32.9,314.7
				c-0.4-0.4-1.1-1-2.1-1.6c-0.3-0.2-0.3-0.2-0.4-0.2c-0.2-0.1-0.2-0.1-0.3-0.1c0,0.2,0,0.2,0,0.4c0,0.5-0.1,0.8-0.2,1.2
				c-0.3,0.8-1.4,1.2-2.7,1.2c-1.8,0-2.9-0.9-2.9-2.2c0-1.3,1.3-2.2,3.1-2.2c0.6,0,1.2,0.1,1.7,0.3c0-0.2-0.1-1.2-0.1-3.1
				c-0.8,0-1.2,0-1.9,0c-0.7,0-1.1,0-2.3-0.1c-0.1,0-0.2,0-0.3,0c0,0-0.1,0-0.1,0l0-1.1c0.6,0.2,1.5,0.2,2.7,0.2c0.5,0,1.2,0,1.9,0
				c0-0.8,0-1.1,0-1.3c0-0.3,0-0.6,0-1.3c-0.6,0-1,0-1.6,0c-0.7,0-1.3,0-1.9-0.1c-0.6,0-0.7,0-1,0l0-1.1c0.6,0.2,1.5,0.2,2.7,0.2
				c2,0,4-0.2,5.4-0.6l0,1c-0.2,0-0.2,0-0.9,0.1c-0.6,0.1-1.1,0.2-1.7,0.2c0,0.5,0,0.9,0,1.3c0,0.1,0,0.2,0,1.2
				c1.2-0.1,2.3-0.3,2.8-0.5l0,1.1c-0.2,0-0.2,0-0.4,0.1c-0.7,0.1-1.5,0.3-2.4,0.3c0,1.9,0,2.4,0.1,3.4c0.9,0.3,2,0.9,2.8,1.5
				c0.3,0.2,0.3,0.2,0.4,0.3L32.9,314.7z M27.6,312.2c-1.3,0-2.1,0.5-2.1,1.3c0,0.8,0.7,1.3,1.9,1.3c1.3,0,1.9-0.5,1.9-1.6
				c0-0.1,0-0.7,0-0.7C28.5,312.3,28.1,312.2,27.6,312.2z"/>
			<path d="M39.7,303c-0.1,0.5-0.2,1.4-0.2,3.4c-0.1,1.9-0.1,4.1-0.1,4.8c0,0.2,0,0.6,0,1c0.1,1,0.3,1.5,0.8,1.9
				c0.4,0.4,1.2,0.6,2,0.6c1.9,0,3.4-1,4.3-2.8c0.4-0.8,0.6-1.4,0.8-2.5c0.4,0.4,0.6,0.5,1.2,0.8c-0.6,1.9-1.1,2.8-1.8,3.6
				c-1.1,1.3-2.6,2-4.5,2c-1.4,0-2.4-0.4-3-1.1c-0.7-0.8-0.9-1.6-0.9-3.3c0-1.1,0-1.5,0.1-6.5c0-0.5,0-0.8,0-1c0-0.3,0-0.5-0.1-0.8
				H39.7z"/>
			<path d="M52,306.6c0.6,0,2.2-0.2,3.5-0.4c0.3-1.2,0.5-2.7,0.5-3.4c0,0,0-0.1,0-0.2l1.3,0.1c-0.1,0.4-0.2,0.6-0.3,1.5
				c-0.1,0.5-0.2,1.1-0.3,1.8c0.4,0,0.6,0,0.9,0c1.1,0,1.8,0.2,2.3,0.7c0.6,0.5,0.8,1.3,0.8,2.6c0,2.4-0.4,4.6-1.1,5.5
				c-0.4,0.5-0.8,0.8-1.6,0.8c-0.7,0-1.4-0.2-2.4-0.6c0-0.2,0-0.4,0-0.6c0-0.2,0-0.4,0-0.6c0.9,0.5,1.8,0.7,2.4,0.7
				c0.4,0,0.7-0.3,0.9-0.8c0.4-1,0.7-2.7,0.7-4.5c0-1.7-0.5-2.2-2-2.2c-0.4,0-0.6,0-1.2,0.1c-0.6,2.5-1.3,4.6-2.4,6.8
				c-0.2,0.4-0.5,1-1,1.9l-1.1-0.6c0.5-0.6,1.1-1.7,1.7-2.9c0.8-1.6,1.2-3,1.8-5.1c-1.4,0.2-2.1,0.3-2.3,0.4
				c-0.4,0.1-0.5,0.1-0.9,0.2L52,306.6z M62.6,305.1c1.6,1.8,2.6,3.4,3.3,5.7l-1,0.6c-0.6-2.2-1.7-4.2-3.3-5.7L62.6,305.1z"/>
			<path d="M71,303.1c-0.5,1.5-1,4.8-1,7c0,0.9,0.1,2.1,0.1,2.6c0.1,0.4,0.1,0.7,0.1,0.9c0.3-1.1,0.4-1.4,1.3-3.4l0.8,0.4
				c-0.5,0.9-0.9,1.9-1.2,2.8c-0.3,0.9-0.4,1.5-0.4,2l-1.1,0.1c0-0.2,0-0.3-0.1-0.6c-0.4-1.5-0.6-3.1-0.6-4.7c0-1.9,0.1-3.2,0.6-6.2
				c0.1-0.7,0.1-0.8,0.1-1.1L71,303.1z M72.6,306.3c0.6,0.1,1.5,0.2,2.7,0.2c0.6,0,1.2,0,2-0.1c-0.1-2.8-0.1-3.2-0.2-3.7l1.2,0
				c0,0.3,0,0.4,0,0.5c0,0.1,0,0.2,0,0.5c0,0.4,0,0.4,0.1,2.6c1.2-0.2,2-0.4,2.5-0.7l0.1,1.2c-0.3,0.1-0.4,0.1-0.8,0.2
				c-0.6,0.1-1.1,0.2-1.7,0.3c0,0.4,0,0.7,0,1.2c0,3-0.3,4.4-1.2,5.6c-0.6,0.8-1.3,1.3-2.5,2.1c-0.3-0.4-0.4-0.5-0.9-0.9
				c1.1-0.5,1.9-1.1,2.4-1.8c0.8-1,1.1-2.2,1.1-4.8c0-0.4,0-0.8,0-1.3c-0.7,0.1-1.6,0.1-2.3,0.1c-0.4,0-1.4,0-1.9-0.1
				c-0.1,0-0.2,0-0.3,0c0,0-0.1,0-0.2,0L72.6,306.3z"/>
			<path d="M85.4,303.8c0-0.9,0-1.3-0.1-1.6h1.1c-0.1,0.4-0.1,0.8-0.1,1.6v1.5h0.3c0.5,0,0.7,0,1-0.1v1c-0.3,0-0.6,0-1,0h-0.3
				c0.3,1.1,0.8,2,1.8,3c-0.2,0.3-0.4,0.4-0.6,0.8c-0.6-0.8-0.9-1.4-1.3-2.4c0,1.4,0.1,2,0.1,2.6v4.8c0,0.9,0,1.4,0.1,1.9h-1.1
				c0.1-0.5,0.1-1,0.1-1.9v-4.5c0-0.8,0-1,0.1-2.8c-0.5,2.4-1,3.6-1.9,5c-0.2-0.4-0.3-0.5-0.6-0.9c0.7-1,1.2-2,1.7-3.5
				c0.3-0.8,0.4-1.5,0.5-2.1h-0.8c-0.5,0-0.8,0-1.1,0.1v-1c0.3,0,0.6,0.1,1.1,0.1h0.9V303.8z M96,304.8c0.7,0,1.3,0,1.6-0.1v1
				c-0.5,0-1.1-0.1-1.6-0.1h-1.6c0.7,0.8,2,1.5,3.6,1.9c-0.2,0.2-0.4,0.5-0.6,0.8c-0.9-0.4-1.3-0.6-2.1-1v1.1c0,0.4,0,0.7,0,1.1
				c-0.3,0-0.6,0-1.1,0h-3.3c-0.5,0-0.8,0-1.1,0c0-0.1,0-0.1,0-0.3c0-0.1,0-0.4,0-0.8v-1c-0.6,0.4-0.9,0.7-1.6,1
				c-0.2-0.3-0.3-0.4-0.6-0.7c1.2-0.5,2.2-1.2,2.9-2h-1.2c-0.6,0-1,0-1.4,0.1v-1c0.4,0.1,0.8,0.1,1.4,0.1h1.7
				c0.3-0.4,0.4-0.6,0.6-1.1c-1.2,0.1-2.2,0.1-3.1,0.2c-0.1-0.3-0.2-0.6-0.4-0.8c0.3,0,0.6,0,0.7,0c2.6,0,5.8-0.4,7.1-0.9l0.7,0.8
				c-0.3,0-0.3,0.1-0.8,0.2c-0.8,0.2-1.9,0.3-3.2,0.5c-0.3,0.6-0.4,0.8-0.6,1.2H96z M88,316.7c0-0.4,0.1-1,0.1-1.8v-3.3
				c0-0.7,0-1.1,0-1.4c0.4,0,0.7,0.1,1.4,0.1h6.3c0.8,0,1.2,0,1.5-0.1c0,0.4-0.1,0.9-0.1,1.5v3.9c0,0.8-0.3,1-1.5,1
				c-0.5,0-0.7,0-1.4,0c0-0.4-0.1-0.6-0.2-1c0.8,0.1,1.2,0.1,1.7,0.1c0.4,0,0.5-0.1,0.5-0.4V311H89v3.9c0,0.9,0,1.4,0.1,1.8H88z
				 M90.4,312.9c0-0.5,0-0.8,0-1.1c0.2,0,0.4,0,1.1,0h2.3c0.6,0,0.8,0,1,0c0,0.2,0,0.4,0,1.1v0.8c0,0.6,0,0.8,0,1
				c-0.3,0-0.5,0-0.9,0h-2.6v0.8h-0.9c0-0.3,0-0.7,0-1.2V312.9z M91.6,305.6c-0.3,0.4-0.6,0.8-1,1.2h4c-0.5-0.4-0.8-0.7-1.2-1.2
				H91.6z M90.7,308.6h3.7v-1.2h-3.7V308.6z M91.3,313.9h2.6v-1.3h-2.6V313.9z"/>
		</g>
	</g>
	<g>
		<g>
			<path d="M160.6,292.3c0,0.3-0.1,0.7-0.1,1.2l0,8.4c1.6-0.3,2.9-0.7,4-1.4c1.4-0.9,2.3-1.9,3.2-3.4c0.4,0.5,0.4,0.6,0.8,0.9
				c-1.9,2.9-4,4.2-7.7,4.9c-0.5,0.1-0.6,0.1-0.8,0.2l-0.6-0.7c0.1-0.2,0.1-0.4,0.1-0.9l0-8v-0.5c0-0.3,0-0.4,0-0.8H160.6z"/>
			<path d="M172.2,301.9c1.1,0,2.8-0.5,4.1-1.1c2.7-1.2,4.6-3.3,5.7-6.2c0.3,0.4,0.5,0.6,0.9,0.8c-1.1,2.4-2.4,4.1-4.3,5.4
				c-1.4,1-2.9,1.6-5.2,2.1c-0.4,0.1-0.5,0.1-0.8,0.2L172.2,301.9z M173.1,293.2c1.5,1,2.4,1.6,3.4,2.6l-0.7,0.9
				c-1-1.1-2.1-2-3.3-2.7L173.1,293.2z"/>
			<path d="M191.3,291.8c-0.2,0.3-0.2,0.3-0.5,0.9c-0.1,0.3-0.3,0.5-0.4,0.8c0.2,0,0.2,0,4.3-0.1c0.4,0,0.6-0.1,0.8-0.1l0.6,0.6
				c-0.2,0.2-0.2,0.3-0.4,0.9c-1,2.6-2.2,4.6-3.7,6c-1.2,1.1-2.6,2-4.4,2.9c-0.2-0.4-0.4-0.6-0.7-0.9c1.2-0.5,1.9-0.9,2.9-1.5
				c1.1-0.8,1.7-1.3,2.4-2.2c-1-0.9-2-1.6-3.1-2.3l0.6-0.7c1.2,0.7,2,1.2,3.1,2.2c0.8-1.2,1.5-2.6,1.9-4.1l-4.9,0.1
				c-1,1.5-1.9,2.6-3.3,3.7c-0.3-0.4-0.4-0.5-0.8-0.7c1.5-1.1,2.7-2.4,3.6-4c0.4-0.8,0.7-1.4,0.8-1.9L191.3,291.8z"/>
			<path d="M203.1,292.5c-0.1,0.4-0.1,0.4-0.1,1.2c-0.1,3.8-0.2,4.8-0.8,6.2c-0.5,1.3-1.1,2.2-2.4,3.5c-0.3-0.4-0.4-0.5-0.8-0.8
				c1.1-0.9,1.9-1.9,2.4-3.2c0.4-1.2,0.6-3.1,0.6-6c0-0.5,0-0.7-0.1-1L203.1,292.5z M206.6,292.3c-0.1,0.3-0.1,0.6-0.1,1.2l-0.1,8.5
				c1.2-0.4,1.9-0.9,2.6-1.6c0.8-0.8,1.3-1.7,1.7-2.8c0.3,0.4,0.4,0.5,0.8,0.8c-0.7,1.6-1.6,2.8-2.8,3.6c-0.6,0.4-1.2,0.7-2,1
				c-0.3,0.1-0.3,0.1-0.4,0.2c-0.2,0.1-0.2,0.1-0.3,0.2l-0.6-0.6c0.1-0.2,0.1-0.4,0.1-1l0.1-8.2c0-0.9,0-0.9-0.1-1.2L206.6,292.3z"
				/>
			<path d="M165.3,310.4v-1.4c0-1,0-1.1,0-1.4h1.1c0,0.4,0,0.4-0.1,1.3c0,0.3,0,0.3,0,1.5h1.2c0.8,0,1.1,0,1.6-0.1v1.1
				c-0.5-0.1-0.9-0.1-1.6-0.1h-1.2c0,2.8-0.2,3.7-0.7,4.7c-0.5,0.9-1.3,1.7-2.3,2.3c-0.5,0.3-0.9,0.4-1.6,0.7
				c-0.2-0.4-0.3-0.5-0.6-0.9c1.2-0.4,1.9-0.7,2.7-1.4c1-0.9,1.4-1.8,1.5-3.5c0-0.4,0-0.9,0.1-2h-4.3v2.3c0,0.6,0,0.8,0.1,1.1H160
				c0-0.3,0.1-0.6,0.1-1.2v-2.3h-1.2c-0.7,0-1.1,0-1.6,0.1v-1.1c0.5,0.1,0.8,0.1,1.6,0.1h1.2v-1.6c0-0.6,0-0.9-0.1-1.2h1.1
				c-0.1,0.4-0.1,0.5-0.1,1.1v1.7H165.3z"/>
			<path d="M182.1,308.2c-0.3,0.2-0.3,0.2-0.6,0.6c-0.9,0.9-2.1,1.9-3.3,2.8v6c0,0.8,0,1.1,0.1,1.5h-1.2c0.1-0.4,0.1-0.7,0.1-1.5
				v-5.3c-1.8,1.1-2.8,1.6-5.4,2.5c-0.2-0.4-0.3-0.6-0.5-0.9c2.6-0.7,5.1-1.9,7.3-3.6c1.3-1,2.3-2,2.7-2.6L182.1,308.2z"/>
			<path d="M191.3,307.6c-0.1,0.2-0.1,0.2-0.3,0.6c-0.4,0.8-0.5,1-0.6,1.2c0.2,0,0.2,0,4.2-0.1c0.5,0,0.5,0,0.7-0.1l0.6,0.6
				c-0.1,0.2-0.1,0.2-0.3,0.7c-0.6,2-1.6,3.9-2.8,5.3c-1.3,1.5-2.8,2.6-4.9,3.5c-0.2-0.4-0.3-0.5-0.7-0.8c2.1-0.9,3.6-1.9,4.9-3.5
				c1.1-1.3,1.9-2.9,2.4-4.7l-4.7,0.1c-0.9,1.4-2,2.6-3.3,3.6c-0.2-0.4-0.4-0.5-0.8-0.7c1.5-1,2.5-2.1,3.5-3.8
				c0.5-0.9,0.8-1.6,0.9-2L191.3,307.6z"/>
			<path d="M203.1,308.1c-0.1,0.3-0.1,0.3-0.1,1.2c-0.1,3.8-0.2,4.8-0.8,6.2c-0.5,1.3-1.1,2.2-2.4,3.5c-0.3-0.4-0.4-0.5-0.8-0.8
				c1.1-0.9,1.9-1.9,2.4-3.2c0.4-1.2,0.6-3.1,0.6-6c0-0.5,0-0.7-0.1-1L203.1,308.1z M206.6,307.9c-0.1,0.3-0.1,0.6-0.1,1.2l-0.1,8.5
				c1.2-0.4,1.9-0.9,2.6-1.6c0.8-0.8,1.3-1.7,1.7-2.8c0.3,0.4,0.4,0.5,0.8,0.8c-0.7,1.6-1.6,2.8-2.8,3.6c-0.6,0.4-1.2,0.7-2,1
				c-0.3,0.1-0.3,0.1-0.4,0.2c-0.2,0.1-0.2,0.1-0.3,0.2l-0.6-0.6c0.1-0.2,0.1-0.3,0.1-1l0.1-8.2c0-0.9,0-0.9-0.1-1.2L206.6,307.9z"
				/>
		</g>
	</g>
	<g>
		<g>
			<path d="M21.1,19.3h-4.9V18h11.3v1.3h-4.9V32h-1.5V19.3z"/>
			<path d="M32.2,31.2c-1.1-0.6-2-1.5-2.6-2.5c-0.6-1.1-1-2.3-1-3.6s0.3-2.6,1-3.6c0.6-1.1,1.5-1.9,2.6-2.5c1.1-0.6,2.4-0.9,3.8-0.9
				s2.6,0.3,3.8,0.9c1.1,0.6,2,1.5,2.6,2.6c0.6,1.1,1,2.3,1,3.6s-0.3,2.6-1,3.6c-0.6,1.1-1.5,1.9-2.6,2.6s-2.4,0.9-3.8,0.9
				S33.3,31.8,32.2,31.2z M38.9,30c0.9-0.5,1.6-1.2,2.1-2.1c0.5-0.9,0.8-1.9,0.8-3s-0.3-2.1-0.8-3c-0.5-0.9-1.2-1.6-2.1-2.1
				c-0.9-0.5-1.9-0.8-3-0.8c-1.1,0-2.1,0.2-3,0.8s-1.6,1.2-2.1,2.1c-0.5,0.9-0.8,1.9-0.8,3s0.3,2.1,0.8,3c0.5,0.9,1.2,1.6,2.1,2.1
				s1.9,0.8,3,0.8C37.1,30.8,38.1,30.5,38.9,30z"/>
			<path d="M48,30.6c-1-1-1.5-2.6-1.5-4.5v-8H48v8c0,1.6,0.4,2.8,1.1,3.6c0.7,0.8,1.8,1.2,3.2,1.2c1.4,0,2.5-0.4,3.2-1.2
				c0.7-0.8,1.1-2,1.1-3.6v-8H58v8c0,2-0.5,3.5-1.5,4.5s-2.4,1.6-4.2,1.6C50.4,32.1,49,31.6,48,30.6z"/>
			<path d="M72.3,25h1.4v5.3c-0.7,0.6-1.4,1-2.3,1.3c-0.9,0.3-1.8,0.5-2.8,0.5c-1.4,0-2.7-0.3-3.8-0.9c-1.1-0.6-2-1.5-2.6-2.6
				c-0.6-1.1-1-2.3-1-3.6s0.3-2.6,1-3.6c0.6-1.1,1.5-1.9,2.6-2.6c1.1-0.6,2.4-0.9,3.8-0.9c1.1,0,2,0.2,2.9,0.5
				c0.9,0.3,1.6,0.8,2.3,1.5l-0.9,0.9c-1.1-1.1-2.5-1.6-4.2-1.6c-1.1,0-2.2,0.2-3.1,0.8c-0.9,0.5-1.6,1.2-2.2,2.1
				c-0.5,0.9-0.8,1.9-0.8,3s0.3,2.1,0.8,3s1.2,1.6,2.1,2.1s1.9,0.8,3.1,0.8c1.4,0,2.7-0.4,3.7-1.1V25z"/>
			<path d="M87.8,30.7V32h-9.9V18h9.6v1.3h-8.1v5h7.2v1.3h-7.2v5.2H87.8z"/>
			<path d="M103,18v14h-1.2l-9-11.4V32h-1.5V18h1.2l9,11.4V18H103z"/>
			<path d="M110.3,19.3h-4.9V18h11.3v1.3h-4.9V32h-1.5V19.3z"/>
			<path d="M121.4,31.2c-1.1-0.6-2-1.5-2.6-2.5c-0.6-1.1-1-2.3-1-3.6s0.3-2.6,1-3.6c0.6-1.1,1.5-1.9,2.6-2.5
				c1.1-0.6,2.4-0.9,3.8-0.9s2.6,0.3,3.8,0.9c1.1,0.6,2,1.5,2.6,2.6c0.6,1.1,1,2.3,1,3.6s-0.3,2.6-1,3.6c-0.6,1.1-1.5,1.9-2.6,2.6
				s-2.4,0.9-3.8,0.9S122.5,31.8,121.4,31.2z M128.1,30c0.9-0.5,1.6-1.2,2.1-2.1c0.5-0.9,0.8-1.9,0.8-3s-0.3-2.1-0.8-3
				c-0.5-0.9-1.2-1.6-2.1-2.1c-0.9-0.5-1.9-0.8-3-0.8c-1.1,0-2.1,0.2-3,0.8s-1.6,1.2-2.1,2.1c-0.5,0.9-0.8,1.9-0.8,3s0.3,2.1,0.8,3
				c0.5,0.9,1.2,1.6,2.1,2.1s1.9,0.8,3,0.8C126.3,30.8,127.3,30.5,128.1,30z"/>
			<path d="M137.2,30.6c-1-1-1.5-2.6-1.5-4.5v-8h1.5v8c0,1.6,0.4,2.8,1.1,3.6c0.7,0.8,1.8,1.2,3.2,1.2c1.4,0,2.5-0.4,3.2-1.2
				c0.7-0.8,1.1-2,1.1-3.6v-8h1.4v8c0,2-0.5,3.5-1.5,4.5s-2.4,1.6-4.2,1.6C139.6,32.1,138.2,31.6,137.2,30.6z"/>
			<path d="M171.4,18v14H170V20.8l-5.5,9.4h-0.7l-5.5-9.4V32h-1.4V18h1.2l6.1,10.4l6-10.4H171.4z"/>
			<path d="M184.8,28.3H177l-1.7,3.7h-1.5l6.4-14h1.5l6.4,14h-1.6L184.8,28.3z M184.2,27.1l-3.4-7.5l-3.4,7.5H184.2z"/>
			<path d="M199.8,19.3c1,0.9,1.5,2,1.5,3.5c0,1.5-0.5,2.7-1.5,3.5c-1,0.8-2.4,1.3-4.2,1.3h-3.8V32h-1.5V18h5.2
				C197.4,18,198.8,18.4,199.8,19.3z M198.7,25.4c0.7-0.6,1.1-1.5,1.1-2.6c0-1.1-0.4-2-1.1-2.6c-0.7-0.6-1.8-0.9-3.2-0.9h-3.7v7h3.7
				C196.9,26.3,198,26,198.7,25.4z"/>
		</g>
	</g>
	<g>
		<g>
			<path d="M233.9,171.7c0.2,0.5,0.4,1,0.8,1.7c0.4,0.8,0.7,1.2,1.3,1.9c-0.3,0.3-0.5,0.6-0.7,0.9c-0.7-1.1-1.1-1.8-1.6-3
				c0.1,1.5,0.1,2.2,0.1,3v5.3c0,1,0,1.6,0.1,2.1h-1.3c0.1-0.5,0.1-1.2,0.1-2.1v-5.1c0-0.7,0-1.4,0.1-2.7c-0.7,2.6-1.2,3.9-2.2,5.5
				c-0.2-0.4-0.4-0.7-0.7-1c1.2-1.7,2.2-4,2.7-6.5h-0.9c-0.6,0-0.9,0-1.3,0.1v-1.1c0.3,0.1,0.7,0.1,1.3,0.1h1v-1.7
				c0-1,0-1.4-0.1-1.9h1.3c-0.1,0.5-0.1,0.9-0.1,1.8v1.7h0.6c0.5,0,0.8,0,1.1-0.1v1.1c-0.4,0-0.7-0.1-1.1-0.1H233.9z M239.8,173.7
				c0,3.9-0.6,6.2-1.9,7.9c-0.6,0.8-1.3,1.4-2.5,2.1c-0.3-0.4-0.5-0.6-0.9-0.9c1.4-0.8,2.2-1.5,2.8-2.4c0.7-1,1.1-2.2,1.2-3.8
				c-0.5,0.4-0.9,0.7-1.4,1c-1.4,0.9-1.4,0.9-1.7,1.1l-0.5-1.2c0.7-0.3,1.3-0.6,2.7-1.5c0.4-0.3,0.5-0.4,1-0.7c0-0.5,0-0.9,0-1.4
				v-4.6c0-1,0-1.5-0.1-2h1.3c-0.1,0.5-0.1,1-0.1,1.9V173.7z M236.6,169.6c0.7,1.5,1.1,2.4,1.6,3.9l-0.9,0.6c-0.5-1.6-0.9-2.6-1.6-4
				L236.6,169.6z M242.5,181.8c0,0.4,0.2,0.5,1.1,0.5c1.1,0,1.4-0.1,1.6-0.4c0.2-0.3,0.3-1.2,0.3-2.5c0.4,0.3,0.6,0.3,1.1,0.5
				c-0.1,1.5-0.3,2.2-0.5,2.7c-0.3,0.6-0.9,0.8-2.5,0.8c-1.8,0-2.2-0.2-2.2-1.2v-12.9c0-0.8,0-1.3-0.1-1.8h1.3
				c-0.1,0.5-0.1,1-0.1,1.9v5.8c2,1.3,2.4,1.7,3.8,2.9l-0.7,0.9c-1-1-2.1-1.9-3.2-2.6V181.8z M243,173.5c1-1.3,1.5-2.4,2.1-4.1
				l1,0.5c-1,2.3-1.4,2.9-2.3,4.2L243,173.5z"/>
			<path d="M248.8,172c1.2,0.7,1.9,1.2,2.9,2.2l-0.7,1c-1.1-1.1-1.7-1.6-2.9-2.3L248.8,172z M251.4,177.6c-0.7,2.4-1,3.3-2.3,5.7
				l-1-0.9c0.7-0.7,1.7-2.9,2.4-5.4L251.4,177.6z M249.7,167.6c1.1,0.8,1.8,1.4,2.6,2.3l-0.8,0.8c-0.9-1.1-1.5-1.6-2.6-2.3
				L249.7,167.6z M261.7,171c0.7,0,1.2,0,1.7-0.1c-0.1,0.3-0.1,0.7-0.1,1.4v3.5c0,0.7,0,1.1,0.1,1.4c-0.5-0.1-0.9-0.1-1.4-0.1h-2
				v5.1c0,0.5-0.2,0.9-0.5,1c-0.3,0.1-0.5,0.1-1.1,0.1c-0.3,0-1.1,0-1.5-0.1c0-0.4-0.1-0.7-0.3-1.1c0.7,0.1,1.2,0.1,1.7,0.1
				c0.5,0,0.5-0.1,0.5-0.5v-4.8H257c-0.5,0-1,0-1.5,0.1c0.1-0.3,0.1-0.7,0.1-1.3v-3.5c0-0.6,0-1-0.1-1.4c0.5,0.1,1,0.1,1.7,0.1h1
				c0.3-0.6,0.4-1.1,0.6-1.9h-4.5v2c0,6-0.6,9.3-2.2,12c-0.3-0.4-0.5-0.5-1-0.8c0.6-1,1-1.8,1.3-3c0.4-1.6,0.7-4.1,0.7-6.6l0-2.3
				c0-0.1,0-0.1,0-0.2c0-0.7,0-1.6-0.1-2.3c0.5,0.1,0.9,0.1,1.7,0.1h7.5c0.9,0,1.4,0,1.9-0.1v1.2c-0.5-0.1-1.2-0.1-1.9-0.1H260
				c-0.2,0.9-0.4,1.2-0.6,1.9H261.7z M257.1,178.2c-0.5,1.9-1,3-2.2,4.5c-0.3-0.3-0.5-0.5-0.9-0.7c0.6-0.8,0.9-1.2,1.3-2
				c0.4-0.7,0.5-1.2,0.7-2.2L257.1,178.2z M256.6,173.5h5.6v-1.6h-5.6V173.5z M256.6,176.1h5.6v-1.7h-5.6V176.1z M262.4,177.8
				c0.6,1.9,1.2,2.8,2.3,4c-0.4,0.3-0.5,0.4-0.9,0.8c-1.1-1.4-1.7-2.5-2.4-4.4L262.4,177.8z"/>
			<path d="M271.7,178.5h-1.5c-0.8,0-1,0-1.5,0c0.1-0.5,0.1-0.9,0.1-1.6v-6.7c0-0.5,0-1-0.1-1.4c0.4,0.1,0.8,0.1,1.4,0.1h2
				c0.3-0.5,0.6-1.1,0.9-1.8l1.2,0.2c-0.3,0.6-0.6,1.1-0.9,1.6h4.4c0.7,0,1.1,0,1.5-0.1c-0.1,0.4-0.1,0.6-0.1,1.1v3
				c0,0.5,0,0.8,0.1,1.2c-0.5,0-0.9-0.1-1.4-0.1h-7.9v1.2h10.5c0.7,0,1.2,0,1.7-0.1v1.2c-0.6-0.1-1-0.1-1.7-0.1h-10.5v1.3h10.3
				c0.6,0,1,0,1.4-0.1c0,0.2-0.1,0.5-0.1,1c-0.2,2.1-0.5,3.6-0.8,4.1c-0.3,0.5-0.8,0.7-1.9,0.7c-0.5,0-0.8,0-1.4-0.1
				c-0.1-0.5-0.1-0.6-0.3-1.1c0.7,0.1,1.2,0.2,1.8,0.2c0.6,0,0.8-0.1,1-0.6c0.2-0.6,0.4-1.8,0.5-3.2h-7.5v2.4h3.4V180
				c0-0.4,0-0.7-0.1-1h1.2c-0.1,0.3-0.1,0.7-0.1,1.1v0.9c0,0.4,0,0.6,0,0.9c-0.2,0-0.2,0-0.7,0c-0.1,0-0.5,0-0.6,0h-7.5v0.8h-1.2
				c0.1-0.4,0.1-0.9,0.1-1.4l0-1.1c0-0.4,0-0.7-0.1-1.1h1.2c-0.1,0.3-0.1,0.6-0.1,1v0.8h3.2V178.5z M278,171v-1.2h-8.2v1.2H278z
				 M269.8,173.2h8.2v-1.3h-8.2V173.2z"/>
		</g>
	</g>
	<g>
		<g>
			<path d="M64.4,135.5c-0.3,0.8-0.5,1.2-1,2c0,0-0.1-0.1-0.1-0.1c-0.3-0.3-0.3-0.3-0.6-0.4c0.6-0.9,1-1.8,1.4-3
				c0.1-0.4,0.1-0.4,0.2-1.3l0.9,0.2c-0.1,0.1-0.1,0.1-0.2,0.6c-0.1,0.3-0.2,0.7-0.3,1.1h2.1c0.5,0,0.8,0,1.1-0.1v0.9
				c-0.3,0-0.6-0.1-1.1-0.1h-0.7c0,1.4,0,1.7-0.1,2.6h1c0.4,0,0.8,0,1.1-0.1v0.9c-0.3,0-0.7-0.1-1.1-0.1H66c0,0.2,0,0.3-0.1,0.5
				c0.8,1.6,1.3,2.3,2.4,3.3c-0.2,0.2-0.4,0.5-0.6,0.8c-0.9-0.9-1.5-1.7-2-2.9c-0.4,1.6-1.2,2.9-2.4,4.1c-0.2-0.3-0.3-0.4-0.6-0.7
				c1.5-1.3,2.2-2.7,2.5-5H64c-0.4,0-0.8,0-1.1,0.1v-1c0.4,0.1,0.7,0.1,1.1,0.1h1.3c0.1-0.7,0.1-0.7,0.1-2.6H64.4z M72.5,143.4h1.3
				c0.7,0,1,0,1.4-0.1v1c-0.4,0-0.8-0.1-1.4-0.1h-4.3v0.9h-0.9c0.1-0.4,0.1-0.8,0.1-1.4V138c0-0.4,0-0.6,0-1.3
				c-0.3,0.4-0.4,0.7-0.9,1.2c-0.2-0.2-0.4-0.4-0.6-0.6c0.8-0.8,1.2-1.5,1.8-2.8c0.3-0.7,0.5-1.3,0.7-1.9l0.9,0.3
				c-0.3,0.7-0.6,1.5-0.9,2.1h2c0.4-0.8,0.7-1.6,0.9-2.2l0.9,0.3c-0.3,0.7-0.6,1.5-0.9,2h1c0.6,0,1.1,0,1.4-0.1v0.9
				c-0.3-0.1-0.7-0.1-1.4-0.1h-1.1v1.9h1c0.6,0,1,0,1.3-0.1v0.9c-0.3-0.1-0.7-0.1-1.3-0.1h-1v2h1c0.6,0,1,0,1.3-0.1v0.9
				c-0.3-0.1-0.7-0.1-1.3-0.1h-1V143.4z M71.7,137.6v-1.9h-2.1v1.9H71.7z M69.6,140.4h2.1v-2h-2.1V140.4z M69.6,143.4h2.1v-2.3h-2.1
				V143.4z"/>
			<path d="M80.2,141.3c-0.8,0-1.1,0-1.6,0c0.1-0.4,0.1-0.8,0.1-1.5v-4.7c0-0.8,0-1.6-0.1-1.9c0.5,0.1,0.9,0.1,1.5,0.1h5.9
				c0.6,0,1.1,0,1.5-0.1c0,0.3-0.1,1.1-0.1,1.9v4.7c0,0.7,0,1.1,0.1,1.5c-0.4,0-0.8,0-1.6,0h-1.2v2.5c0,0.4,0.1,0.5,1.6,0.5
				c1.3,0,1.7-0.1,1.8-0.4c0.2-0.2,0.3-0.7,0.3-1.8c0.4,0.2,0.6,0.3,0.9,0.4c-0.3,2.5-0.5,2.6-3.1,2.6c-1.1,0-1.8-0.1-2.1-0.2
				c-0.3-0.2-0.3-0.3-0.3-0.8v-2.8H82c-0.2,1.2-0.5,1.9-1.2,2.5c-0.8,0.8-1.8,1.3-3.6,1.7c-0.1-0.4-0.3-0.5-0.5-0.8
				c1.1-0.2,1.6-0.3,2.1-0.6c1-0.4,1.6-1,1.9-1.8c0.1-0.3,0.2-0.4,0.3-1H80.2z M79.5,135.7h7v-1.5h-7V135.7z M79.5,138.1h7v-1.6h-7
				V138.1z M79.5,140.5h7v-1.7h-7V140.5z"/>
			<path d="M92.5,138.5c-0.8,0-1.2,0-1.6,0.1v-1c0.4,0.1,0.8,0.1,1.6,0.1h9.2c0.8,0,1.2,0,1.6-0.1v1c-0.4-0.1-0.9-0.1-1.6-0.1H96
				c-0.4,0.7-0.7,1.3-1.3,1.9h5.7c0.7,0,1,0,1.3-0.1c-0.1,0.4-0.1,0.8-0.1,1.3v2.4c0,0.4,0,0.8,0.1,1.3h-1v-0.7h-6.5v0.7h-1
				c0.1-0.4,0.1-0.8,0.1-1.3v-2.3c-0.7,0.6-1.3,1-2.2,1.5c-0.1-0.3-0.3-0.6-0.6-0.8c1.3-0.6,2.2-1.3,3.1-2.2c0.6-0.6,1-1.1,1.3-1.8
				H92.5z M96.5,133.9c0-0.5,0-0.9-0.1-1.3h1.1c-0.1,0.4-0.1,0.8-0.1,1.3v1.4h3.7v-1c0-0.3,0-0.7-0.1-1h1c0,0.3-0.1,0.6-0.1,1v1
				c0,0.4,0,0.7,0.1,0.9c-0.4,0-0.8,0-1.3,0h-7.3c-0.6,0-0.8,0-1.3,0c0-0.3,0-0.5,0-0.9v-1c0-0.4,0-0.7-0.1-1h1
				c-0.1,0.3-0.1,0.6-0.1,1v1h3.5V133.9z M94.3,143.8h6.5v-2.6h-6.5V143.8z"/>
		</g>
	</g>
</g>
<g id="ガイド" class="st12">
</g>
</svg>
