<?xml version="1.0" encoding="utf-8"?>
<!-- Generator: Adobe Illustrator 25.0.1, SVG Export Plug-In . SVG Version: 6.00 Build 0)  -->
<svg version="1.1" xmlns="http://www.w3.org/2000/svg" xmlns:xlink="http://www.w3.org/1999/xlink" x="0px" y="0px"
	 viewBox="0 0 375 500" style="enable-background:new 0 0 375 500;" xml:space="preserve">
<style type="text/css">
	.st0{fill:#A5D9E2;}
	.st1{fill:#DCDDDD;}
	.st2{fill:none;stroke:#F39800;stroke-width:1.4173;stroke-miterlimit:10;stroke-dasharray:2.8346,0,0,0,0;}
	.st3{fill:#F7F8F8;}
	.st4{fill:#FCEEC8;}
	.st5{fill:none;stroke:#E4007F;stroke-width:0.8504;stroke-miterlimit:10;stroke-dasharray:2.8346,0,0,0,0;}
	.st6{fill:none;stroke:#2EA7E0;stroke-width:0.8504;stroke-miterlimit:10;stroke-dasharray:2.8346,0,0,0,0;}
	.st7{fill:none;stroke:#F39800;stroke-width:0.8504;stroke-miterlimit:10;stroke-dasharray:2.8346,0,0,0,0;}
	.st8{fill:#FAEE00;}
	.st9{fill:#E60012;}
	.st10{fill:#EFEA3C;}
	.st11{fill:#FFF100;}
	.st12{fill:#EE87B4;}
	.st13{fill:#22AC38;}
	.st14{fill:#2EA7E0;}
	.st15{fill:#FFFFFF;}
	.st16{fill:#E4007F;}
	.st17{fill:#F39800;}
	.st18{fill:none;stroke:#FFFFFF;stroke-width:0.5669;stroke-miterlimit:10;}
</style>
<g id="海v2">
	<rect x="0.1" y="0" class="st0" width="375" height="500"/>
	<path class="st1" d="M0.1,0.3v65.4c0,0,0.3-2.7,3.3-2.7s4.1,2.5,8.7,1.6c4.6-0.8,4.4-5.4,7.1-6.8c2.7-1.4,7.4-2.5,9.8-0.5
		s1.6,1.4,3.5-2.5c1.9-3.8,0.3-3.5-1.9-9.5s-1.4-7.4-4.9-12s-6.3-13.9-9-15.8s1.4-3.5,1.4-3.5l3-0.8l5.7,4.4L34.9,36
		c0,0,12.3,12,13.9,12c1.6,0,6.3-1.4,10.4-3.3s3.3,0.3,10.1-0.8c6.8-1.1,9.3-2.5,13.3-3.3c4.1-0.8,8.7-0.5,6-2.5
		c-2.7-1.9-8.2-6.5-7.4-9.8c0.8-3.3,6.5-8.4,11.7-7.4s6.3,4.9,8.4,2.7s1.6-7.4,5.7-8.4s6,1.1,8.7-1.1c2.7-2.2,6.8-7.1,7.6-7.4
		c0.8-0.3,1.9-4.9,4.9-5.2c3-0.3,3-0.3,3-0.3l3.3-0.8l4.1-0.5C138.7,0,0.1,0.5,0.1,0.3z"/>
	<polyline class="st2" points="129.6,411.1 129.6,411.1 129.6,411.1 129.6,411.1 129.6,411.1 	"/>
</g>
<g id="北木島">
	<path class="st1" d="M120.8,276.6l-1.6-2.9l7.5-9.6c0,0-1.1-0.5,3.5-1.1c4.6-0.5,11-0.8,11-0.8s3.2,1.9,5.1,0.5s0.3-3.2,2.1-4.6
		c1.9-1.3,3.2-2.1,5.1-0.8c1.9,1.3,4.8,4,6.2,2.7c1.3-1.3,2.1-4.3,4.8-2.1c2.7,2.1,0.5,4,3.2,5.1c2.7,1.1,7,3.5,9.1,5.4
		c2.1,1.9,4.8,4.6,3.7,5.6c-1.1,1.1-2.9,2.1-2.1,4s2.1,5.4,4.3,5.6c2.1,0.3,3.5,1.6,3.7,3.2s-0.3,3.5,1.9,4.6
		c2.1,1.1,7.5,8.8,6.7,10.4s-0.5,3.5,0.5,4.8s1.3,4,1.3,4s0.3,2.9,2.9,3.5c2.7,0.5,4.6,0.5,3.5-1.6s-1.1-3.2-1.1-5.1
		s-1.1-2.7,0.3-4.3c1.3-1.6,2.1-2.4,3.7-0.5c1.6,1.9,1.6,3.5,6.4,3.7c4.8,0.3,7.2,0.3,7.5-2.1c0.3-2.4-1.3-5.4,0.8-7
		c2.1-1.6,2.4-1.9,4.8-1.1c2.4,0.8,4.6-1.3,4.8,0.3c0.3,1.6,1.9,2.1,0.5,4.6c-1.3,2.4-2.9,2.7-2.1,4.6s0.3,3.5,1.9,3.2
		s1.3,2.7,1.3,2.7l-0.5,2.4c0,0-1.9,0.5-2.7-1.9c-0.8-2.4-2.7-3.2-5.1-2.7c-2.4,0.5-6.4,2.1-7.5,3.7c-1.1,1.6-3.7,3.2-2.4,4
		c1.3,0.8,2.1,2.1,1.9,3.7c-0.3,1.6-1.1,6.4-3.5,6.4s-1.9-1.6-4.8-2.7c-2.9-1.1-5.6-1.1-7.5-0.8s-3.7,1.1-5.1,2.9
		c-1.3,1.9-1.9,3.2-2.7,6.2c-0.8,2.9-0.3,3.5,0,6.4c0.3,2.9-1.3,4.8-1.3,4.8s2.4-0.5,1.9,3.7c-0.5,4.3-0.3,4.3-1.6,6.4
		c-1.3,2.1-2.4-0.8-3.7,2.1c-1.3,2.9-3.7,5.6-6.2,8c-2.4,2.4-3.2,2.4-2.1,5.4c1.1,2.9,0,5.4-1.9,9.4s-7.2,7-7.2,7l-3.5,4.3l-1.9-0.5
		c0,0-0.3,5.1-0.8,7c-0.5,1.9-1.6,2.4-1.6,2.4s2.4,1.3,2.9,5.4s-0.5,5.9,0.3,7.8s6.2,5.1,6.2,5.1l10.2,11c0,0,8.3,0.3,9.9-1.1
		c1.6-1.3,4-0.8,4.8-3.7c0.8-2.9,1.6-3.7,3.5-2.9c1.9,0.8,2.4,2.7,5.4,2.7c2.9,0-0.8,2.1,3.5,4.6c4.3,2.4,5.9,4.6,6.7,2.7
		c0.8-1.9,1.3-1.1,3.7-1.3c2.4-0.3,5.6,1.1,8-0.3c2.4-1.3,0.8-4.3,4.3-6.4s5.4-0.3,7.5-1.6s2.1-4,3.2-1.3c1.1,2.7,4.6,4.3,1.6,5.6
		s-2.9,2.7-3.7,4.3c-0.8,1.6-2.4,2.1-5.1,2.4s-2.9,4-2.9,4l3.7,10.4c0,0-1.3,2.9,1.6,5.4c2.9,2.4,7.2,7,7,8.8s-2.7,6.7-4.6,8.3
		s-3.2,0.8-3.2,4.6s1.3,8,0,8.8c-1.3,0.8-7,1.9-8.6,0.3s-5.1-3.5-7.8-3.2c-2.7,0.3-4.8,4-6.4,3.2c-1.6-0.8-5.9-3.5-8.6-3.5
		c-2.7,0-4,0.5-6.4-2.1c-2.4-2.7-7.8-6.2-13.7-6.7c-5.9-0.5-9.4-2.1-10.4,1.1c-1.1,3.2,0.5,7.2-2.1,8.3c-2.7,1.1-3.5,5.9-6.4,4.3
		s-10.4-3.2-12.9-5.1c-2.4-1.9-3.2-1.3-5.1-4.6c-1.9-3.2-5.9-7.5-9.6-9.4s-3.7-2.4-7.2-5.6C128,456,121,448.5,121,448.5
		s3.7-0.8,0.8-3.5c-2.9-2.7-8-7.8-12.1-7c-4,0.8-2.4,4.3-5.1,4.8c-2.7,0.5-5.9,2.1-8-1.1c-2.1-3.2-3.2-6.7-4.3-9.4
		c-1.1-2.7-1.9-9.1-5.4-9.9c-3.5-0.8-3.5-4.3-7.5-7.8c-4-3.5-3.2-7-7.5-7c-4.3,0-6.4-0.3-7.5,2.1c-1.1,2.4-5.4,2.1-5.6-0.5
		c-0.3-2.7-0.5-4-5.4-6.2s-7.8-4.8-7.8-4.8s0.8-3.7-3.7-4.3c-4.6-0.5-7-2.4-7-2.4s-2.1-5.6-6.2-6.4c-4-0.8-7-0.8-8.6-2.4
		s-1.1-1.6-3.2-1.3c-2.1,0.3-4,0.3-2.7-2.1c1.3-2.4,0.3-1.9-1.1-6.4c-1.3-4.6,1.1-2.1,0.8-6.2c-0.3-4-3.2-5.1-0.8-8.8
		s2.4-3.5,5.9-4.3c3.5-0.8,4.8-2.1,4.8-5.6s1.9-7.5,4-11.5s4-2.1,5.6-4.8c1.6-2.7,2.7-4,6.7-4s2.7,1.6,6.7-0.5s4.8-4,5.9,0.3
		c1.1,4.3,2.1,2.1,3.2,5.1s2.7,6.2,1.9,7.2c-0.8,1.1-2.4,2.4-0.8,4s3.5,2.1,7,2.7c3.5,0.5,6.2,2.9,7.8,0.3c1.6-2.7,3.2-4.6,6.2-5.9
		c2.9-1.3,8.8-2.7,8.3-5.9c-0.5-3.2-0.5-4.8-2.9-8s-3.2-8-0.5-10.2c2.7-2.1,4.6-2.1,6.4-0.8s7.2,2.7,9.4,0.5c2.1-2.1,4.8-3.7,4-5.9
		s-1.9-5.6,0.5-5.9s5.9-1.1,5.4,0.8s-1.9,2.7,0.3,3.5c2.1,0.8,2.7,2.7,5.4,1.1s2.9-2.1,2.4-4s4.3-1.9,4.3-4.8s-0.3-8-0.3-8
		s1.1-1.3,1.3-6.7C122.4,281.1,119.4,276.8,120.8,276.6z"/>
</g>
<g id="星駆町">
	<polygon class="st3" points="268.1,290.2 227.7,301.9 229,308.8 269.5,297.3 	"/>
	<path class="st4" d="M359.1,320.6l-1.7-5.3l-1.5-0.2c0.2-0.6-2.1-0.6-4.1-2.2c-2-1.5-2.2-2.3-2.2-2.3s-2-1.3-3.1-2.1
		c-1.1-0.8,0.1-2.5-0.7-2.9s-1-0.6-0.9-2c0.1-1.4,0.9-1.1,1.8-1.7c0.9-0.6,0.8,0.1,1.4,0.8c0.6,0.7,1.2-0.8,1.7-1.7
		c0.5-0.9-1.1-1.5-2.1-1.8c-1-0.3-0.9-1.7-1.2-3.1s1.6-2.9,2.6-3.3s1.5-1,1.4-2.6c-0.1-1.6-2.1-2.6-4-2.6s-2.4-0.4-3.8-1.1
		c-1.4-0.7-0.3-3.2-0.1-4.6c0.3-1.4,0-2.5-0.6-3.8c-0.6-1.3,1-1.6,2.1-2.7c1.1-1.1,1.8-1.7,2.8-1.8c1-0.1,1.1,0.8,1.3,1.4
		c0.2,0.6,1.8,0.9,3.2,1.3c1.4,0.4,0.9-0.6,2.8,0.2c1.9,0.8,1.4,0,1.6-2.1c0.2-2,0.5-1.1,1.5-2.6c1-1.5,0.8-2.2,0.2-3.5
		c-0.6-1.3,0.6-1.5-0.4-3.3c-1-1.9-2-3.6-3.3-4.6c-1.3-0.9-1.5-1.8-0.9-3.3c0.6-1.5,0.7-1.4-0.1-3.3c-0.8-1.9-2-1.1-3.5-2.1
		c-1.6-1,0-1.2-2.1-2s-2.1-0.2-2.7-1.4c-0.6-1.1-1.1-0.5-1.5,0.4c-0.5,0.9-0.3,0.7-1.3,0.8c-1,0.1-1.8,1.2-3.1,2.5s-4,0.5-4,0.5
		s-1.3,0.4-2.7,1.9c-1.4,1.5-2.6,0.2-2.6,0.2s-1.8,0.3-3.8,1.5c-2.1,1.2-2.6,0.9-3.7,0.3c-1.1-0.6-2.3,0.9-1.7,1.9
		c0.6,1,0,1.7-1.1,3.3c-1.1,1.6-2.2,0.3-4.6,0.8c-2.4,0.5-3.7-0.4-4.9,0.6c-1.2,1-3.8-0.4-5.1-0.7c-1.3-0.3-2.9-0.9-4.7-1
		c-1.8-0.1-2,1.5-2.5,2.6c-0.5,1.1,1.2,1.5,0.5,3.2s-4,2.1-5.8,2.5c-1.8,0.3-1.1-1.2-1.1-1.2s-4.6,0.5-6.8,0.9
		c-2.1,0.4-2.3,0.2-4,1.1c-1.7,0.9-4.3,1.2-6.1,1c-1.7-0.2-1.7,0.2-3,0.6c-1.3,0.4-3.9,2.7-5.3,3.3c-1.4,0.6,0.2,2.2-0.1,3.5
		c-0.3,1.3,1.6,1.8,2.6,3c0.9,1.3-0.6,2.1-2.3,4.1c-1.7,2-4.4,3-6.1,3.1c-1.6,0.1-1.8,0.8-2.5,1.8c-0.7,1-2.8,1.8-3.5,2.2
		c-0.7,0.4,0.1,2.2-0.5,3.2c-0.6,1-2.2,1.8-3.2,2c-1,0.1-2.1,2.5-2.1,3.2s1.9,1.4,3.3,2.4s0.8,1.3,0.9,2.4c0.1,1.1,1.3,3.3,2,3.9
		c0.6,0.6,3.5,0.3,5.2-0.1c1.7-0.4,2.4,0.9,2.4,0.9l4.9,1.5c0,0,1.3,1.1,0.8,2.2s-0.8,1.8-0.4,2.5c0.4,0.7,0.9,1.1,0.6,2.5
		c-0.3,1.4,1.3,0.6,2.5,0.9c1.3,0.3,0.3-0.4,0.3-1.5c0.1-1.1,1.2-1.3,1.3-3.2c0.1-1.8-1.4-2.1-1.3-3.3s1.5-2,2-3s1-0.9,0.5-1.7
		s0.7-0.8,2.8-1.7s1.9,1,2.6,0c0.8-1.1,1.6-0.8,2.4-1.2s0.7-1-0.2-2.1c-0.9-1.1-0.1-1.8-0.2-2.8c-0.1-0.9,2.2-3.9,2.2-3.9l6.8-0.7
		c0,0,2.6-1.1,3.5-0.9c0.9,0.2,1.3,1.1,3,2c1.7,0.9,2.8,0.4,2.8,0.4s-0.1,0.5,0.5,1.2c0.6,0.7,2.4,2.2,2.4,2.2l-0.7,0.5l0.7,2.4
		c0,0-0.3,2.7,0.7,4.5c1,1.8,1.7,2.8,3.1,3.2s1.2,0.7,1.5,2.2c0.3,1.5,0.7,3.1,1.4,4.4c0.8,1.3-0.6,0.9-0.2,1.9c0.5,1.1,0.5,1,2,2.3
		c1.5,1.4,1.9,0.3,1.9,0.3s0.3,1.1,1.5,1.8c1.2,0.7,1.5,0.7,2.4,1.7s1.3,1.6,1.6,2.6c0,0,0,0,0,0c0.4-0.1,0.9-0.2,1.3-0.2
		c3,0,5.6,2.4,7.1,6c0.4,0.2,0.8,0.5,1,0.9c0.4,0.7,4.7,0.9,5.7,0.4s1.5,0.2,2.2,0.6c0.7,0.3,1.5,0.2,2.2-0.5c0.7-0.7,2.3-0.2,3.2,0
		s0.8,1.2,1,1.9c0.1,0.7,1.8,0.4,3.1,0.2c1.3-0.3,3.3-1.2,4.4-1.9c1.1-0.7,1.3,0.6,2.8,0.2c1.5-0.4,0.6-1.5,0.4-2.3
		c-0.2-0.8,1.6-1.2,2.6-1.5s1-1,1-2.1c0-1-1.1-1-1.2-2c0-1,1.5-1.7,1.5-1.7s1.6-2.4,2.6-4.2C359.6,320.4,359.1,320.6,359.1,320.6z"
		/>
	<path class="st4" d="M173.1,295.3c-3.5,2.8-11.1-0.6-10.3,3.8c0.4,2.2-17,0.3-16.5,2.5c0.5,2.2,0.4,18.2-1.1,19.9
		c-0.7,0.8,21.9,7.5,21.2,8.2c-0.7,0.8,6.7-1.5,7.3-0.6c0.3,0.5,1,0.8,1.6,1.1c2.6,1,5.5,2.1,8,0.8c1.2-0.6,2.1-1.7,3.5-1.8
		c1.2-0.1,2.2,0.6,3.2,1.2c0.9,0.5,1.8,1,2.7,1.4c0.7-2.3,1.2-3.5,2.4-5.2c1.3-1.9,3.2-2.7,5.1-2.9c1.9-0.3,4.6-0.3,7.5,0.8
		c2.9,1.1,2.4,2.7,4.8,2.7c2.4,0,3.2-4.8,3.5-6.4c0.3-1.6-0.5-2.9-1.9-3.7c-1.3-0.8,1.3-2.4,2.4-4c1.1-1.6,5.1-3.2,7.5-3.7
		c2.4-0.5,4.3,0.3,5.1,2.7c0.8,2.4,2.7,1.9,2.7,1.9l0.5-2.4c0,0,0.3-2.9-1.3-2.7c-1.6,0.3-1.1-1.3-1.9-3.2c-0.8-1.9,0.8-2.1,2.1-4.6
		c1.3-2.4-0.3-2.9-0.5-4.6c-0.3-1.6-2.4,0.5-4.8-0.3c-2.4-0.8-2.7-0.5-4.8,1.1c-2.1,1.6-0.5,4.6-0.8,7c-0.3,2.4-2.7,2.4-7.5,2.1
		c-4.8-0.3-4.8-1.9-6.4-3.7c-1.6-1.9-2.4-1.1-3.7,0.5c-1.3,1.6-0.3,2.4-0.3,4.3c0,1.9,0,2.9,1.1,5.1s-0.8,2.1-3.5,1.6
		c-2.7-0.5-2.9-3.5-2.9-3.5s-0.3-2.7-1.3-4c-1.1-1.3-1.3-3.2-0.5-4.8c0.8-1.6-4.6-9.4-6.7-10.4c-0.6-0.3-1-0.7-1.3-1.1
		c-0.3,2.2-0.9,4.3-2.4,6C183.4,297.5,174.5,294.2,173.1,295.3z"/>
	<path class="st5" d="M106,288.2c-11.6,0.9-22.7,11-26.4,25.4"/>
</g>
<g id="航路">
	<line class="st6" x1="48.8" y1="47.9" x2="183.9" y2="129.2"/>
	<line class="st5" x1="28.9" y1="57.2" x2="90.2" y2="295.6"/>
	<path class="st7" d="M42.2,54.5c0,0,84.2,161.6,97.6,180.4c10.5,14.6,30.8-3,73.3,28.9c40.9,30.6,39.5,90.9,23.5,118.5
		c-8.1,14-53.5,23.8-53.5,23.8l0,0"/>
	<circle class="st6" cx="225.5" cy="182.1" r="67.8"/>
</g>
<g id="マーク">
	<g>
		<path class="st8" d="M248.8,185.2c0,1-0.4,1.8-0.8,1.8s-0.8-0.8-0.8-1.8c0-1,0.8-6.6,0.8-6.6S248.8,184.2,248.8,185.2z"/>
		<circle class="st9" cx="248" cy="190.1" r="1.1"/>
		<path class="st9" d="M248.5,176.4c0,0.8-0.3,1.4-0.6,1.4c-0.3,0-0.6-0.6-0.6-1.4c0-0.8,0.5-5.3,0.5-5.3S248.5,175.6,248.5,176.4z"
			/>
		<circle class="st10" cx="248" cy="168.9" r="0.6"/>
		<path class="st8" d="M256,183.7c0.3,0.9,0.3,1.8-0.2,2c-0.4,0.2-1.1-0.5-1.4-1.4c-0.3-0.9-1.5-6.5-1.5-6.5S255.7,182.8,256,183.7z
			"/>
		<path class="st9" d="M257.9,188.2c0.2,0.6-0.1,1.2-0.7,1.4c-0.6,0.2-1.2-0.1-1.4-0.7c-0.2-0.6,0.1-1.2,0.7-1.4
			C257.1,187.3,257.7,187.6,257.9,188.2z"/>
		<path class="st9" d="M252.7,175.5c0.3,0.7,0.3,1.4,0,1.5c-0.3,0.1-0.7-0.4-1-1.2c-0.3-0.7-1.3-5.1-1.3-5.1
			S252.4,174.7,252.7,175.5z"/>
		<path class="st10" d="M250.1,168.4c0.1,0.3,0,0.6-0.3,0.7c-0.3,0.1-0.6,0-0.7-0.3c-0.1-0.3,0-0.6,0.3-0.7
			C249.7,168,250,168.1,250.1,168.4z"/>
		<path class="st8" d="M262.2,179.8c0.6,0.8,0.9,1.6,0.5,1.9c-0.4,0.3-1.2-0.1-1.8-0.8c-0.6-0.8-3.6-5.6-3.6-5.6
			S261.6,179,262.2,179.8z"/>
		<path class="st9" d="M265.6,183.4c0.4,0.5,0.3,1.2-0.1,1.6c-0.5,0.4-1.2,0.3-1.6-0.1c-0.4-0.5-0.3-1.2,0.1-1.6
			C264.5,182.8,265.2,182.9,265.6,183.4z"/>
		<path class="st9" d="M256.3,173.2c0.5,0.6,0.7,1.3,0.5,1.5c-0.2,0.2-0.8-0.1-1.4-0.7c-0.5-0.6-3-4.4-3-4.4
			S255.8,172.6,256.3,173.2z"/>
		<path class="st10" d="M251.5,167.5c0.2,0.2,0.2,0.6-0.1,0.8c-0.2,0.2-0.6,0.2-0.8-0.1c-0.2-0.2-0.2-0.6,0.1-0.8
			C251,167.2,251.3,167.2,251.5,167.5z"/>
		<path class="st11" d="M266.8,174c0.9,0.5,1.4,1.2,1.1,1.6c-0.2,0.4-1.1,0.3-2-0.2c-0.9-0.5-5.3-4-5.3-4S265.9,173.5,266.8,174z"/>
		<path class="st9" d="M271.1,176.2c0.5,0.3,0.7,1,0.4,1.5c-0.3,0.5-1,0.7-1.5,0.4c-0.5-0.3-0.7-1-0.4-1.5
			C269.9,176.1,270.6,175.9,271.1,176.2z"/>
		<path class="st9" d="M259,169.8c0.7,0.4,1.1,0.9,1,1.2c-0.2,0.3-0.8,0.2-1.5-0.2c-0.7-0.4-4.3-3.1-4.3-3.1S258.3,169.4,259,169.8z
			"/>
		<path class="st10" d="M252.5,166.1c0.3,0.2,0.4,0.5,0.2,0.8c-0.2,0.3-0.5,0.4-0.8,0.2c-0.3-0.2-0.4-0.5-0.2-0.8
			C251.9,166,252.2,165.9,252.5,166.1z"/>
		<path class="st11" d="M269.1,167c1,0.2,1.7,0.7,1.6,1.1c-0.1,0.5-0.9,0.7-1.9,0.5c-1-0.2-6.3-1.9-6.3-1.9S268.1,166.8,269.1,167z"
			/>
		<path class="st9" d="M273.9,167.6c0.6,0.1,1,0.7,0.9,1.3c-0.1,0.6-0.7,1-1.3,0.9c-0.6-0.1-1-0.7-0.9-1.3
			C272.7,167.9,273.3,167.5,273.9,167.6z"/>
		<path class="st9" d="M260.3,165.8c0.8,0.1,1.4,0.5,1.3,0.8c-0.1,0.3-0.7,0.4-1.5,0.3c-0.8-0.1-5.1-1.5-5.1-1.5
			S259.5,165.6,260.3,165.8z"/>
		<path class="st10" d="M252.9,164.4c0.3,0.1,0.5,0.3,0.5,0.6c-0.1,0.3-0.3,0.5-0.6,0.5c-0.3-0.1-0.5-0.3-0.5-0.6
			C252.3,164.6,252.6,164.4,252.9,164.4z"/>
		<path class="st11" d="M268.8,159.7c1-0.2,1.8,0.1,1.9,0.5c0.1,0.5-0.7,1-1.6,1.1c-1,0.2-6.6,0.3-6.6,0.3S267.8,159.8,268.8,159.7z
			"/>
		<path class="st9" d="M273.6,158.5c0.6-0.1,1.2,0.3,1.3,0.9c0.1,0.6-0.3,1.2-0.9,1.3c-0.6,0.1-1.2-0.3-1.3-0.9
			C272.6,159.2,273,158.6,273.6,158.5z"/>
		<path class="st9" d="M260.2,161.5c0.8-0.1,1.5,0,1.5,0.3c0.1,0.3-0.5,0.7-1.3,0.8c-0.8,0.1-5.3,0.4-5.3,0.4
			S259.4,161.6,260.2,161.5z"/>
		<path class="st10" d="M252.8,162.8c0.3-0.1,0.6,0.1,0.6,0.5c0.1,0.3-0.1,0.6-0.5,0.6c-0.3,0.1-0.6-0.1-0.6-0.5
			C252.3,163.1,252.5,162.8,252.8,162.8z"/>
		<path class="st11" d="M266.1,152.8c0.9-0.5,1.8-0.6,2-0.2c0.2,0.4-0.3,1.1-1.1,1.6c-0.9,0.5-6.1,2.6-6.1,2.6
			S265.2,153.3,266.1,152.8z"/>
		<path class="st9" d="M270.2,150.1c0.5-0.3,1.2-0.1,1.5,0.4c0.3,0.5,0.1,1.2-0.4,1.5c-0.5,0.3-1.2,0.1-1.5-0.4
			C269.4,151.1,269.6,150.5,270.2,150.1z"/>
		<path class="st9" d="M258.5,157.5c0.7-0.4,1.4-0.5,1.5-0.2c0.2,0.3-0.3,0.8-1,1.2s-4.8,2.2-4.8,2.2S257.9,157.9,258.5,157.5z"/>
		<path class="st10" d="M252.1,161.2c0.3-0.2,0.6-0.1,0.8,0.2c0.2,0.3,0.1,0.6-0.2,0.8c-0.3,0.2-0.6,0.1-0.8-0.2
			S251.8,161.4,252.1,161.2z"/>
		<path class="st11" d="M261.2,147.3c0.6-0.8,1.4-1.1,1.8-0.8s0.1,1.2-0.5,1.9c-0.6,0.8-4.9,4.5-4.9,4.5S260.5,148.1,261.2,147.3z"
			/>
		<path class="st9" d="M264.1,143.4c0.4-0.5,1.1-0.5,1.6-0.1c0.5,0.4,0.5,1.1,0.1,1.6c-0.4,0.5-1.1,0.5-1.6,0.1
			C263.7,144.6,263.7,143.9,264.1,143.4z"/>
		<path class="st9" d="M255.7,154.3c0.5-0.6,1.1-0.9,1.4-0.7c0.2,0.2,0,0.9-0.5,1.5c-0.5,0.6-3.8,3.7-3.8,3.7
			S255.2,154.9,255.7,154.3z"/>
		<path class="st10" d="M250.9,160.1c0.2-0.2,0.6-0.3,0.8-0.1c0.2,0.2,0.3,0.6,0.1,0.8c-0.2,0.2-0.6,0.3-0.8,0.1
			C250.7,160.6,250.7,160.3,250.9,160.1z"/>
		<path class="st11" d="M254.7,143.9c0.3-0.9,1-1.6,1.4-1.4c0.4,0.2,0.5,1,0.2,2c-0.3,0.9-3,5.9-3,5.9S254.3,144.8,254.7,143.9z"/>
		<path class="st9" d="M256.1,139.2c0.2-0.6,0.9-0.9,1.4-0.7c0.6,0.2,0.9,0.9,0.7,1.4c-0.2,0.6-0.9,0.9-1.4,0.7
			C256.2,140.4,255.9,139.8,256.1,139.2z"/>
		<path class="st9" d="M251.9,152.3c0.3-0.7,0.7-1.3,1-1.2c0.3,0.1,0.3,0.8,0,1.5c-0.3,0.7-2.3,4.8-2.3,4.8S251.6,153,251.9,152.3z"
			/>
		<path class="st10" d="M249.3,159.3c0.1-0.3,0.4-0.4,0.7-0.3c0.3,0.1,0.4,0.4,0.3,0.7c-0.1,0.3-0.4,0.4-0.7,0.3
			C249.4,160,249.2,159.6,249.3,159.3z"/>
		<path class="st11" d="M247.4,142.8c0-1,0.4-1.8,0.8-1.8c0.5,0,0.8,0.8,0.8,1.8c0,1-0.8,6.6-0.8,6.6S247.4,143.8,247.4,142.8z"/>
		<path class="st9" d="M247.1,138c0-0.6,0.5-1.1,1.1-1.1c0.6,0,1.1,0.5,1.1,1.1c0,0.6-0.5,1.1-1.1,1.1
			C247.6,139.1,247.1,138.6,247.1,138z"/>
		<path class="st9" d="M247.7,151.7c0-0.8,0.3-1.4,0.6-1.4c0.3,0,0.6,0.6,0.6,1.4c0,0.8-0.5,5.3-0.5,5.3S247.7,152.5,247.7,151.7z"
			/>
		<path class="st10" d="M247.7,159.2c0-0.3,0.3-0.6,0.6-0.6c0.3,0,0.6,0.3,0.6,0.6c0,0.3-0.3,0.6-0.6,0.6
			C247.9,159.8,247.7,159.5,247.7,159.2z"/>
		<path class="st11" d="M240.2,144.4c-0.3-0.9-0.3-1.8,0.2-2c0.4-0.2,1.1,0.5,1.4,1.4c0.3,0.9,1.5,6.5,1.5,6.5
			S240.5,145.3,240.2,144.4z"/>
		<path class="st9" d="M238.2,139.9c-0.2-0.6,0.1-1.2,0.7-1.4c0.6-0.2,1.2,0.1,1.4,0.7c0.2,0.6-0.1,1.2-0.7,1.4
			C239.1,140.8,238.5,140.5,238.2,139.9z"/>
		<path class="st9" d="M243.5,152.6c-0.3-0.7-0.3-1.4,0-1.5c0.3-0.1,0.7,0.4,1,1.2c0.3,0.7,1.3,5.1,1.3,5.1S243.7,153.3,243.5,152.6
			z"/>
		<path class="st10" d="M246,159.6c-0.1-0.3,0-0.6,0.3-0.7c0.3-0.1,0.6,0,0.7,0.3c0.1,0.3,0,0.6-0.3,0.7
			C246.5,160.1,246.1,159.9,246,159.6z"/>
		<path class="st11" d="M233.9,148.3c-0.6-0.8-0.9-1.6-0.5-1.9c0.4-0.3,1.2,0.1,1.8,0.8c0.6,0.8,3.6,5.6,3.6,5.6
			S234.6,149,233.9,148.3z"/>
		<path class="st9" d="M230.6,144.7c-0.4-0.5-0.3-1.2,0.1-1.6c0.5-0.4,1.2-0.3,1.6,0.1c0.4,0.5,0.3,1.2-0.1,1.6
			C231.7,145.2,231,145.2,230.6,144.7z"/>
		<path class="st9" d="M239.8,154.9c-0.5-0.6-0.7-1.3-0.5-1.5c0.2-0.2,0.8,0.1,1.4,0.7c0.5,0.6,3,4.4,3,4.4S240.3,155.5,239.8,154.9
			z"/>
		<path class="st10" d="M244.7,160.6c-0.2-0.2-0.2-0.6,0.1-0.8c0.2-0.2,0.6-0.2,0.8,0.1c0.2,0.2,0.2,0.6-0.1,0.8
			C245.2,160.9,244.9,160.8,244.7,160.6z"/>
		<path class="st11" d="M229.4,154c-0.9-0.5-1.4-1.2-1.1-1.6c0.2-0.4,1.1-0.3,2,0.2c0.9,0.5,5.3,4,5.3,4S230.3,154.5,229.4,154z"/>
		<path class="st9" d="M225,151.8c-0.5-0.3-0.7-1-0.4-1.5c0.3-0.5,1-0.7,1.5-0.4c0.5,0.3,0.7,1,0.4,1.5
			C226.2,152,225.6,152.2,225,151.8z"/>
		<path class="st9" d="M237.2,158.2c-0.7-0.4-1.1-0.9-1-1.2c0.2-0.3,0.8-0.2,1.5,0.2c0.7,0.4,4.3,3.1,4.3,3.1
			S237.9,158.6,237.2,158.2z"/>
		<path class="st10" d="M243.7,162c-0.3-0.2-0.4-0.5-0.2-0.8c0.2-0.3,0.5-0.4,0.8-0.2c0.3,0.2,0.4,0.5,0.2,0.8
			C244.3,162,244,162.1,243.7,162z"/>
		<path class="st11" d="M227.1,161c-1-0.2-1.7-0.7-1.6-1.1c0.1-0.5,0.9-0.7,1.9-0.5c1,0.2,6.3,1.9,6.3,1.9S228.1,161.2,227.1,161z"
			/>
		<path class="st9" d="M222.2,160.5c-0.6-0.1-1-0.7-0.9-1.3c0.1-0.6,0.7-1,1.3-0.9c0.6,0.1,1,0.7,0.9,1.3
			C223.4,160.2,222.9,160.6,222.2,160.5z"/>
		<path class="st9" d="M235.9,162.3c-0.8-0.1-1.4-0.5-1.3-0.8c0.1-0.3,0.7-0.4,1.5-0.3c0.8,0.1,5.1,1.5,5.1,1.5
			S236.7,162.4,235.9,162.3z"/>
		<path class="st10" d="M243.3,163.6c-0.3-0.1-0.5-0.3-0.5-0.6c0.1-0.3,0.3-0.5,0.6-0.5c0.3,0.1,0.5,0.3,0.5,0.6
			C243.8,163.5,243.6,163.7,243.3,163.6z"/>
		<path class="st11" d="M227.3,168.4c-1,0.2-1.8-0.1-1.9-0.5c-0.1-0.5,0.7-1,1.6-1.1c1-0.2,6.6-0.3,6.6-0.3S228.3,168.2,227.3,168.4
			z"/>
		<path class="st9" d="M222.6,169.5c-0.6,0.1-1.2-0.3-1.3-0.9c-0.1-0.6,0.3-1.2,0.9-1.3c0.6-0.1,1.2,0.3,1.3,0.9
			C223.6,168.8,223.2,169.4,222.6,169.5z"/>
		<path class="st9" d="M236,166.6c-0.8,0.1-1.5,0-1.5-0.3c-0.1-0.3,0.5-0.7,1.3-0.8c0.8-0.1,5.3-0.4,5.3-0.4S236.8,166.4,236,166.6z
			"/>
		<path class="st10" d="M243.4,165.3c-0.3,0.1-0.6-0.1-0.6-0.5c-0.1-0.3,0.1-0.6,0.5-0.6c0.3-0.1,0.6,0.1,0.6,0.5
			C243.9,164.9,243.7,165.2,243.4,165.3z"/>
		<path class="st8" d="M230.1,175.2c-0.9,0.5-1.8,0.6-2,0.2c-0.2-0.4,0.3-1.1,1.1-1.6c0.9-0.5,6.1-2.6,6.1-2.6
			S231,174.7,230.1,175.2z"/>
		<path class="st9" d="M226,177.9c-0.5,0.3-1.2,0.1-1.5-0.4c-0.3-0.5-0.1-1.2,0.4-1.5c0.5-0.3,1.2-0.1,1.5,0.4
			C226.7,176.9,226.5,177.6,226,177.9z"/>
		<path class="st9" d="M237.6,170.6c-0.7,0.4-1.4,0.5-1.5,0.2c-0.2-0.3,0.3-0.8,1-1.2c0.7-0.4,4.8-2.2,4.8-2.2
			S238.3,170.2,237.6,170.6z"/>
		<path class="st10" d="M244.1,166.8c-0.3,0.2-0.6,0.1-0.8-0.2c-0.2-0.3-0.1-0.6,0.2-0.8c0.3-0.2,0.6-0.1,0.8,0.2
			C244.5,166.3,244.4,166.7,244.1,166.8z"/>
		<path class="st8" d="M235,180.7c-0.6,0.8-1.4,1.1-1.8,0.8c-0.4-0.3-0.1-1.2,0.5-1.9c0.6-0.8,4.9-4.5,4.9-4.5
			S235.6,179.9,235,180.7z"/>
		<path class="st9" d="M232.1,184.6c-0.4,0.5-1.1,0.5-1.6,0.1c-0.5-0.4-0.5-1.1-0.1-1.6c0.4-0.5,1.1-0.5,1.6-0.1
			C232.4,183.4,232.5,184.2,232.1,184.6z"/>
		<path class="st9" d="M240.5,173.7c-0.5,0.6-1.1,0.9-1.4,0.7c-0.2-0.2,0-0.9,0.5-1.5c0.5-0.6,3.8-3.7,3.8-3.7
			S241,173.1,240.5,173.7z"/>
		<path class="st10" d="M245.3,168c-0.2,0.2-0.6,0.3-0.8,0.1c-0.2-0.2-0.3-0.6-0.1-0.8c0.2-0.2,0.6-0.3,0.8-0.1
			C245.5,167.4,245.5,167.8,245.3,168z"/>
		<path class="st8" d="M241.5,184.2c-0.3,0.9-1,1.6-1.4,1.4c-0.4-0.2-0.5-1-0.2-2c0.3-0.9,3-5.9,3-5.9S241.8,183.2,241.5,184.2z"/>
		<path class="st9" d="M240.1,188.9c-0.2,0.6-0.9,0.9-1.4,0.7c-0.6-0.2-0.9-0.9-0.7-1.4c0.2-0.6,0.9-0.9,1.4-0.7
			C240,187.6,240.3,188.3,240.1,188.9z"/>
		<path class="st9" d="M244.3,175.8c-0.3,0.7-0.7,1.3-1,1.2c-0.3-0.1-0.3-0.8,0-1.5c0.3-0.7,2.3-4.8,2.3-4.8S244.5,175,244.3,175.8z
			"/>
		<path class="st10" d="M246.8,168.7c-0.1,0.3-0.4,0.4-0.7,0.3c-0.3-0.1-0.4-0.4-0.3-0.7c0.1-0.3,0.4-0.4,0.7-0.3
			C246.8,168.1,246.9,168.4,246.8,168.7z"/>
	</g>
	<g>
		<path class="st8" d="M214.8,234.1c0,0.8-0.3,1.5-0.7,1.5c-0.4,0-0.7-0.7-0.7-1.5c0-0.8,0.7-5.6,0.7-5.6S214.8,233.2,214.8,234.1z"
			/>
		<circle class="st9" cx="214.1" cy="238.2" r="1"/>
		<path class="st9" d="M214.6,226.5c0,0.7-0.2,1.2-0.5,1.2c-0.3,0-0.5-0.6-0.5-1.2c0-0.7,0.5-4.5,0.5-4.5S214.6,225.8,214.6,226.5z"
			/>
		<circle class="st10" cx="214.1" cy="220.1" r="0.5"/>
		<path class="st8" d="M220.9,232.8c0.3,0.8,0.2,1.6-0.1,1.7c-0.4,0.1-0.9-0.4-1.2-1.2c-0.3-0.8-1.3-5.5-1.3-5.5
			S220.7,232,220.9,232.8z"/>
		<path class="st9" d="M222.6,236.6c0.2,0.5-0.1,1-0.6,1.2c-0.5,0.2-1-0.1-1.2-0.6c-0.2-0.5,0.1-1,0.6-1.2
			C221.9,235.9,222.4,236.1,222.6,236.6z"/>
		<path class="st9" d="M218.1,225.8c0.2,0.6,0.2,1.2,0,1.3c-0.2,0.1-0.6-0.4-0.9-1c-0.2-0.6-1.1-4.4-1.1-4.4
			S217.9,225.1,218.1,225.8z"/>
		<path class="st10" d="M216,219.8c0.1,0.2,0,0.5-0.3,0.6c-0.2,0.1-0.5,0-0.6-0.3c-0.1-0.2,0-0.5,0.3-0.6
			C215.6,219.4,215.9,219.5,216,219.8z"/>
		<path class="st8" d="M226.3,229.5c0.5,0.7,0.7,1.4,0.4,1.6c-0.3,0.3-1-0.1-1.5-0.7c-0.5-0.7-3.1-4.7-3.1-4.7
			S225.7,228.8,226.3,229.5z"/>
		<path class="st9" d="M229.1,232.5c0.3,0.4,0.3,1-0.1,1.3c-0.4,0.3-1,0.3-1.3-0.1c-0.3-0.4-0.3-1,0.1-1.3
			C228.2,232,228.8,232.1,229.1,232.5z"/>
		<path class="st9" d="M221.2,223.8c0.4,0.5,0.6,1.1,0.4,1.2c-0.2,0.2-0.7-0.1-1.2-0.6c-0.4-0.5-2.5-3.7-2.5-3.7
			S220.8,223.3,221.2,223.8z"/>
		<path class="st10" d="M217.1,219c0.2,0.2,0.1,0.5-0.1,0.7c-0.2,0.2-0.5,0.1-0.7-0.1c-0.2-0.2-0.1-0.5,0.1-0.7
			C216.7,218.7,217,218.7,217.1,219z"/>
		<path class="st11" d="M230.1,224.5c0.7,0.4,1.2,1,1,1.4c-0.2,0.3-1,0.3-1.7-0.2c-0.7-0.4-4.5-3.4-4.5-3.4S229.4,224.1,230.1,224.5
			z"/>
		<path class="st9" d="M233.9,226.4c0.5,0.3,0.6,0.8,0.3,1.3c-0.3,0.5-0.8,0.6-1.3,0.3c-0.5-0.3-0.6-0.8-0.3-1.3
			C232.8,226.3,233.4,226.1,233.9,226.4z"/>
		<path class="st9" d="M223.5,221c0.6,0.3,1,0.8,0.8,1c-0.1,0.2-0.7,0.1-1.3-0.2c-0.6-0.3-3.6-2.6-3.6-2.6S222.9,220.6,223.5,221z"
			/>
		<path class="st10" d="M218,217.8c0.2,0.1,0.3,0.4,0.2,0.6c-0.1,0.2-0.4,0.3-0.6,0.2c-0.2-0.1-0.3-0.4-0.2-0.6
			C217.4,217.7,217.7,217.6,218,217.8z"/>
		<path class="st11" d="M232.1,218.6c0.8,0.1,1.5,0.6,1.4,1c-0.1,0.4-0.8,0.6-1.6,0.4c-0.8-0.1-5.4-1.7-5.4-1.7
			S231.2,218.4,232.1,218.6z"/>
		<path class="st9" d="M236.2,219.1c0.5,0.1,0.9,0.6,0.8,1.1c-0.1,0.5-0.6,0.9-1.1,0.8c-0.5-0.1-0.9-0.6-0.8-1.1
			C235.2,219.3,235.7,219,236.2,219.1z"/>
		<path class="st9" d="M224.6,217.5c0.7,0.1,1.2,0.4,1.1,0.7c0,0.3-0.6,0.4-1.3,0.3c-0.7-0.1-4.3-1.2-4.3-1.2
			S223.9,217.4,224.6,217.5z"/>
		<path class="st10" d="M218.3,216.4c0.3,0,0.4,0.3,0.4,0.6c0,0.3-0.3,0.4-0.6,0.4c-0.3,0-0.4-0.3-0.4-0.6
			C217.8,216.5,218.1,216.3,218.3,216.4z"/>
		<path class="st11" d="M231.9,212.3c0.8-0.1,1.6,0,1.6,0.4c0.1,0.4-0.6,0.8-1.4,1c-0.8,0.1-5.6,0.3-5.6,0.3S231,212.5,231.9,212.3z
			"/>
		<path class="st9" d="M235.9,211.4c0.5-0.1,1,0.3,1.1,0.8c0.1,0.5-0.3,1-0.8,1.1c-0.5,0.1-1-0.3-1.1-0.8
			C235.1,211.9,235.4,211.4,235.9,211.4z"/>
		<path class="st9" d="M224.5,213.9c0.7-0.1,1.2,0,1.3,0.3c0,0.3-0.5,0.6-1.1,0.7c-0.7,0.1-4.5,0.3-4.5,0.3S223.8,214,224.5,213.9z"
			/>
		<path class="st10" d="M218.2,215c0.3,0,0.5,0.1,0.6,0.4c0,0.3-0.1,0.5-0.4,0.6c-0.3,0-0.5-0.1-0.6-0.4
			C217.8,215.3,217.9,215,218.2,215z"/>
		<path class="st11" d="M229.5,206.5c0.7-0.4,1.5-0.5,1.7-0.2c0.2,0.3-0.2,1-1,1.4c-0.7,0.4-5.2,2.2-5.2,2.2
			S228.8,206.9,229.5,206.5z"/>
		<path class="st9" d="M233,204.2c0.5-0.3,1-0.1,1.3,0.3c0.3,0.5,0.1,1-0.3,1.3c-0.5,0.3-1,0.1-1.3-0.3
			C232.4,205.1,232.6,204.5,233,204.2z"/>
		<path class="st9" d="M223.1,210.5c0.6-0.3,1.2-0.4,1.3-0.2c0.1,0.2-0.2,0.7-0.8,1c-0.6,0.3-4.1,1.8-4.1,1.8
			S222.5,210.8,223.1,210.5z"/>
		<path class="st10" d="M217.6,213.7c0.2-0.1,0.5-0.1,0.6,0.2c0.1,0.2,0.1,0.5-0.2,0.6c-0.2,0.1-0.5,0.1-0.6-0.2
			C217.3,214.1,217.4,213.8,217.6,213.7z"/>
		<path class="st11" d="M225.3,201.8c0.5-0.7,1.2-1,1.5-0.7c0.3,0.3,0.1,1-0.4,1.6c-0.5,0.7-4.1,3.8-4.1,3.8
			S224.8,202.5,225.3,201.8z"/>
		<path class="st9" d="M227.8,198.5c0.3-0.4,0.9-0.5,1.3-0.1c0.4,0.3,0.5,0.9,0.1,1.3c-0.3,0.4-0.9,0.5-1.3,0.1
			C227.6,199.5,227.5,198.9,227.8,198.5z"/>
		<path class="st9" d="M220.7,207.8c0.4-0.5,1-0.8,1.2-0.6c0.2,0.2,0,0.7-0.4,1.2c-0.4,0.5-3.2,3.1-3.2,3.1S220.2,208.3,220.7,207.8
			z"/>
		<path class="st10" d="M216.6,212.6c0.2-0.2,0.5-0.2,0.7-0.1c0.2,0.2,0.2,0.5,0.1,0.7c-0.2,0.2-0.5,0.2-0.7,0.1
			C216.4,213.1,216.4,212.8,216.6,212.6z"/>
		<path class="st11" d="M219.8,198.9c0.3-0.8,0.8-1.3,1.2-1.2c0.4,0.1,0.4,0.9,0.1,1.7c-0.3,0.8-2.6,5-2.6,5
			S219.5,199.7,219.8,198.9z"/>
		<path class="st9" d="M221,194.9c0.2-0.5,0.7-0.7,1.2-0.6c0.5,0.2,0.7,0.7,0.6,1.2c-0.2,0.5-0.7,0.7-1.2,0.6
			C221.1,195.9,220.8,195.4,221,194.9z"/>
		<path class="st9" d="M217.5,206c0.2-0.6,0.6-1.1,0.9-1c0.2,0.1,0.3,0.7,0,1.3c-0.2,0.6-2,4-2,4S217.2,206.7,217.5,206z"/>
		<path class="st10" d="M215.3,212c0.1-0.2,0.4-0.4,0.6-0.3c0.2,0.1,0.4,0.4,0.3,0.6c-0.1,0.2-0.4,0.4-0.6,0.3
			C215.3,212.6,215.2,212.3,215.3,212z"/>
		<path class="st11" d="M213.6,198c0-0.8,0.3-1.5,0.7-1.5s0.7,0.7,0.7,1.5c0,0.8-0.7,5.6-0.7,5.6S213.6,198.8,213.6,198z"/>
		<path class="st9" d="M213.4,193.8c0-0.5,0.4-1,1-1c0.5,0,1,0.4,1,1c0,0.5-0.4,1-1,1C213.8,194.8,213.4,194.4,213.4,193.8z"/>
		<path class="st9" d="M213.8,205.5c0-0.7,0.2-1.2,0.5-1.2c0.3,0,0.5,0.6,0.5,1.2c0,0.7-0.5,4.5-0.5,4.5S213.8,206.2,213.8,205.5z"
			/>
		<path class="st10" d="M213.8,211.9c0-0.3,0.2-0.5,0.5-0.5c0.3,0,0.5,0.2,0.5,0.5c0,0.3-0.2,0.5-0.5,0.5
			C214.1,212.4,213.8,212.2,213.8,211.9z"/>
		<path class="st11" d="M207.5,199.3c-0.3-0.8-0.2-1.6,0.1-1.7c0.4-0.1,0.9,0.4,1.2,1.2c0.3,0.8,1.3,5.5,1.3,5.5
			S207.8,200.1,207.5,199.3z"/>
		<path class="st9" d="M205.8,195.5c-0.2-0.5,0.1-1,0.6-1.2c0.5-0.2,1,0.1,1.2,0.6c0.2,0.5-0.1,1-0.6,1.2
			C206.6,196.2,206,196,205.8,195.5z"/>
		<path class="st9" d="M210.3,206.3c-0.2-0.6-0.2-1.2,0-1.3c0.2-0.1,0.6,0.4,0.9,1c0.2,0.6,1.1,4.4,1.1,4.4S210.5,206.9,210.3,206.3
			z"/>
		<path class="st10" d="M212.5,212.3c-0.1-0.2,0-0.5,0.3-0.6c0.2-0.1,0.5,0,0.6,0.3c0.1,0.2,0,0.5-0.3,0.6
			C212.8,212.7,212.6,212.5,212.5,212.3z"/>
		<path class="st11" d="M202.2,202.6c-0.5-0.7-0.7-1.4-0.4-1.6c0.3-0.3,1,0.1,1.5,0.7c0.5,0.7,3.1,4.7,3.1,4.7
			S202.7,203.2,202.2,202.6z"/>
		<path class="st9" d="M199.3,199.6c-0.3-0.4-0.3-1,0.1-1.3c0.4-0.3,1-0.3,1.3,0.1c0.3,0.4,0.3,1-0.1,1.3
			C200.2,200,199.6,200,199.3,199.6z"/>
		<path class="st9" d="M207.2,208.2c-0.4-0.5-0.6-1.1-0.4-1.2c0.2-0.2,0.7,0.1,1.2,0.6c0.4,0.5,2.5,3.7,2.5,3.7
			S207.6,208.7,207.2,208.2z"/>
		<path class="st10" d="M211.3,213.1c-0.2-0.2-0.1-0.5,0.1-0.7c0.2-0.2,0.5-0.1,0.7,0.1c0.2,0.2,0.1,0.5-0.1,0.7
			C211.8,213.3,211.5,213.3,211.3,213.1z"/>
		<path class="st11" d="M198.3,207.5c-0.7-0.4-1.2-1-1-1.4c0.2-0.3,1-0.3,1.7,0.2c0.7,0.4,4.5,3.4,4.5,3.4S199,208,198.3,207.5z"/>
		<path class="st9" d="M194.6,205.7c-0.5-0.3-0.6-0.8-0.3-1.3c0.3-0.5,0.8-0.6,1.3-0.3c0.5,0.3,0.6,0.8,0.3,1.3
			C195.6,205.8,195,205.9,194.6,205.7z"/>
		<path class="st9" d="M204.9,211.1c-0.6-0.3-1-0.8-0.8-1c0.1-0.2,0.7-0.1,1.3,0.2c0.6,0.3,3.6,2.6,3.6,2.6S205.5,211.4,204.9,211.1
			z"/>
		<path class="st10" d="M210.5,214.3c-0.2-0.1-0.3-0.4-0.2-0.6c0.1-0.2,0.4-0.3,0.7-0.2c0.2,0.1,0.3,0.4,0.2,0.6
			C211,214.3,210.7,214.4,210.5,214.3z"/>
		<path class="st11" d="M196.3,213.5c-0.8-0.1-1.5-0.6-1.4-1c0.1-0.4,0.8-0.6,1.6-0.4c0.8,0.1,5.4,1.7,5.4,1.7
			S197.2,213.6,196.3,213.5z"/>
		<path class="st9" d="M192.2,213c-0.5-0.1-0.9-0.6-0.8-1.1c0.1-0.5,0.6-0.9,1.1-0.8c0.5,0.1,0.9,0.6,0.8,1.1
			C193.2,212.7,192.7,213.1,192.2,213z"/>
		<path class="st9" d="M203.8,214.6c-0.7-0.1-1.2-0.4-1.1-0.7c0-0.3,0.6-0.4,1.3-0.3c0.7,0.1,4.3,1.2,4.3,1.2
			S204.5,214.7,203.8,214.6z"/>
		<path class="st10" d="M210.1,215.7c-0.3,0-0.4-0.3-0.4-0.6c0-0.3,0.3-0.4,0.6-0.4c0.3,0,0.4,0.3,0.4,0.6
			C210.6,215.5,210.4,215.7,210.1,215.7z"/>
		<path class="st11" d="M196.5,219.8c-0.8,0.1-1.6,0-1.6-0.4c-0.1-0.4,0.6-0.8,1.4-1c0.8-0.1,5.6-0.3,5.6-0.3
			S197.4,219.6,196.5,219.8z"/>
		<path class="st9" d="M192.5,220.7c-0.5,0.1-1-0.3-1.1-0.8c-0.1-0.5,0.3-1,0.8-1.1c0.5-0.1,1,0.3,1.1,0.8
			C193.4,220.1,193,220.6,192.5,220.7z"/>
		<path class="st9" d="M203.9,218.2c-0.7,0.1-1.2,0-1.3-0.3c0-0.3,0.5-0.6,1.1-0.7c0.7-0.1,4.5-0.3,4.5-0.3S204.6,218.1,203.9,218.2
			z"/>
		<path class="st10" d="M210.2,217.1c-0.3,0-0.5-0.1-0.6-0.4c0-0.3,0.1-0.5,0.4-0.6c0.3,0,0.5,0.1,0.6,0.4
			C210.6,216.8,210.5,217.1,210.2,217.1z"/>
		<path class="st8" d="M198.9,225.6c-0.7,0.4-1.5,0.5-1.7,0.2c-0.2-0.3,0.2-1,1-1.4c0.7-0.4,5.2-2.2,5.2-2.2
			S199.6,225.1,198.9,225.6z"/>
		<path class="st9" d="M195.4,227.9c-0.5,0.3-1,0.1-1.3-0.3c-0.3-0.5-0.1-1,0.3-1.3c0.5-0.3,1-0.1,1.3,0.3
			C196,227,195.9,227.6,195.4,227.9z"/>
		<path class="st9" d="M205.3,221.6c-0.6,0.3-1.2,0.4-1.3,0.2c-0.1-0.2,0.2-0.7,0.8-1c0.6-0.3,4.1-1.8,4.1-1.8
			S205.9,221.3,205.3,221.6z"/>
		<path class="st10" d="M210.8,218.4c-0.2,0.1-0.5,0.1-0.6-0.2c-0.1-0.2-0.1-0.5,0.2-0.7c0.2-0.1,0.5-0.1,0.6,0.2
			C211.1,218,211.1,218.3,210.8,218.4z"/>
		<path class="st8" d="M203.1,230.2c-0.5,0.7-1.2,1-1.5,0.7c-0.3-0.3-0.1-1,0.4-1.6c0.5-0.7,4.1-3.8,4.1-3.8
			S203.6,229.6,203.1,230.2z"/>
		<path class="st9" d="M200.6,233.6c-0.3,0.4-0.9,0.5-1.3,0.1c-0.4-0.3-0.5-0.9-0.1-1.3c0.3-0.4,0.9-0.5,1.3-0.1
			C200.9,232.6,200.9,233.2,200.6,233.6z"/>
		<path class="st9" d="M207.7,224.3c-0.4,0.5-1,0.8-1.2,0.6c-0.2-0.2,0-0.7,0.4-1.2c0.4-0.5,3.2-3.1,3.2-3.1
			S208.2,223.8,207.7,224.3z"/>
		<path class="st10" d="M211.8,219.4c-0.2,0.2-0.5,0.2-0.7,0.1c-0.2-0.2-0.2-0.5-0.1-0.7c0.2-0.2,0.5-0.2,0.7-0.1
			C212,218.9,212,219.2,211.8,219.4z"/>
		<path class="st8" d="M208.6,233.2c-0.3,0.8-0.8,1.3-1.2,1.2c-0.4-0.1-0.4-0.9-0.1-1.7c0.3-0.8,2.6-5,2.6-5
			S208.9,232.4,208.6,233.2z"/>
		<path class="st9" d="M207.4,237.2c-0.2,0.5-0.7,0.7-1.2,0.6c-0.5-0.2-0.7-0.7-0.6-1.2c0.2-0.5,0.7-0.7,1.2-0.6
			C207.3,236.1,207.6,236.7,207.4,237.2z"/>
		<path class="st9" d="M211,226c-0.2,0.6-0.6,1.1-0.9,1c-0.2-0.1-0.3-0.7,0-1.3c0.2-0.6,2-4,2-4S211.2,225.4,211,226z"/>
		<path class="st10" d="M213.1,220c-0.1,0.2-0.4,0.4-0.6,0.3c-0.2-0.1-0.4-0.4-0.3-0.6c0.1-0.2,0.4-0.4,0.6-0.3
			C213.1,219.5,213.2,219.8,213.1,220z"/>
	</g>
	<g>
		<circle class="st12" cx="198" cy="141.7" r="0.9"/>
		<circle class="st12" cx="199.3" cy="144.2" r="0.9"/>
		<circle class="st12" cx="201" cy="146.5" r="0.9"/>
		<circle class="st12" cx="202.8" cy="148.8" r="0.9"/>
		<circle class="st12" cx="204.8" cy="151" r="0.9"/>
		<circle class="st12" cx="206.5" cy="153.3" r="0.9"/>
		<circle class="st12" cx="207.7" cy="155.9" r="0.9"/>
		<circle class="st12" cx="208.2" cy="158.5" r="0.9"/>
		<circle class="st12" cx="208.1" cy="162" r="0.9"/>
		<circle class="st12" cx="207.5" cy="164.9" r="0.9"/>
		<circle class="st12" cx="206.3" cy="167.5" r="0.9"/>
		<circle class="st12" cx="204.4" cy="169.6" r="0.9"/>
		<circle class="st12" cx="202.3" cy="171.5" r="0.9"/>
		<circle class="st12" cx="199.6" cy="172.8" r="0.9"/>
		<circle class="st12" cx="197" cy="173.6" r="0.9"/>
		<circle class="st12" cx="194.1" cy="173.7" r="0.9"/>
		<circle class="st12" cx="190.9" cy="173.4" r="0.9"/>
		<circle class="st12" cx="187.9" cy="173" r="0.9"/>
		<circle class="st12" cx="184.8" cy="172.2" r="0.9"/>
		<circle class="st12" cx="182.1" cy="171.3" r="0.9"/>
		<circle class="st12" cx="179.8" cy="170.1" r="0.9"/>
		<circle class="st12" cx="177.3" cy="168.5" r="0.9"/>
		<circle class="st12" cx="175.4" cy="166.4" r="0.9"/>
		<circle class="st12" cx="174" cy="163.8" r="0.9"/>
		<circle class="st12" cx="173.3" cy="161.2" r="0.9"/>
		<circle class="st12" cx="173.1" cy="158" r="0.9"/>
		<circle class="st12" cx="174" cy="155.3" r="0.9"/>
		<circle class="st12" cx="175.3" cy="152.6" r="0.9"/>
		<circle class="st12" cx="177.1" cy="150.3" r="0.9"/>
		<circle class="st12" cx="178.9" cy="148.3" r="0.9"/>
		<circle class="st12" cx="181.3" cy="146.5" r="0.9"/>
		<circle class="st12" cx="183.9" cy="145" r="0.9"/>
		<circle class="st12" cx="186.6" cy="143.9" r="0.9"/>
		<circle class="st12" cx="189.4" cy="142.9" r="0.9"/>
		<circle class="st12" cx="192" cy="142.3" r="0.9"/>
		<circle class="st12" cx="194.7" cy="141.8" r="0.9"/>
		<circle class="st12" cx="191.9" cy="147.1" r="0.9"/>
		<circle class="st12" cx="190" cy="148.9" r="0.9"/>
		<circle class="st12" cx="188.5" cy="151.3" r="0.9"/>
		<circle class="st12" cx="187.3" cy="153.8" r="0.9"/>
		<circle class="st12" cx="186.5" cy="156.5" r="0.9"/>
		<circle class="st12" cx="186" cy="159.2" r="0.9"/>
		<circle class="st12" cx="185.6" cy="162.1" r="0.9"/>
		<circle class="st12" cx="185.7" cy="164.9" r="0.9"/>
		<circle class="st12" cx="186.3" cy="167.7" r="0.9"/>
		<circle class="st13" cx="204.9" cy="173.1" r="0.9"/>
		<circle class="st13" cx="206.9" cy="175" r="0.9"/>
		<circle class="st13" cx="208.4" cy="177.2" r="0.9"/>
		<circle class="st13" cx="209.7" cy="179.6" r="0.9"/>
		<circle class="st13" cx="210.6" cy="182.2" r="0.9"/>
		<circle class="st13" cx="207.9" cy="182.5" r="0.9"/>
		<circle class="st13" cx="205.3" cy="182.3" r="0.9"/>
		<circle class="st13" cx="202.8" cy="182.1" r="0.9"/>
		<circle class="st13" cx="200.1" cy="181.6" r="0.9"/>
		<circle class="st13" cx="197.6" cy="180.5" r="0.9"/>
		<circle class="st13" cx="195.3" cy="179.1" r="0.9"/>
		<circle class="st13" cx="193.3" cy="177.2" r="0.9"/>
		<circle class="st13" cx="182.5" cy="174.2" r="0.9"/>
		<circle class="st13" cx="180" cy="175.3" r="0.9"/>
		<circle class="st13" cx="177.5" cy="176.1" r="0.9"/>
		<circle class="st13" cx="174.7" cy="176.2" r="0.9"/>
		<circle class="st13" cx="172.1" cy="175.9" r="0.9"/>
		<circle class="st13" cx="169.7" cy="175.4" r="0.9"/>
		<circle class="st13" cx="167.1" cy="174.4" r="0.9"/>
		<circle class="st13" cx="164.7" cy="173.2" r="0.9"/>
		<circle class="st13" cx="165.9" cy="170.2" r="0.9"/>
		<circle class="st13" cx="168.3" cy="168.5" r="0.9"/>
		<circle class="st13" cx="170.7" cy="167" r="0.9"/>
		<circle class="st13" cx="172.9" cy="165.8" r="0.9"/>
	</g>
	<g>
		<rect x="280.3" y="193.2" class="st14" width="4.8" height="8"/>
		<rect x="262.3" y="200.9" class="st15" width="25.9" height="12.1"/>
		<circle class="st14" cx="267.4" cy="205.2" r="1.5"/>
		<circle class="st14" cx="272.4" cy="205.2" r="1.5"/>
		<circle class="st14" cx="277.4" cy="205.2" r="1.5"/>
		<circle class="st14" cx="282.5" cy="205.2" r="1.5"/>
		<polygon class="st14" points="256,209.2 297.4,209.2 292.4,220.6 261.3,220.6 		"/>
		<rect x="280.3" y="194.4" class="st15" width="4.8" height="0.8"/>
		<rect x="280.3" y="196.9" class="st15" width="4.8" height="0.8"/>
	</g>
	<g>
		<rect x="60.8" y="259.3" class="st16" width="4.8" height="8"/>
		<rect x="42.8" y="267" class="st15" width="25.9" height="12.1"/>
		<circle class="st16" cx="47.9" cy="271.4" r="1.5"/>
		<circle class="st16" cx="52.9" cy="271.4" r="1.5"/>
		<circle class="st16" cx="57.9" cy="271.4" r="1.5"/>
		<circle class="st16" cx="63" cy="271.4" r="1.5"/>
		<polygon class="st16" points="36.5,275.3 77.9,275.3 72.9,286.7 41.8,286.7 		"/>
		<rect x="60.8" y="260.6" class="st15" width="4.8" height="0.8"/>
		<rect x="60.8" y="263" class="st15" width="4.8" height="0.8"/>
	</g>
	<g>
		<rect x="127.5" y="182.3" class="st17" width="4.8" height="8"/>
		<rect x="109.6" y="190" class="st15" width="25.9" height="12.1"/>
		<circle class="st17" cx="114.7" cy="194.3" r="1.5"/>
		<circle class="st17" cx="119.7" cy="194.3" r="1.5"/>
		<circle class="st17" cx="124.7" cy="194.3" r="1.5"/>
		<circle class="st17" cx="129.7" cy="194.3" r="1.5"/>
		<polygon class="st17" points="103.2,198.3 144.7,198.3 139.7,209.7 108.5,209.7 		"/>
		<rect x="127.6" y="183.5" class="st15" width="4.8" height="0.8"/>
		<rect x="127.6" y="186" class="st15" width="4.8" height="0.8"/>
	</g>
	<path d="M36.6,28.7l-4.3,2.9l1.2,0.7c-0.8,1.3-2.9,3.5-5.7,3.7v-7.5h2.3c0.4,0,0.8-0.3,0.8-0.8v0c0-0.4-0.3-0.8-0.8-0.8h-2.3v-1.8
		c1.9-0.3,3.4-2,3.4-4c0-2.3-1.8-4.1-4.1-4.1c-2.3,0-4.1,1.8-4.1,4.1c0,2,1.5,3.7,3.4,4v1.8h-2.3c-0.4,0-0.8,0.3-0.8,0.8v0
		c0,0.4,0.3,0.8,0.8,0.8h2.3v7.4c-2.3-0.3-4.4-1.9-5.6-3.6l1.1-0.6l-4.1-3.1l0.1,5.2l1.6-0.8c3.4,4.5,6.4,4.5,7.6,4.5
		c1.4,0,4.4,0.1,7.9-4.5l-0.1-0.1l1.6,0.9L36.6,28.7z M24.5,21.1c0-1.4,1.2-2.6,2.6-2.6c1.4,0,2.6,1.2,2.6,2.6
		c0,1.4-1.2,2.6-2.6,2.6C25.7,23.7,24.5,22.6,24.5,21.1z"/>
</g>
<g id="文字">
	<g>
		<g>
			<path d="M233.1,28h-7.8l-1.7,3.7h-1.5l6.4-14h1.5l6.4,14h-1.6L233.1,28z M232.6,26.8l-3.4-7.5l-3.4,7.5H232.6z"/>
			<path d="M241,30.9c-1.1-0.6-2-1.5-2.6-2.5c-0.6-1.1-1-2.3-1-3.7s0.3-2.6,1-3.7c0.6-1.1,1.5-1.9,2.6-2.5s2.4-0.9,3.8-0.9
				c1,0,2,0.2,2.9,0.5c0.9,0.3,1.6,0.9,2.2,1.5l-0.9,0.9c-1.1-1.1-2.5-1.7-4.1-1.7c-1.1,0-2.1,0.3-3,0.8s-1.6,1.2-2.1,2.1
				c-0.5,0.9-0.8,1.9-0.8,3c0,1.1,0.3,2.1,0.8,3c0.5,0.9,1.2,1.6,2.1,2.1s1.9,0.8,3,0.8c1.7,0,3.1-0.6,4.1-1.7l0.9,0.9
				c-0.6,0.7-1.4,1.2-2.2,1.5c-0.9,0.4-1.9,0.5-2.9,0.5C243.4,31.8,242.1,31.5,241,30.9z"/>
			<path d="M255.4,30.9c-1.1-0.6-2-1.5-2.6-2.5c-0.6-1.1-1-2.3-1-3.7s0.3-2.6,1-3.7c0.6-1.1,1.5-1.9,2.6-2.5s2.4-0.9,3.8-0.9
				c1,0,2,0.2,2.9,0.5c0.9,0.3,1.6,0.9,2.2,1.5l-0.9,0.9c-1.1-1.1-2.5-1.7-4.1-1.7c-1.1,0-2.1,0.3-3,0.8s-1.6,1.2-2.1,2.1
				c-0.5,0.9-0.8,1.9-0.8,3c0,1.1,0.3,2.1,0.8,3c0.5,0.9,1.2,1.6,2.1,2.1s1.9,0.8,3,0.8c1.7,0,3.1-0.6,4.1-1.7l0.9,0.9
				c-0.6,0.7-1.4,1.2-2.2,1.5c-0.9,0.4-1.9,0.5-2.9,0.5C257.7,31.8,256.5,31.5,255.4,30.9z"/>
			<path d="M277.3,30.4v1.3h-9.9v-14h9.6V19h-8.1v5h7.2v1.3h-7.2v5.2H277.3z"/>
			<path d="M281.7,31.3c-1-0.3-1.7-0.8-2.2-1.3l0.6-1.1c0.5,0.5,1.2,0.9,2,1.2c0.8,0.3,1.7,0.5,2.6,0.5c1.3,0,2.2-0.2,2.8-0.7
				c0.6-0.5,0.9-1.1,0.9-1.8c0-0.6-0.2-1-0.5-1.3c-0.3-0.3-0.8-0.6-1.2-0.8c-0.5-0.2-1.2-0.4-2.1-0.6c-1.1-0.3-1.9-0.5-2.5-0.8
				c-0.6-0.2-1.2-0.6-1.6-1.1c-0.4-0.5-0.7-1.2-0.7-2.1c0-0.7,0.2-1.3,0.6-1.9s0.9-1,1.7-1.4c0.8-0.3,1.7-0.5,2.9-0.5
				c0.8,0,1.6,0.1,2.4,0.3c0.8,0.2,1.4,0.5,2,0.9l-0.5,1.2c-0.6-0.4-1.2-0.7-1.9-0.9c-0.7-0.2-1.3-0.3-2-0.3c-1.2,0-2.1,0.2-2.8,0.7
				c-0.6,0.5-0.9,1.1-0.9,1.8c0,0.6,0.2,1,0.5,1.4s0.8,0.6,1.3,0.8c0.5,0.2,1.2,0.4,2.1,0.6c1,0.3,1.9,0.5,2.5,0.8
				c0.6,0.2,1.2,0.6,1.6,1.1c0.4,0.5,0.7,1.2,0.7,2c0,0.7-0.2,1.4-0.6,1.9c-0.4,0.6-1,1-1.8,1.4c-0.8,0.3-1.8,0.5-2.9,0.5
				C283.6,31.8,282.6,31.7,281.7,31.3z"/>
			<path d="M294,31.3c-1-0.3-1.7-0.8-2.2-1.3l0.6-1.1c0.5,0.5,1.2,0.9,2,1.2c0.8,0.3,1.7,0.5,2.6,0.5c1.3,0,2.2-0.2,2.8-0.7
				c0.6-0.5,0.9-1.1,0.9-1.8c0-0.6-0.2-1-0.5-1.3c-0.3-0.3-0.8-0.6-1.2-0.8c-0.5-0.2-1.2-0.4-2.1-0.6c-1.1-0.3-1.9-0.5-2.5-0.8
				c-0.6-0.2-1.2-0.6-1.6-1.1c-0.4-0.5-0.7-1.2-0.7-2.1c0-0.7,0.2-1.3,0.6-1.9s0.9-1,1.7-1.4c0.8-0.3,1.7-0.5,2.9-0.5
				c0.8,0,1.6,0.1,2.4,0.3c0.8,0.2,1.4,0.5,2,0.9l-0.5,1.2c-0.6-0.4-1.2-0.7-1.9-0.9c-0.7-0.2-1.3-0.3-2-0.3c-1.2,0-2.1,0.2-2.8,0.7
				c-0.6,0.5-0.9,1.1-0.9,1.8c0,0.6,0.2,1,0.5,1.4s0.8,0.6,1.3,0.8c0.5,0.2,1.2,0.4,2.1,0.6c1,0.3,1.9,0.5,2.5,0.8
				c0.6,0.2,1.2,0.6,1.6,1.1c0.4,0.5,0.7,1.2,0.7,2c0,0.7-0.2,1.4-0.6,1.9c-0.4,0.6-1,1-1.8,1.4c-0.8,0.3-1.8,0.5-2.9,0.5
				C295.9,31.8,294.9,31.7,294,31.3z"/>
			<path d="M325.2,17.7v14h-1.4V20.5l-5.5,9.4h-0.7l-5.5-9.4v11.1h-1.4v-14h1.2l6.1,10.4l6-10.4H325.2z"/>
			<path d="M338.5,28h-7.8l-1.7,3.7h-1.5l6.4-14h1.5l6.4,14h-1.6L338.5,28z M338,26.8l-3.4-7.5l-3.4,7.5H338z"/>
			<path d="M353.5,19c1,0.9,1.5,2,1.5,3.5s-0.5,2.7-1.5,3.5c-1,0.8-2.4,1.3-4.2,1.3h-3.8v4.4h-1.5v-14h5.2
				C351.1,17.7,352.5,18.1,353.5,19z M352.5,25.1c0.7-0.6,1.1-1.5,1.1-2.6c0-1.1-0.4-2-1.1-2.6c-0.7-0.6-1.8-0.9-3.2-0.9h-3.7v7h3.7
				C350.7,26,351.7,25.7,352.5,25.1z"/>
		</g>
	</g>
	<g>
		<g>
			<path d="M91.7,365.3c-0.6,0-1,0-1.4,0.1v-1.2c0.3,0.1,0.7,0.1,1.4,0.1h2.8v-2.2c0-0.7,0-1.2-0.1-1.7h1.2
				c-0.1,0.4-0.1,0.9-0.1,1.7v10.7c0,0.8,0,1.2,0.1,1.7h-1.2c0.1-0.5,0.1-1,0.1-1.7v-2c-1.1,0.6-2.1,1.1-3.5,1.8
				c-0.3,0.1-0.5,0.2-0.6,0.3l-0.4-1.1c0.5-0.1,0.8-0.2,1.4-0.5c1.2-0.5,2-0.9,3.2-1.6v-4.5H91.7z M99.1,372.4
				c0,0.3,0.1,0.4,0.3,0.5c0.2,0.1,0.7,0.1,1.5,0.1c1.4,0,1.9-0.1,2.1-0.5c0.2-0.4,0.4-1.5,0.4-2.7c0.4,0.2,0.6,0.3,1,0.5
				c-0.1,1.7-0.4,2.8-0.8,3.2c-0.4,0.4-1.1,0.5-2.7,0.5c-2.3,0-2.8-0.3-2.8-1.3v-10.6c0-0.8,0-1.2-0.1-1.6h1.2
				c-0.1,0.5-0.1,1-0.1,1.6v3.8c1.2-0.7,2.3-1.4,3.3-2.2c0.4-0.3,0.7-0.6,0.9-0.9l0.8,0.9c-0.2,0.2-0.3,0.2-0.6,0.5
				c-1.3,1.1-2.5,1.9-4.5,2.9V372.4z"/>
			<path d="M113.8,364.5c0.9,1.6,1.8,2.8,2.8,3.8c1.3,1.3,2.6,2.3,4.1,3.2c-0.4,0.4-0.5,0.6-0.8,1c-1-0.7-1.4-1-2.2-1.6
				c-1.3-1.1-1.8-1.7-2.7-2.8c-0.5-0.7-0.8-1.2-1.5-2.4c0,0.8,0.1,1.5,0.1,2.1v5.2c0,0.8,0,1.3,0.1,1.8h-1.3
				c0.1-0.6,0.1-1.1,0.1-1.8v-5.2c0-0.5,0-1.3,0.1-2c-0.8,1.8-1.7,3-2.9,4.3c-1,1-1.9,1.8-3.1,2.6c-0.2-0.4-0.5-0.7-0.8-0.9
				c1.4-0.9,2.9-2.1,4.1-3.4c1-1.1,1.6-2.1,2.5-3.7h-4.3c-0.6,0-1.2,0-1.8,0.1v-1.2c0.5,0.1,1.1,0.1,1.7,0.1h4.5v-1.8
				c0-0.5,0-1-0.1-1.5h1.3c-0.1,0.5-0.1,1-0.1,1.5v1.8h4.7c0.8,0,1.3,0,1.8-0.1v1.2c-0.6-0.1-1.2-0.1-1.8-0.1H113.8z"/>
			<path d="M126.8,370.2h-1.4c-0.7,0-0.9,0-1.3,0c0-0.4,0.1-0.8,0.1-1.4v-6c0-0.5,0-0.9-0.1-1.2c0.4,0,0.7,0.1,1.3,0.1h1.8
				c0.3-0.5,0.5-0.9,0.8-1.6l1.1,0.2c-0.3,0.6-0.5,1-0.8,1.4h3.9c0.6,0,0.9,0,1.3-0.1c0,0.3,0,0.5,0,1v2.7c0,0.4,0,0.8,0,1.1
				c-0.5,0-0.8,0-1.2,0h-7.1v1.1h9.4c0.6,0,1.1,0,1.5-0.1v1c-0.5,0-0.9-0.1-1.5-0.1h-9.3v1.2h9.2c0.6,0,0.9,0,1.3-0.1
				c0,0.1,0,0.4-0.1,0.9c-0.2,1.9-0.5,3.2-0.8,3.7c-0.3,0.4-0.7,0.6-1.7,0.6c-0.4,0-0.7,0-1.2,0c0-0.4-0.1-0.6-0.2-1
				c0.6,0.1,1.1,0.1,1.6,0.1c0.5,0,0.7-0.1,0.8-0.5c0.2-0.6,0.4-1.6,0.5-2.8h-6.7v2.1h3v-0.8c0-0.4,0-0.6-0.1-0.9h1.1
				c0,0.3-0.1,0.6-0.1,1v0.8c0,0.3,0,0.5,0,0.8c-0.2,0-0.2,0-0.6,0c-0.1,0-0.4,0-0.6,0H124v0.7H123c0.1-0.4,0.1-0.8,0.1-1.3l0-1
				c0-0.4,0-0.6-0.1-1h1.1c0,0.3,0,0.5,0,0.9v0.7h2.8V370.2z M132.4,363.6v-1.1h-7.3v1.1H132.4z M125.2,365.5h7.3v-1.2h-7.3V365.5z"
				/>
		</g>
	</g>
	<g>
		<g>
			<path d="M305,287.5c0.1,0.3,0.3,0.7,0.5,1.1c0.3,0.5,0.5,0.8,0.9,1.3c-0.2,0.2-0.3,0.4-0.4,0.6c-0.5-0.7-0.7-1.2-1-2
				c0,1,0,1.5,0,2v3.5c0,0.7,0,1,0.1,1.4h-0.9c0-0.3,0.1-0.8,0.1-1.4v-3.4c0-0.5,0-0.9,0.1-1.8c-0.4,1.8-0.8,2.6-1.5,3.7
				c-0.2-0.3-0.3-0.5-0.5-0.7c0.8-1.1,1.5-2.7,1.8-4.3h-0.6c-0.4,0-0.6,0-0.8,0v-0.8c0.2,0,0.5,0,0.8,0h0.7v-1.1
				c0-0.7,0-0.9-0.1-1.2h0.9c0,0.3-0.1,0.6-0.1,1.2v1.1h0.4c0.3,0,0.5,0,0.8,0v0.7c-0.2,0-0.5,0-0.7,0H305z M308.9,288.8
				c0,2.6-0.4,4.1-1.3,5.3c-0.4,0.6-0.9,0.9-1.6,1.4c-0.2-0.3-0.3-0.4-0.6-0.6c0.9-0.5,1.4-1,1.8-1.6c0.4-0.7,0.7-1.5,0.8-2.5
				c-0.4,0.3-0.6,0.5-0.9,0.7c-0.9,0.6-0.9,0.6-1.1,0.8l-0.3-0.8c0.5-0.2,0.9-0.4,1.8-1c0.3-0.2,0.4-0.2,0.6-0.5c0-0.3,0-0.6,0-0.9
				V286c0-0.6,0-1-0.1-1.3h0.9c0,0.3-0.1,0.7-0.1,1.3V288.8z M306.7,286.1c0.5,1,0.7,1.6,1.1,2.6l-0.6,0.4c-0.3-1-0.6-1.7-1.1-2.6
				L306.7,286.1z M310.7,294.2c0,0.3,0.1,0.3,0.7,0.3c0.7,0,0.9,0,1.1-0.2c0.1-0.2,0.2-0.8,0.2-1.7c0.3,0.2,0.4,0.2,0.7,0.3
				c-0.1,1-0.2,1.5-0.3,1.8c-0.2,0.4-0.6,0.5-1.7,0.5c-1.2,0-1.4-0.1-1.4-0.8v-8.6c0-0.5,0-0.9-0.1-1.2h0.9c0,0.3-0.1,0.7-0.1,1.2
				v3.8c1.3,0.9,1.6,1.1,2.6,1.9l-0.5,0.6c-0.7-0.7-1.4-1.3-2.1-1.8V294.2z M311,288.7c0.6-0.9,1-1.6,1.4-2.7l0.7,0.4
				c-0.7,1.5-0.9,1.9-1.5,2.8L311,288.7z"/>
			<path d="M314.9,287.7c0.8,0.5,1.3,0.8,1.9,1.5l-0.5,0.6c-0.8-0.8-1.1-1-1.9-1.5L314.9,287.7z M316.6,291.4
				c-0.5,1.6-0.7,2.2-1.5,3.8l-0.7-0.6c0.5-0.5,1.1-2,1.6-3.6L316.6,291.4z M315.5,284.8c0.7,0.5,1.2,0.9,1.8,1.5l-0.5,0.6
				c-0.6-0.7-1-1.1-1.8-1.6L315.5,284.8z M323.5,287c0.5,0,0.8,0,1.1,0c0,0.2,0,0.5,0,0.9v2.3c0,0.5,0,0.7,0,0.9c-0.3,0-0.6,0-1,0
				h-1.3v3.4c0,0.4-0.1,0.6-0.3,0.7c-0.2,0.1-0.4,0.1-0.7,0.1c-0.2,0-0.7,0-1,0c0-0.3-0.1-0.5-0.2-0.8c0.5,0.1,0.8,0.1,1.1,0.1
				c0.3,0,0.4,0,0.4-0.3v-3.2h-1.2c-0.4,0-0.7,0-1,0c0-0.2,0-0.5,0-0.9v-2.3c0-0.4,0-0.7,0-0.9c0.3,0,0.7,0,1.1,0h0.7
				c0.2-0.4,0.3-0.8,0.4-1.3h-3v1.4c0,4-0.4,6.2-1.4,8c-0.2-0.3-0.3-0.3-0.6-0.6c0.4-0.6,0.6-1.2,0.9-2c0.3-1.1,0.5-2.7,0.5-4.4
				l0-1.5c0,0,0-0.1,0-0.1c0-0.5,0-1.1-0.1-1.6c0.3,0,0.6,0.1,1.1,0.1h5c0.6,0,0.9,0,1.3-0.1v0.8c-0.3,0-0.8-0.1-1.3-0.1h-1.6
				c-0.2,0.6-0.2,0.8-0.4,1.3H323.5z M320.4,291.8c-0.4,1.3-0.7,2-1.5,3c-0.2-0.2-0.3-0.3-0.6-0.5c0.4-0.5,0.6-0.8,0.9-1.3
				c0.2-0.5,0.3-0.8,0.5-1.4L320.4,291.8z M320.1,288.7h3.8v-1h-3.8V288.7z M320.1,290.4h3.8v-1.1h-3.8V290.4z M323.9,291.6
				c0.4,1.2,0.8,1.9,1.5,2.7c-0.3,0.2-0.3,0.3-0.6,0.6c-0.7-0.9-1.1-1.7-1.6-3L323.9,291.6z"/>
			<path d="M330.1,292h-1c-0.5,0-0.7,0-1,0c0-0.3,0-0.6,0-1.1v-4.5c0-0.4,0-0.6,0-0.9c0.3,0,0.5,0,1,0h1.3c0.2-0.4,0.4-0.7,0.6-1.2
				l0.8,0.2c-0.2,0.4-0.4,0.7-0.6,1h2.9c0.5,0,0.7,0,1,0c0,0.2,0,0.4,0,0.8v2c0,0.3,0,0.6,0,0.8c-0.4,0-0.6,0-0.9,0h-5.3v0.8h7
				c0.5,0,0.8,0,1.1-0.1v0.8c-0.4,0-0.7-0.1-1.2-0.1h-7v0.9h6.9c0.4,0,0.7,0,0.9,0c0,0.1,0,0.3-0.1,0.7c-0.1,1.4-0.3,2.4-0.6,2.8
				c-0.2,0.3-0.6,0.5-1.3,0.5c-0.3,0-0.5,0-0.9,0c0-0.3-0.1-0.4-0.2-0.8c0.5,0.1,0.8,0.1,1.2,0.1c0.4,0,0.5-0.1,0.6-0.4
				c0.1-0.4,0.3-1.2,0.4-2.1h-5v1.6h2.3V293c0-0.3,0-0.4,0-0.7h0.8c0,0.2,0,0.5,0,0.7v0.6c0,0.2,0,0.4,0,0.6c-0.1,0-0.1,0-0.4,0
				c-0.1,0-0.3,0-0.4,0h-5v0.6h-0.8c0-0.3,0.1-0.6,0.1-0.9l0-0.8c0-0.3,0-0.5-0.1-0.7h0.8c0,0.2,0,0.4,0,0.7v0.5h2.1V292z
				 M334.3,287.1v-0.8h-5.4v0.8H334.3z M328.9,288.5h5.4v-0.9h-5.4V288.5z"/>
		</g>
	</g>
	<g>
		<g>
			<path d="M29.7,324.7c-0.5,0-0.8,0-1.1,0.1V324c-0.8,0.5-1.3,0.8-2.2,1.2c-0.2-0.3-0.2-0.4-0.5-0.7c2.3-0.9,4.1-2.2,5.1-3.8h0.9
				c0.5,0.8,1.2,1.4,2.1,2.2c1,0.7,1.9,1.2,3.1,1.6c-0.2,0.3-0.3,0.5-0.5,0.8c-0.9-0.4-1.4-0.6-2.3-1.2v0.7c-0.3,0-0.6-0.1-1.1-0.1
				h-1.5v1.6h3.3c0.5,0,0.8,0,1.2-0.1v0.8c-0.3,0-0.7-0.1-1.2-0.1h-3.3v3.2h3.5c0.5,0,0.9,0,1.3-0.1v0.9c-0.4-0.1-0.8-0.1-1.3-0.1
				h-7.6c-0.5,0-0.9,0-1.4,0.1v-0.9c0.4,0,0.8,0.1,1.4,0.1H31V327h-3.1c-0.5,0-0.8,0-1.2,0.1v-0.8c0.3,0,0.7,0.1,1.2,0.1H31v-1.6
				H29.7z M28.6,327.4c0.4,0.7,0.7,1.3,1.1,2.2l-0.7,0.3c-0.3-0.8-0.6-1.5-1-2.1L28.6,327.4z M33.3,324c0.5,0,0.8,0,1.1,0
				c-1.2-0.8-2.1-1.6-2.9-2.6c-0.7,1-1.5,1.8-2.8,2.6c0.2,0,0.6,0,1,0H33.3z M35,327.7c-0.6,1.1-0.8,1.5-1.3,2.2l-0.7-0.3
				c0.5-0.7,0.9-1.3,1.2-2.3L35,327.7z"/>
			<path d="M46.3,321.1c0.6,0,1,0,1.4-0.1c-0.1,0.6-0.1,1.2-0.1,2.8c0,2.5,0.1,4.1,0.3,5.2c0.1,0.7,0.4,1.3,0.5,1.3
				c0.1,0,0.1-0.1,0.2-0.3c0.1-0.4,0.2-0.9,0.2-1.5c0.2,0.3,0.4,0.4,0.6,0.6c-0.1,1-0.2,1.4-0.4,1.8c-0.1,0.3-0.3,0.4-0.6,0.4
				c-0.5,0-1.1-1.1-1.3-2.7c-0.2-1.1-0.3-2.9-0.3-5.2v-1.6H40v1.6c0,4.4-0.4,6.3-1.5,8c-0.2-0.3-0.4-0.4-0.6-0.6
				c1.1-1.6,1.4-3.3,1.4-7.9c0-1,0-1.4-0.1-1.9c0.4,0,0.8,0.1,1.4,0.1H46.3z M41.9,327.9c-0.4,0-0.6,0-1.1,0.1c0-0.3,0-0.5,0-0.9
				v-1.3c0-0.4,0-0.7,0-1c0.3,0,0.6,0,1.1,0H43v-1.2c-0.7,0.1-1.1,0.1-2.1,0.1c-0.1-0.3-0.2-0.4-0.3-0.6c1.6,0,2.7-0.1,4-0.3
				c0.7-0.1,0.9-0.2,1.1-0.3l0.5,0.7c-1,0.2-1.6,0.3-2.5,0.4v1.3h1.1c0.5,0,0.9,0,1.1,0c0,0.3,0,0.5,0,1v1.4c0,0.4,0,0.7,0,0.9
				c-0.3,0-0.6,0-0.9,0h-1.3v1.8c0.7-0.1,1-0.1,1.7-0.3c-0.2-0.4-0.3-0.7-0.5-0.9l0.6-0.3c0.5,0.8,0.7,1.3,1.2,2.5l-0.7,0.3
				c-0.1-0.4-0.2-0.6-0.4-1.1c-1.5,0.3-2.9,0.5-4.9,0.6c-0.3,0-0.3,0-0.5,0.1L40,330c0.1,0,0.3,0,0.3,0c0.4,0,1.7-0.1,2.6-0.2v-1.9
				H41.9z M41.6,325.4v1.9H43v-1.9H41.6z M43.7,327.3h1.5v-1.9h-1.5V327.3z"/>
			<path d="M53.1,324.9c-0.5,0-0.9,0-1.3,0c0-0.4,0-0.6,0-0.9v-2.2c0-0.3,0-0.6,0-0.9c0.4,0,0.9,0.1,1.4,0.1h4.7c0.6,0,1,0,1.4-0.1
				c0,0.3,0,0.5,0,0.9v2.2c0,0.4,0,0.6,0,0.9c-0.4,0-0.7,0-1.3,0h-2.2c-0.2,0.7-0.4,1.1-0.7,1.7h3.8c0.5,0,0.8,0,1.2-0.1
				c0,0.3-0.1,0.6-0.1,1.1v2.6c0,0.5,0,0.8,0.1,1.2h-0.8v-0.6h-7.3v0.6H51c0-0.3,0.1-0.8,0.1-1.3v-2.4c0-0.4,0-0.8-0.1-1.1
				c0.3,0,0.7,0.1,1.1,0.1h2c0.3-0.7,0.5-1,0.7-1.7H53.1z M51.9,330h7.3v-2.8h-7.3V330z M52.6,321.7v2.5h5.9v-2.5H52.6z"/>
			<path d="M62.5,323.6c0.8,0.5,1.3,0.8,2,1.5l-0.5,0.6c-0.7-0.7-1.2-1.1-2-1.6L62.5,323.6z M64.5,327.6c-0.4,1.2-0.8,2.1-1.3,3.1
				c-0.1,0.3-0.2,0.4-0.3,0.5l-0.7-0.6c0.6-0.8,1.2-2,1.6-3.4L64.5,327.6z M63.1,320.7c0.8,0.5,1.2,0.9,1.9,1.5l-0.5,0.6
				c-0.6-0.7-1.1-1.1-1.9-1.6L63.1,320.7z M66,324.9c-0.5,0-0.9,0-1.2,0.1v-0.8c0.3,0,0.7,0.1,1.2,0.1h0.9v-1.6h-0.6
				c-0.4,0-0.8,0-1.1,0.1V322c0.3,0,0.7,0.1,1.1,0.1h0.6v-0.5c0-0.4,0-0.7-0.1-0.9h0.8c0,0.2-0.1,0.6-0.1,0.9v0.5h2.2v-0.5
				c0-0.4,0-0.7-0.1-0.9h0.8c0,0.2-0.1,0.6-0.1,0.9v0.5h1c0.5,0,0.9,0,1.2-0.1v0.8c-0.3,0-0.7-0.1-1.1-0.1h-1v1.6h1.3
				c0.6,0,1,0,1.2-0.1v0.8c-0.3,0-0.7-0.1-1.2-0.1h-1.5c0.4,0.5,0.5,0.7,0.9,1c0.6,0.5,1.2,0.8,2,1.1c-0.2,0.3-0.4,0.5-0.5,0.7
				c-0.9-0.5-1.4-0.9-2-1.4c0,0.3,0,0.4,0,0.7v0.8c0,0.4,0,0.7,0,0.9c-0.3,0-0.4,0-0.9,0h-2.9v1.3c0,0.2,0,0.2,0.2,0.3
				c0.2,0.1,0.7,0.1,1.7,0.1c1.6,0,2.1,0,2.3-0.2c0.2-0.1,0.3-0.5,0.3-1.5c0.3,0.2,0.4,0.2,0.8,0.3c-0.1,2-0.2,2.1-3.2,2.1
				c-2.5,0-2.8-0.1-2.8-0.9V329c0-0.3,0-0.5,0-0.9c0.3,0,0.6,0,1.2,0h2.5v-1.3h-2c-0.5,0-0.9,0-1.2,0v-0.6c-0.5,0.6-1,0.9-1.9,1.4
				c-0.1-0.2-0.2-0.3-0.5-0.6c0.9-0.4,1.4-0.8,1.9-1.3c0.3-0.3,0.4-0.5,0.7-1H66z M67.8,324.9c-0.4,0.7-0.5,0.9-0.8,1.3
				c0.3,0,0.6,0,1,0h1.9c0.2,0,0.3,0,0.7,0c-0.4-0.4-0.6-0.6-1-1.3H67.8z M69.8,324.3v-1.6h-2.2v1.6H69.8z"/>
		</g>
	</g>
	<g>
		<g>
			<path d="M102,277.1c-0.2-0.3-0.4-0.6-0.6-0.9l0.7-0.3c0.3,0.3,0.5,0.7,0.7,1.2h2.1c0.3-0.4,0.5-0.7,0.6-1.2l0.7,0.3
				c-0.2,0.4-0.3,0.6-0.6,0.9h2.2c0.5,0,0.9,0,1.3-0.1v0.8c-0.4-0.1-0.7-0.1-1.3-0.1h-8.1c-0.6,0-0.9,0-1.3,0.1V277
				c0.4,0,0.8,0.1,1.3,0.1H102z M108.9,273c-0.4,0-0.8-0.1-1.3-0.1h-7.7c-0.6,0-0.9,0-1.3,0.1v-0.8c0.3,0.1,0.7,0.1,1.3,0.1h7.7
				c0.6,0,1,0,1.3-0.1V273z M106.8,267.9c0.6,0,0.9,0,1.3-0.1c0,0.3,0,0.5,0,0.9v1.9c0,0.5,0,0.7,0,0.9c-0.4,0-0.7,0-1.3,0h-6.2
				c-0.7,0-0.9,0-1.3,0c0-0.3,0-0.5,0-0.9v-1.9c0-0.4,0-0.7,0-0.9c0.4,0,0.7,0.1,1.3,0.1h1.4c0-0.5,0-0.6-0.1-1h0.9
				c-0.1,0.3-0.1,0.6-0.1,0.9v0.1h1.9c0-0.5,0-0.7-0.1-1h0.9c-0.1,0.3-0.1,0.5-0.1,1H106.8z M100,274.4c0-0.3,0-0.6-0.1-0.8
				c0.4,0,0.8,0.1,1.4,0.1h4.8c0.6,0,1,0,1.4-0.1c0,0.2-0.1,0.5-0.1,0.8v0.7c0,0.3,0,0.6,0.1,0.8c-0.4,0-0.8,0-1.3,0h-4.9
				c-0.7,0-1,0-1.4,0c0-0.3,0.1-0.5,0.1-0.8V274.4z M100.2,268.5v0.9h1.9v-0.9H100.2z M100.2,270v1h1.9v-1H100.2z M100.7,275.3h5.9
				v-1h-5.9V275.3z M102.7,269.4h1.9v-0.9h-1.9V269.4z M102.7,271h1.9v-1h-1.9V271z M105.3,269.4h2v-0.9h-2V269.4z M105.3,271h2v-1
				h-2V271z"/>
			<path d="M110.7,270.1c0.8,0.5,1.3,0.9,2,1.5l-0.5,0.6c-0.7-0.7-1.1-1.1-2-1.6L110.7,270.1z M112.7,274.1c-0.5,1.3-0.9,2.1-1.4,3
				c-0.2,0.3-0.2,0.3-0.3,0.4c-0.1,0.2-0.1,0.2-0.2,0.3l-0.7-0.6c0.6-0.5,1.3-1.9,1.9-3.6L112.7,274.1z M111.2,267.2
				c0.8,0.5,1.2,0.9,1.8,1.5l-0.5,0.6c-0.6-0.7-1.1-1.1-1.8-1.6L111.2,267.2z M114.4,275.1v1.5c0,0.5,0,0.9,0.1,1.2h-0.9
				c0-0.3,0.1-0.7,0.1-1.2v-5.2c0-0.5,0-0.8,0-1.1c0.3,0,0.7,0.1,1.1,0.1h1.9v-1.2h-2.1c-0.5,0-1,0-1.2,0.1v-0.8
				c0.3,0,0.7,0.1,1.2,0.1h2.1v-0.4c0-0.5,0-0.8-0.1-1.1h0.9c0,0.3-0.1,0.6-0.1,1.1v0.4h2.5c0.5,0,0.9,0,1.2-0.1v0.8
				c-0.3,0-0.7-0.1-1.2-0.1h-2.5v1.2h2.1c0.6,0,0.9,0,1.2,0c0,0.3-0.1,0.8-0.1,1.3v5.2c0,0.6-0.3,0.9-1,0.9c-0.4,0-0.7,0-1.2-0.1
				c0-0.3-0.1-0.4-0.2-0.8c0.6,0.1,0.9,0.1,1.3,0.1c0.3,0,0.4,0,0.4-0.3v-1.6h-2.5v1.6c0,0.4,0,0.8,0.1,1.1h-0.9
				c0-0.3,0.1-0.7,0.1-1.1v-1.6H114.4z M116.6,271.1h-2.3v1.4h2.3V271.1z M116.6,273.1h-2.3v1.4h2.3V273.1z M119.9,272.5v-1.4h-2.5
				v1.4H119.9z M119.9,274.5v-1.4h-2.5v1.4H119.9z M119.8,268.4c-0.5-0.4-0.9-0.6-1.6-0.9l0.4-0.5c0.6,0.3,1.1,0.5,1.6,0.9
				L119.8,268.4z"/>
			<path d="M122.7,270.2c0.8,0.5,1.3,0.8,2,1.5l-0.5,0.6c-0.7-0.7-1.2-1.1-2-1.6L122.7,270.2z M124.7,274.2
				c-0.4,1.2-0.8,2.1-1.3,3.1c-0.1,0.3-0.2,0.4-0.3,0.5l-0.7-0.6c0.6-0.8,1.2-2,1.6-3.4L124.7,274.2z M123.3,267.3
				c0.8,0.5,1.2,0.9,1.9,1.5l-0.5,0.6c-0.6-0.7-1.1-1.1-1.9-1.6L123.3,267.3z M126.2,271.5c-0.5,0-0.9,0-1.2,0.1v-0.8
				c0.3,0,0.7,0.1,1.2,0.1h0.9v-1.6h-0.6c-0.4,0-0.8,0-1.1,0.1v-0.8c0.3,0,0.7,0.1,1.1,0.1h0.6v-0.5c0-0.4,0-0.7-0.1-0.9h0.8
				c0,0.2-0.1,0.6-0.1,0.9v0.5h2.2v-0.5c0-0.4,0-0.7-0.1-0.9h0.8c0,0.2-0.1,0.6-0.1,0.9v0.5h1c0.5,0,0.9,0,1.2-0.1v0.8
				c-0.3,0-0.7-0.1-1.1-0.1h-1v1.6h1.3c0.6,0,1,0,1.2-0.1v0.8c-0.3,0-0.7-0.1-1.2-0.1h-1.5c0.4,0.5,0.5,0.7,0.9,1
				c0.6,0.5,1.2,0.8,2,1.1c-0.2,0.3-0.4,0.5-0.5,0.7c-0.9-0.5-1.4-0.9-2-1.4c0,0.3,0,0.4,0,0.7v0.8c0,0.4,0,0.7,0,0.9
				c-0.3,0-0.4,0-0.9,0h-2.9v1.3c0,0.2,0,0.2,0.2,0.3c0.2,0.1,0.7,0.1,1.7,0.1c1.6,0,2.1,0,2.3-0.2c0.2-0.1,0.3-0.5,0.3-1.5
				c0.3,0.2,0.4,0.2,0.8,0.3c-0.1,2-0.2,2.1-3.2,2.1c-2.5,0-2.8-0.1-2.8-0.9v-1.2c0-0.3,0-0.5,0-0.9c0.3,0,0.6,0,1.2,0h2.5v-1.3h-2
				c-0.5,0-0.9,0-1.2,0v-0.6c-0.5,0.6-1,0.9-1.9,1.4c-0.1-0.2-0.2-0.3-0.5-0.6c0.9-0.4,1.4-0.8,1.9-1.3c0.3-0.3,0.4-0.5,0.7-1H126.2
				z M128,271.5c-0.4,0.7-0.5,0.9-0.8,1.3c0.3,0,0.6,0,1,0h1.9c0.2,0,0.3,0,0.7,0c-0.4-0.4-0.6-0.6-1-1.3H128z M129.9,270.9v-1.6
				h-2.2v1.6H129.9z"/>
		</g>
	</g>
	<g>
		<g>
			<path d="M197.8,410.7c0.4,1.5,1,2.8,2,3.9c0.9,1,1.9,1.8,3.3,2.3c-0.2,0.3-0.3,0.4-0.5,0.8c-2.7-1.4-4.2-3.2-5-5.9
				c-0.3,1.8-1.1,3.2-2.3,4.3c-0.8,0.7-1.4,1.1-2.6,1.6c-0.2-0.3-0.3-0.5-0.5-0.7c1.5-0.6,2.4-1.2,3.2-2.1c0.9-1.1,1.4-2.4,1.7-4.2
				h-3.3c-0.6,0-1,0-1.3,0.1v-0.9c0.3,0.1,0.7,0.1,1.3,0.1h3.3c0-0.6,0-0.9,0-1.4c0-0.6,0-1-0.1-1.3h1c-0.1,0.4-0.1,0.7-0.1,1.2
				c0,0.6,0,1-0.1,1.5h3.6c0.6,0,1,0,1.3-0.1v0.9c-0.4-0.1-0.7-0.1-1.3-0.1H197.8z"/>
			<path d="M204.4,410c0.8,0.5,1.3,0.9,2,1.5l-0.5,0.6c-0.7-0.7-1.1-1.1-2-1.6L204.4,410z M206.4,414c-0.5,1.3-0.9,2.1-1.4,3
				c-0.2,0.3-0.2,0.3-0.3,0.4c-0.1,0.2-0.1,0.2-0.2,0.3l-0.7-0.6c0.6-0.5,1.3-1.9,1.9-3.6L206.4,414z M204.9,407.1
				c0.8,0.5,1.2,0.9,1.8,1.5l-0.5,0.6c-0.6-0.7-1.1-1.1-1.8-1.6L204.9,407.1z M208.1,415v1.5c0,0.5,0,0.9,0.1,1.2h-0.9
				c0-0.3,0.1-0.7,0.1-1.2v-5.2c0-0.5,0-0.8,0-1.1c0.3,0,0.7,0.1,1.1,0.1h1.9v-1.2h-2.1c-0.5,0-1,0-1.2,0.1v-0.8
				c0.3,0,0.7,0.1,1.2,0.1h2.1v-0.4c0-0.5,0-0.8-0.1-1.1h0.9c0,0.3-0.1,0.6-0.1,1.1v0.4h2.5c0.5,0,0.9,0,1.2-0.1v0.8
				c-0.3,0-0.7-0.1-1.2-0.1h-2.5v1.2h2.1c0.6,0,0.9,0,1.2,0c0,0.3-0.1,0.8-0.1,1.3v5.2c0,0.6-0.3,0.9-1,0.9c-0.4,0-0.7,0-1.2-0.1
				c0-0.3-0.1-0.4-0.2-0.8c0.6,0.1,0.9,0.1,1.3,0.1c0.3,0,0.4,0,0.4-0.3V415h-2.5v1.6c0,0.4,0,0.8,0.1,1.1h-0.9
				c0-0.3,0.1-0.7,0.1-1.1V415H208.1z M210.3,411h-2.3v1.4h2.3V411z M210.3,413h-2.3v1.4h2.3V413z M213.6,412.3V411h-2.5v1.4H213.6z
				 M213.6,414.4V413h-2.5v1.4H213.6z M213.5,408.3c-0.5-0.4-0.9-0.6-1.6-0.9l0.4-0.5c0.6,0.3,1.1,0.5,1.6,0.9L213.5,408.3z"/>
			<path d="M216.4,410.1c0.8,0.5,1.3,0.8,2,1.5l-0.5,0.6c-0.7-0.7-1.2-1.1-2-1.6L216.4,410.1z M218.4,414.1
				c-0.4,1.2-0.8,2.1-1.3,3.1c-0.1,0.3-0.2,0.4-0.3,0.5l-0.7-0.6c0.6-0.8,1.2-2,1.6-3.4L218.4,414.1z M217,407.2
				c0.8,0.5,1.2,0.9,1.9,1.5l-0.5,0.6c-0.6-0.7-1.1-1.1-1.9-1.6L217,407.2z M219.9,411.4c-0.5,0-0.9,0-1.2,0.1v-0.8
				c0.3,0,0.7,0.1,1.2,0.1h0.9v-1.6h-0.6c-0.4,0-0.8,0-1.1,0.1v-0.8c0.3,0,0.7,0.1,1.1,0.1h0.6V408c0-0.4,0-0.7-0.1-0.9h0.8
				c0,0.2-0.1,0.6-0.1,0.9v0.5h2.2V408c0-0.4,0-0.7-0.1-0.9h0.8c0,0.2-0.1,0.6-0.1,0.9v0.5h1c0.5,0,0.9,0,1.2-0.1v0.8
				c-0.3,0-0.7-0.1-1.1-0.1h-1v1.6h1.3c0.6,0,1,0,1.2-0.1v0.8c-0.3,0-0.7-0.1-1.2-0.1h-1.5c0.4,0.5,0.5,0.7,0.9,1
				c0.6,0.5,1.2,0.8,2,1.1c-0.2,0.3-0.4,0.5-0.5,0.7c-0.9-0.5-1.4-0.9-2-1.4c0,0.3,0,0.4,0,0.7v0.8c0,0.4,0,0.7,0,0.9
				c-0.3,0-0.4,0-0.9,0h-2.9v1.3c0,0.2,0,0.2,0.2,0.3c0.2,0.1,0.7,0.1,1.7,0.1c1.6,0,2.1,0,2.3-0.2c0.2-0.1,0.3-0.5,0.3-1.5
				c0.3,0.2,0.4,0.2,0.8,0.3c-0.1,2-0.2,2.1-3.2,2.1c-2.5,0-2.8-0.1-2.8-0.9v-1.2c0-0.3,0-0.5,0-0.9c0.3,0,0.6,0,1.2,0h2.5v-1.3h-2
				c-0.5,0-0.9,0-1.2,0v-0.6c-0.5,0.6-1,0.9-1.9,1.4c-0.1-0.2-0.2-0.3-0.5-0.6c0.9-0.4,1.4-0.8,1.9-1.3c0.3-0.3,0.4-0.5,0.7-1H219.9
				z M221.7,411.4c-0.4,0.7-0.5,0.9-0.8,1.3c0.3,0,0.6,0,1,0h1.9c0.2,0,0.3,0,0.7,0c-0.4-0.4-0.6-0.6-1-1.3H221.7z M223.6,410.8
				v-1.6h-2.2v1.6H223.6z"/>
		</g>
	</g>
	<g>
		<g>
			<path d="M280.6,400.4c0-0.2,0-0.2-0.1-0.9c-0.1-0.9-0.2-2-0.2-3c0-1.6,0.2-3,0.6-5.3c0.1-0.4,0.1-0.5,0.1-0.6l0.9,0.1
				c-0.1,0.3-0.3,1-0.5,1.8c-0.3,1.3-0.4,2.7-0.4,4c0,0.3,0,0.6,0,0.9c0,0.3,0,0.3,0,0.6c0,0.1,0,0.2,0,0.7l0,0
				c0.1-0.2,0.1-0.2,0.1-0.5c0.1-0.4,0.4-1.2,0.7-1.9l0.6,0.3c-0.6,1.3-1.1,2.9-1.1,3.5c0,0,0,0.1,0,0.1L280.6,400.4z M289.5,399.5
				c-0.3-0.3-0.8-0.7-1.6-1.2c-0.2-0.1-0.2-0.1-0.3-0.1c-0.1-0.1-0.1-0.1-0.2-0.1c0,0.1,0,0.2,0,0.3c0,0.4,0,0.6-0.2,0.9
				c-0.2,0.6-1,0.9-2,0.9c-1.3,0-2.2-0.6-2.2-1.7c0-1,0.9-1.7,2.3-1.7c0.5,0,0.9,0.1,1.3,0.2c0-0.2-0.1-0.9-0.1-2.3
				c-0.6,0-0.9,0-1.4,0c-0.5,0-0.8,0-1.7-0.1c-0.1,0-0.2,0-0.3,0c0,0,0,0-0.1,0l0-0.8c0.5,0.1,1.1,0.2,2,0.2c0.4,0,0.9,0,1.4,0
				c0-0.6,0-0.8,0-0.9c0-0.2,0-0.5,0-1c-0.5,0-0.8,0-1.2,0c-0.5,0-1,0-1.4,0c-0.4,0-0.5,0-0.7,0l0-0.8c0.5,0.1,1.1,0.2,2.1,0.2
				c1.5,0,3-0.2,4-0.5l0,0.8c-0.2,0-0.2,0-0.7,0.1c-0.4,0.1-0.8,0.1-1.3,0.2c0,0.4,0,0.6,0,1c0,0.1,0,0.1,0,0.9
				c0.9-0.1,1.7-0.2,2.1-0.4l0,0.8c-0.1,0-0.2,0-0.3,0.1c-0.5,0.1-1.1,0.2-1.8,0.3c0,1.4,0,1.8,0.1,2.5c0.7,0.2,1.5,0.7,2.1,1.1
				c0.2,0.1,0.2,0.2,0.3,0.2L289.5,399.5z M285.5,397.6c-1,0-1.6,0.4-1.6,1c0,0.6,0.5,0.9,1.4,0.9c0.9,0,1.4-0.4,1.4-1.2
				c0-0.1,0-0.5,0-0.5C286.2,397.7,285.9,397.6,285.5,397.6z"/>
			<path d="M293.4,390.7c-0.1,0.4-0.1,1-0.2,2.5c0,1.4-0.1,3.1-0.1,3.6c0,0.1,0,0.4,0,0.7c0,0.7,0.2,1.1,0.6,1.4
				c0.3,0.3,0.9,0.5,1.5,0.5c1.4,0,2.5-0.7,3.2-2.1c0.3-0.6,0.4-1,0.6-1.9c0.3,0.3,0.5,0.4,0.9,0.6c-0.5,1.4-0.8,2.1-1.3,2.7
				c-0.9,1-2,1.5-3.4,1.5c-1,0-1.8-0.3-2.3-0.8c-0.5-0.6-0.7-1.2-0.7-2.5c0-0.8,0-1.1,0.1-4.9c0-0.4,0-0.6,0-0.8c0-0.3,0-0.4,0-0.6
				H293.4z"/>
			<path d="M301.5,393.4c0.4,0,1.7-0.2,2.7-0.3c0.2-0.9,0.4-2,0.4-2.5c0,0,0-0.1,0-0.2l1,0.1c-0.1,0.3-0.1,0.5-0.2,1.2
				c-0.1,0.3-0.1,0.8-0.3,1.4c0.3,0,0.4,0,0.7,0c0.9,0,1.4,0.1,1.7,0.5c0.4,0.4,0.6,0.9,0.6,1.9c0,1.8-0.3,3.4-0.8,4.1
				c-0.3,0.4-0.6,0.6-1.2,0.6c-0.5,0-1-0.1-1.8-0.5c0-0.2,0-0.3,0-0.4c0-0.2,0-0.3,0-0.5c0.7,0.3,1.4,0.6,1.8,0.6
				c0.3,0,0.5-0.2,0.7-0.6c0.3-0.8,0.5-2,0.5-3.3c0-1.3-0.4-1.7-1.5-1.7c-0.3,0-0.4,0-0.9,0.1c-0.4,1.9-1,3.4-1.8,5.1
				c-0.2,0.3-0.4,0.8-0.8,1.4l-0.8-0.5c0.4-0.5,0.8-1.3,1.2-2.2c0.6-1.2,0.9-2.3,1.3-3.8c-1,0.2-1.6,0.3-1.7,0.3
				c-0.3,0-0.4,0.1-0.7,0.2L301.5,393.4z M309.4,392.3c1.2,1.3,1.9,2.6,2.5,4.2l-0.8,0.4c-0.5-1.7-1.3-3.1-2.4-4.3L309.4,392.3z"/>
			<path d="M315,390.8c-0.4,1.1-0.7,3.6-0.7,5.2c0,0.7,0,1.5,0.1,2c0,0.3,0.1,0.5,0.1,0.6c0.2-0.9,0.3-1.1,1-2.5l0.6,0.3
				c-0.3,0.7-0.6,1.5-0.9,2.1c-0.2,0.7-0.3,1.1-0.3,1.5l-0.8,0.1c0-0.2,0-0.2-0.1-0.4c-0.3-1.1-0.4-2.3-0.4-3.6
				c0-1.4,0.1-2.4,0.5-4.6c0.1-0.5,0.1-0.6,0.1-0.8L315,390.8z M316.3,393.2c0.5,0.1,1.2,0.2,2,0.2c0.5,0,0.9,0,1.5-0.1
				c-0.1-2.1-0.1-2.4-0.1-2.8l0.9,0c0,0.2,0,0.3,0,0.4c0,0.1,0,0.1,0,0.4c0,0.3,0,0.3,0.1,1.9c0.9-0.1,1.5-0.3,1.9-0.5l0.1,0.9
				c-0.3,0-0.3,0-0.6,0.1c-0.5,0.1-0.8,0.2-1.3,0.2c0,0.3,0,0.5,0,0.9c0,2.3-0.2,3.3-0.9,4.2c-0.4,0.6-1,1-1.9,1.5
				c-0.2-0.3-0.3-0.4-0.6-0.6c0.8-0.4,1.4-0.8,1.8-1.4c0.6-0.8,0.8-1.7,0.8-3.6c0-0.3,0-0.6,0-0.9c-0.5,0-1.2,0.1-1.8,0.1
				c-0.3,0-1,0-1.5,0c-0.1,0-0.2,0-0.2,0c0,0-0.1,0-0.2,0L316.3,393.2z"/>
			<path d="M325.3,391.3c0-0.7,0-0.9-0.1-1.2h0.8c0,0.3-0.1,0.6-0.1,1.2v1.1h0.3c0.3,0,0.6,0,0.8,0v0.7c-0.3,0-0.5,0-0.8,0H326
				c0.2,0.8,0.6,1.5,1.3,2.3c-0.2,0.2-0.3,0.3-0.4,0.6c-0.5-0.6-0.7-1.1-1-1.8c0,1.1,0,1.5,0,1.9v3.6c0,0.6,0,1.1,0.1,1.4h-0.9
				c0-0.4,0.1-0.7,0.1-1.4v-3.4c0-0.6,0-0.8,0.1-2.1c-0.4,1.8-0.7,2.7-1.4,3.7c-0.2-0.3-0.2-0.4-0.5-0.6c0.6-0.8,0.9-1.5,1.3-2.6
				c0.2-0.6,0.3-1.1,0.4-1.6h-0.6c-0.4,0-0.6,0-0.8,0v-0.7c0.2,0,0.4,0,0.8,0h0.7V391.3z M333.2,392.1c0.5,0,0.9,0,1.2-0.1v0.7
				c-0.4,0-0.8-0.1-1.2-0.1H332c0.6,0.6,1.5,1.1,2.7,1.4c-0.2,0.2-0.3,0.4-0.4,0.6c-0.7-0.3-1-0.4-1.6-0.8v0.8c0,0.3,0,0.5,0,0.8
				c-0.2,0-0.5,0-0.8,0h-2.5c-0.3,0-0.6,0-0.8,0c0-0.1,0-0.1,0-0.2c0-0.1,0-0.3,0-0.6V394c-0.4,0.3-0.7,0.5-1.2,0.8
				c-0.1-0.2-0.2-0.3-0.4-0.5c0.9-0.4,1.6-0.9,2.2-1.5h-0.9c-0.5,0-0.8,0-1,0.1V392c0.3,0,0.6,0.1,1.1,0.1h1.3
				c0.2-0.3,0.3-0.4,0.4-0.8c-0.9,0.1-1.7,0.1-2.3,0.1c-0.1-0.3-0.2-0.4-0.3-0.6c0.2,0,0.4,0,0.5,0c2,0,4.4-0.3,5.3-0.7l0.5,0.6
				c-0.2,0-0.3,0-0.6,0.1c-0.6,0.1-1.4,0.3-2.4,0.4c-0.2,0.4-0.3,0.6-0.4,0.9H333.2z M327.2,401c0-0.3,0.1-0.8,0.1-1.3v-2.5
				c0-0.5,0-0.8,0-1.1c0.3,0,0.5,0,1.1,0h4.7c0.6,0,0.9,0,1.1-0.1c0,0.3,0,0.7,0,1.1v2.9c0,0.6-0.2,0.8-1.1,0.8c-0.4,0-0.5,0-1.1,0
				c0-0.3-0.1-0.4-0.2-0.7c0.6,0.1,0.9,0.1,1.3,0.1c0.3,0,0.4,0,0.4-0.3v-3.2H328v2.9c0,0.7,0,1.1,0.1,1.3H327.2z M329,398.1
				c0-0.3,0-0.6,0-0.8c0.1,0,0.3,0,0.8,0h1.7c0.4,0,0.6,0,0.8,0c0,0.2,0,0.3,0,0.8v0.6c0,0.5,0,0.6,0,0.7c-0.2,0-0.3,0-0.7,0h-1.9
				v0.6H329c0-0.2,0-0.5,0-0.9V398.1z M329.9,392.6c-0.2,0.3-0.4,0.6-0.8,0.9h3c-0.4-0.3-0.6-0.5-0.9-0.9H329.9z M329.2,394.9h2.8
				v-0.9h-2.8V394.9z M329.6,398.9h2v-1h-2V398.9z"/>
		</g>
	</g>
	<g>
		<path d="M142.4,313.1c-0.6,0.9-1.2,1.5-2,2.1c-0.3-0.4-0.4-0.5-0.8-0.8c0.8-0.5,1.5-1.1,2-1.8c0.6-0.8,0.8-1.2,1.1-2l1,0.4
			c-0.3,0.6-0.4,0.8-0.6,1.2h3.2V312c0-0.5,0-0.8-0.1-1.2h1.1c-0.1,0.4-0.1,0.7-0.1,1.2v0.3h4.3c0.7,0,1.2,0,1.6-0.1v1.1
			c-0.5-0.1-0.9-0.1-1.6-0.1h-4.3v1.5h3.6c0.8,0,1.2,0,1.6-0.1v1.1c-0.5-0.1-1-0.1-1.7-0.1h-3.5v1.8h4.9c0.7,0,1.2,0,1.7-0.1v1.1
			c-0.5-0.1-1.1-0.1-1.7-0.1h-10.8c-0.6,0-1.1,0-1.6,0.1v-1.1c0.4,0.1,0.9,0.1,1.6,0.1h5v-1.8h-2.9c-0.7,0-1.1,0-1.5,0.1v-1.1
			c0.4,0.1,0.8,0.1,1.5,0.1h2.9v-1.5H142.4z M142.9,310.4c-0.7,0-1.2,0-1.6,0.1c0-0.3,0.1-0.8,0.1-1.4v-2.7c0-0.7,0-1-0.1-1.5
			c0.5,0.1,0.9,0.1,1.5,0.1h7.4c0.7,0,1.1,0,1.6-0.1c0,0.4-0.1,0.7-0.1,1.4v2.8c0,0.7,0,1.1,0.1,1.4c-0.4,0-0.8-0.1-1.6-0.1H142.9z
			 M142.4,307.2h8.5v-1.4h-8.5V307.2z M142.4,309.6h8.5v-1.5h-8.5V309.6z"/>
		<path d="M157,313.5c-0.2,2.3-0.4,2.9-0.9,4.3l-0.7-0.4c0.6-1.3,0.8-2,0.9-4L157,313.5z M159.7,311.9h0.6c0.8,0,1.2,0,1.5-0.1
			c0,0.3,0,0.3-0.1,1.7c-0.1,1.9-0.3,3.6-0.5,4.4c-0.2,0.5-0.6,0.7-1.4,0.7c-0.4,0-0.7,0-1.3-0.1c0-0.4,0-0.6-0.2-1
			c0.6,0.1,1.1,0.2,1.5,0.2c0.4,0,0.6-0.2,0.7-1c0.2-1,0.2-1.8,0.3-4h-3.2c-0.6,0-1,0-1.5,0c0-0.4,0-0.7,0-1.6v-4.5
			c0-1,0-1.4-0.1-1.8c0.4,0.1,0.9,0.1,1.8,0.1h2.3c0.7,0,1.1,0,1.6-0.1v1c-0.5-0.1-0.9-0.1-1.5-0.1h-0.6v1.5h0.4c0.6,0,1,0,1.3-0.1
			v0.9c-0.4-0.1-0.8-0.1-1.3-0.1h-0.4v1.5h0.4c0.6,0,1,0,1.3-0.1v0.9c-0.4-0.1-0.8-0.1-1.3-0.1h-0.4V311.9z M158.9,305.7h-1.8v1.5
			h1.8V305.7z M158.9,308h-1.8v1.5h1.8V308z M157.1,310.3v1.6h1.8v-1.6H157.1z M157.9,313.5c0.2,1.2,0.2,2.2,0.3,3.5l-0.8,0.1
			c0-0.3,0-0.5,0-0.7c0-1.1,0-1.6-0.2-2.9L157.9,313.5z M159,313.5c0.3,1.2,0.4,1.6,0.6,2.9l-0.7,0.2c-0.1-1.4-0.2-1.9-0.5-3
			L159,313.5z M160,313.3c0.3,0.8,0.4,1.3,0.6,2.1l-0.6,0.2c-0.2-1.1-0.3-1.3-0.6-2.2L160,313.3z M169.8,306.1
			c-0.4-0.1-0.8-0.1-1.5-0.1h-4.9v11h5c0.6,0,1.1,0,1.5-0.1v1.1c-0.4-0.1-0.9-0.1-1.5-0.1h-5v0.8h-1.1c0.1-0.5,0.1-1.1,0.1-1.6
			v-10.5c0-0.6,0-1.1-0.1-1.5c0.4,0,0.8,0,1.4,0h4.5c0.6,0,1.1,0,1.5-0.1V306.1z M168.5,315.9c-0.4-1-1-2-1.7-3.2
			c-0.7,1.4-1.5,2.7-2.4,3.8c-0.3-0.3-0.4-0.4-0.8-0.7c1.2-1.3,1.8-2.3,2.6-4c-1-1.5-1.6-2.2-2.5-3.3l0.7-0.6c1,1.2,1.5,1.9,2.2,3
			c0.6-1.5,1-3.2,1-4l1.1,0.3c-0.1,0.3-0.2,0.5-0.3,0.9c-0.4,1.5-0.7,2.4-1.2,3.7c0.9,1.4,1.5,2.5,2.1,3.6L168.5,315.9z"/>
		<path d="M179.1,314.8c0,0.6,0,1.2,0.1,1.6h-1v-0.9h-4.9v1.5h-1.1c0.1-0.4,0.1-1.1,0.1-2.1v-8.2c0-0.7,0-1.1-0.1-1.6
			c0.5,0,0.9,0.1,1.6,0.1h3.6c0.7,0,1.2,0,1.7-0.1c0,0.4-0.1,0.7-0.1,1.4h5c0.9,0,1.5,0,2-0.1v1.2c-0.5-0.1-0.9-0.1-1.9-0.1h-0.3
			v9.8c0,1.1-0.3,1.3-1.7,1.3c-0.6,0-1.2,0-1.8-0.1c0-0.4-0.1-0.7-0.2-1.1c0.8,0.1,1.4,0.1,2,0.1c0.6,0,0.7-0.1,0.7-0.4v-9.7h-3.7
			V314.8z M173.2,309.7h1.9V306h-1.9V309.7z M173.2,314.6h1.9v-4h-1.9V314.6z M176.1,309.7h2V306h-2V309.7z M176.1,314.6h2v-4h-2
			V314.6z"/>
	</g>
	<g>
		<g>
			<path d="M65.4,87.5c-0.2-0.4-0.3-0.7-0.7-1.3l-4.3-6.9c-0.4-0.6-0.6-0.9-0.9-1.3l0.9-0.6c0.2,0.4,0.4,0.8,0.8,1.4l4.3,6.9
				c0.4,0.6,0.6,0.9,0.9,1.2L65.4,87.5z M65.2,76.5c0.1,0.3,0.3,0.7,0.7,1.2l2.6,4.2c0.3,0.5,0.5,0.8,0.8,1.1l-0.8,0.5
				c-0.2-0.4-0.3-0.7-0.7-1.2l-2.6-4.2c-0.3-0.5-0.5-0.8-0.8-1.1L65.2,76.5z M68.3,73.5c0.2,0.4,0.3,0.7,0.7,1.3l3.3,5.3
				c0.4,0.6,0.6,1,0.9,1.3l-0.9,0.5c-0.2-0.4-0.4-0.8-0.8-1.4l-3.3-5.3c-0.4-0.6-0.6-0.9-0.9-1.2L68.3,73.5z"/>
			<path d="M70.5,89.5c-1.7,0.3-1.7,0.3-3.8,0.5c-0.2,0-0.2,0-0.4,0c-0.1,0-0.1,0-0.2,0l0.2-1c1,0.2,2.4,0.1,4.3-0.3L70.5,89.5z
				 M75.3,88.7c-0.3-0.5-0.5-0.8-0.8-1.1l0.8-0.5c0.1,0.3,0.3,0.7,0.6,1.1l1.6,2.6c1.2,0,1.6,0,2.6-0.2l0.2,0.9
				c-1,0.1-1.6,0.1-2.3,0.1l0.7,1c0.3,0.5,0.6,0.9,0.8,1.2l-0.8,0.5c-0.1-0.3-0.4-0.8-0.7-1.3l-1.2-2l-1.6,1l1,1.6
				c0.3,0.5,0.6,0.8,0.8,1.1l-0.7,0.5c-0.2-0.4-0.4-0.7-0.7-1.2l-1-1.6l-1.7,1.1l1.3,2.1c0.3,0.5,0.7,1,0.9,1.2l-0.8,0.5
				c-0.2-0.4-0.4-0.8-0.7-1.3l-1.4-2.1l-1.5,0.9c-0.5,0.3-0.9,0.6-1.2,0.9L69,94.9c0.4-0.2,0.8-0.4,1.3-0.7l1.5-0.9l-1.1-1.7
				c-0.3-0.4-0.5-0.8-0.8-1.2l0.8-0.5c0.2,0.3,0.4,0.7,0.7,1.2l1.1,1.7l1.7-1.1l-0.8-1.3c-0.3-0.5-0.5-0.8-0.8-1.1l0.7-0.5
				c0.2,0.3,0.3,0.7,0.7,1.2l0.8,1.3l1.6-1L75.3,88.7z M72.9,85.3c0,1,0,1.7-0.2,2.8l-0.9,0c0.3-1.1,0.3-1.8,0.3-2.9L72.9,85.3z
				 M75.9,84.2c0,1-0.1,1.7-0.3,2.7l-0.9-0.1c0.3-1,0.4-1.7,0.4-2.7L75.9,84.2z M78.1,87.4c-0.3,0.8-0.5,1.2-1,1.9l-0.7-0.5
				c0.5-0.6,0.7-1.1,1-1.9L78.1,87.4z"/>
			<path d="M77.3,100.4c-1.2,0.2-2,0.4-2.9,0.4c-0.2,0-0.6,0-1.4,0l0.2-1c0.8,0.2,2.5,0.1,4.2-0.3L77.3,100.4z M79.8,101
				c-0.3-0.4-0.5-0.8-0.8-1.1l0.8-0.5c0.1,0.3,0.3,0.7,0.6,1.2l2,3.2c0.4,0.6,0.6,0.9,0.8,1.2c-0.3,0.2-0.6,0.3-1,0.6
				c-1.2,0.8-2.2,1.6-2.8,2.4c-0.3,0.4-0.6,0.9-0.5,1c0.1,0.1,1-0.2,2.1-0.8c-0.1,0.4-0.1,0.6-0.1,0.9c-1.7,0.8-2.5,1-2.8,0.5
				c-0.3-0.4-0.1-1.2,0.6-2.1c0.7-0.9,1.6-1.7,3.3-2.8L79.8,101z M79.6,96.1c0.1,1.1,0,1.7-0.2,2.8l-0.8,0c0.2-1.1,0.3-1.7,0.2-2.8
				L79.6,96.1z M83.3,99.5c-1,0-1.8,0-3-0.3c0.1-0.3,0.1-0.5,0.1-0.8c1,0.3,1.7,0.4,2.5,0.4c0.8,0,1.5-0.2,2-0.4l0.3,0.9
				c-0.2,0-0.3,0-0.6,0.1c-0.2,0-0.3,0.1-0.5,0.1l2.2,3.5c0.4,0.7,0.7,1,1,1.3l-0.8,0.5c-0.2-0.4-0.4-0.8-0.8-1.4L83.3,99.5z
				 M82.7,95c0,1-0.1,1.6-0.4,2.6l-0.8-0.1c0.3-1,0.4-1.6,0.4-2.6L82.7,95z M82.2,99.7c0.1,0.3,0.3,0.6,0.6,1l1.8,2.8
				c0.3,0.5,0.5,0.8,0.7,1l-0.7,0.5c-0.1-0.3-0.3-0.6-0.6-1.1l-1.7-2.8c-0.3-0.5-0.5-0.8-0.7-1L82.2,99.7z"/>
			<path d="M84.7,109.7c-2.3,1.3-3.8,1.8-5.3,1.9c0.1-0.4,0.2-0.6,0.1-0.9c1.4,0,2.5-0.4,4.6-1.6c-0.1-0.1-0.1-0.1-0.2-0.2
				c0,0-0.3-0.3-0.4-0.4l0.7-0.6c0,0.1,0.1,0.1,0.1,0.2c0.1,0.2,0.2,0.3,0.5,0.6c0.8-0.5,1.4-0.8,2.4-1.5c0.6-0.4,0.9-0.6,1.2-0.8
				c0.1,0.3,0.3,0.6,0.5,1l0.2,0.3c0.6-0.1,1-0.2,1.6-0.4l0.3,0.8c-0.5,0.1-0.9,0.2-1.4,0.3l0.5,0.7c0.3,0.4,0.5,0.7,0.6,0.9
				c-0.2,0.1-0.5,0.3-0.9,0.5l-2.3,1.4l0.3,0.3l-0.6,0.4c-0.2-0.2-0.2-0.2-0.3-0.3l-4.1,2.6c-0.6,0.4-0.9,0.3-1.4-0.4
				c-0.2-0.3-0.4-0.6-0.5-0.9c0.3-0.2,0.4-0.4,0.6-0.6c0.2,0.5,0.3,0.8,0.6,1.1c0.1,0.2,0.2,0.2,0.5,0.1l3.8-2.4
				c-0.3-0.3-0.3-0.4-0.7-0.8l-2,1.2c-0.5,0.3-0.7,0.5-1,0.7l-0.4-0.7c0.3-0.2,0.6-0.3,1.1-0.6l1.9-1.2L84.7,109.7z M83.1,117.2
				l-0.5-0.7c0.4-0.2,0.7-0.3,1-0.5l3.1-2c0.4-0.2,0.6-0.4,0.9-0.6c0.1,0.3,0.2,0.5,0.5,0.8l1.6,2.5c0.2,0.4,0.4,0.6,0.5,0.8
				c-0.3,0.1-0.6,0.3-0.9,0.5l-3.1,2c-0.4,0.2-0.7,0.5-1,0.7l-0.5-0.7l0.7-0.4l-1.7-2.7L83.1,117.2z M84.4,116.4l1.7,2.7l3-1.9
				l-1.7-2.7L84.4,116.4z M89.7,109.7l-1.3-2.1l-0.7,0.5c-0.8,0.5-1.5,1-2.2,1.4c0.6,0.8,1.1,1.4,1.7,2L89.7,109.7z M88.5,108.7
				c-0.4,0.7-0.7,1.2-1.2,1.7l-0.6-0.4c0.5-0.6,0.8-1,1.2-1.7L88.5,108.7z M93.1,112.1c-0.3,0.1-0.4,0.1-0.8,0.3
				c-1.2,0.4-1.7,0.6-2.6,0.7c-0.8,0.1-1.3,0.2-2.1,0.1c0.1-0.4,0.1-0.5,0-0.9c1.4,0.1,2.7-0.1,4.2-0.7c0.5-0.2,0.7-0.3,0.9-0.4
				L93.1,112.1z M94.3,113.5c-0.3,0.3-0.6,0.6-0.9,1c-1,1.3-1.6,2.3-2.1,3.6c-0.3-0.1-0.6-0.2-0.9-0.3c0.6-1.3,0.9-1.8,1.8-3.1
				c0.3-0.5,0.5-0.6,1.2-1.6c0.1-0.1,0.1-0.1,0.2-0.2L94.3,113.5z"/>
			<path d="M97.5,117.5l1.8,2.8c-1.3-0.1-1.9-0.1-2.8,0.1c-1.1,0.3-2.3,0.7-3.5,1.5s-2.2,1.6-2.9,2.5c-0.6,0.7-0.8,1.2-1.3,2.5
				l-1.8-2.8L97.5,117.5z"/>
			<path d="M99.8,124.2c0.4-0.3,0.7-0.5,1-0.7l0.5,0.8c-0.3,0.2-0.6,0.3-1.1,0.6l-0.7,0.5l0.4,0.6c0.2,0.4,0.4,0.7,0.7,1l-0.7,0.4
				c-0.1-0.3-0.3-0.6-0.6-1l-0.9-1.4c-0.2,0.1-0.4,0.2-0.5,0.3c-0.2,0.1-0.6,0.3-1,0.6l0.8,1.3c0.3,0.5,0.4,0.6,0.5,0.8
				c-0.3,0.1-0.3,0.1-1.5,0.9c-1.4,0.8-2.6,1.5-3.5,1.8c-0.9,0.4-1.2,0.2-1.7-0.5c-0.2-0.3-0.3-0.5-0.5-0.9c0.3-0.2,0.5-0.4,0.6-0.6
				c0.1,0.3,0.3,0.7,0.5,1c0.2,0.4,0.4,0.4,1.3,0c1-0.5,1.9-1,3.7-2.1l-0.9-1.4c-1.8,1-2.1,1.1-3,1.4c-1.1,0.4-2.2,0.5-3.4,0.4
				c0.2-0.4,0.2-0.5,0.2-0.9c2.1,0.2,3.5-0.3,7.8-2.9l-0.1-0.2c-0.3-0.5-0.5-0.8-0.7-1l0.7-0.5c0.1,0.3,0.3,0.6,0.6,1.1l0.6,0.9
				L99.8,124.2z M101.4,134.1c-1.1-0.2-1.8-0.5-2.8-0.9c-0.3,0.5-0.7,1-0.9,1.5c-0.4,0.8-0.6,1.5-0.8,2.6c-0.4-0.1-0.6-0.1-1,0
				c0.4-1.8,0.8-2.9,1.8-4.3c0.6-0.8,1.1-1.4,2.1-2.2c-0.3-0.2-0.5-0.3-0.8-0.4l-4.3,2.7c-0.5,0.3-0.8,0.5-1.1,0.8l-0.5-0.8
				c0.3-0.1,0.6-0.3,1.2-0.6l3.9-2.5c-0.4-0.3-0.6-0.4-1-0.6c0.2-0.3,0.3-0.4,0.4-0.7c1,0.8,1.8,1.3,3,1.8c0.7,0.3,1.5,0.6,1.9,0.6
				l-0.1,0.9c-0.2-0.1-0.2-0.1-0.7-0.3c-0.4-0.1-0.9-0.3-1.2-0.5c-0.8,0.7-1,0.8-1.5,1.4c0.8,0.4,1.5,0.6,2.5,0.6L101.4,134.1z
				 M101.1,128.4c-1,0.1-1.6,0-2.6-0.2c0.1-0.3,0.1-0.5,0-0.8c1.1,0.2,1.7,0.3,2.6,0.2c0.8,0,1.6-0.2,2-0.4l0.3,0.9
				c-0.2,0-0.2,0-0.5,0.1c-0.5,0.1-0.7,0.1-1,0.2l1.8,2.9c0.3,0.5,0.6,0.9,0.8,1.1l-0.7,0.5c-0.2-0.3-0.4-0.7-0.6-1.1L101.1,128.4z"
				/>
			<path d="M100.3,139.1c0.2-0.1,0.4-0.3,0.6-0.4c-0.5-0.4-0.8-0.7-1.4-1.3c0.2-0.3,0.3-0.5,0.4-0.8c1.4,1.6,2.8,2.6,4.5,3.5
				c0-0.8,0.1-1.4,0.3-2.2c-1-0.3-1.6-0.5-2.8-1.2c0.1-0.3,0.2-0.5,0.2-0.8c1,0.7,1.7,1,2.7,1.3c0.8,0.2,1.8,0.3,2.3,0.3l0.2,0.9
				c-0.1,0-0.1,0-0.2,0c0,0-0.1,0-0.2,0c-0.1,0-0.1,0-0.5-0.1l1.5,2.4c0.3,0.5,0.5,0.7,0.7,1l-0.1,0.7c-0.1,0-0.2,0-0.3-0.1
				c-1-0.2-2.1-0.6-3-0.9c0.1,1.8,0.5,3.4,1.3,5.4c-0.4,0-0.6,0-0.9,0.1c-0.3-0.8-0.4-1.1-0.5-1.8c-0.2,0.1-0.4,0.2-0.7,0.4l-1.5,1
				c-0.4,0.2-0.6,0.4-0.9,0.7l-0.5-0.8l0.4-0.3l-3-4.8l-0.4,0.3l-0.5-0.7c0.3-0.2,0.7-0.3,1-0.5L100.3,139.1z M99.3,140.7l3,4.8
				l1.7-1l-3-4.8L99.3,140.7z M104.4,143.8c0.2,0.2,0.2,0.3,0.3,0.5c-0.3-1.3-0.4-2.1-0.4-3.4c-1-0.5-1.7-0.9-2.9-1.8
				c0.1,0.1,0.1,0.2,0.3,0.4L104.4,143.8z M108.6,137.5c0.3-0.2,0.5-0.3,0.7-0.6l0.5,0.8c-0.2,0.1-0.6,0.3-0.8,0.4l-0.3,0.2l1.9,3.1
				c0.3,0.5,0.5,0.8,0.8,1.2c-0.3,0.1-0.5,0.2-0.8,0.4l-0.6,0.4c-0.3,0.2-0.5,0.4-0.7,0.5l-0.5-0.7l1.5-0.9l-4.9-7.8l-1.5,0.9
				l-0.4-0.7c0.3-0.1,0.5-0.2,0.8-0.4l0.6-0.4c0.3-0.2,0.5-0.3,0.7-0.5c0.2,0.4,0.4,0.8,0.7,1.2l1.9,3L108.6,137.5z M105.4,138
				c-0.2,0.8-0.3,1.4-0.3,2.4c0.8,0.4,1.3,0.5,2.5,0.8l-2-3.2L105.4,138z"/>
			<path d="M109,148.2c-2.3,1.3-3.8,1.8-5.3,1.9c0.1-0.4,0.2-0.6,0.1-0.9c1.4,0,2.5-0.4,4.6-1.6c-0.1-0.1-0.1-0.1-0.2-0.2
				c0,0-0.3-0.3-0.4-0.4l0.7-0.6c0,0.1,0.1,0.1,0.1,0.2c0.1,0.2,0.2,0.3,0.5,0.6c0.8-0.5,1.4-0.8,2.4-1.5c0.6-0.4,0.9-0.6,1.2-0.8
				c0.1,0.3,0.3,0.6,0.5,1l0.2,0.3c0.6-0.1,1-0.2,1.6-0.4l0.3,0.8c-0.5,0.1-0.9,0.2-1.4,0.3l0.5,0.7c0.3,0.4,0.5,0.7,0.6,0.9
				c-0.2,0.1-0.5,0.3-0.9,0.5l-2.3,1.4l0.3,0.3l-0.6,0.4c-0.2-0.2-0.2-0.2-0.3-0.3l-4.1,2.6c-0.6,0.4-0.9,0.3-1.4-0.4
				c-0.2-0.3-0.4-0.6-0.5-0.9c0.3-0.2,0.4-0.4,0.6-0.6c0.2,0.5,0.3,0.8,0.6,1.1c0.1,0.2,0.2,0.2,0.5,0.1l3.8-2.4
				c-0.3-0.3-0.3-0.4-0.7-0.8l-2,1.2c-0.5,0.3-0.7,0.5-1,0.7l-0.4-0.7c0.3-0.2,0.6-0.3,1.1-0.6l1.9-1.2L109,148.2z M107.4,155.7
				l-0.5-0.7c0.4-0.2,0.7-0.3,1-0.5l3.1-2c0.4-0.2,0.6-0.4,0.9-0.6c0.1,0.3,0.2,0.5,0.5,0.8l1.6,2.5c0.2,0.4,0.4,0.6,0.5,0.8
				c-0.3,0.1-0.6,0.3-0.9,0.5l-3.1,2c-0.4,0.2-0.7,0.5-1,0.7l-0.5-0.7l0.7-0.4l-1.7-2.7L107.4,155.7z M108.7,154.9l1.7,2.7l3-1.9
				l-1.7-2.7L108.7,154.9z M114,148.2l-1.3-2.1l-0.7,0.5c-0.8,0.5-1.5,1-2.2,1.4c0.6,0.8,1.1,1.4,1.7,2L114,148.2z M112.7,147.2
				c-0.4,0.7-0.7,1.2-1.2,1.7l-0.6-0.4c0.5-0.6,0.8-1,1.2-1.7L112.7,147.2z M117.3,150.6c-0.3,0.1-0.4,0.1-0.8,0.3
				c-1.2,0.4-1.7,0.6-2.6,0.7c-0.8,0.1-1.3,0.2-2.1,0.1c0.1-0.4,0.1-0.5,0-0.9c1.4,0.1,2.7-0.1,4.2-0.7c0.5-0.2,0.7-0.3,0.9-0.4
				L117.3,150.6z M118.6,152c-0.3,0.3-0.6,0.6-0.9,1c-1,1.3-1.6,2.3-2.1,3.6c-0.3-0.1-0.6-0.2-0.9-0.3c0.6-1.3,0.9-1.8,1.8-3.1
				c0.3-0.5,0.5-0.6,1.2-1.6c0.1-0.1,0.1-0.1,0.2-0.2L118.6,152z"/>
			<path d="M110.1,160.9c1.3,0.1,1.9,0.1,2.8-0.1c1.1-0.3,2.2-0.7,3.5-1.5s2.2-1.6,2.9-2.5c0.6-0.7,0.8-1.2,1.3-2.5l1.8,2.8
				l-10.5,6.6L110.1,160.9z"/>
		</g>
	</g>
	<g>
		<g>
			<path d="M23.6,84.1C22,85,20.9,86,20,87.2c-0.8,1.2-1.3,2.4-1.6,4c-0.4-0.2-0.5-0.2-1-0.3c0.8-3.2,2.2-5.2,4.9-6.9
				c-1.9,0.1-3.7-0.3-5.2-1.3c-0.9-0.6-1.5-1.2-2.4-2.3c0.3-0.3,0.4-0.4,0.6-0.7c1,1.4,1.9,2.2,3.1,2.7c1.4,0.7,2.9,0.9,4.8,0.6
				l-0.9-3.4c-0.2-0.7-0.3-1-0.4-1.4l1-0.3c0,0.3,0.1,0.8,0.3,1.4l0.9,3.5c0.6-0.1,1-0.2,1.5-0.3c0.6-0.1,1-0.3,1.3-0.4l0.3,1
				c-0.4,0-0.7,0.1-1.3,0.2c-0.6,0.2-1,0.2-1.6,0.3l1,3.8c0.2,0.6,0.3,1.1,0.4,1.4l-1,0.3c0-0.4-0.1-0.8-0.3-1.4L23.6,84.1z"/>
			<path d="M23.3,93c-0.7-0.4-1.1-0.6-1.9-1.3c0.3-0.2,0.4-0.4,0.6-0.6c0.9,0.8,1.6,1.3,2.6,1.7c0.9,0.4,1.6,0.6,2.6,0.8l-0.6-2.2
				c-0.1-0.3-0.2-0.6-0.3-1l0.8-0.2c0,0.3,0.1,0.6,0.2,1l0.2,0.7l1.2-0.3c0.3-0.1,0.7-0.2,1-0.3l0.2,0.9c-0.2,0-0.6,0.1-1,0.2
				l-1.1,0.3l0.2,0.8c0.1,0.3,0.1,0.5,0.2,0.6l-0.4,0.5c-0.2-0.1-0.3-0.1-0.6-0.1c-1-0.2-1.6-0.4-2.6-0.8c-0.4,0.6-0.7,1.2-0.8,1.9
				c-0.3-0.1-0.5-0.2-0.8-0.2c0.2-0.7,0.4-1,0.8-1.6l-4,1c-0.6,0.2-1,0.3-1.3,0.4l-0.2-0.9c0.4-0.1,0.9-0.2,1.3-0.3L23.3,93z
				 M25.7,101c0.2,0.6,0.3,0.9,0.4,1.2c-0.3,0-0.7,0.1-1.2,0.3l-3,0.8c-0.5,0.1-0.9,0.3-1.3,0.4l-0.2-0.8l0.6-0.2l-1.3-5.1l-0.6,0.1
				l-0.2-0.8c0.4,0,0.8-0.1,1.3-0.3l3-0.8c0.5-0.1,0.9-0.2,1.2-0.4c0.1,0.3,0.1,0.7,0.3,1.3L25.7,101z M20.3,97.4l0.5,2.1l1.5-0.4
				L21.8,97L20.3,97.4z M21,100.2l0.6,2.3l1.5-0.4l-0.6-2.3L21,100.2z M22.5,96.8l0.5,2.1l1.4-0.3l-0.5-2.1L22.5,96.8z M23.2,99.6
				l0.6,2.3l1.4-0.3l-0.6-2.3L23.2,99.6z M27.2,95.4c0.4-0.1,0.7-0.2,1-0.3c0,0.3,0.1,0.7,0.2,1.2l0.8,3.2c0.1,0.5,0.2,0.8,0.4,1.1
				c-0.3,0-0.6,0.1-1,0.2l-0.8,0.2c-0.5,0.1-0.7,0.2-1,0.3c0-0.3-0.1-0.6-0.3-1.2L25.7,97c-0.1-0.5-0.2-0.8-0.4-1.2
				c0.3,0,0.6-0.1,1-0.2L27.2,95.4z M26.3,96.4l1,3.9l1.5-0.4l-1-3.9L26.3,96.4z M29.7,93.9c0.1,0.4,0.1,0.8,0.3,1.3l1.2,4.6
				c0.1,0.5,0.3,0.9,0.4,1.2l-0.8,0.2c-0.1-0.4-0.1-0.7-0.2-1.2l-1.2-4.7c-0.1-0.5-0.2-0.8-0.4-1.2L29.7,93.9z"/>
			<path d="M28.4,105.7c-0.3,0.9-0.5,1.3-0.9,2.2c0.9,0,1.5-0.1,2.8-0.3l-0.6-2.4c-0.2-0.6-0.3-0.9-0.4-1.3l0.9-0.2
				c0,0.4,0.1,0.7,0.3,1.4l0.6,2.5c0.4-0.1,0.7-0.2,1.1-0.2c0.7-0.2,0.9-0.3,1.3-0.4l0.3,1c-0.3,0-0.6,0.1-1,0.2
				c-0.3,0.1-0.6,0.1-1.3,0.3l0.5,2.1c0.2,0.6,0.3,1,0.4,1.4c-0.3,0-0.6,0.1-1.1,0.2l-6.5,1.6c-0.3,0.1-0.3,0.1-0.3,0.4
				c0,0.1,0,0.3,0.1,0.6c0.2,0.8,0.3,1,0.6,1c0.4,0,1.3-0.1,2.3-0.4c-0.1,0.4-0.1,0.5-0.1,0.9c-1.5,0.3-2.3,0.4-2.7,0.2
				c-0.4-0.1-0.5-0.5-0.8-1.5c-0.4-1.5-0.3-1.8,0.6-2l6.9-1.7l-0.7-2.6c-1.4,0.3-2.4,0.4-3.4,0.3c-0.5,1-0.8,1.5-1.3,2.4l-0.8-0.3
				c0.5-0.8,0.9-1.4,1.3-2.1c-1.8-0.3-3.4-1.2-5.1-2.8c0.3-0.3,0.4-0.5,0.5-0.8c0.8,0.9,1.3,1.3,2.1,1.8c0.9,0.6,1.8,0.9,2.9,1
				c0.5-1,0.7-1.6,1-2.5L28.4,105.7z"/>
			<path d="M35.9,124.7c-0.2-0.1-0.2-0.1-0.8-0.1c-2.6,0-4.5-0.6-6.3-1.8c-1.4-0.9-2.3-1.8-3.4-3.3c0.4-0.3,0.5-0.4,0.7-0.8
				c0.6,1,1.2,1.7,2.1,2.5c1.9,1.7,4,2.4,7,2.4l-1.6-6.4c-0.2-0.6-0.3-1-0.4-1.4l1-0.3c0,0.5,0.1,0.8,0.3,1.4l1.6,6.2
				c0.1,0.5,0.2,0.6,0.3,0.8L35.9,124.7z"/>
			<path d="M29.7,132.3l0.7,2.7c0.2,0.6,0.2,0.8,0.4,1.1l-0.9,0.2c0-0.3-0.1-0.6-0.2-1.2l-1.6-6.1c-0.1-0.5-0.2-0.8-0.3-1.1l0.9-0.2
				c0,0.3,0.1,0.5,0.2,1.2l0.7,2.6l4.4-1.1l-0.5-1.8c-0.1-0.6-0.2-0.8-0.3-1.1l0.9-0.2c0,0.3,0.1,0.6,0.2,1.1l1.2,4.6
				c0.1,0.5,0.2,0.8,0.4,1.1l-0.9,0.2c0-0.4-0.1-0.5-0.2-1.1l-0.5-1.9L29.7,132.3z"/>
			<path d="M41.8,142.1c-0.3,0-0.5,0.1-1.1,0.2l-1.5,0.4c-2,0.5-3.1,0.7-3.9,0.7c-1.3-0.1-2.4-0.6-3.4-1.7c-0.5-0.5-0.9-1.1-1.5-2.1
				c0.3-0.2,0.4-0.3,0.7-0.8c0.5,1.1,0.9,1.6,1.5,2.2c1,1,1.9,1.4,3.2,1.3c0.8,0,1.3-0.2,3.3-0.6l1.4-0.4c0.7-0.2,0.8-0.2,1.1-0.3
				L41.8,142.1z M40.3,136.5c-0.3,0-0.5,0.1-1.1,0.2l-3.4,0.9c-0.6,0.2-0.7,0.2-1,0.3l-0.3-1c0.3,0,0.6-0.1,1.1-0.2l3.4-0.9
				c0.5-0.1,0.8-0.2,1-0.3L40.3,136.5z"/>
			<path d="M38.2,146.1c0,0.4,0.1,0.7,0.3,1.6l1.9,7.3c0.2,0.9,0.3,1.1,0.5,1.5l-1,0.3c-0.1-0.4-0.1-0.7-0.3-1.5l-1.9-7.3
				c-0.2-0.9-0.3-1.2-0.5-1.5L38.2,146.1z"/>
			<path d="M41.3,160.5c-0.6,0.1-1.2-0.2-1.3-0.8c-0.1-0.6,0.2-1.2,0.8-1.3c0.6-0.1,1.2,0.2,1.3,0.8
				C42.2,159.8,41.8,160.4,41.3,160.5z"/>
			<path d="M44.2,166.6c-0.1-0.5-0.2-0.8-0.4-1.2l0.8-0.2c-0.7-0.7-1.2-1.1-1.8-2c0.3-0.2,0.4-0.3,0.6-0.7c1.6,2.2,3.4,3.7,5.4,4.3
				l0.2,1c-0.7,0.7-1.2,1.6-1.7,2.8c-0.5,1.3-0.7,2.3-0.8,3.7c-0.3-0.1-0.6-0.2-0.9-0.3c0.2-1.1,0.3-1.7,0.7-2.8l-0.8,0.2
				c0-0.3-0.1-0.6-0.2-1.2l-0.4-1.5l-1.7,0.4l0.9,3.5c0.1,0.6,0.3,0.9,0.4,1.2l-0.9,0.2c0-0.4-0.1-0.7-0.2-1.3l-0.9-3.5l-3.3,0.9
				l0.9,3.7c0.1,0.6,0.3,1,0.4,1.4l-0.9,0.2c0-0.4-0.1-0.9-0.3-1.4l-2-7.9c-0.1-0.5-0.3-0.9-0.5-1.4l0.9-0.2
				c0.1,0.4,0.1,0.9,0.3,1.5l0.9,3.4l3.3-0.9l-0.8-3.3c-0.1-0.5-0.2-0.9-0.4-1.2l0.9-0.2c0,0.4,0.1,0.7,0.2,1.3l0.8,3.3l1.7-0.4
				L44.2,166.6z M41.1,166.2c-0.6,0.7-1.1,1.1-2,1.7l-0.5-0.7c0.8-0.5,1.4-1,2-1.7L41.1,166.2z M42.4,173c-1.3-0.3-1.7-0.4-2.7-0.7
				l0.1-0.8c0.8,0.4,1.6,0.5,2.7,0.6L42.4,173z M45.8,170.1c0.1,0.5,0.2,0.8,0.3,1.1c0.5-1.5,1.1-2.6,2-3.7
				c-1.3-0.5-2.3-1.1-3.5-2.2c0,0.3,0.1,0.6,0.2,1.1L45.8,170.1z"/>
			<path d="M52.4,183c0.2,0.6,0.3,1,0.4,1.4c-0.7,0.1-1.3,0.2-3,0.7c-2.7,0.7-4.3,1.2-5.4,1.8c-0.7,0.3-1.2,0.7-1.2,0.9
				c0,0.1,0.1,0.1,0.4,0.1c0.4,0,0.9-0.1,1.6-0.2c-0.2,0.3-0.3,0.5-0.5,0.8c-1.1,0.1-1.6,0.1-2,0c-0.3-0.1-0.6-0.2-0.6-0.5
				c-0.1-0.6,0.9-1.4,2.5-2.1c1.1-0.5,2.9-1,5.4-1.7l1.7-0.4l-1.8-7.1l-1.7,0.4c-4.6,1.2-6.7,1.3-8.8,0.6c0.2-0.3,0.4-0.5,0.5-0.8
				c1.9,0.7,3.8,0.5,8.6-0.7c1-0.3,1.5-0.4,2-0.6c0.1,0.5,0.1,0.9,0.3,1.5L52.4,183z M44.1,180.3c-0.1-0.4-0.2-0.7-0.4-1.1
				c0.3,0,0.5-0.1,1-0.2l1.4-0.4c0.4-0.1,0.7-0.2,1-0.3c0,0.3,0.1,0.6,0.2,1.2l0.3,1.1l1.2-0.3c-0.3-0.7-0.4-1.1-0.7-2.2
				c0.2-0.2,0.4-0.3,0.6-0.5c0.4,1.7,0.8,2.8,1.4,4.1c0.3,0.7,0.4,0.9,0.6,1.1l-0.6,0.7c-0.5-1-0.8-1.6-1.1-2.5l-1.3,0.3l0.3,1.2
				c0.1,0.5,0.2,0.9,0.3,1.1c-0.3,0-0.5,0.1-1,0.2l-1.5,0.4c-0.5,0.1-0.7,0.2-0.9,0.3c-0.1-0.3-0.1-0.6-0.2-1l-0.3-1.3l-1.9,0.5
				c0.3,0.7,0.4,1,0.7,1.7c0.4-0.3,0.6-0.5,0.8-0.7l0.4,0.5c-0.7,0.7-1.2,1.1-2.3,2l-0.5-0.6c0.4-0.2,0.6-0.4,1-0.7
				c-0.7-1.5-1.3-2.9-2-5c-0.1-0.3-0.1-0.4-0.2-0.5l0.8-0.4c0,0.1,0,0.3,0.1,0.4c0.1,0.5,0.6,1.8,0.9,2.7l2-0.5L44.1,180.3z
				 M46.7,179.2l-2,0.5l0.4,1.5l2-0.5L46.7,179.2z M45.2,182l0.4,1.6l2-0.5l-0.4-1.6L45.2,182z"/>
			<path d="M50.2,190.6c-0.1-0.6-0.2-0.9-0.4-1.3c0.4-0.1,0.6-0.1,1-0.2l2.3-0.6c0.4-0.1,0.6-0.2,0.9-0.3c0.1,0.5,0.2,0.9,0.3,1.4
				l1.3,5c0.2,0.6,0.3,1,0.4,1.4c-0.3,0-0.6,0.1-1,0.2l-2.3,0.6c-0.4,0.1-0.6,0.2-0.9,0.3c-0.1-0.4-0.1-0.8-0.3-1.3l-0.6-2.4
				c-0.8-0.1-1.2-0.1-1.9-0.3l1,4c0.1,0.5,0.2,0.8,0.4,1.2c-0.3,0-0.6,0.1-1.1,0.2l-2.7,0.7c-0.5,0.1-0.8,0.2-1.2,0.4l-0.2-0.9
				l0.6-0.2l-2-7.7l-0.6,0.2l-0.2-0.9c0.4,0,0.9-0.1,1.4-0.3l2.5-0.6c0.4-0.1,0.8-0.2,1.2-0.4c0,0.4,0.1,0.7,0.2,1.2l0.5,2.1
				c0.8,0.2,1.1,0.2,1.9,0.3L50.2,190.6z M44.5,190.8l2,7.7l2.9-0.7l-2-7.7L44.5,190.8z M53.4,189.3l-2.6,0.7l1.6,6.1l2.6-0.7
				L53.4,189.3z"/>
			<path d="M53.1,201.9c-0.3,0.9-0.5,1.3-0.9,2.2c0.9,0,1.5-0.1,2.8-0.3l-0.6-2.4c-0.2-0.6-0.3-0.9-0.4-1.3l0.9-0.2
				c0,0.4,0.1,0.7,0.3,1.4l0.6,2.5c0.4-0.1,0.7-0.2,1.1-0.2c0.7-0.2,0.9-0.3,1.3-0.4l0.3,1c-0.3,0-0.6,0.1-1,0.2
				c-0.3,0.1-0.6,0.1-1.3,0.3l0.5,2.1c0.2,0.6,0.3,1,0.4,1.4c-0.3,0-0.6,0.1-1.1,0.2l-6.5,1.6c-0.3,0.1-0.3,0.1-0.3,0.4
				c0,0.1,0,0.3,0.1,0.6c0.2,0.8,0.3,1,0.6,1c0.4,0,1.3-0.1,2.3-0.4c-0.1,0.4-0.1,0.5-0.1,0.9c-1.5,0.3-2.3,0.4-2.7,0.2
				c-0.4-0.1-0.5-0.5-0.8-1.5c-0.4-1.5-0.3-1.8,0.6-2l6.9-1.7l-0.7-2.6c-1.4,0.3-2.4,0.4-3.4,0.3c-0.5,1-0.8,1.5-1.3,2.4l-0.8-0.3
				c0.5-0.8,0.9-1.4,1.3-2.1c-1.8-0.3-3.4-1.2-5.1-2.8c0.3-0.3,0.4-0.5,0.5-0.8c0.8,0.9,1.3,1.3,2.1,1.8c0.9,0.6,1.8,0.9,2.9,1
				c0.5-1,0.7-1.6,1-2.5L53.1,201.9z"/>
			<path d="M60.6,220.9c-0.2-0.1-0.2-0.1-0.8-0.1c-2.6,0-4.5-0.6-6.3-1.8c-1.4-0.9-2.3-1.8-3.4-3.3c0.4-0.3,0.5-0.4,0.7-0.8
				c0.6,1,1.2,1.7,2.1,2.5c1.9,1.7,4,2.4,7,2.4l-1.6-6.4c-0.2-0.6-0.3-1-0.4-1.4l1-0.3c0,0.5,0.1,0.8,0.3,1.4l1.6,6.2
				c0.1,0.5,0.2,0.6,0.3,0.8L60.6,220.9z"/>
			<path d="M54.4,228.5l0.7,2.7c0.2,0.6,0.2,0.8,0.4,1.1l-0.9,0.2c0-0.3-0.1-0.6-0.2-1.2l-1.6-6.1c-0.1-0.5-0.2-0.8-0.3-1.1l0.9-0.2
				c0,0.3,0.1,0.5,0.2,1.2l0.7,2.6l4.4-1.1l-0.5-1.8c-0.1-0.6-0.2-0.8-0.3-1.1l0.9-0.2c0,0.3,0.1,0.6,0.2,1.1l1.2,4.6
				c0.1,0.5,0.2,0.8,0.4,1.1l-0.9,0.2c0-0.4-0.1-0.5-0.2-1.1l-0.5-1.9L54.4,228.5z"/>
			<path d="M66.5,238.3c-0.3,0-0.5,0.1-1.1,0.2l-1.5,0.4c-2,0.5-3.1,0.7-3.9,0.7c-1.3-0.1-2.4-0.6-3.4-1.7c-0.5-0.5-0.9-1.1-1.5-2.1
				c0.3-0.2,0.4-0.3,0.7-0.8c0.5,1.1,0.9,1.6,1.5,2.2c1,1,1.9,1.4,3.2,1.3c0.8,0,1.3-0.2,3.3-0.6l1.4-0.4c0.7-0.2,0.8-0.2,1.1-0.3
				L66.5,238.3z M65.1,232.7c-0.3,0-0.5,0.1-1.1,0.2l-3.4,0.9c-0.6,0.2-0.7,0.2-1,0.3l-0.3-1c0.3,0,0.6-0.1,1.1-0.2l3.4-0.9
				c0.5-0.1,0.8-0.2,1-0.3L65.1,232.7z"/>
			<path d="M62.9,242.3c0,0.4,0.1,0.7,0.3,1.6l1.9,7.3c0.2,0.9,0.3,1.1,0.5,1.5l-1,0.3c-0.1-0.4-0.1-0.7-0.3-1.5l-1.9-7.3
				c-0.2-0.9-0.3-1.2-0.5-1.5L62.9,242.3z"/>
		</g>
	</g>
	<g>
		<g>
			<path d="M44,25.8c0,0.6,0,1,0.1,1.4h-0.9c0.1-0.4,0.1-0.8,0.1-1.4v-3.8c0-0.6,0-0.9,0-1.5c-0.4,0.7-0.7,1.1-1.2,1.8
				c-0.2-0.4-0.3-0.5-0.5-0.7c0.9-0.9,1.5-1.9,2.1-3.1c0.3-0.7,0.6-1.5,0.7-2l0.8,0.3c-0.5,1.4-0.7,1.8-1.2,2.7V25.8z M51.4,19.7
				c0.5,0,0.9,0,1.2-0.1v0.9c-0.4,0-0.8-0.1-1.2-0.1h-2.5c0.3,1.5,0.7,2.5,1.4,3.6c0.7,1.1,1.4,1.8,2.5,2.5
				c-0.2,0.2-0.4,0.5-0.6,0.7c-1-0.7-1.7-1.4-2.4-2.4c-0.8-1.2-1.2-2.2-1.5-3.5c-0.2,1.2-0.6,2.5-1.1,3.4c-0.6,1-1.3,1.7-2.4,2.5
				c-0.2-0.3-0.3-0.5-0.6-0.7c2.1-1.2,3.1-3.1,3.4-6.1h-1.8c-0.5,0-0.9,0-1.2,0.1v-0.9c0.3,0,0.7,0.1,1.2,0.1h1.9c0-0.7,0-1.1,0-2
				c0-0.4,0-0.7-0.1-1.1h0.9c0,0.4-0.1,0.7-0.1,1.2c0,0.9,0,0.9-0.1,2H51.4z M51.4,19.2c-0.6-0.8-1.1-1.2-1.9-1.8l0.6-0.5
				c0.8,0.6,1.2,1,1.9,1.7L51.4,19.2z"/>
			<path d="M56.2,17.6c0-0.6,0-0.9-0.1-1.2h0.8c0,0.3-0.1,0.6-0.1,1.2V18h0.6c0.6,0,0.8,0,1.1-0.1v0.8c-0.3,0-0.6-0.1-1.1-0.1h-0.6
				v1.6h0.7c0.6,0,0.9,0,1.1-0.1V21c-0.3,0-0.6-0.1-1.1-0.1h-0.7v1.6h0.7c0.4,0,0.7,0,1-0.1v0.8c-0.3,0-0.6-0.1-1-0.1h-0.7v2.4
				c0.5,0.3,0.9,0.4,1.6,0.5c0.7,0.1,1.8,0.1,2.8,0.1c1.3,0,2.5-0.1,3.4-0.2c-0.2,0.3-0.2,0.5-0.3,0.8c-0.4,0-1.7,0.1-2,0.1
				c-2.4,0-3.1,0-3.8-0.1c-1.2-0.1-2-0.4-2.7-1.1c-0.4-0.3-0.6-0.7-1-1.2c-0.2,1-0.5,1.8-0.9,2.6c-0.2-0.2-0.4-0.3-0.6-0.4
				c0.7-1.2,1.1-2.7,1.1-4.4c0-0.2,0-0.3,0-0.5l0.8,0c0,0.2,0,0.2-0.1,0.9c0,0.3,0,0.5-0.1,1c0.3,0.5,0.6,1,1.1,1.4V21H55
				c-0.6,0-0.8,0-1.1,0.1v-0.8c0.3,0,0.6,0.1,1.1,0.1h1.1v-1.6h-1c-0.4,0-0.7,0-1,0.1V18c0.3,0,0.5,0.1,1,0.1h1V17.6z M64.1,20
				c-0.1,0.1-0.1,0.2-0.2,0.6c-0.4,1.1-0.7,1.9-1.1,2.6c0.3,0.7,0.8,1.5,1,1.5c0.1,0,0.3-0.6,0.4-1.5c0.2,0.2,0.3,0.3,0.6,0.4
				c-0.1,0.6-0.2,0.9-0.3,1.3c-0.1,0.4-0.3,0.6-0.5,0.6c-0.3,0-0.6-0.2-0.9-0.6c-0.3-0.3-0.5-0.6-0.7-1.1c-0.6,0.7-1.1,1.2-1.9,1.8
				c-0.3-0.3-0.3-0.3-0.5-0.5c0.9-0.6,1.6-1.2,2.1-2c-0.4-1.1-0.6-2.3-0.7-4.2h-1.6v4.6c0.6-0.3,0.9-0.5,1.5-0.9l0.1,0.7
				c-1.1,0.7-1.6,1-2.8,1.5c-0.2,0.1-0.3,0.2-0.5,0.2l-0.3-0.7c0.4-0.1,0.7-0.2,1.2-0.4v-4.5c0-0.5,0-0.8,0-1.1c0.3,0,0.6,0,1.1,0
				h1.2c0-1.5,0-1.5-0.1-1.9h0.8c0,0.3-0.1,0.6-0.1,1.1c0,0.2,0,0.3,0,0.8h1.3c0.6,0,0.9,0,1.1-0.1V19c-0.3,0-0.7-0.1-1.1-0.1H62
				c0,1.5,0.2,2.6,0.5,3.5c0.4-0.8,0.7-1.7,0.9-2.7L64.1,20z M63,16.4c0.5,0.4,0.8,0.7,1.1,1.2L63.6,18c-0.4-0.5-0.6-0.8-1.1-1.2
				L63,16.4z"/>
			<path d="M66.2,19.4c0.8,0.5,1.3,0.8,2,1.5l-0.5,0.6c-0.7-0.7-1.2-1.1-2-1.6L66.2,19.4z M68.2,23.5c-0.4,1.2-0.8,2.1-1.3,3.1
				c-0.1,0.3-0.2,0.4-0.3,0.5L66,26.4c0.6-0.8,1.2-2,1.6-3.4L68.2,23.5z M66.8,16.5c0.8,0.5,1.2,0.9,1.9,1.5l-0.5,0.6
				c-0.6-0.7-1.1-1.1-1.9-1.6L66.8,16.5z M69.7,20.7c-0.5,0-0.9,0-1.2,0.1V20c0.3,0,0.7,0.1,1.2,0.1h0.9v-1.6H70
				c-0.4,0-0.8,0-1.1,0.1v-0.8c0.3,0,0.7,0.1,1.1,0.1h0.6v-0.5c0-0.4,0-0.7-0.1-0.9h0.8c0,0.2-0.1,0.6-0.1,0.9v0.5h2.2v-0.5
				c0-0.4,0-0.7-0.1-0.9h0.8c0,0.2-0.1,0.6-0.1,0.9v0.5h1c0.5,0,0.9,0,1.2-0.1v0.8c-0.3,0-0.7-0.1-1.1-0.1h-1v1.6h1.3
				c0.6,0,1,0,1.2-0.1v0.8c-0.3,0-0.7-0.1-1.2-0.1H74c0.4,0.5,0.5,0.7,0.9,1c0.6,0.5,1.2,0.8,2,1.1c-0.2,0.3-0.4,0.5-0.5,0.7
				c-0.9-0.5-1.4-0.9-2-1.4c0,0.3,0,0.4,0,0.7v0.8c0,0.4,0,0.7,0,0.9c-0.3,0-0.4,0-0.9,0h-2.9v1.3c0,0.2,0,0.2,0.2,0.3
				c0.2,0.1,0.7,0.1,1.7,0.1c1.6,0,2.1,0,2.3-0.2c0.2-0.1,0.3-0.5,0.3-1.5c0.3,0.2,0.4,0.2,0.8,0.3c-0.1,2-0.2,2.1-3.2,2.1
				c-2.5,0-2.8-0.1-2.8-0.9v-1.2c0-0.3,0-0.5,0-0.9c0.3,0,0.6,0,1.2,0h2.5v-1.3h-2c-0.5,0-0.9,0-1.2,0v-0.6c-0.5,0.6-1,0.9-1.9,1.4
				c-0.1-0.2-0.2-0.3-0.5-0.6c0.9-0.4,1.4-0.8,1.9-1.3c0.3-0.3,0.4-0.5,0.7-1H69.7z M71.5,20.7c-0.4,0.7-0.5,0.9-0.8,1.3
				c0.3,0,0.6,0,1,0h1.9c0.2,0,0.3,0,0.7,0c-0.4-0.4-0.6-0.6-1-1.3H71.5z M73.5,20.1v-1.6h-2.2v1.6H73.5z"/>
			<path d="M84.2,21.8c0,0.5-0.4,1-1,1c-0.5,0-1-0.4-1-1c0-0.5,0.4-1,1-1C83.8,20.8,84.2,21.2,84.2,21.8z"/>
			<path d="M91.2,21.8c0-0.5,0-1,0.1-1.6c-0.5,0.8-0.7,1.2-1.3,1.8c0-0.2-0.2-0.4-0.4-0.7c1-1,1.7-2.1,2.3-3.5
				c0.3-0.6,0.4-1.2,0.5-1.6l0.8,0.3c-0.4,1.2-0.5,1.4-1.1,2.6v6.5c0,0.5,0,1,0.1,1.4h-0.9c0.1-0.4,0.1-0.8,0.1-1.4V21.8z
				 M94.2,19.6c-0.5,0-0.9,0-1.3,0.1v-0.8c0.3,0,0.7,0.1,1.3,0.1H99c0.5,0,0.9,0,1.3-0.1v0.8c-0.3,0-0.8-0.1-1.3-0.1h-2.1v2.5h1.8
				c0.5,0,0.9,0,1.2-0.1v0.8c-0.4,0-0.8-0.1-1.2-0.1h-1.8v3.1h2.5c0.5,0,1,0,1.3-0.1v0.8c-0.4,0-0.8-0.1-1.3-0.1h-5.6
				c-0.5,0-1,0-1.3,0.1v-0.8c0.3,0,0.8,0.1,1.3,0.1h2.4v-3.1h-1.5c-0.4,0-0.9,0-1.2,0.1v-0.8c0.3,0,0.7,0.1,1.2,0.1h1.5v-2.5H94.2z
				 M95.3,16.4c1,0.5,1.5,0.9,2.4,1.5l-0.6,0.6c-0.7-0.7-1.2-1-2.4-1.6L95.3,16.4z"/>
			<path d="M106.7,17.4c0-0.5,0-0.8-0.1-1.1h0.9c-0.1,0.3-0.1,0.6-0.1,1.1v0.7h3.6c0.6,0,0.9,0,1.2-0.1v0.8c-0.4,0-0.8-0.1-1.2-0.1
				h-3.6v1.9h3c0.5,0,0.8,0,1.1-0.1v0.8c-0.3,0-0.6-0.1-1.1-0.1h-6.6c-0.5,0-0.8,0-1.1,0.1v-0.8c0.3,0,0.6,0.1,1.1,0.1h2.8v-1.9
				h-3.4c-0.6,0-0.9,0-1.2,0.1V18c0.3,0,0.7,0.1,1.2,0.1h3.4V17.4z M103.5,27c0-0.4,0.1-0.7,0.1-1.1v-2.4c0-0.4,0-0.6-0.1-1
				c0.2,0,0.5,0,0.9,0h5.7c0.4,0,0.6,0,0.9,0c0,0.3-0.1,0.6-0.1,1v2.4c0,0.4,0,0.8,0.1,1.1h-0.9v-0.6h-5.8V27H103.5z M104.4,25.8
				h5.8v-2.4h-5.8V25.8z"/>
			<path d="M114.2,19.4c0.8,0.5,1.3,0.8,2,1.5l-0.5,0.6c-0.7-0.7-1.2-1.1-2-1.6L114.2,19.4z M116.2,23.5c-0.4,1.2-0.8,2.1-1.3,3.1
				c-0.1,0.3-0.2,0.4-0.3,0.5l-0.7-0.6c0.6-0.8,1.2-2,1.6-3.4L116.2,23.5z M114.8,16.5c0.8,0.5,1.2,0.9,1.9,1.5l-0.5,0.6
				c-0.6-0.7-1.1-1.1-1.9-1.6L114.8,16.5z M117.7,20.7c-0.5,0-0.9,0-1.2,0.1V20c0.3,0,0.7,0.1,1.2,0.1h0.9v-1.6H118
				c-0.4,0-0.8,0-1.1,0.1v-0.8c0.3,0,0.7,0.1,1.1,0.1h0.6v-0.5c0-0.4,0-0.7-0.1-0.9h0.8c0,0.2-0.1,0.6-0.1,0.9v0.5h2.2v-0.5
				c0-0.4,0-0.7-0.1-0.9h0.8c0,0.2-0.1,0.6-0.1,0.9v0.5h1c0.5,0,0.9,0,1.2-0.1v0.8c-0.3,0-0.7-0.1-1.1-0.1h-1v1.6h1.3
				c0.6,0,1,0,1.2-0.1v0.8c-0.3,0-0.7-0.1-1.2-0.1H122c0.4,0.5,0.5,0.7,0.9,1c0.6,0.5,1.2,0.8,2,1.1c-0.2,0.3-0.4,0.5-0.5,0.7
				c-0.9-0.5-1.4-0.9-2-1.4c0,0.3,0,0.4,0,0.7v0.8c0,0.4,0,0.7,0,0.9c-0.3,0-0.4,0-0.9,0h-2.9v1.3c0,0.2,0,0.2,0.2,0.3
				c0.2,0.1,0.7,0.1,1.7,0.1c1.6,0,2.1,0,2.3-0.2c0.2-0.1,0.3-0.5,0.3-1.5c0.3,0.2,0.4,0.2,0.8,0.3c-0.1,2-0.2,2.1-3.2,2.1
				c-2.5,0-2.8-0.1-2.8-0.9v-1.2c0-0.3,0-0.5,0-0.9c0.3,0,0.6,0,1.2,0h2.5v-1.3h-2c-0.5,0-0.9,0-1.2,0v-0.6c-0.5,0.6-1,0.9-1.9,1.4
				c-0.1-0.2-0.2-0.3-0.5-0.6c0.9-0.4,1.4-0.8,1.9-1.3c0.3-0.3,0.4-0.5,0.7-1H117.7z M119.5,20.7c-0.4,0.7-0.5,0.9-0.8,1.3
				c0.3,0,0.6,0,1,0h1.9c0.2,0,0.3,0,0.7,0c-0.4-0.4-0.6-0.6-1-1.3H119.5z M121.5,20.1v-1.6h-2.2v1.6H121.5z"/>
		</g>
	</g>
	<g>
		<g>
			<path d="M100.2,63.2c0.7,0.4,0.9,0.5,1.4,0.6l-0.5,0.9c-0.4-0.3-0.7-0.4-1.3-0.8l-2.6-1.4c-1,1.6-1.6,2.3-2.6,2.9
				c-1.1,0.6-2.4,0.9-4.1,0.9c0-0.5,0-0.6-0.2-1c1.6,0.2,3-0.1,4.1-0.8c0.7-0.5,1.2-1,2-2.3l-3.2-1.7c-0.6-0.3-0.9-0.5-1.4-0.7
				l0.5-0.9c0.4,0.3,0.6,0.4,1.3,0.8l3.2,1.7c0.2-0.4,0.4-0.6,0.6-1l0.4-0.8c0.2-0.5,0.4-0.7,0.5-1l1,0.5C99,59.4,99,59.4,98.7,60
				l-0.5,0.8c-0.5,0.9-0.5,0.9-0.5,1L100.2,63.2z"/>
			<path d="M112,66.6c-0.3,0-0.3,0.1-0.8,0.2c-1.1,0.4-2.6,0.7-3.9,0.9l-2.6,4.9c-0.4,0.7-0.5,0.9-0.6,1.2l-1-0.5
				c0.2-0.3,0.4-0.5,0.7-1.2l2.3-4.3c-2,0.1-3,0-5.5-0.4c0-0.5,0-0.6,0-1c2.5,0.6,5,0.7,7.5,0.2c1.5-0.2,2.7-0.6,3.4-1L112,66.6z"/>
			<path d="M108.8,76.3c0.2-0.3,0.4-0.5,0.7-1.2l3.8-7.1c0.3-0.6,0.5-0.9,0.6-1.2l1,0.5c-0.2,0.3-0.3,0.5-0.7,1.2l-1.2,2.1
				c1.4,1.6,2.4,2.9,3.8,5.2l-0.9,0.6c-0.7-1.3-1.8-3-3-4.6c-0.1-0.2-0.2-0.2-0.2-0.4l0,0c-0.1,0.2-0.2,0.4-0.3,0.7l-1.9,3.4
				c-0.3,0.6-0.5,0.9-0.6,1.2L108.8,76.3z"/>
			<path d="M125.3,73c-0.2,0.1-0.2,0.1-0.5,0.3c-0.6,0.5-0.8,0.6-1.1,0.7c0.2,0,0.2,0,3.5,1.8c0.4,0.2,0.4,0.2,0.6,0.2l0.2,0.7
				c-0.2,0.1-0.2,0.1-0.5,0.4c-1.4,1.4-3,2.5-4.6,3.1c-1.7,0.6-3.4,0.9-5.5,0.7c0-0.4,0-0.6-0.2-1c2.1,0.2,3.8,0,5.6-0.7
				c1.5-0.6,2.9-1.6,4-2.8l-3.9-2c-1.3,0.7-2.8,1.3-4.3,1.5c0-0.4-0.1-0.6-0.3-0.9c1.6-0.1,3-0.6,4.6-1.6c0.8-0.5,1.3-0.9,1.6-1.3
				L125.3,73z"/>
			<path d="M131.6,77c-0.2,0.3-0.2,0.3-0.6,0.9c-1.8,3.1-2.3,3.8-3.4,4.8c-1,0.9-1.9,1.3-3.5,1.8c-0.1-0.4-0.1-0.6-0.4-1
				c1.3-0.2,2.4-0.7,3.4-1.6c0.9-0.8,1.9-2.2,3.2-4.6c0.2-0.4,0.3-0.6,0.4-0.8L131.6,77z M134.5,78.4c-0.2,0.2-0.3,0.4-0.6,1
				l-3.8,6.9c1.1,0.2,1.9,0.1,2.8-0.2c1-0.3,1.8-0.8,2.6-1.6c0.1,0.4,0.1,0.6,0.3,1c-1.3,1-2.5,1.6-3.9,1.7c-0.7,0.1-1.3,0.1-2.1,0
				c-0.2,0-0.2,0-0.4-0.1c-0.2,0-0.2,0-0.3,0l-0.2-0.8c0.2-0.2,0.2-0.2,0.5-0.7l3.7-6.7c0.4-0.7,0.4-0.7,0.5-1L134.5,78.4z"/>
			<path d="M137.7,85.2c0.3,0.2,0.6,0.4,1.4,0.8l6.6,3.6c0.8,0.5,1,0.5,1.4,0.7l-0.5,0.9c-0.3-0.2-0.6-0.4-1.4-0.8l-6.6-3.6
				c-0.8-0.5-1.1-0.6-1.4-0.7L137.7,85.2z"/>
			<path d="M146.1,95C146.2,95,146.2,95,146.1,95c0.7,0.4,2.2,0.8,3.5,1c2.6,0.4,5.4-0.5,7.6-2.5c0.1,0.4,0.2,0.6,0.4,1
				c-3.3,2.7-6.6,3.2-11.2,1.8c-0.3-0.1-0.3-0.1-0.5-0.1L146.1,95z M149.3,89.9c0.8,0.9,1.5,2,2.1,3.1l-0.9,0.5
				c-0.4-0.9-1.3-2.3-2.1-3.1L149.3,89.9z M151.6,87.7c0.8,1,1.5,1.9,2.1,3l-0.9,0.5c-0.4-0.8-1.4-2.5-2-3L151.6,87.7z M157.9,90.4
				c0.2,0.9,0.2,1.5,0.2,2.4l-0.8,0c0-0.8,0-1.9-0.2-2.4L157.9,90.4z M159.5,90.5c0.2,0.9,0.2,1.5,0.2,2.4l-0.8,0
				c0-0.7,0-1.7-0.2-2.4L159.5,90.5z"/>
			<path d="M156.8,100.5c0.9,0.4,2.5,0.8,3.8,0.9c2.7,0.2,5.2-0.6,7.4-2.6c0.1,0.5,0.1,0.7,0.3,1.1c-2,1.5-3.8,2.3-5.8,2.5
				c-1.6,0.2-3,0-5.2-0.6c-0.3-0.1-0.4-0.1-0.8-0.2L156.8,100.5z M161.4,93.8c0.8,1.4,1.2,2.4,1.6,3.6l-1,0.4
				c-0.3-1.3-0.8-2.6-1.5-3.7L161.4,93.8z"/>
			<path d="M175.4,100.2c-0.2,0.1-0.2,0.1-0.5,0.3c-0.6,0.4-0.9,0.6-1.1,0.7c0.1,0,0.2,0.1,0.4,0.2l2.8,1.4c0.4,0.2,0.4,0.2,0.6,0.2
				l0.3,1.1c-0.2,0.1-0.2,0.1-0.4,0.3c-2.9,2.8-6.1,4-10,3.7c0-0.4,0-0.6-0.2-1c3.6,0.5,7-0.8,9.6-3.5l-3.9-2
				c-1.2,0.7-2.9,1.3-4.3,1.5c0-0.4-0.1-0.6-0.3-0.9c1.5-0.1,3-0.6,4.6-1.6c0.9-0.5,1.4-1,1.6-1.3L175.4,100.2z M179.1,101.7
				c0.2,1,0.3,1.5,0.2,2.4l-0.8,0c0-0.8-0.1-1.8-0.2-2.4H179.1z M180.7,101.7c0.2,1,0.2,1.4,0.2,2.4l-0.8,0c0-0.7,0-1.6-0.2-2.4
				L180.7,101.7z"/>
		</g>
	</g>
	<path d="M96.1,327.1l-4.3,2.9l1.2,0.7c-0.8,1.3-2.9,3.5-5.7,3.7v-7.5h2.3c0.4,0,0.8-0.3,0.8-0.8l0,0c0-0.4-0.3-0.8-0.8-0.8h-2.3
		v-1.8c1.9-0.3,3.4-2,3.4-4c0-2.3-1.8-4.1-4.1-4.1s-4.1,1.8-4.1,4.1c0,2,1.5,3.7,3.4,4v1.8h-2.3c-0.4,0-0.8,0.3-0.8,0.8l0,0
		c0,0.4,0.3,0.8,0.8,0.8h2.3v7.4c-2.3-0.3-4.4-1.9-5.6-3.6l1.1-0.6l-4.1-3.1l0.1,5.2l1.6-0.8c3.4,4.5,6.4,4.5,7.6,4.5
		c1.4,0,4.4,0.1,7.9-4.5l-0.1-0.1l1.6,0.9L96.1,327.1z M84,319.5c0-1.4,1.2-2.6,2.6-2.6s2.6,1.2,2.6,2.6c0,1.4-1.2,2.6-2.6,2.6
		S84,321,84,319.5z"/>
	<path d="M189,416.2l-4.3,2.9l1.2,0.7c-0.8,1.3-2.9,3.5-5.7,3.7v-7.5h2.3c0.4,0,0.8-0.3,0.8-0.8l0,0c0-0.4-0.3-0.8-0.8-0.8h-2.3
		v-1.8c1.9-0.3,3.4-2,3.4-4c0-2.3-1.8-4.1-4.1-4.1c-2.3,0-4.1,1.8-4.1,4.1c0,2,1.5,3.7,3.4,4v1.8h-2.3c-0.4,0-0.8,0.3-0.8,0.8l0,0
		c0,0.4,0.3,0.8,0.8,0.8h2.3v7.4c-2.3-0.3-4.4-1.9-5.6-3.6l1.1-0.6l-4.1-3.1l0.1,5.2l1.6-0.8c3.4,4.5,6.4,4.5,7.6,4.5
		c1.4,0,4.4,0.1,7.9-4.5l-0.1-0.1l1.6,0.9L189,416.2z M176.8,408.7c0-1.4,1.2-2.6,2.6-2.6c1.4,0,2.6,1.2,2.6,2.6
		c0,1.4-1.2,2.6-2.6,2.6C178,411.3,176.8,410.1,176.8,408.7z"/>
	<line class="st18" x1="290.8" y1="385.7" x2="245.2" y2="301.1"/>
	<path d="M127.2,293.3l-4.3,2.9l1.2,0.7c-0.8,1.3-2.9,3.5-5.7,3.7v-7.5h2.3c0.4,0,0.8-0.3,0.8-0.8l0,0c0-0.4-0.3-0.8-0.8-0.8h-2.3
		v-1.8c1.9-0.3,3.4-2,3.4-4c0-2.3-1.8-4.1-4.1-4.1s-4.1,1.8-4.1,4.1c0,2,1.5,3.7,3.4,4v1.8h-2.3c-0.4,0-0.8,0.3-0.8,0.8l0,0
		c0,0.4,0.3,0.8,0.8,0.8h2.3v7.4c-2.3-0.3-4.4-1.9-5.6-3.6l1.1-0.6l-4.1-3.1l0.1,5.2l1.6-0.8c3.4,4.5,6.4,4.5,7.6,4.5
		c1.4,0,4.4,0.1,7.9-4.5l-0.1-0.1l1.6,0.9L127.2,293.3z M115.1,285.8c0-1.4,1.2-2.6,2.6-2.6s2.6,1.2,2.6,2.6c0,1.4-1.2,2.6-2.6,2.6
		S115.1,287.2,115.1,285.8z"/>
	<g>
		<path d="M304.7,275.4c-0.5,0.7-0.9,1.1-1.5,1.6c-0.2-0.3-0.3-0.3-0.6-0.6c0.6-0.4,1.1-0.9,1.5-1.4c0.4-0.6,0.6-0.9,0.8-1.5
			l0.7,0.3c-0.2,0.4-0.3,0.6-0.5,0.9h2.4v-0.2c0-0.3,0-0.6,0-0.9h0.8c0,0.3-0.1,0.5-0.1,0.9v0.2h3.2c0.5,0,0.9,0,1.2-0.1v0.8
			c-0.4,0-0.7-0.1-1.2-0.1h-3.2v1.1h2.7c0.6,0,0.9,0,1.2-0.1v0.8c-0.4,0-0.7-0.1-1.2-0.1h-2.7v1.3h3.7c0.5,0,0.9,0,1.2-0.1v0.8
			c-0.4-0.1-0.8-0.1-1.3-0.1h-8.1c-0.4,0-0.9,0-1.2,0.1v-0.8c0.3,0,0.7,0.1,1.2,0.1h3.8v-1.3h-2.2c-0.5,0-0.8,0-1.1,0.1v-0.8
			c0.3,0,0.6,0.1,1.1,0.1h2.2v-1.1H304.7z M305.1,273.4c-0.6,0-0.9,0-1.2,0c0-0.3,0-0.6,0-1v-2c0-0.5,0-0.8,0-1.1
			c0.4,0,0.7,0.1,1.2,0.1h5.6c0.5,0,0.8,0,1.2-0.1c0,0.3,0,0.5,0,1v2.1c0,0.5,0,0.8,0,1.1c-0.3,0-0.6,0-1.2,0H305.1z M304.7,271h6.3
			v-1h-6.3V271z M304.7,272.8h6.3v-1.1h-6.3V272.8z"/>
		<path d="M315.6,275.7c-0.2,1.7-0.3,2.2-0.7,3.2l-0.6-0.3c0.4-1,0.6-1.5,0.7-3L315.6,275.7z M317.7,274.5h0.5c0.6,0,0.9,0,1.1,0
			c0,0.2,0,0.2-0.1,1.2c0,1.5-0.2,2.7-0.4,3.3c-0.1,0.4-0.4,0.5-1,0.5c-0.3,0-0.6,0-0.9-0.1c0-0.3,0-0.4-0.1-0.8
			c0.4,0.1,0.8,0.2,1.1,0.2c0.3,0,0.4-0.1,0.5-0.8c0.1-0.7,0.2-1.4,0.2-3h-2.4c-0.5,0-0.8,0-1.1,0c0-0.3,0-0.5,0-1.2v-3.3
			c0-0.7,0-1,0-1.4c0.3,0,0.7,0.1,1.3,0.1h1.7c0.5,0,0.9,0,1.2-0.1v0.7c-0.3,0-0.6-0.1-1.1-0.1h-0.5v1.1h0.3c0.5,0,0.7,0,1-0.1v0.7
			c-0.3,0-0.6-0.1-1-0.1h-0.3v1.1h0.3c0.5,0,0.7,0,1-0.1v0.7c-0.3,0-0.6-0.1-1-0.1h-0.3V274.5z M317,269.9h-1.3v1.1h1.3V269.9z
			 M317,271.6h-1.3v1.1h1.3V271.6z M315.7,273.3v1.2h1.3v-1.2H315.7z M316.4,275.7c0.1,0.9,0.2,1.6,0.2,2.6l-0.6,0.1
			c0-0.2,0-0.4,0-0.5c0-0.8,0-1.2-0.1-2.2L316.4,275.7z M317.1,275.7c0.2,0.9,0.3,1.2,0.4,2.2L317,278c-0.1-1-0.2-1.4-0.4-2.2
			L317.1,275.7z M317.9,275.6c0.2,0.6,0.3,1,0.5,1.6l-0.4,0.2c-0.2-0.8-0.2-1-0.5-1.7L317.9,275.6z M325.2,270.2
			c-0.3,0-0.6-0.1-1.1-0.1h-3.7v8.2h3.8c0.4,0,0.8,0,1.1-0.1v0.8c-0.3,0-0.7-0.1-1.1-0.1h-3.8v0.6h-0.8c0-0.4,0.1-0.8,0.1-1.2v-7.8
			c0-0.5,0-0.8,0-1.1c0.3,0,0.6,0,1,0h3.4c0.4,0,0.8,0,1.1-0.1V270.2z M324.3,277.5c-0.3-0.7-0.7-1.5-1.3-2.4
			c-0.5,1.1-1.1,2.1-1.8,2.9c-0.2-0.3-0.3-0.3-0.6-0.5c0.9-1,1.3-1.7,1.9-3c-0.8-1.1-1.2-1.7-1.9-2.5l0.5-0.5
			c0.7,0.9,1.1,1.4,1.6,2.2c0.4-1.2,0.8-2.4,0.8-3l0.8,0.2c-0.1,0.2-0.1,0.3-0.2,0.7c-0.3,1.1-0.5,1.8-0.9,2.8
			c0.7,1,1.2,1.9,1.6,2.7L324.3,277.5z"/>
		<path d="M332.2,276.7c0,0.4,0,0.9,0.1,1.2h-0.8v-0.7h-3.7v1.1H327c0-0.3,0.1-0.9,0.1-1.6v-6.1c0-0.5,0-0.9,0-1.2
			c0.3,0,0.7,0,1.2,0h2.7c0.6,0,0.9,0,1.2,0c0,0.3,0,0.5,0,1.1h3.8c0.7,0,1.1,0,1.5-0.1v0.9c-0.4-0.1-0.7-0.1-1.4-0.1h-0.2v7.3
			c0,0.8-0.2,0.9-1.3,0.9c-0.4,0-0.9,0-1.3,0c0-0.3-0.1-0.5-0.1-0.8c0.6,0.1,1,0.1,1.5,0.1c0.4,0,0.5,0,0.5-0.3v-7.3h-2.8V276.7z
			 M327.8,272.9h1.4v-2.8h-1.4V272.9z M327.8,276.5h1.4v-3h-1.4V276.5z M330,272.9h1.5v-2.8H330V272.9z M330,276.5h1.5v-3H330V276.5
			z"/>
	</g>
</g>
<g id="ガイド">
</g>
</svg>
