<?xml version="1.0" encoding="utf-8"?>
<!-- Generator: Adobe Illustrator 25.0.1, SVG Export Plug-In . SVG Version: 6.00 Build 0)  -->
<svg version="1.1" xmlns="http://www.w3.org/2000/svg" xmlns:xlink="http://www.w3.org/1999/xlink" x="0px" y="0px"
	 viewBox="0 0 415 415" style="enable-background:new 0 0 415 415;" xml:space="preserve">
<style type="text/css">
	.st0{fill:#A5D9E2;}
	.st1{clip-path:url(#SVGID_2_);fill:#F7F8F8;}
	.st2{clip-path:url(#SVGID_2_);fill:#DCDDDD;}
	.st3{clip-path:url(#SVGID_2_);fill:#FCEEC8;}
	.st4{fill:none;}
	.st5{fill:#FCEEC8;}
	.st6{fill:#FFFFFF;}
	.st7{fill:none;stroke:#FFFFFF;stroke-miterlimit:10;}
	.st8{fill:#B5B5B6;stroke:#898989;stroke-miterlimit:10;}
	.st9{fill:#FFF100;}
	.st10{fill:#FAEE00;}
	.st11{fill:#E60012;}
	.st12{fill:#EFEA3C;}
	.st13{fill:#EE87B4;}
	.st14{fill:#22AC38;}
	.st15{fill:#2EA7E0;}
</style>
<g id="海">
	<rect x="0.6" y="0.2" class="st0" width="415" height="415"/>
</g>
<g id="島">
	<g>
		<defs>
			<rect id="SVGID_1_" x="0.6" y="0.2" width="415" height="415"/>
		</defs>
		<clipPath id="SVGID_2_">
			<use xlink:href="#SVGID_1_"  style="overflow:visible;"/>
		</clipPath>
		<polygon class="st1" points="299.8,277.4 199.1,301 202.2,314.8 303.2,291.8 		"/>
		<path class="st2" d="M-68.1,239.3l-4-7.4l18.7-24.1c0,0-2.7-1.3,8.7-2.7s27.4-2,27.4-2s8,4.7,12.7,1.3c4.7-3.3,0.7-8,5.4-11.4
			s8-5.4,12.7-2s12,10,15.4,6.7s5.4-10.7,12-5.4s1.3,10,8,12.7s17.4,8.7,22.7,13.4c5.4,4.7,12,11.4,9.4,14c-2.7,2.7-7.4,5.4-5.4,10
			c2,4.7,5.4,13.4,10.7,14c5.4,0.7,8.7,4,9.4,8s-0.7,8.7,4.7,11.4c5.4,2.7,18.7,22.1,16.7,26.1c-2,4-1.3,8.7,1.3,12
			c2.7,3.3,3.3,10,3.3,10s0.7,7.4,7.4,8.7c6.7,1.3,11.4,1.3,8.7-4c-2.7-5.4-2.7-8-2.7-12.7c0-4.7-2.7-6.7,0.7-10.7s5.4-6,9.4-1.3
			c4,4.7,4,8.7,16.1,9.4c12,0.7,18.1,0.7,18.7-5.4s-3.3-13.4,2-17.4c5.4-4,6-4.7,12-2.7c6,2,11.4-3.3,12,0.7c0.7,4,4.7,5.4,1.3,11.4
			c-3.3,6-7.4,6.7-5.4,11.4c2,4.7,0.7,8.7,4.7,8c4-0.7,3.3,6.7,3.3,6.7l-1.3,6c0,0-4.7,1.3-6.7-4.7s-6.7-8-12.7-6.7
			c-6,1.3-16.1,5.4-18.7,9.4c-2.7,4-9.4,8-6,10s5.4,5.4,4.7,9.4s-2.7,16.1-8.7,16.1c-6,0-4.7-4-12-6.7c-7.4-2.7-14-2.7-18.7-2
			c-4.7,0.7-9.4,2.7-12.7,7.4c-3.3,4.7-4.7,8-6.7,15.4c-2,7.4-0.7,8.7,0,16.1c0.7,7.4-3.3,12-3.3,12s6-1.3,4.7,9.4
			c-1.3,10.7-0.7,10.7-4,16.1c-3.3,5.4-6-2-9.4,5.4c-3.3,7.4-9.4,14-15.4,20.1s-8,6-5.4,13.4c2.7,7.4,0,13.4-4.7,23.4
			c-4.7,10-18.1,17.4-18.1,17.4l-8.7,10.7l-4.7-1.3c0,0-0.7,12.7-2,17.4c-1.3,4.7-4,6-4,6s6,3.3,7.4,13.4c1.3,10-1.3,14.7,0.7,19.4
			c2,4.7,15.4,12.7,15.4,12.7l25.4,27.4c0,0,20.7,0.7,24.7-2.7c4-3.3,10-2,12-9.4c2-7.4,4-9.4,8.7-7.4c4.7,2,6,6.7,13.4,6.7
			c7.4,0-2,5.4,8.7,11.4c10.7,6,14.7,11.4,16.7,6.7s3.3-2.7,9.4-3.3c6-0.7,14,2.7,20.1-0.7c6-3.3,2-10.7,10.7-16.1
			c8.7-5.4,13.4-0.7,18.7-4s5.4-10,8-3.3c2.7,6.7,11.4,10.7,4,14c-7.4,3.3-7.4,6.7-9.4,10.7c-2,4-6,5.4-12.7,6
			c-6.7,0.7-7.4,10-7.4,10l9.4,26.1c0,0-3.3,7.4,4,13.4c7.4,6,18.1,17.4,17.4,22.1c-0.7,4.7-6.7,16.7-11.4,20.7c-4.7,4-8,2-8,11.4
			s3.3,20.1,0,22.1c-3.3,2-17.4,4.7-21.4,0.7c-4-4-12.7-8.7-19.4-8c-6.7,0.7-12,10-16.1,8s-14.7-8.7-21.4-8.7
			c-6.7,0-10,1.3-16.1-5.4c-6-6.7-19.4-15.4-34.1-16.7c-14.7-1.3-23.4-5.4-26.1,2.7c-2.7,8,1.3,18.1-5.4,20.7S53,761,45.6,757
			s-26.1-8-32.1-12.7s-8-3.3-12.7-11.4s-14.7-18.7-24.1-23.4c-9.4-4.7-9.4-6-18.1-14s-26.1-26.8-26.1-26.8s9.4-2,2-8.7
			c-7.4-6.7-20.1-19.4-30.1-17.4c-10,2-6,10.7-12.7,12c-6.7,1.3-14.7,5.4-20.1-2.7c-5.4-8-8-16.7-10.7-23.4
			c-2.7-6.7-4.7-22.7-13.4-24.7c-8.7-2-8.7-10.7-18.7-19.4c-10-8.7-8-17.4-18.7-17.4c-10.7,0-16.1-0.7-18.7,5.4
			c-2.7,6-13.4,5.4-14-1.3c-0.7-6.7-1.3-10-13.4-15.4c-12-5.4-19.4-12-19.4-12s2-9.4-9.4-10.7c-11.4-1.3-17.4-6-17.4-6
			s-5.4-14-15.4-16.1c-10-2-17.4-2-21.4-6s-2.7-4-8-3.3c-5.4,0.7-10,0.7-6.7-5.4c3.3-6,0.7-4.7-2.7-16.1c-3.3-11.4,2.7-5.4,2-15.4
			c-0.7-10-8-12.7-2-22.1c6-9.4,6-8.7,14.7-10.7c8.7-2,12-5.4,12-14c0-8.7,4.7-18.7,10-28.8s10-5.4,14-12c4-6.7,6.7-10,16.7-10
			s6.7,4,16.7-1.3c10-5.4,12-10,14.7,0.7c2.7,10.7,5.4,5.4,8,12.7s6.7,15.4,4.7,18.1c-2,2.7-6,6-2,10c4,4,8.7,5.4,17.4,6.7
			c8.7,1.3,15.4,7.4,19.4,0.7c4-6.7,8-11.4,15.4-14.7c7.4-3.3,22.1-6.7,20.7-14.7s-1.3-12-7.4-20.1c-6-8-8-20.1-1.3-25.4
			c6.7-5.4,11.4-5.4,16.1-2c4.7,3.3,18.1,6.7,23.4,1.3s12-9.4,10-14.7c-2-5.4-4.7-14,1.3-14.7c6-0.7,14.7-2.7,13.4,2
			c-1.3,4.7-4.7,6.7,0.7,8.7c5.4,2,6.7,6.7,13.4,2.7c6.7-4,7.4-5.4,6-10c-1.3-4.7,10.7-4.7,10.7-12c0-7.4-0.7-20.1-0.7-20.1
			s2.7-3.3,3.3-16.7C-64.1,250.7-71.4,240-68.1,239.3z"/>
		<path class="st3" d="M62.6,286.1c-8.7,7-27.7-1.6-25.8,9.4c0.9,5.5-42.5,0.7-41.3,6.1c1.1,5.5,1,45.6-2.7,49.7
			c-1.7,1.9,54.7,18.7,53,20.5s16.8-3.7,18.2-1.5c0.9,1.4,2.4,2,3.9,2.6c6.4,2.6,13.8,5.2,19.9,2.1c2.9-1.5,5.4-4.2,8.6-4.5
			c2.9-0.2,5.5,1.6,7.9,3.1c2.2,1.4,4.5,2.6,6.9,3.6c1.7-5.7,3.1-8.8,6-13c3.3-4.7,8-6.7,12.7-7.4c4.7-0.7,11.4-0.7,18.7,2
			c7.4,2.7,6,6.7,12,6.7c6,0,8-12,8.7-16.1c0.7-4-1.3-7.4-4.7-9.4c-3.3-2,3.3-6,6-10c2.7-4,12.7-8,18.7-9.4c6-1.3,10.7,0.7,12.7,6.7
			c2,6,6.7,4.7,6.7,4.7l1.3-6c0,0,0.7-7.4-3.3-6.7c-4,0.7-2.7-3.3-4.7-8c-2-4.7,2-5.4,5.4-11.4c3.3-6-0.7-7.4-1.3-11.4
			c-0.7-4-6,1.3-12-0.7c-6-2-6.7-1.3-12,2.7c-5.4,4-1.3,11.4-2,17.4c-0.7,6-6.7,6-18.7,5.4c-12-0.7-12-4.7-16.1-9.4
			c-4-4.7-6-2.7-9.4,1.3c-3.3,4-0.7,6-0.7,10.7c0,4.7,0,7.4,2.7,12.7c2.7,5.4-2,5.4-8.7,4c-6.7-1.3-7.4-8.7-7.4-8.7s-0.7-6.7-3.3-10
			c-2.7-3.3-3.3-8-1.3-12c2-4-11.4-23.4-16.7-26.1c-1.5-0.8-2.5-1.7-3.1-2.7c-0.7,5.6-2.2,10.8-6,14.9
			C88.4,291.6,66.1,283.3,62.6,286.1z"/>
		<path class="st3" d="M527.1,349.4l-4.2-13.3l-3.8-0.5c0.6-1.4-5.3-1.6-10.2-5.5s-5.4-5.7-5.4-5.7s-5-3.2-7.8-5.2
			c-2.8-2,0.4-6.4-1.8-7.1c-2.1-0.8-2.4-1.4-2.2-4.9s2.3-2.7,4.5-4.1c2.2-1.4,2,0.4,3.5,2.1c1.4,1.8,2.9-1.9,4.2-4.3
			c1.3-2.4-2.7-3.8-5.2-4.5c-2.5-0.7-2.3-4.2-2.9-7.6c-0.6-3.4,4.1-7.3,6.6-8.1c2.5-0.8,3.7-2.5,3.4-6.4c-0.3-3.9-5.4-6.4-10-6.4
			c-4.6,0-6.1-1.1-9.5-2.8c-3.4-1.7-0.8-7.9-0.2-11.5c0.7-3.6-0.1-6.3-1.6-9.6c-1.5-3.3,2.5-4.1,5.3-6.9c2.8-2.8,4.5-4.1,7.1-4.5
			c2.6-0.4,2.8,2,3.3,3.4c0.5,1.5,4.6,2.2,8,3.2c3.5,1,2.2-1.4,6.9,0.5c4.7,1.9,3.5-0.1,4.1-5.2c0.6-5.1,1.2-2.8,3.8-6.4
			c2.6-3.6,2-5.5,0.6-8.8c-1.5-3.3,1.5-3.7-0.9-8.4c-2.4-4.7-5-9.1-8.3-11.4c-3.3-2.4-3.7-4.5-2.2-8.2c1.5-3.7,1.8-3.5-0.2-8.2
			c-2-4.7-4.9-2.8-8.9-5.2c-4-2.5-0.1-3-5.3-4.9s-5.4-0.5-6.8-3.4s-2.6-1.1-3.8,1c-1.1,2.1-0.8,1.6-3.4,2c-2.6,0.4-4.5,3-7.8,6.1
			s-10.1,1.2-10.1,1.2s-3.3,0.9-6.8,4.7c-3.5,3.8-6.5,0.5-6.5,0.5s-4.4,0.9-9.6,3.8c-5.2,2.9-6.6,2.3-9.3,0.7
			c-2.7-1.6-5.7,2.1-4.2,4.7c1.6,2.6-0.1,4.4-2.9,8.2c-2.8,3.9-5.5,0.8-11.4,2.1c-5.9,1.3-9.2-1.1-12.2,1.5c-3,2.6-9.6-1-12.8-1.8
			c-3.2-0.8-7.2-2.2-11.6-2.5c-4.4-0.2-5,3.8-6.2,6.6c-1.2,2.8,3.1,3.7,1.2,7.9c-1.9,4.2-10,5.4-14.4,6.2c-4.4,0.9-2.8-3.1-2.8-3.1
			s-11.6,1.2-16.9,2.2c-5.3,1-5.8,0.6-10,2.8c-4.2,2.1-10.9,2.9-15.1,2.4s-4.3,0.6-7.6,1.5c-3.3,0.9-9.7,6.6-13.2,8.2
			s0.6,5.6-0.1,8.7c-0.7,3.2,4.1,4.4,6.4,7.6c2.3,3.1-1.4,5.2-5.8,10.2c-4.3,5-11.1,7.5-15.2,7.9c-4.1,0.4-4.5,2-6.2,4.4
			c-1.7,2.4-7.1,4.5-8.9,5.4c-1.8,0.9,0.3,5.4-1.1,8c-1.5,2.6-5.5,4.5-8.1,4.9c-2.6,0.4-5.2,6.2-5.3,8c-0.1,1.8,4.8,3.4,8.3,6
			c3.5,2.5,1.9,3.2,2.2,6c0.3,2.8,3.3,8.2,4.9,9.7c1.6,1.5,8.7,0.7,12.9-0.3c4.2-1,6.1,2.2,6.1,2.2l12.3,3.7c0,0,3.4,2.8,1.9,5.4
			c-1.5,2.6-2,4.4-1,6.2c1,1.8,2.3,2.7,1.6,6.3c-0.7,3.6,3.1,1.5,6.4,2.3c3.2,0.8,0.7-1,0.8-3.8c0.1-2.8,3.1-3.3,3.4-7.9
			c0.2-4.6-3.6-5.1-3.3-8.2c0.3-3.1,3.7-5.1,5-7.5c1.3-2.4,2.4-2.3,1.2-4.3c-1.2-2,1.8-2,6.9-4.3s4.6,2.6,6.6-0.1c1.9-2.7,4-1.9,6-3
			c2-1.2,1.7-2.4-0.5-5.2c-2.3-2.7-0.2-4.5-0.4-6.9c-0.2-2.4,5.4-9.7,5.4-9.7l17-1.8c0,0,6.5-2.7,8.8-2.1c2.3,0.5,3.4,2.8,7.5,5
			c4.1,2.2,7,1,7,1s-0.2,1.3,1.2,3.1c1.4,1.8,6,5.4,6,5.4l-1.7,1.3l1.8,6.1c0,0-0.7,6.9,1.9,11.3s4.1,7,7.6,8c3.5,1,3,1.7,3.7,5.6
			c0.7,3.8,1.7,7.8,3.6,11c1.9,3.2-1.6,2.2-0.4,4.8c1.2,2.7,1.3,2.4,5,5.8c3.7,3.4,4.8,0.8,4.8,0.8s0.7,2.7,3.7,4.5
			c3,1.7,3.8,1.6,6.1,4.3c2.3,2.7,3.2,4.1,4.1,6.6c0,0,0,0.1,0,0.1c1.1-0.3,2.2-0.4,3.3-0.4c7.5,0,14,6,17.6,14.9
			c1,0.5,1.9,1.2,2.5,2.3c1,1.8,11.8,2.2,14.2,1c2.4-1.2,3.8,0.5,5.5,1.4c1.7,0.8,3.8,0.5,5.5-1.2c1.6-1.8,5.8-0.6,8.1-0.1
			c2.3,0.5,2.1,3,2.4,4.7c0.3,1.7,4.6,1.1,7.7,0.4c3.2-0.7,8.2-2.9,11-4.6c2.8-1.7,3.1,1.5,6.9,0.5c3.8-1,1.5-3.7,1.1-5.8
			c-0.4-2.1,4-3,6.5-3.8c2.5-0.8,2.6-2.6,2.6-5.2c0-2.6-2.9-2.4-2.9-5c0-2.6,3.8-4.3,3.8-4.3s3.9-6,6.4-10.5
			C528.3,348.8,527.1,349.4,527.1,349.4z"/>
	</g>
</g>
<g id="エリアB">
	<path d="M313.4,280.3L300,257c-1.2,1.6-3.3,3.4-5.6,6c-4.3,5-11.1,7.5-15.2,7.9c-4.1,0.4-4.5,2-6.2,4.4c-1.7,2.4-7.1,4.5-8.9,5.4
		c-1.8,0.9,0.3,5.4-1.1,8c-1.5,2.6-5.5,4.5-8.1,4.9l0,0l8.9,15.3L313.4,280.3z"/>
</g>
<g id="エリアA">
	<path class="st4" d="M137.9,328.9c-0.8-1.5-1.3-2.8-1.7-4l-6,8.2C136.4,334.3,140.4,334,137.9,328.9z"/>
	<path d="M119,348.5l11.2-15.3c-0.3-0.1-0.7-0.1-1-0.2c-6.7-1.3-7.4-8.7-7.4-8.7s-0.7-6.7-3.3-10c-2.7-3.3-3.3-8-1.3-12
		c1.9-3.8-10.3-21.8-16-25.7l-28,38.4L119,348.5z"/>
	<path class="st5" d="M135.9,305.5c-3.3,4-0.7,6-0.7,10.7c0,3.4,0,5.7,1,8.7l12.1-16.6c-1-1.3-1.8-2.7-3.1-4.1
		C141.3,299.5,139.2,301.5,135.9,305.5z"/>
</g>
<g id="文字">
	<g>
		<g>
			<path d="M201.1,363.2c0-0.2,0-0.2-0.1-1.1c-0.1-1-0.2-2.3-0.2-3.5c0-1.9,0.2-3.5,0.7-6.1c0.1-0.4,0.1-0.5,0.1-0.8l1.1,0.2
				c-0.2,0.4-0.4,1.1-0.6,2.2c-0.3,1.5-0.5,3.2-0.5,4.7c0,0.3,0,0.7,0,1c0,0.4,0,0.4,0,0.7c0,0.1,0,0.2,0,0.8l0,0
				c0.1-0.2,0.1-0.2,0.2-0.5c0.1-0.4,0.4-1.3,0.8-2.2l0.7,0.3c-0.7,1.5-1.3,3.4-1.3,4.1c0,0,0,0.1,0,0.2L201.1,363.2z M211.5,362.2
				c-0.4-0.4-1-0.8-1.8-1.4c-0.3-0.2-0.3-0.2-0.3-0.2c-0.2-0.1-0.2-0.1-0.2-0.1c0,0.1,0,0.2,0,0.4c0,0.4-0.1,0.7-0.2,1
				c-0.3,0.7-1.2,1.1-2.4,1.1c-1.6,0-2.6-0.8-2.6-1.9c0-1.2,1.1-2,2.7-2c0.6,0,1,0.1,1.5,0.3c0-0.2-0.1-1.1-0.1-2.7
				c-0.7,0-1.1,0-1.7,0c-0.6,0-1,0-2-0.1c-0.1,0-0.2,0-0.3,0c0,0-0.1,0-0.1,0l0-0.9c0.5,0.1,1.3,0.2,2.3,0.2c0.5,0,1,0,1.7,0
				c0-0.7,0-0.9,0-1.1c0-0.3,0-0.5,0-1.1c-0.5,0-0.9,0-1.4,0c-0.6,0-1.1,0-1.7-0.1c-0.5,0-0.6,0-0.8,0l0-0.9
				c0.5,0.1,1.3,0.2,2.4,0.2c1.8,0,3.5-0.2,4.7-0.5l0,0.9c-0.2,0-0.2,0-0.8,0.1c-0.5,0.1-0.9,0.2-1.5,0.2c0,0.5,0,0.8,0,1.2
				c0,0.1,0,0.1,0,1.1c1.1-0.1,2-0.3,2.5-0.5l0,0.9c-0.1,0-0.2,0-0.4,0.1c-0.6,0.1-1.3,0.2-2.1,0.3c0,1.6,0,2.1,0.1,3
				c0.8,0.3,1.7,0.8,2.4,1.3c0.2,0.2,0.3,0.2,0.4,0.3L211.5,362.2z M206.8,360c-1.1,0-1.8,0.4-1.8,1.1c0,0.7,0.6,1.1,1.7,1.1
				c1.1,0,1.6-0.4,1.6-1.4c0-0.1,0-0.6,0-0.6C207.6,360,207.3,360,206.8,360z"/>
			<path d="M217.5,351.9c-0.1,0.5-0.1,1.2-0.2,3c-0.1,1.7-0.1,3.6-0.1,4.2c0,0.2,0,0.5,0,0.8c0.1,0.8,0.2,1.3,0.7,1.7
				c0.4,0.4,1,0.5,1.8,0.5c1.7,0,3-0.8,3.8-2.4c0.3-0.7,0.5-1.2,0.7-2.2c0.4,0.3,0.6,0.4,1,0.7c-0.5,1.6-0.9,2.5-1.6,3.2
				c-1,1.2-2.3,1.8-4,1.8c-1.2,0-2.1-0.3-2.6-1c-0.6-0.7-0.8-1.4-0.8-2.9c0-0.9,0-1.3,0.1-5.7c0-0.4,0-0.7,0-0.9
				c0-0.3,0-0.5-0.1-0.7H217.5z"/>
			<path d="M228.3,355.1c0.5,0,2-0.2,3.1-0.4c0.2-1,0.4-2.4,0.4-3c0,0,0-0.1,0-0.2l1.1,0.1c-0.1,0.3-0.1,0.5-0.3,1.3
				c-0.1,0.4-0.2,0.9-0.3,1.6c0.3,0,0.5,0,0.8,0c1,0,1.6,0.2,2,0.6c0.5,0.5,0.7,1.1,0.7,2.3c0,2.1-0.4,4-0.9,4.8
				c-0.3,0.5-0.7,0.7-1.4,0.7c-0.6,0-1.2-0.2-2.1-0.5c0-0.2,0-0.3,0-0.5c0-0.2,0-0.3,0-0.6c0.8,0.4,1.6,0.6,2.1,0.6
				c0.4,0,0.6-0.2,0.8-0.7c0.4-0.9,0.6-2.3,0.6-3.9c0-1.5-0.4-2-1.7-2c-0.3,0-0.5,0-1,0.1c-0.5,2.2-1.2,4-2.1,5.9
				c-0.2,0.3-0.5,0.9-0.9,1.7l-1-0.6c0.4-0.5,1-1.5,1.5-2.5c0.7-1.4,1.1-2.6,1.5-4.4c-1.2,0.2-1.9,0.3-2,0.3
				c-0.3,0.1-0.4,0.1-0.8,0.2L228.3,355.1z M237.5,353.8c1.4,1.5,2.3,3,2.9,5l-0.9,0.5c-0.5-1.9-1.5-3.6-2.9-5L237.5,353.8z"/>
			<path d="M244.8,352c-0.4,1.3-0.9,4.2-0.9,6.1c0,0.8,0.1,1.8,0.1,2.3c0.1,0.3,0.1,0.6,0.1,0.8c0.3-1,0.4-1.2,1.2-3l0.7,0.3
				c-0.4,0.8-0.8,1.7-1,2.5c-0.3,0.8-0.4,1.3-0.4,1.8l-1,0.1c0-0.2,0-0.2-0.1-0.5c-0.4-1.3-0.5-2.7-0.5-4.1c0-1.7,0.1-2.8,0.6-5.4
				c0.1-0.6,0.1-0.7,0.1-1L244.8,352z M246.3,354.8c0.5,0.1,1.3,0.2,2.4,0.2c0.6,0,1.1,0,1.8-0.1c-0.1-2.4-0.1-2.8-0.2-3.3l1.1,0
				c0,0.2,0,0.3,0,0.5c0,0.1,0,0.2,0,0.4c0,0.3,0,0.3,0.1,2.3c1.1-0.2,1.7-0.3,2.2-0.6l0.1,1c-0.3,0.1-0.3,0.1-0.7,0.2
				c-0.5,0.1-1,0.2-1.5,0.3c0,0.4,0,0.6,0,1c0,2.7-0.3,3.8-1.1,4.9c-0.5,0.7-1.1,1.2-2.2,1.8c-0.3-0.4-0.4-0.5-0.8-0.8
				c1-0.5,1.6-1,2.1-1.6c0.7-0.9,0.9-1.9,0.9-4.2c0-0.4,0-0.7,0-1.1c-0.6,0.1-1.4,0.1-2,0.1c-0.4,0-1.2,0-1.7-0.1
				c-0.1,0-0.2,0-0.3,0c0,0-0.1,0-0.2,0L246.3,354.8z"/>
			<path d="M257.5,352.6c0-0.8,0-1.1-0.1-1.4h1c-0.1,0.4-0.1,0.7-0.1,1.4v1.3h0.3c0.4,0,0.6,0,0.9-0.1v0.9c-0.3,0-0.6,0-0.9,0h-0.3
				c0.3,1,0.7,1.8,1.6,2.6c-0.2,0.2-0.3,0.4-0.5,0.7c-0.5-0.7-0.8-1.3-1.1-2.1c0,1.3,0.1,1.7,0.1,2.3v4.2c0,0.8,0,1.2,0.1,1.6h-1
				c0.1-0.4,0.1-0.9,0.1-1.6v-3.9c0-0.7,0-0.9,0.1-2.4c-0.4,2.1-0.8,3.1-1.7,4.4c-0.2-0.4-0.3-0.5-0.6-0.8c0.6-0.9,1.1-1.8,1.5-3.1
				c0.2-0.7,0.4-1.3,0.5-1.8h-0.7c-0.4,0-0.7,0-1,0.1v-0.9c0.3,0,0.5,0.1,1,0.1h0.8V352.6z M266.7,353.4c0.6,0,1.1,0,1.4-0.1v0.9
				c-0.4,0-0.9-0.1-1.4-0.1h-1.4c0.6,0.7,1.8,1.3,3.1,1.6c-0.2,0.2-0.4,0.4-0.5,0.7c-0.8-0.3-1.2-0.5-1.9-0.9v1c0,0.3,0,0.6,0,0.9
				c-0.3,0-0.5,0-1,0h-2.9c-0.4,0-0.7,0-1,0c0-0.1,0-0.1,0-0.3c0-0.1,0-0.4,0-0.7v-0.9c-0.5,0.4-0.8,0.6-1.4,0.9
				c-0.1-0.2-0.3-0.4-0.5-0.6c1.1-0.4,1.9-1,2.6-1.8h-1c-0.5,0-0.9,0-1.2,0.1v-0.9c0.4,0.1,0.7,0.1,1.3,0.1h1.5
				c0.2-0.4,0.3-0.5,0.5-1c-1.1,0.1-1.9,0.1-2.7,0.2c-0.1-0.3-0.2-0.5-0.4-0.7c0.3,0,0.5,0,0.6,0c2.3,0,5.1-0.4,6.2-0.8l0.6,0.7
				c-0.2,0-0.3,0.1-0.7,0.2c-0.7,0.2-1.7,0.3-2.8,0.4c-0.2,0.5-0.3,0.7-0.5,1H266.7z M259.7,363.9c0-0.3,0.1-0.9,0.1-1.6v-2.9
				c0-0.6,0-0.9,0-1.3c0.3,0,0.6,0.1,1.2,0.1h5.5c0.7,0,1.1,0,1.3-0.1c0,0.3-0.1,0.8-0.1,1.3v3.4c0,0.7-0.3,0.9-1.3,0.9
				c-0.4,0-0.6,0-1.2,0c0-0.4-0.1-0.5-0.2-0.9c0.7,0.1,1.1,0.1,1.5,0.1c0.4,0,0.4-0.1,0.4-0.4v-3.7h-6.3v3.4c0,0.8,0,1.2,0.1,1.6
				H259.7z M261.8,360.6c0-0.4,0-0.7,0-1c0.2,0,0.4,0,0.9,0h2c0.5,0,0.7,0,0.9,0c0,0.2,0,0.4,0,0.9v0.7c0,0.6,0,0.7,0,0.9
				c-0.2,0-0.4,0-0.8,0h-2.3v0.7h-0.8c0-0.2,0-0.6,0-1.1V360.6z M262.9,354.1c-0.3,0.4-0.5,0.7-0.9,1h3.5c-0.5-0.4-0.7-0.6-1.1-1
				H262.9z M262.1,356.8h3.2v-1h-3.2V356.8z M262.6,361.4h2.3v-1.1h-2.3V361.4z"/>
		</g>
	</g>
	<g>
		<g>
			<path class="st6" d="M281.7,289c-1,0-1.5,0-2.2,0c0.1-0.7,0.2-1.2,0.2-2.3l0.2-9.2c0-0.8,0-1.4-0.1-2.1c0.7,0,1,0.1,2.1,0.1
				l4,0.1c2.6,0.1,4.1,1.3,4,3.4c0,1-0.3,1.8-1,2.4c-0.4,0.3-0.7,0.5-1.4,0.7c0.9,0.2,1.3,0.4,1.7,0.8c0.7,0.7,1,1.5,1,2.6
				c0,2.4-1.7,3.7-4.5,3.6L281.7,289z M282,287.1l3.7,0.1c1.5,0,2.4-0.7,2.4-2.1c0-0.7-0.1-1.1-0.5-1.5c-0.4-0.4-1.1-0.6-1.8-0.6
				l-3.6-0.1L282,287.1z M285.6,281.1c1.3,0,2.1-0.7,2.1-1.8c0-0.5-0.1-1-0.4-1.3c-0.4-0.3-0.9-0.5-1.6-0.6l-3.5-0.1l-0.1,3.6
				L285.6,281.1z"/>
		</g>
	</g>
	<line class="st7" x1="233.7" y1="299.9" x2="233.7" y2="345.2"/>
	<g>
		<g>
			<path d="M29.3,329.8c-0.5,0.8-1.1,1.3-1.8,1.9c-0.3-0.3-0.4-0.4-0.7-0.7c0.7-0.5,1.3-1,1.7-1.6c0.5-0.7,0.7-1.1,0.9-1.8l0.9,0.3
				c-0.2,0.5-0.4,0.7-0.5,1h2.8v-0.2c0-0.4,0-0.7-0.1-1h1c-0.1,0.3-0.1,0.6-0.1,1v0.2h3.8c0.6,0,1,0,1.4-0.1v1
				c-0.4-0.1-0.8-0.1-1.4-0.1h-3.8v1.3h3.1c0.7,0,1.1,0,1.4-0.1v1c-0.4-0.1-0.9-0.1-1.5-0.1h-3.1v1.6h4.3c0.6,0,1.1,0,1.5-0.1v1
				c-0.4-0.1-0.9-0.1-1.5-0.1h-9.5c-0.5,0-1,0-1.4,0.1v-1c0.4,0.1,0.8,0.1,1.4,0.1h4.4v-1.6h-2.6c-0.6,0-1,0-1.3,0.1v-0.9
				c0.4,0.1,0.7,0.1,1.3,0.1h2.6v-1.3H29.3z M29.8,327.4c-0.6,0-1.1,0-1.4,0.1c0-0.3,0.1-0.7,0.1-1.2v-2.4c0-0.6,0-0.9-0.1-1.3
				c0.4,0.1,0.8,0.1,1.3,0.1h6.5c0.6,0,1,0,1.4-0.1c0,0.3-0.1,0.6-0.1,1.2v2.4c0,0.6,0,0.9,0.1,1.2c-0.3,0-0.7-0.1-1.4-0.1H29.8z
				 M29.3,324.6h7.4v-1.2h-7.4V324.6z M29.3,326.7h7.4v-1.3h-7.4V326.7z"/>
			<path d="M42.1,330.1c-0.2,2-0.3,2.5-0.8,3.7l-0.6-0.3c0.5-1.1,0.7-1.8,0.8-3.5L42.1,330.1z M44.4,328.7H45c0.7,0,1,0,1.3-0.1
				c0,0.3,0,0.3-0.1,1.5c-0.1,1.7-0.2,3.2-0.5,3.8c-0.2,0.4-0.5,0.6-1.2,0.6c-0.3,0-0.6,0-1.1-0.1c0-0.4,0-0.5-0.1-0.9
				c0.5,0.1,1,0.2,1.3,0.2c0.4,0,0.5-0.2,0.6-0.9c0.2-0.9,0.2-1.6,0.3-3.5h-2.8c-0.5,0-0.9,0-1.3,0c0-0.3,0-0.6,0-1.4v-3.9
				c0-0.8,0-1.2-0.1-1.6c0.4,0.1,0.8,0.1,1.5,0.1h2c0.6,0,1,0,1.4-0.1v0.8c-0.4-0.1-0.8-0.1-1.3-0.1h-0.5v1.3h0.4
				c0.5,0,0.8,0,1.2-0.1v0.8c-0.4-0.1-0.7-0.1-1.2-0.1h-0.4v1.3h0.4c0.5,0,0.8,0,1.2-0.1v0.8c-0.4-0.1-0.7-0.1-1.2-0.1h-0.4V328.7z
				 M43.7,323.3h-1.6v1.3h1.6V323.3z M43.7,325.3h-1.6v1.3h1.6V325.3z M42.2,327.3v1.4h1.6v-1.4H42.2z M42.9,330.1
				c0.2,1.1,0.2,1.9,0.2,3.1l-0.7,0.1c0-0.3,0-0.5,0-0.6c0-1,0-1.4-0.1-2.5L42.9,330.1z M43.8,330.1c0.3,1,0.4,1.4,0.5,2.5l-0.6,0.2
				c-0.1-1.2-0.2-1.7-0.4-2.6L43.8,330.1z M44.7,330c0.3,0.7,0.4,1.1,0.6,1.9l-0.5,0.2c-0.2-1-0.3-1.2-0.5-1.9L44.7,330z
				 M53.3,323.7c-0.4-0.1-0.7-0.1-1.3-0.1h-4.3v9.6h4.4c0.5,0,0.9,0,1.3-0.1v1c-0.4-0.1-0.8-0.1-1.3-0.1h-4.4v0.7h-0.9
				c0.1-0.4,0.1-0.9,0.1-1.4v-9.2c0-0.5,0-0.9-0.1-1.3c0.3,0,0.7,0,1.2,0h3.9c0.5,0,0.9,0,1.3-0.1V323.7z M52.2,332.2
				c-0.4-0.8-0.9-1.8-1.5-2.8c-0.6,1.2-1.3,2.4-2.1,3.3c-0.2-0.3-0.4-0.4-0.7-0.6c1-1.1,1.6-2,2.3-3.5c-0.9-1.3-1.4-2-2.2-2.9
				l0.6-0.5c0.9,1.1,1.3,1.7,1.9,2.6c0.5-1.3,0.9-2.8,0.9-3.5l1,0.2c-0.1,0.2-0.1,0.4-0.3,0.8c-0.4,1.3-0.6,2.1-1.1,3.2
				c0.8,1.2,1.3,2.2,1.8,3.1L52.2,332.2z"/>
			<path d="M61.4,331.3c0,0.5,0,1,0.1,1.4h-0.9v-0.8h-4.3v1.3h-0.9c0.1-0.4,0.1-1,0.1-1.8v-7.2c0-0.6,0-1-0.1-1.4
				c0.4,0,0.8,0.1,1.4,0.1H60c0.6,0,1,0,1.5-0.1c0,0.3-0.1,0.6-0.1,1.2h4.4c0.8,0,1.3,0,1.7-0.1v1c-0.4-0.1-0.8-0.1-1.7-0.1h-0.3
				v8.6c0,0.9-0.3,1.1-1.5,1.1c-0.5,0-1.1,0-1.5-0.1c0-0.4-0.1-0.6-0.2-0.9c0.7,0.1,1.2,0.1,1.7,0.1c0.5,0,0.6-0.1,0.6-0.3v-8.5
				h-3.2V331.3z M56.3,326.8H58v-3.2h-1.7V326.8z M56.3,331.1H58v-3.5h-1.7V331.1z M58.8,326.8h1.8v-3.2h-1.8V326.8z M58.8,331.1
				h1.8v-3.5h-1.8V331.1z"/>
		</g>
	</g>
	<g>
		<g>
			<path d="M18.3,242.6c-0.6,0-1.1,0-1.5,0.1v-1.2c0.3,0.1,0.7,0.1,1.5,0.1h3v-2.3c0-0.7,0-1.3-0.1-1.8h1.3c-0.1,0.5-0.1,1-0.1,1.8
				v11.4c0,0.8,0,1.3,0.1,1.8h-1.3c0.1-0.5,0.1-1,0.1-1.8v-2.1c-1.1,0.6-2.2,1.2-3.7,1.9c-0.3,0.1-0.5,0.2-0.7,0.3l-0.5-1.2
				c0.5-0.1,0.9-0.2,1.5-0.5c1.3-0.6,2.1-1,3.4-1.7v-4.7H18.3z M26.2,250.2c0,0.3,0.1,0.4,0.3,0.5c0.2,0.1,0.8,0.1,1.6,0.1
				c1.5,0,2-0.1,2.3-0.6c0.2-0.4,0.4-1.5,0.4-2.9c0.4,0.3,0.6,0.3,1.1,0.5c-0.1,1.8-0.4,3-0.9,3.4c-0.4,0.4-1.1,0.5-2.9,0.5
				c-2.5,0-3-0.3-3-1.4v-11.2c0-0.9,0-1.3-0.1-1.8h1.3c-0.1,0.5-0.1,1-0.1,1.8v4.1c1.3-0.7,2.5-1.5,3.5-2.4c0.4-0.4,0.7-0.6,1-1
				l0.9,0.9c-0.2,0.2-0.3,0.2-0.6,0.5c-1.4,1.1-2.7,2-4.7,3.1V250.2z"/>
			<path d="M41.7,241.8c1,1.7,1.9,2.9,2.9,4c1.4,1.4,2.7,2.5,4.3,3.4c-0.4,0.4-0.6,0.6-0.9,1.1c-1-0.7-1.5-1-2.3-1.8
				c-1.4-1.2-1.9-1.8-2.8-3c-0.6-0.8-0.9-1.3-1.5-2.6c0.1,0.8,0.1,1.6,0.1,2.2v5.5c0,0.8,0,1.4,0.1,2h-1.4c0.1-0.6,0.1-1.2,0.1-2
				v-5.5c0-0.6,0-1.4,0.1-2.1c-0.9,1.9-1.8,3.2-3.1,4.5c-1,1.1-2.1,1.9-3.3,2.8c-0.3-0.4-0.5-0.7-0.9-1c1.5-0.9,3.1-2.2,4.3-3.6
				c1-1.1,1.8-2.2,2.7-3.9h-4.6c-0.7,0-1.2,0-1.9,0.1v-1.2c0.6,0.1,1.1,0.1,1.9,0.1h4.7v-1.9c0-0.6,0-1-0.1-1.6h1.4
				c-0.1,0.5-0.1,1-0.1,1.5v1.9h5c0.9,0,1.4,0,1.9-0.1v1.2c-0.6-0.1-1.3-0.1-1.9-0.1H41.7z"/>
			<path d="M55.6,247.8h-1.5c-0.7,0-0.9,0-1.4,0c0.1-0.4,0.1-0.9,0.1-1.5V240c0-0.5,0-0.9-0.1-1.3c0.4,0.1,0.7,0.1,1.4,0.1H56
				c0.3-0.5,0.6-1,0.8-1.7l1.1,0.2c-0.3,0.6-0.5,1-0.8,1.5h4.2c0.7,0,1,0,1.4-0.1c-0.1,0.3-0.1,0.5-0.1,1.1v2.8c0,0.4,0,0.8,0.1,1.2
				c-0.5,0-0.9-0.1-1.3-0.1h-7.5v1.1h10c0.7,0,1.2,0,1.6-0.1v1.1c-0.5-0.1-1-0.1-1.6-0.1h-9.9v1.2h9.7c0.6,0,1,0,1.3-0.1
				c0,0.2-0.1,0.4-0.1,1c-0.2,2-0.5,3.4-0.8,3.9c-0.3,0.5-0.8,0.6-1.8,0.6c-0.5,0-0.7,0-1.3-0.1c-0.1-0.5-0.1-0.6-0.3-1.1
				c0.7,0.1,1.2,0.2,1.7,0.2c0.6,0,0.8-0.1,0.9-0.6c0.2-0.6,0.4-1.7,0.5-3h-7.1v2.2h3.2v-0.8c0-0.4,0-0.6-0.1-1H61
				c-0.1,0.3-0.1,0.7-0.1,1v0.9c0,0.3,0,0.6,0,0.9c-0.2,0-0.2,0-0.6,0c-0.1,0-0.4,0-0.6,0h-7.1v0.8h-1.1c0.1-0.4,0.1-0.9,0.1-1.3
				l0-1.1c0-0.4,0-0.7-0.1-1h1.2c-0.1,0.3-0.1,0.5-0.1,1v0.8h3V247.8z M61.6,240.7v-1.2h-7.7v1.2H61.6z M53.9,242.8h7.7v-1.2h-7.7
				V242.8z"/>
		</g>
	</g>
	<g>
		<g>
			<path d="M340.7,254.9c0.1,0.4,0.3,0.8,0.6,1.3c0.3,0.6,0.6,0.9,1,1.5c-0.2,0.2-0.4,0.4-0.5,0.7c-0.6-0.9-0.9-1.4-1.2-2.4
				c0,1.2,0.1,1.7,0.1,2.4v4.1c0,0.8,0,1.2,0.1,1.6h-1c0.1-0.4,0.1-0.9,0.1-1.6v-4c0-0.6,0-1.1,0.1-2.1c-0.5,2.1-0.9,3-1.7,4.3
				c-0.2-0.3-0.3-0.5-0.6-0.8c1-1.3,1.7-3.1,2.1-5H339c-0.4,0-0.7,0-1,0.1v-0.9c0.2,0,0.5,0.1,1,0.1h0.8v-1.3c0-0.8,0-1.1-0.1-1.4h1
				c-0.1,0.4-0.1,0.7-0.1,1.4v1.3h0.4c0.4,0,0.6,0,0.9-0.1v0.9c-0.3,0-0.5,0-0.9,0H340.7z M345.3,256.4c0,3-0.4,4.8-1.5,6.2
				c-0.5,0.6-1,1.1-1.9,1.7c-0.2-0.3-0.4-0.5-0.7-0.7c1.1-0.6,1.7-1.1,2.2-1.8c0.5-0.8,0.8-1.8,1-3c-0.4,0.3-0.7,0.6-1.1,0.8
				c-1.1,0.7-1.1,0.7-1.3,0.9l-0.4-0.9c0.5-0.2,1-0.5,2.1-1.2c0.3-0.2,0.4-0.3,0.8-0.5c0-0.4,0-0.7,0-1.1v-3.6c0-0.7,0-1.2-0.1-1.6
				h1c-0.1,0.4-0.1,0.8-0.1,1.5V256.4z M342.8,253.3c0.6,1.1,0.9,1.8,1.3,3l-0.7,0.5c-0.4-1.2-0.7-2-1.3-3.1L342.8,253.3z
				 M347.4,262.7c0,0.3,0.1,0.3,0.9,0.3c0.9,0,1.1-0.1,1.2-0.3c0.1-0.2,0.2-0.9,0.3-2c0.3,0.2,0.5,0.3,0.9,0.4
				c-0.1,1.1-0.2,1.7-0.4,2.1c-0.2,0.5-0.7,0.6-2,0.6c-1.4,0-1.7-0.2-1.7-0.9v-10c0-0.6,0-1-0.1-1.4h1c-0.1,0.4-0.1,0.8-0.1,1.4v4.5
				c1.5,1,1.9,1.3,3,2.2l-0.5,0.7c-0.8-0.8-1.7-1.5-2.5-2V262.7z M347.8,256.3c0.7-1,1.2-1.9,1.6-3.2l0.8,0.4
				c-0.8,1.8-1.1,2.2-1.8,3.2L347.8,256.3z"/>
			<path d="M352.3,255.1c0.9,0.6,1.5,1,2.3,1.7l-0.6,0.8c-0.9-0.9-1.3-1.2-2.3-1.8L352.3,255.1z M354.3,259.4
				c-0.5,1.8-0.8,2.5-1.8,4.4l-0.8-0.7c0.6-0.6,1.3-2.3,1.9-4.2L354.3,259.4z M353,251.7c0.9,0.6,1.4,1.1,2,1.8l-0.6,0.6
				c-0.7-0.8-1.2-1.3-2-1.8L353,251.7z M362.3,254.3c0.5,0,0.9,0,1.3-0.1c0,0.3-0.1,0.5-0.1,1.1v2.7c0,0.6,0,0.8,0.1,1.1
				c-0.4,0-0.7-0.1-1.1-0.1H361v3.9c0,0.4-0.1,0.7-0.4,0.8c-0.2,0.1-0.4,0.1-0.8,0.1c-0.3,0-0.8,0-1.2,0c0-0.3-0.1-0.5-0.2-0.9
				c0.6,0.1,0.9,0.1,1.3,0.1c0.4,0,0.4-0.1,0.4-0.4v-3.7h-1.4c-0.4,0-0.8,0-1.2,0.1c0-0.3,0.1-0.5,0.1-1v-2.7c0-0.4,0-0.8,0-1.1
				c0.4,0,0.8,0.1,1.3,0.1h0.8c0.2-0.5,0.4-0.9,0.5-1.5h-3.5v1.6c0,4.7-0.5,7.3-1.7,9.4c-0.3-0.3-0.4-0.4-0.8-0.7
				c0.5-0.8,0.7-1.4,1-2.3c0.3-1.2,0.5-3.2,0.6-5.1l0-1.8c0,0,0-0.1,0-0.1c0-0.5,0-1.2-0.1-1.8c0.4,0.1,0.7,0.1,1.3,0.1h5.8
				c0.7,0,1.1,0,1.5-0.1v0.9c-0.4,0-0.9-0.1-1.5-0.1H361c-0.2,0.7-0.3,0.9-0.5,1.5H362.3z M358.8,259.9c-0.4,1.5-0.8,2.3-1.7,3.5
				c-0.2-0.3-0.4-0.4-0.7-0.6c0.5-0.6,0.7-0.9,1-1.5c0.3-0.6,0.4-0.9,0.6-1.7L358.8,259.9z M358.4,256.3h4.4v-1.2h-4.4V256.3z
				 M358.4,258.3h4.4V257h-4.4V258.3z M362.8,259.7c0.5,1.4,1,2.2,1.8,3.1c-0.3,0.2-0.4,0.3-0.7,0.6c-0.9-1.1-1.3-2-1.8-3.5
				L362.8,259.7z"/>
			<path d="M370.1,260.2h-1.2c-0.6,0-0.8,0-1.2,0c0-0.4,0.1-0.7,0.1-1.3v-5.2c0-0.4,0-0.8-0.1-1.1c0.3,0,0.6,0.1,1.1,0.1h1.6
				c0.3-0.4,0.5-0.8,0.7-1.4l0.9,0.2c-0.3,0.5-0.4,0.8-0.7,1.2h3.4c0.5,0,0.8,0,1.1-0.1c0,0.3,0,0.4,0,0.9v2.3c0,0.4,0,0.7,0,1
				c-0.4,0-0.7,0-1.1,0h-6.2v0.9h8.2c0.6,0,1,0,1.3-0.1v0.9c-0.4,0-0.8-0.1-1.3-0.1h-8.2v1h8c0.5,0,0.8,0,1.1-0.1
				c0,0.1,0,0.3-0.1,0.8c-0.2,1.6-0.4,2.8-0.7,3.2c-0.3,0.4-0.6,0.5-1.5,0.5c-0.4,0-0.6,0-1.1,0c0-0.4-0.1-0.5-0.2-0.9
				c0.6,0.1,1,0.1,1.4,0.1c0.5,0,0.6-0.1,0.7-0.5c0.2-0.5,0.3-1.4,0.4-2.5H371v1.8h2.6v-0.7c0-0.3,0-0.5-0.1-0.8h0.9
				c0,0.3-0.1,0.5-0.1,0.8v0.7c0,0.3,0,0.5,0,0.7c-0.2,0-0.2,0-0.5,0c-0.1,0-0.4,0-0.5,0h-5.8v0.6h-0.9c0.1-0.3,0.1-0.7,0.1-1.1
				l0-0.9c0-0.3,0-0.5-0.1-0.8h1c0,0.3,0,0.4,0,0.8v0.6h2.5V260.2z M375,254.4v-1h-6.3v1H375z M368.6,256.1h6.3v-1h-6.3V256.1z"/>
		</g>
	</g>
	<g>
		<g>
			<path d="M340.4,239.8c-0.5,0.8-1.1,1.3-1.8,1.9c-0.3-0.3-0.4-0.4-0.7-0.7c0.7-0.5,1.3-1,1.7-1.6c0.5-0.7,0.7-1.1,0.9-1.8l0.9,0.3
				c-0.2,0.5-0.4,0.7-0.5,1h2.8v-0.2c0-0.4,0-0.7-0.1-1h1c-0.1,0.3-0.1,0.6-0.1,1v0.2h3.8c0.6,0,1,0,1.4-0.1v1
				c-0.4-0.1-0.8-0.1-1.4-0.1h-3.8v1.3h3.1c0.7,0,1.1,0,1.4-0.1v1c-0.4-0.1-0.9-0.1-1.5-0.1h-3.1v1.6h4.3c0.6,0,1.1,0,1.5-0.1v1
				c-0.4-0.1-0.9-0.1-1.5-0.1h-9.5c-0.5,0-1,0-1.4,0.1v-1c0.4,0.1,0.8,0.1,1.4,0.1h4.4v-1.6h-2.6c-0.6,0-1,0-1.3,0.1v-0.9
				c0.4,0.1,0.7,0.1,1.3,0.1h2.6v-1.3H340.4z M340.9,237.4c-0.6,0-1.1,0-1.4,0.1c0-0.3,0.1-0.7,0.1-1.2v-2.4c0-0.6,0-0.9-0.1-1.3
				c0.4,0.1,0.8,0.1,1.3,0.1h6.5c0.6,0,1,0,1.4-0.1c0,0.3-0.1,0.6-0.1,1.2v2.4c0,0.6,0,0.9,0.1,1.2c-0.3,0-0.7-0.1-1.4-0.1H340.9z
				 M340.4,234.7h7.4v-1.2h-7.4V234.7z M340.4,236.7h7.4v-1.3h-7.4V236.7z"/>
			<path d="M353.2,240.1c-0.2,2-0.3,2.5-0.8,3.7l-0.6-0.3c0.5-1.1,0.7-1.8,0.8-3.5L353.2,240.1z M355.5,238.7h0.5c0.7,0,1,0,1.3-0.1
				c0,0.3,0,0.3-0.1,1.5c-0.1,1.7-0.2,3.2-0.5,3.8c-0.2,0.4-0.5,0.6-1.2,0.6c-0.3,0-0.6,0-1.1-0.1c0-0.4,0-0.5-0.1-0.9
				c0.5,0.1,1,0.2,1.3,0.2c0.4,0,0.5-0.2,0.6-0.9c0.2-0.9,0.2-1.6,0.3-3.5h-2.8c-0.5,0-0.9,0-1.3,0c0-0.3,0-0.6,0-1.4v-3.9
				c0-0.8,0-1.2-0.1-1.6c0.4,0.1,0.8,0.1,1.5,0.1h2c0.6,0,1,0,1.4-0.1v0.8c-0.4-0.1-0.8-0.1-1.3-0.1h-0.5v1.3h0.4
				c0.5,0,0.8,0,1.2-0.1v0.8c-0.4-0.1-0.7-0.1-1.2-0.1h-0.4v1.3h0.4c0.5,0,0.8,0,1.2-0.1v0.8c-0.4-0.1-0.7-0.1-1.2-0.1h-0.4V238.7z
				 M354.8,233.3h-1.6v1.3h1.6V233.3z M354.8,235.3h-1.6v1.3h1.6V235.3z M353.2,237.3v1.4h1.6v-1.4H353.2z M354,240.2
				c0.2,1.1,0.2,1.9,0.2,3.1l-0.7,0.1c0-0.3,0-0.5,0-0.6c0-1,0-1.4-0.1-2.5L354,240.2z M354.9,240.1c0.3,1,0.4,1.4,0.5,2.5l-0.6,0.2
				c-0.1-1.2-0.2-1.7-0.4-2.6L354.9,240.1z M355.8,240c0.3,0.7,0.4,1.1,0.6,1.9l-0.5,0.2c-0.2-1-0.3-1.2-0.5-1.9L355.8,240z
				 M364.3,233.7c-0.4-0.1-0.7-0.1-1.3-0.1h-4.3v9.6h4.4c0.5,0,0.9,0,1.3-0.1v1c-0.4-0.1-0.8-0.1-1.3-0.1h-4.4v0.7h-0.9
				c0.1-0.4,0.1-0.9,0.1-1.4v-9.2c0-0.5,0-0.9-0.1-1.3c0.3,0,0.7,0,1.2,0h3.9c0.5,0,0.9,0,1.3-0.1V233.7z M363.3,242.2
				c-0.4-0.8-0.9-1.8-1.5-2.8c-0.6,1.2-1.3,2.4-2.1,3.3c-0.2-0.3-0.4-0.4-0.7-0.6c1-1.1,1.6-2,2.3-3.5c-0.9-1.3-1.4-2-2.2-2.9
				l0.6-0.5c0.9,1.1,1.3,1.7,1.9,2.6c0.5-1.3,0.9-2.8,0.9-3.5l1,0.2c-0.1,0.2-0.1,0.4-0.3,0.8c-0.4,1.3-0.6,2.1-1.1,3.2
				c0.8,1.2,1.3,2.2,1.8,3.1L363.3,242.2z"/>
			<path d="M372.5,241.3c0,0.5,0,1,0.1,1.4h-0.9v-0.8h-4.3v1.3h-0.9c0.1-0.4,0.1-1,0.1-1.8v-7.2c0-0.6,0-1-0.1-1.4
				c0.4,0,0.8,0.1,1.4,0.1h3.2c0.6,0,1,0,1.5-0.1c0,0.4-0.1,0.6-0.1,1.2h4.4c0.8,0,1.3,0,1.7-0.1v1c-0.4-0.1-0.8-0.1-1.7-0.1h-0.3
				v8.6c0,0.9-0.3,1.1-1.5,1.1c-0.5,0-1.1,0-1.5-0.1c0-0.4-0.1-0.6-0.2-0.9c0.7,0.1,1.2,0.1,1.7,0.1c0.5,0,0.6-0.1,0.6-0.3v-8.5
				h-3.2V241.3z M367.4,236.8h1.7v-3.2h-1.7V236.8z M367.4,241.1h1.7v-3.5h-1.7V241.1z M369.9,236.8h1.8v-3.2h-1.8V236.8z
				 M369.9,241.1h1.8v-3.5h-1.8V241.1z"/>
		</g>
	</g>
	<g>
		<g>
			<path d="M226.5,249.5c-0.3,0.7-0.4,1-0.9,1.8c0,0-0.1-0.1-0.1-0.1c-0.2-0.2-0.3-0.2-0.5-0.4c0.5-0.8,0.9-1.5,1.2-2.5
				c0.1-0.4,0.1-0.4,0.2-1.1l0.8,0.2c0,0.1,0,0.1-0.2,0.6c-0.1,0.3-0.2,0.6-0.3,1h1.8c0.5,0,0.7,0,1-0.1v0.8c-0.2,0-0.6,0-0.9,0H228
				c0,1.2,0,1.5-0.1,2.3h0.9c0.4,0,0.7,0,0.9,0v0.8c-0.3,0-0.6-0.1-0.9-0.1h-1c0,0.2,0,0.2-0.1,0.4c0.7,1.4,1.1,2,2,2.9
				c-0.2,0.1-0.4,0.4-0.5,0.6c-0.8-0.8-1.2-1.5-1.7-2.5c-0.3,1.4-1,2.5-2,3.5c-0.1-0.2-0.3-0.4-0.5-0.6c1.3-1.1,1.9-2.3,2.1-4.3h-1
				c-0.4,0-0.7,0-1,0.1v-0.8c0.3,0,0.6,0.1,1,0.1h1.1c0-0.6,0-0.6,0.1-2.3H226.5z M233.4,256.2h1.2c0.6,0,0.9,0,1.2-0.1v0.8
				c-0.3,0-0.7-0.1-1.2-0.1h-3.6v0.8h-0.8c0-0.3,0.1-0.7,0.1-1.2v-4.9c0-0.3,0-0.5,0-1.1c-0.2,0.4-0.4,0.6-0.7,1
				c-0.2-0.2-0.3-0.3-0.6-0.5c0.7-0.7,1.1-1.3,1.6-2.4c0.3-0.6,0.5-1.1,0.6-1.6l0.8,0.2c-0.2,0.6-0.5,1.2-0.7,1.8h1.7
				c0.3-0.7,0.6-1.4,0.8-1.9l0.7,0.2c-0.2,0.6-0.6,1.3-0.8,1.7h0.9c0.5,0,0.9,0,1.2-0.1v0.8c-0.3,0-0.6-0.1-1.2-0.1h-0.9v1.6h0.8
				c0.5,0,0.9,0,1.1-0.1v0.8c-0.2,0-0.6-0.1-1.1-0.1h-0.9v1.7h0.8c0.5,0,0.9,0,1.1-0.1v0.8c-0.3,0-0.6-0.1-1.1-0.1h-0.8V256.2z
				 M232.7,251.3v-1.6h-1.8v1.6H232.7z M230.9,253.6h1.8v-1.7h-1.8V253.6z M230.9,256.2h1.8v-2h-1.8V256.2z"/>
			<path d="M240,254.4c-0.7,0-1,0-1.4,0c0-0.4,0.1-0.7,0.1-1.3v-4.1c0-0.7,0-1.3-0.1-1.6c0.4,0,0.8,0.1,1.3,0.1h5
				c0.5,0,0.9,0,1.3-0.1c0,0.3-0.1,0.9-0.1,1.6v4.1c0,0.6,0,0.9,0.1,1.3c-0.3,0-0.7,0-1.3,0h-1v2.2c0,0.4,0.1,0.4,1.3,0.4
				c1.1,0,1.4,0,1.6-0.3c0.1-0.2,0.2-0.6,0.3-1.6c0.3,0.2,0.5,0.3,0.8,0.3c-0.3,2.1-0.4,2.3-2.7,2.3c-1,0-1.5-0.1-1.8-0.2
				c-0.2-0.1-0.3-0.3-0.3-0.7v-2.4h-1.5c-0.2,1-0.5,1.6-1.1,2.2c-0.7,0.7-1.6,1.1-3.1,1.4c-0.1-0.3-0.2-0.5-0.4-0.7
				c0.9-0.2,1.3-0.3,1.8-0.5c0.8-0.4,1.4-0.9,1.7-1.5c0.1-0.3,0.1-0.3,0.2-0.8H240z M239.4,249.6h6v-1.3h-6V249.6z M239.4,251.7h6
				v-1.4h-6V251.7z M239.4,253.8h6v-1.4h-6V253.8z"/>
			<path d="M250.5,252c-0.7,0-1,0-1.4,0.1v-0.9c0.3,0.1,0.7,0.1,1.4,0.1h7.9c0.7,0,1,0,1.4-0.1v0.9c-0.4,0-0.7-0.1-1.4-0.1h-4.9
				c-0.3,0.6-0.6,1.1-1.1,1.7h4.9c0.6,0,0.9,0,1.1-0.1c0,0.4-0.1,0.7-0.1,1.1v2c0,0.4,0,0.7,0.1,1.1h-0.9v-0.6h-5.5v0.6h-0.9
				c0-0.3,0.1-0.6,0.1-1.1v-1.9c-0.6,0.5-1.1,0.9-1.9,1.3c-0.1-0.3-0.3-0.5-0.5-0.7c1.1-0.5,1.9-1.1,2.7-1.9
				c0.5-0.5,0.8-0.9,1.1-1.5H250.5z M254,248.1c0-0.4,0-0.8-0.1-1.1h0.9c0,0.3-0.1,0.6-0.1,1.1v1.2h3.2v-0.9c0-0.3,0-0.6-0.1-0.8
				h0.9c0,0.3-0.1,0.6-0.1,0.9v0.8c0,0.3,0,0.6,0,0.8c-0.3,0-0.7,0-1.2,0h-6.3c-0.5,0-0.7,0-1.1,0c0-0.2,0-0.5,0-0.8v-0.8
				c0-0.3,0-0.6-0.1-0.9h0.9c0,0.3-0.1,0.5-0.1,0.8v0.9h3V248.1z M252.1,256.6h5.6v-2.2h-5.6V256.6z"/>
		</g>
	</g>
	<g>
		<circle cx="328.3" cy="99.6" r="12.4"/>
		<g>
			<g>
				<path class="st6" d="M333.9,102.9c-0.3,1.2-0.6,1.9-1.1,2.6c-1,1.2-2.6,1.9-4.6,1.9c-1.9,0-3.3-0.6-4.4-1.6
					c-1.2-1.2-1.9-3.2-1.9-5.3c0-2.2,0.7-4.2,2-5.5c1-1,2.6-1.6,4.3-1.6c1.3,0,2.3,0.3,3.3,0.8c0.8,0.5,1.4,1.1,1.8,1.9
					c0.2,0.4,0.3,0.7,0.5,1.3l-2.4,0.5c-0.2-0.7-0.4-1.1-0.7-1.5c-0.6-0.7-1.4-1.1-2.5-1.1c-2.4,0-3.9,1.9-3.9,5
					c0,3.1,1.5,5.1,3.9,5.1c1.2,0,2.2-0.5,2.8-1.3c0.3-0.4,0.4-0.8,0.6-1.6L333.9,102.9z"/>
			</g>
		</g>
	</g>
	<g>
		<g>
			<path class="st6" d="M104.5,315.1c-0.1-0.6-0.3-1.3-0.5-1.8l-0.7-1.9l-5.4-0.1l-0.7,1.8c-0.3,0.8-0.4,1.1-0.5,1.8l-2.8,0
				c0.3-0.5,0.6-1.2,0.9-2l3.8-9.8c0.3-0.8,0.5-1.3,0.6-1.7l3,0c0.1,0.4,0.2,0.7,0.6,1.7l3.7,9.9c0.4,1.1,0.6,1.6,0.8,2L104.5,315.1
				z M101,304.4c-0.1-0.2-0.1-0.4-0.3-1c-0.3,0.8-0.3,0.8-0.3,0.9l-1.8,5l4.2,0L101,304.4z"/>
		</g>
	</g>
	<g>
		<g>
			<path d="M22.9,66.5c-0.1-0.4-0.2-1-0.4-1.4l-0.5-1.4h-4.2l-0.5,1.4c-0.2,0.6-0.3,0.8-0.4,1.4h-2.1c0.2-0.4,0.5-0.9,0.7-1.5
				l2.9-7.5c0.2-0.6,0.4-1,0.4-1.3h2.3c0.1,0.3,0.1,0.5,0.4,1.3l2.9,7.5c0.3,0.8,0.5,1.2,0.7,1.5H22.9z M20.2,58.4
				c-0.1-0.1-0.1-0.3-0.2-0.7c-0.2,0.6-0.2,0.6-0.2,0.7l-1.4,3.8h3.2L20.2,58.4z"/>
			<path d="M28.4,61.9c0.4,0.1,0.6,0.1,1.2,0.1h1.5c0.6,0,0.8,0,1.2-0.1V63C32,63,31.7,63,31.2,63h-1.5c-0.5,0-0.8,0-1.2,0.1V61.9z"
				/>
			<path d="M32,61.9c0.4,0.1,0.6,0.1,1.2,0.1h1.5c0.6,0,0.8,0,1.2-0.1V63C35.6,63,35.3,63,34.8,63h-1.5c-0.5,0-0.8,0-1.2,0.1V61.9z"
				/>
			<path d="M40.5,66.7c0-0.2,0-0.2-0.1-1c-0.1-0.9-0.2-2.2-0.2-3.2c0-1.8,0.2-3.2,0.7-5.7c0.1-0.4,0.1-0.5,0.1-0.7l1,0.2
				c-0.2,0.4-0.3,1.1-0.5,2c-0.3,1.4-0.5,3-0.5,4.3c0,0.3,0,0.6,0,0.9c0,0.3,0,0.3,0,0.6c0,0.1,0,0.2,0,0.7l0,0
				c0.1-0.2,0.1-0.2,0.1-0.5c0.1-0.4,0.4-1.2,0.8-2.1l0.6,0.3c-0.6,1.4-1.2,3.1-1.2,3.8c0,0,0,0.1,0,0.2L40.5,66.7z M50.2,65.8
				c-0.3-0.4-0.9-0.8-1.7-1.3c-0.3-0.2-0.3-0.2-0.3-0.2C48,64.3,48,64.3,48,64.3c0,0.1,0,0.2,0,0.4c0,0.4-0.1,0.7-0.2,0.9
				c-0.3,0.6-1.1,1-2.2,1c-1.5,0-2.4-0.7-2.4-1.8c0-1.1,1-1.8,2.5-1.8c0.5,0,1,0.1,1.4,0.2c0-0.2-0.1-1-0.1-2.5c-0.7,0-1,0-1.5,0
				c-0.6,0-0.9,0-1.8-0.1c-0.1,0-0.2,0-0.3,0c0,0-0.1,0-0.1,0l0-0.9c0.5,0.1,1.2,0.2,2.2,0.2c0.4,0,0.9,0,1.6,0c0-0.7,0-0.9,0-1
				c0-0.2,0-0.5,0-1.1c-0.5,0-0.8,0-1.3,0c-0.5,0-1.1,0-1.6-0.1c-0.5,0-0.5,0-0.8,0l0-0.9c0.5,0.1,1.2,0.2,2.2,0.2
				c1.7,0,3.3-0.2,4.4-0.5l0,0.8c-0.2,0-0.2,0-0.7,0.1c-0.5,0.1-0.9,0.1-1.4,0.2c0,0.4,0,0.7,0,1.1c0,0.1,0,0.1,0,1
				c1-0.1,1.8-0.3,2.3-0.4l0,0.9c-0.1,0-0.2,0-0.4,0.1c-0.6,0.1-1.2,0.2-1.9,0.3c0,1.5,0,1.9,0.1,2.8c0.7,0.3,1.6,0.7,2.2,1.2
				c0.2,0.2,0.2,0.2,0.4,0.2L50.2,65.8z M45.8,63.7c-1.1,0-1.7,0.4-1.7,1.1c0,0.6,0.6,1,1.5,1c1,0,1.5-0.4,1.5-1.3
				c0-0.1,0-0.5,0-0.6C46.6,63.8,46.3,63.7,45.8,63.7z"/>
			<path d="M55.7,56.2c-0.1,0.4-0.1,1.1-0.2,2.7c-0.1,1.6-0.1,3.3-0.1,3.9c0,0.2,0,0.5,0,0.8c0.1,0.8,0.2,1.2,0.6,1.6
				c0.4,0.3,0.9,0.5,1.6,0.5c1.5,0,2.7-0.8,3.5-2.3c0.3-0.6,0.5-1.1,0.6-2c0.4,0.3,0.5,0.4,0.9,0.6c-0.5,1.5-0.9,2.3-1.4,3
				c-0.9,1.1-2.1,1.6-3.7,1.6c-1.1,0-1.9-0.3-2.4-0.9c-0.5-0.6-0.7-1.3-0.7-2.7c0-0.9,0-1.2,0.1-5.3c0-0.4,0-0.6,0-0.8
				c0-0.3,0-0.4-0.1-0.7H55.7z"/>
			<path d="M65.7,59.2c0.5,0,1.8-0.2,2.9-0.3c0.2-1,0.4-2.2,0.4-2.8c0,0,0-0.1,0-0.2l1,0.1c-0.1,0.3-0.1,0.5-0.2,1.2
				c-0.1,0.4-0.2,0.9-0.3,1.5c0.3,0,0.5,0,0.8,0c0.9,0,1.5,0.2,1.9,0.5c0.5,0.4,0.6,1,0.6,2.1c0,2-0.3,3.7-0.9,4.5
				c-0.3,0.4-0.7,0.6-1.3,0.6c-0.6,0-1.1-0.1-2-0.5c0-0.2,0-0.3,0-0.5c0-0.2,0-0.3,0-0.5c0.7,0.4,1.5,0.6,1.9,0.6
				c0.3,0,0.6-0.2,0.7-0.6c0.4-0.8,0.5-2.2,0.5-3.6c0-1.4-0.4-1.8-1.6-1.8c-0.3,0-0.5,0-0.9,0.1c-0.5,2.1-1.1,3.7-2,5.5
				c-0.2,0.3-0.4,0.8-0.8,1.6l-0.9-0.5c0.4-0.5,0.9-1.4,1.4-2.4c0.6-1.3,1-2.4,1.4-4.1c-1.1,0.2-1.7,0.3-1.9,0.3
				c-0.3,0.1-0.4,0.1-0.8,0.2L65.7,59.2z M74.2,58c1.3,1.4,2.1,2.8,2.7,4.6L76.1,63c-0.5-1.8-1.4-3.4-2.7-4.7L74.2,58z"/>
			<path d="M81.1,56.3c-0.4,1.2-0.8,3.9-0.8,5.7c0,0.7,0.1,1.7,0.1,2.1c0.1,0.3,0.1,0.6,0.1,0.7c0.3-0.9,0.4-1.2,1.1-2.8l0.7,0.3
				c-0.4,0.8-0.7,1.6-1,2.3c-0.3,0.8-0.4,1.2-0.4,1.7L80,66.4c0-0.2,0-0.2-0.1-0.5c-0.3-1.2-0.5-2.5-0.5-3.8c0-1.5,0.1-2.6,0.5-5
				c0.1-0.5,0.1-0.7,0.1-0.9L81.1,56.3z M82.4,59c0.5,0.1,1.2,0.2,2.2,0.2c0.5,0,1,0,1.7-0.1c-0.1-2.3-0.1-2.6-0.2-3l1,0
				c0,0.2,0,0.3,0,0.4c0,0.1,0,0.2,0,0.4c0,0.3,0,0.3,0.1,2.1c1-0.1,1.6-0.3,2.1-0.5l0.1,0.9c-0.3,0.1-0.3,0.1-0.7,0.2
				c-0.5,0.1-0.9,0.2-1.4,0.3c0,0.4,0,0.6,0,0.9c0,2.5-0.2,3.5-1,4.6c-0.5,0.6-1,1.1-2,1.7c-0.3-0.3-0.4-0.4-0.7-0.7
				c0.9-0.4,1.5-0.9,2-1.5c0.7-0.8,0.9-1.8,0.9-3.9c0-0.4,0-0.6,0-1c-0.6,0.1-1.3,0.1-1.9,0.1c-0.4,0-1.1,0-1.6-0.1
				c-0.1,0-0.2,0-0.2,0c0,0-0.1,0-0.2,0L82.4,59z"/>
			<path d="M97.4,64.3h3.5c0.8,0,1.1,0,1.5-0.1v1c-0.4-0.1-0.8-0.1-1.5-0.1h-7.7c-0.7,0-1.1,0-1.5,0.1v-1c0.5,0.1,0.7,0.1,1.5,0.1
				h3.2v-5.8h-2.3c-0.7,0-1.1,0-1.5,0.1v-1c0.5,0.1,0.8,0.1,1.5,0.1h5.7c0.8,0,1.1,0,1.5-0.1v1c-0.4-0.1-0.8-0.1-1.5-0.1h-2.5V64.3z
				"/>
			<path d="M107.7,56.3c0,0.3-0.1,0.5-0.1,1.1v3.5c0,0.6,0,0.8,0.1,1.1h-1.1c0-0.3,0.1-0.6,0.1-1.1v-3.5c0-0.6,0-0.8-0.1-1.1H107.7z
				 M113.4,56.3c-0.1,0.3-0.1,0.5-0.1,1.1V59c0,2.1-0.1,3.2-0.3,4c-0.4,1.2-1.2,2.2-2.5,2.9c-0.6,0.4-1.3,0.6-2.4,0.9
				c-0.1-0.4-0.2-0.5-0.5-0.9c1.2-0.3,1.8-0.5,2.5-0.9c1.2-0.7,1.8-1.5,2.1-2.7c0.1-0.7,0.2-1.3,0.2-3.3v-1.5c0-0.7,0-0.9-0.1-1.1
				H113.4z"/>
			<path d="M123.3,59c0,0.2,0,0.2-0.1,0.9c0,2.2-0.4,3.5-1.3,4.6c-0.8,1-1.8,1.7-3.3,2.2c-0.2-0.4-0.3-0.5-0.6-0.9
				c1.1-0.3,1.7-0.6,2.4-1.2c1.4-1.1,1.9-2.4,1.9-5c0-0.4,0-0.5-0.1-0.7H123.3z M128.4,57.4c-0.1,0.2-0.2,0.2-0.3,0.5
				c-0.9,1.7-2.1,2.9-3.8,3.7c-0.2-0.3-0.3-0.4-0.6-0.7c0.9-0.4,1.4-0.7,2.1-1.2c0.6-0.6,1.1-1.2,1.5-1.9h-7.4c-0.7,0-1.1,0-1.5,0.1
				v-1c0.4,0.1,0.8,0.1,1.5,0.1h7c0.9,0,0.9,0,1.1-0.1L128.4,57.4z"/>
			<path d="M17.3,84.9c-0.8,0-1.1,0-1.7,0c0.1-0.5,0.1-0.9,0.1-1.8v-7.1c0-0.6,0-1.1-0.1-1.6c0.5,0,0.8,0,1.6,0h3.1
				c2,0,3.1,0.9,3.1,2.5c0,0.8-0.2,1.4-0.7,1.8c-0.3,0.3-0.5,0.4-1,0.5c0.7,0.1,1,0.3,1.3,0.6c0.5,0.5,0.8,1.1,0.8,2
				c0,1.8-1.2,2.8-3.4,2.8H17.3z M20.2,78.8c1,0,1.6-0.5,1.6-1.4c0-0.4-0.1-0.8-0.3-1c-0.3-0.3-0.7-0.4-1.2-0.4h-2.7v2.8H20.2z
				 M17.5,83.5h2.8c1.2,0,1.8-0.6,1.8-1.6c0-0.5-0.1-0.9-0.4-1.1c-0.3-0.3-0.8-0.4-1.4-0.4h-2.8V83.5z"/>
			<path d="M28.5,80.4c0.4,0.1,0.6,0.1,1.2,0.1h1.5c0.6,0,0.8,0,1.2-0.1v1.1c-0.4-0.1-0.6-0.1-1.2-0.1h-1.5c-0.5,0-0.8,0-1.2,0.1
				V80.4z"/>
			<path d="M32.1,80.4c0.4,0.1,0.6,0.1,1.2,0.1h1.5c0.6,0,0.8,0,1.2-0.1v1.1c-0.4-0.1-0.6-0.1-1.2-0.1h-1.5c-0.5,0-0.8,0-1.2,0.1
				V80.4z"/>
			<path d="M43.7,77.2c0.1,0.4,0.3,0.7,0.6,1.2c0.3,0.5,0.5,0.9,1,1.4c-0.2,0.2-0.4,0.4-0.5,0.7c-0.5-0.8-0.8-1.3-1.1-2.2
				c0,1.1,0.1,1.6,0.1,2.2v3.8c0,0.7,0,1.1,0.1,1.5h-0.9c0.1-0.4,0.1-0.8,0.1-1.5v-3.7c0-0.5,0-1,0.1-2c-0.5,1.9-0.9,2.8-1.6,4
				c-0.2-0.3-0.3-0.5-0.5-0.7c0.9-1.2,1.6-2.9,2-4.7h-0.6c-0.4,0-0.7,0-0.9,0.1v-0.8c0.2,0,0.5,0.1,0.9,0.1h0.7v-1.2
				c0-0.7,0-1-0.1-1.3h0.9c-0.1,0.3-0.1,0.7-0.1,1.3v1.2h0.4c0.4,0,0.6,0,0.8-0.1v0.8c-0.3,0-0.5,0-0.8,0H43.7z M48,78.6
				c0,2.8-0.4,4.5-1.4,5.7c-0.5,0.6-0.9,1-1.8,1.5c-0.2-0.3-0.4-0.4-0.6-0.6c1-0.6,1.6-1.1,2-1.7c0.5-0.7,0.8-1.6,0.9-2.8
				c-0.4,0.3-0.7,0.5-1,0.7c-1,0.7-1,0.7-1.2,0.8l-0.4-0.8c0.5-0.2,1-0.5,1.9-1.1c0.3-0.2,0.4-0.3,0.7-0.5c0-0.4,0-0.6,0-1v-3.3
				c0-0.7,0-1.1-0.1-1.5h0.9C48,74.4,48,74.8,48,75.5V78.6z M45.7,75.7c0.5,1.1,0.8,1.7,1.2,2.8l-0.7,0.4C45.8,77.8,45.5,77,45,76
				L45.7,75.7z M50,84.5c0,0.3,0.1,0.3,0.8,0.3c0.8,0,1-0.1,1.1-0.3c0.1-0.2,0.2-0.9,0.2-1.8c0.3,0.2,0.5,0.2,0.8,0.3
				c-0.1,1.1-0.2,1.6-0.4,2c-0.2,0.4-0.6,0.6-1.8,0.6c-1.3,0-1.6-0.1-1.6-0.9v-9.3c0-0.6,0-0.9-0.1-1.3H50C50,74.4,50,74.8,50,75.4
				v4.2c1.4,0.9,1.7,1.2,2.8,2.1l-0.5,0.7c-0.7-0.7-1.5-1.4-2.3-1.9V84.5z M50.3,78.5c0.7-0.9,1.1-1.7,1.5-2.9l0.7,0.4
				c-0.7,1.6-1,2.1-1.7,3L50.3,78.5z"/>
			<path d="M54.5,77.4c0.9,0.5,1.4,0.9,2.1,1.6L56,79.7c-0.8-0.8-1.2-1.1-2.1-1.7L54.5,77.4z M56.4,81.4c-0.5,1.7-0.8,2.4-1.6,4.1
				L54,84.9c0.5-0.5,1.2-2.1,1.7-3.9L56.4,81.4z M55.1,74.2c0.8,0.6,1.3,1,1.9,1.7l-0.6,0.6c-0.7-0.8-1.1-1.2-1.9-1.7L55.1,74.2z
				 M63.8,76.7c0.5,0,0.8,0,1.2-0.1c0,0.2-0.1,0.5-0.1,1v2.5c0,0.5,0,0.8,0.1,1c-0.4,0-0.6-0.1-1-0.1h-1.4v3.7
				c0,0.4-0.1,0.6-0.4,0.8c-0.2,0.1-0.4,0.1-0.8,0.1c-0.2,0-0.8,0-1.1,0c0-0.3-0.1-0.5-0.2-0.8c0.5,0.1,0.8,0.1,1.2,0.1
				c0.3,0,0.4-0.1,0.4-0.3v-3.4h-1.3c-0.4,0-0.7,0-1.1,0.1c0-0.2,0.1-0.5,0.1-0.9v-2.5c0-0.4,0-0.7,0-1c0.3,0,0.7,0.1,1.2,0.1h0.7
				c0.2-0.5,0.3-0.8,0.4-1.4h-3.2v1.5c0,4.3-0.4,6.7-1.6,8.7c-0.2-0.3-0.3-0.4-0.7-0.6c0.5-0.7,0.7-1.3,0.9-2.2
				c0.3-1.2,0.5-2.9,0.5-4.7l0-1.6c0,0,0-0.1,0-0.1c0-0.5,0-1.1-0.1-1.7c0.4,0.1,0.6,0.1,1.2,0.1h5.4c0.6,0,1,0,1.4-0.1v0.9
				c-0.4,0-0.9-0.1-1.4-0.1h-1.7c-0.2,0.6-0.3,0.9-0.5,1.4H63.8z M60.5,81.8c-0.4,1.4-0.8,2.2-1.6,3.3c-0.2-0.2-0.4-0.4-0.6-0.5
				c0.5-0.6,0.7-0.9,0.9-1.4c0.3-0.5,0.4-0.9,0.5-1.6L60.5,81.8z M60.1,78.5h4.1v-1.1h-4.1V78.5z M60.1,80.4h4.1v-1.2h-4.1V80.4z
				 M64.3,81.6c0.5,1.3,0.9,2,1.7,2.9c-0.3,0.2-0.4,0.3-0.7,0.6c-0.8-1-1.2-1.8-1.7-3.2L64.3,81.6z"/>
			<path d="M73.3,82.7h3.5c0.8,0,1.1,0,1.5-0.1v1c-0.4-0.1-0.8-0.1-1.5-0.1h-7.7c-0.7,0-1.1,0-1.5,0.1v-1c0.5,0.1,0.7,0.1,1.5,0.1
				h3.2v-5.8h-2.3c-0.7,0-1.1,0-1.5,0.1v-1c0.5,0.1,0.8,0.1,1.5,0.1h5.7c0.8,0,1.1,0,1.5-0.1v1c-0.4-0.1-0.8-0.1-1.5-0.1h-2.5V82.7z
				"/>
			<path d="M83.6,74.7c0,0.3-0.1,0.5-0.1,1.1v3.5c0,0.6,0,0.8,0.1,1.1h-1.1c0-0.3,0.1-0.6,0.1-1.1v-3.5c0-0.6,0-0.8-0.1-1.1H83.6z
				 M89.3,74.7c-0.1,0.3-0.1,0.5-0.1,1.1v1.5c0,2.1-0.1,3.2-0.3,4c-0.4,1.2-1.2,2.2-2.5,2.9c-0.6,0.4-1.3,0.6-2.4,0.9
				c-0.1-0.4-0.2-0.5-0.5-0.9c1.2-0.3,1.8-0.5,2.5-0.9c1.2-0.7,1.8-1.5,2.1-2.7c0.1-0.7,0.2-1.3,0.2-3.3v-1.5c0-0.7,0-0.9-0.1-1.1
				H89.3z"/>
			<path d="M99.2,77.4c0,0.2,0,0.2-0.1,0.9c0,2.2-0.4,3.5-1.3,4.6c-0.8,1-1.8,1.7-3.3,2.2c-0.2-0.4-0.3-0.5-0.6-0.9
				c1.1-0.3,1.7-0.6,2.4-1.2c1.4-1.1,1.9-2.4,1.9-5c0-0.4,0-0.5-0.1-0.7H99.2z M104.3,75.8c-0.1,0.2-0.2,0.2-0.3,0.5
				c-0.9,1.7-2.1,2.9-3.8,3.7c-0.2-0.3-0.3-0.4-0.6-0.7c0.9-0.4,1.4-0.7,2.1-1.2c0.6-0.6,1.1-1.2,1.5-1.9h-7.4c-0.7,0-1.1,0-1.5,0.1
				v-1c0.4,0.1,0.8,0.1,1.5,0.1h7c0.9,0,0.9,0,1.1-0.1L104.3,75.8z"/>
			<path d="M24.5,100.2c-0.2,0.9-0.5,1.4-0.9,1.9c-0.7,0.9-2,1.4-3.5,1.4c-1.4,0-2.5-0.4-3.3-1.2c-0.9-0.9-1.4-2.4-1.4-4.1
				c0-1.7,0.5-3.2,1.5-4.2c0.8-0.8,2-1.2,3.3-1.2c1,0,1.8,0.2,2.5,0.6c0.6,0.4,1.1,0.8,1.4,1.4c0.2,0.3,0.2,0.5,0.4,1l-1.8,0.4
				c-0.2-0.6-0.3-0.8-0.6-1.1c-0.4-0.5-1.1-0.8-1.9-0.8c-1.8,0-3,1.4-3,3.8c0,2.4,1.1,3.9,3,3.9c0.9,0,1.7-0.4,2.1-1
				c0.2-0.3,0.3-0.6,0.4-1.2L24.5,100.2z"/>
			<path d="M28,98.8c0.4,0.1,0.6,0.1,1.2,0.1h1.5c0.6,0,0.8,0,1.2-0.1v1.1c-0.4-0.1-0.6-0.1-1.2-0.1h-1.5c-0.5,0-0.8,0-1.2,0.1V98.8
				z"/>
			<path d="M31.6,98.8c0.4,0.1,0.6,0.1,1.2,0.1h1.5c0.6,0,0.8,0,1.2-0.1v1.1c-0.4-0.1-0.6-0.1-1.2-0.1h-1.5c-0.5,0-0.8,0-1.2,0.1
				V98.8z"/>
			<path d="M49.4,96.2c0.8,0,1.1,0,1.5-0.1v1C50.5,97,50.1,97,49.4,97h-2.9c-0.1,1.8-0.3,2.8-1,3.8c-0.7,1.1-1.7,2-3.2,2.7
				c-0.2-0.4-0.4-0.5-0.7-0.8c1.5-0.6,2.6-1.5,3.2-2.7c0.4-0.8,0.6-1.4,0.7-3h-3.6c-0.7,0-1.1,0-1.5,0.1v-1c0.5,0.1,0.8,0.1,1.5,0.1
				h3.6c0-0.5,0-0.7,0-1.1v-0.9c0-0.5,0-0.8-0.1-1.1h1.1c-0.1,0.4-0.1,0.4-0.1,1.1l0,0.9c0,1,0,1,0,1.1H49.4z"/>
			<path d="M63.2,93.5c-0.2,0.2-0.2,0.2-0.6,0.5c-0.8,0.9-1.9,1.8-3,2.6v5.5c0,0.7,0,1,0.1,1.4h-1.1c0.1-0.3,0.1-0.6,0.1-1.4v-4.9
				c-1.7,1-2.6,1.5-5,2.3c-0.2-0.4-0.2-0.5-0.5-0.9c2.4-0.6,4.7-1.8,6.7-3.4c1.2-0.9,2.1-1.8,2.5-2.5L63.2,93.5z"/>
			<path d="M69,103.6c0.1-0.4,0.1-0.7,0.1-1.4v-8.1c0-0.7,0-1-0.1-1.3h1.1C70,93.2,70,93.4,70,94.2v2.4c2,0.7,3.5,1.4,5.8,2.7
				l-0.6,1c-1.2-0.9-3-1.8-4.8-2.6c-0.2-0.1-0.3-0.1-0.4-0.2l0,0c0,0.3,0.1,0.4,0.1,0.8v3.9c0,0.7,0,1,0.1,1.4H69z"/>
			<path d="M84.7,92.9c-0.1,0.2-0.1,0.2-0.3,0.5c-0.3,0.7-0.5,0.9-0.6,1.2c0.2,0,0.2,0,3.9-0.1c0.5,0,0.5,0,0.7-0.1l0.6,0.5
				c-0.1,0.2-0.1,0.2-0.3,0.6c-0.5,1.8-1.5,3.6-2.6,4.9c-1.2,1.4-2.6,2.4-4.5,3.3c-0.2-0.4-0.3-0.5-0.7-0.8c2-0.8,3.3-1.8,4.6-3.3
				c1-1.2,1.8-2.7,2.2-4.4l-4.4,0.1c-0.8,1.3-1.8,2.4-3.1,3.4c-0.2-0.3-0.4-0.4-0.7-0.7c1.4-0.9,2.4-2,3.3-3.6
				c0.5-0.9,0.8-1.4,0.8-1.9L84.7,92.9z"/>
			<path d="M95.7,93.4c-0.1,0.3-0.1,0.3-0.1,1.1c-0.1,3.5-0.2,4.5-0.7,5.8c-0.4,1.2-1.1,2.1-2.2,3.2c-0.3-0.3-0.4-0.5-0.8-0.7
				c1.1-0.8,1.8-1.8,2.2-3c0.4-1.1,0.6-2.8,0.6-5.6c0-0.5,0-0.6-0.1-0.9L95.7,93.4z M98.9,93.2c-0.1,0.3-0.1,0.5-0.1,1.1l-0.1,7.9
				c1.1-0.4,1.7-0.8,2.4-1.5c0.7-0.7,1.2-1.6,1.5-2.6c0.3,0.4,0.4,0.5,0.7,0.8c-0.6,1.5-1.5,2.6-2.6,3.3c-0.6,0.4-1.1,0.6-1.9,0.9
				c-0.2,0.1-0.2,0.1-0.4,0.2c-0.2,0.1-0.2,0.1-0.3,0.1l-0.5-0.6c0.1-0.2,0.1-0.3,0.1-0.9l0.1-7.6c0-0.8,0-0.8-0.1-1.2L98.9,93.2z"
				/>
			<path d="M105.3,97.7c0.4,0.1,0.7,0.1,1.6,0.1h7.6c1,0,1.2,0,1.6-0.1v1.1c-0.4,0-0.7-0.1-1.6-0.1h-7.5c-0.9,0-1.2,0-1.6,0.1V97.7z
				"/>
			<path d="M119.4,96.4c1.1,0.5,2.3,1,3.3,1.7l-0.5,0.9c-0.8-0.6-2.3-1.4-3.3-1.8L119.4,96.4z M119.1,102.3
				C119.1,102.3,119.1,102.3,119.1,102.3c0.8,0,2.3-0.3,3.5-0.8c2.5-0.9,4.5-3.1,5.5-5.8c0.3,0.3,0.5,0.5,0.8,0.7
				c-1.6,3.9-4.3,6-9,6.9c-0.3,0.1-0.3,0.1-0.5,0.1L119.1,102.3z M120.4,93.3c1.2,0.5,2.2,1,3.2,1.6l-0.5,0.9
				c-0.7-0.6-2.5-1.5-3.2-1.7L120.4,93.3z M127.3,92.7c0.6,0.7,0.9,1.2,1.3,2l-0.7,0.4c-0.3-0.7-0.9-1.7-1.3-2.1L127.3,92.7z
				 M128.7,92c0.6,0.7,0.9,1.2,1.4,2l-0.6,0.4c-0.3-0.6-0.8-1.5-1.3-2L128.7,92z"/>
			<path d="M132,102.1c1,0,2.6-0.4,3.8-1c2.5-1.1,4.3-3,5.3-5.8c0.3,0.4,0.4,0.5,0.8,0.8c-1,2.3-2.2,3.8-4,5
				c-1.3,0.9-2.7,1.4-4.8,1.9c-0.4,0.1-0.5,0.1-0.8,0.2L132,102.1z M132.8,94c1.4,0.9,2.2,1.5,3.1,2.4l-0.7,0.8
				c-0.9-1-2-1.9-3.1-2.5L132.8,94z"/>
			<path d="M149.3,93c-0.1,0.2-0.1,0.2-0.3,0.5c-0.3,0.7-0.5,1-0.6,1.1c0.1,0,0.2,0,0.5,0l3.1-0.1c0.5,0,0.5,0,0.7-0.1l0.8,0.8
				c-0.1,0.1-0.1,0.2-0.2,0.5c-1.2,3.8-3.5,6.4-7.1,8c-0.2-0.4-0.3-0.5-0.6-0.8c3.4-1.3,5.8-4,6.8-7.6l-4.4,0.1
				c-0.7,1.2-2,2.5-3.1,3.4c-0.2-0.3-0.4-0.4-0.7-0.7c1.3-0.8,2.3-2,3.3-3.6c0.5-0.9,0.8-1.5,0.8-1.9L149.3,93z M153.3,92.5
				c0.6,0.8,0.9,1.2,1.3,2l-0.6,0.4c-0.3-0.7-0.9-1.6-1.3-2L153.3,92.5z M154.8,91.8c0.7,0.8,0.9,1.1,1.3,2l-0.7,0.4
				c-0.3-0.7-0.8-1.4-1.3-2L154.8,91.8z"/>
		</g>
	</g>
	<path class="st8" d="M267.1,256.7c-0.6-0.1-1.2-0.2-1.6-0.5c-0.8-0.6-0.9-1.8-1-2.9c-0.2-3.6-0.3-7.4,1-10.7
		c0.5-1.4,1.5-2.8,2.9-2.9c1.6-0.1,2.8,1.5,3.6,3c1.7,3.2,3.2,6.5,4.7,9.8c1.3,2.9,1.2,3.9-2,4.3C272.2,257.2,269.6,257,267.1,256.7
		z"/>
	<g>
		<g>
			<path d="M25.2,28.6h-7.8l-1.7,3.7h-1.5l6.4-14h1.5l6.4,14h-1.6L25.2,28.6z M24.7,27.4l-3.4-7.5L18,27.4H24.7z"/>
			<path d="M40.3,32.3l-3.2-4.5c-0.4,0-0.7,0.1-1.1,0.1h-3.8v4.4h-1.5v-14H36c1.8,0,3.2,0.4,4.2,1.3c1,0.9,1.5,2,1.5,3.5
				c0,1.1-0.3,2-0.8,2.8c-0.6,0.8-1.3,1.3-2.4,1.6l3.4,4.8H40.3z M39.2,25.7c0.7-0.6,1.1-1.5,1.1-2.6c0-1.1-0.4-2-1.1-2.6
				c-0.7-0.6-1.8-0.9-3.2-0.9h-3.7v7H36C37.4,26.6,38.4,26.3,39.2,25.7z"/>
			<path d="M55.1,31.1v1.3h-9.9v-14h9.6v1.3h-8.1v5H54v1.3h-7.2v5.2H55.1z"/>
			<path d="M67.4,28.6h-7.8l-1.7,3.7h-1.5l6.4-14h1.5l6.4,14h-1.6L67.4,28.6z M66.9,27.4l-3.4-7.5l-3.4,7.5H66.9z"/>
			<path d="M92.7,18.3v14h-1.4V21.1l-5.5,9.4h-0.7l-5.5-9.4v11.1h-1.4v-14h1.2l6.1,10.4l6-10.4H92.7z"/>
			<path d="M106.1,28.6h-7.8l-1.7,3.7h-1.5l6.4-14h1.5l6.4,14h-1.6L106.1,28.6z M105.5,27.4l-3.4-7.5l-3.4,7.5H105.5z"/>
			<path d="M121.1,19.6c1,0.9,1.5,2,1.5,3.5c0,1.5-0.5,2.7-1.5,3.5c-1,0.8-2.4,1.3-4.2,1.3h-3.8v4.4h-1.5v-14h5.2
				C118.7,18.3,120.1,18.8,121.1,19.6z M120,25.7c0.7-0.6,1.1-1.5,1.1-2.6c0-1.1-0.4-2-1.1-2.6c-0.7-0.6-1.8-0.9-3.2-0.9h-3.7v7h3.7
				C118.2,26.6,119.3,26.3,120,25.7z"/>
		</g>
	</g>
</g>
<g id="花火_x2F_マーク">
	<g>
		<g>
			<path class="st9" d="M244.5,163c-5.7,6.6-9.7,14.4-12.6,22.5c-3.1,8.6-5,17.6-6.5,26.7c-0.9,5.2-1.6,10.5-2.3,15.8
				c0-0.2,0.8-0.3,0.9-0.5c1.3-9.3,2.6-18.7,4.7-27.9c2-8.7,4.6-17.3,8.8-25.2c2.2-4.3,4.9-8.3,8-12
				C245.2,162.7,244.7,162.7,244.5,163L244.5,163z"/>
		</g>
	</g>
	<g>
		<path class="st10" d="M226.9,112.3c0,1.7-0.6,3.1-1.4,3.1s-1.4-1.4-1.4-3.1c0-1.7,1.4-11.3,1.4-11.3S226.9,110.6,226.9,112.3z"/>
		<circle class="st11" cx="225.4" cy="120.7" r="1.9"/>
		<path class="st11" d="M226.4,97.1c0,1.4-0.4,2.5-1,2.5c-0.5,0-1-1.1-1-2.5c0-1.4,0.9-9,0.9-9S226.4,95.7,226.4,97.1z"/>
		<circle class="st12" cx="225.4" cy="84.2" r="1"/>
		<path class="st10" d="M239.3,109.7c0.6,1.6,0.5,3.1-0.3,3.4c-0.7,0.3-1.8-0.8-2.4-2.4c-0.6-1.6-2.5-11.1-2.5-11.1
			S238.7,108.1,239.3,109.7z"/>
		<path class="st11" d="M242.6,117.4c0.4,1-0.2,2.1-1.1,2.5c-1,0.4-2.1-0.2-2.5-1.1c-0.4-1,0.2-2.1,1.1-2.5
			C241.1,115.9,242.2,116.4,242.6,117.4z"/>
		<path class="st11" d="M233.6,95.6c0.5,1.3,0.4,2.5-0.1,2.7c-0.5,0.2-1.3-0.7-1.8-2c-0.5-1.3-2.2-8.8-2.2-8.8
			S233.1,94.3,233.6,95.6z"/>
		<path class="st12" d="M229.2,83.5c0.2,0.5-0.1,1-0.6,1.2c-0.5,0.2-1-0.1-1.2-0.6c-0.2-0.5,0.1-1,0.6-1.2
			C228.5,82.7,229,83,229.2,83.5z"/>
		<path class="st10" d="M250,103c1.1,1.3,1.5,2.8,0.9,3.3c-0.6,0.5-2-0.1-3.1-1.5c-1.1-1.3-6.2-9.6-6.2-9.6S248.9,101.7,250,103z"/>
		<path class="st11" d="M255.8,109.1c0.7,0.8,0.6,2-0.2,2.7c-0.8,0.7-2,0.6-2.7-0.2c-0.7-0.8-0.6-2,0.2-2.7
			C253.9,108.2,255.1,108.3,255.8,109.1z"/>
		<path class="st11" d="M239.8,91.7c0.9,1.1,1.3,2.2,0.9,2.5c-0.4,0.3-1.4-0.2-2.3-1.3c-0.9-1.1-5.1-7.5-5.1-7.5
			S239,90.6,239.8,91.7z"/>
		<path class="st12" d="M231.6,81.8c0.3,0.4,0.3,1-0.1,1.4c-0.4,0.3-1,0.3-1.4-0.1c-0.3-0.4-0.3-1,0.1-1.4
			C230.6,81.3,231.2,81.4,231.6,81.8z"/>
		<path class="st9" d="M257.8,93.1c1.5,0.9,2.4,2.1,2,2.8c-0.4,0.7-1.9,0.6-3.4-0.3c-1.5-0.9-9.1-6.9-9.1-6.9S256.3,92.2,257.8,93.1
			z"/>
		<path class="st11" d="M265.3,96.8c0.9,0.5,1.2,1.7,0.7,2.6c-0.5,0.9-1.7,1.2-2.6,0.7c-0.9-0.5-1.2-1.7-0.7-2.6
			C263.2,96.6,264.4,96.3,265.3,96.8z"/>
		<path class="st11" d="M244.4,85.9c1.2,0.7,1.9,1.6,1.7,2.1c-0.3,0.5-1.4,0.3-2.6-0.4c-1.2-0.7-7.4-5.3-7.4-5.3
			S243.2,85.2,244.4,85.9z"/>
		<path class="st12" d="M233.2,79.4c0.5,0.3,0.6,0.9,0.4,1.3c-0.3,0.5-0.9,0.6-1.3,0.4c-0.5-0.3-0.6-0.9-0.4-1.3
			C232.2,79.3,232.8,79.2,233.2,79.4z"/>
		<path class="st9" d="M261.7,81c1.7,0.3,2.9,1.2,2.8,2c-0.1,0.8-1.6,1.2-3.3,0.9c-1.7-0.3-10.9-3.4-10.9-3.4S260.1,80.7,261.7,81z"
			/>
		<path class="st11" d="M270.1,82c1,0.2,1.7,1.2,1.6,2.2c-0.2,1-1.2,1.7-2.2,1.6c-1-0.2-1.7-1.2-1.6-2.2C268,82.5,269,81.8,270.1,82
			z"/>
		<path class="st11" d="M246.7,78.9c1.4,0.2,2.4,0.9,2.3,1.4c-0.1,0.5-1.3,0.8-2.6,0.5c-1.4-0.2-8.7-2.5-8.7-2.5
			S245.3,78.6,246.7,78.9z"/>
		<path class="st12" d="M234,76.6c0.5,0.1,0.9,0.6,0.8,1.1c-0.1,0.5-0.6,0.9-1.1,0.8c-0.5-0.1-0.9-0.6-0.8-1.1
			C233,76.9,233.5,76.5,234,76.6z"/>
		<path class="st9" d="M261.3,68.4c1.7-0.3,3.2,0.1,3.3,0.9c0.1,0.8-1.1,1.7-2.8,2c-1.7,0.3-11.4,0.6-11.4,0.6
			S259.6,68.7,261.3,68.4z"/>
		<path class="st11" d="M269.5,66.5c1-0.2,2,0.5,2.2,1.6c0.2,1-0.5,2-1.6,2.2c-1,0.2-2-0.5-2.2-1.6
			C267.8,67.6,268.4,66.6,269.5,66.5z"/>
		<path class="st11" d="M246.4,71.5c1.4-0.2,2.5,0,2.6,0.5c0.1,0.5-0.9,1.1-2.3,1.4c-1.4,0.2-9.1,0.6-9.1,0.6S245.1,71.7,246.4,71.5
			z"/>
		<path class="st12" d="M233.7,73.7c0.5-0.1,1,0.3,1.1,0.8c0.1,0.5-0.3,1-0.8,1.1c-0.5,0.1-1-0.3-1.1-0.8
			C232.9,74.3,233.2,73.8,233.7,73.7z"/>
		<path class="st9" d="M256.6,56.6c1.5-0.9,3-1,3.4-0.3c0.4,0.7-0.5,1.9-2,2.8c-1.5,0.9-10.5,4.4-10.5,4.4S255.1,57.5,256.6,56.6z"
			/>
		<path class="st11" d="M263.6,52c0.9-0.5,2.1-0.2,2.6,0.7c0.5,0.9,0.2,2.1-0.7,2.6c-0.9,0.5-2.1,0.2-2.6-0.7
			C262.4,53.7,262.7,52.6,263.6,52z"/>
		<path class="st11" d="M243.7,64.7c1.2-0.7,2.4-0.9,2.6-0.4c0.3,0.5-0.5,1.4-1.7,2.1c-1.2,0.7-8.3,3.7-8.3,3.7
			S242.5,65.4,243.7,64.7z"/>
		<path class="st12" d="M232.5,71.1c0.5-0.3,1-0.1,1.3,0.4c0.3,0.5,0.1,1-0.4,1.3c-0.5,0.3-1,0.1-1.3-0.4
			C231.9,72,232,71.4,232.5,71.1z"/>
		<path class="st9" d="M248.1,47.2c1.1-1.3,2.5-2,3.1-1.5c0.6,0.5,0.2,2-0.9,3.3c-1.1,1.3-8.3,7.7-8.3,7.7S247,48.5,248.1,47.2z"/>
		<path class="st11" d="M253.2,40.5c0.7-0.8,1.9-0.9,2.7-0.2c0.8,0.7,0.9,1.9,0.2,2.7c-0.7,0.8-1.9,0.9-2.7,0.2
			C252.6,42.5,252.5,41.3,253.2,40.5z"/>
		<path class="st11" d="M238.7,59.2c0.9-1.1,1.9-1.6,2.3-1.3c0.4,0.3,0,1.5-0.9,2.5c-0.9,1.1-6.5,6.3-6.5,6.3S237.9,60.2,238.7,59.2
			z"/>
		<path class="st12" d="M230.5,69.1c0.3-0.4,0.9-0.5,1.4-0.1c0.4,0.3,0.5,0.9,0.1,1.4c-0.3,0.4-0.9,0.5-1.4,0.1
			C230.2,70.1,230.1,69.5,230.5,69.1z"/>
		<path class="st9" d="M237,41.3c0.6-1.6,1.7-2.7,2.4-2.4c0.7,0.3,0.9,1.8,0.3,3.4c-0.6,1.6-5.2,10.1-5.2,10.1S236.4,42.9,237,41.3z
			"/>
		<path class="st11" d="M239.4,33.2c0.4-1,1.5-1.5,2.5-1.1c1,0.4,1.5,1.5,1.1,2.5c-0.4,1-1.5,1.5-2.5,1.1
			C239.6,35.3,239,34.2,239.4,33.2z"/>
		<path class="st11" d="M232.2,55.7c0.5-1.3,1.3-2.2,1.8-2c0.5,0.2,0.5,1.4,0.1,2.7c-0.5,1.3-4,8.2-4,8.2S231.8,57,232.2,55.7z"/>
		<path class="st12" d="M227.8,67.8c0.2-0.5,0.7-0.8,1.2-0.6c0.5,0.2,0.8,0.7,0.6,1.2c-0.2,0.5-0.7,0.8-1.2,0.6
			C227.9,68.9,227.6,68.3,227.8,67.8z"/>
		<path class="st9" d="M224.5,39.5c0-1.7,0.6-3.1,1.4-3.1c0.8,0,1.4,1.4,1.4,3.1c0,1.7-1.4,11.3-1.4,11.3S224.5,41.2,224.5,39.5z"/>
		<path class="st11" d="M224,31.1c0-1.1,0.9-1.9,1.9-1.9c1.1,0,1.9,0.9,1.9,1.9c0,1.1-0.9,1.9-1.9,1.9C224.8,33,224,32.2,224,31.1z"
			/>
		<path class="st11" d="M224.9,54.7c0-1.4,0.4-2.5,1-2.5c0.5,0,1,1.1,1,2.5c0,1.4-0.9,9-0.9,9S224.9,56.1,224.9,54.7z"/>
		<path class="st12" d="M224.9,67.6c0-0.5,0.4-1,1-1c0.5,0,1,0.4,1,1c0,0.5-0.4,1-1,1C225.4,68.5,224.9,68.1,224.9,67.6z"/>
		<path class="st9" d="M212.1,42.1c-0.6-1.6-0.5-3.1,0.3-3.4c0.7-0.3,1.8,0.8,2.4,2.4c0.6,1.6,2.5,11.1,2.5,11.1
			S212.7,43.7,212.1,42.1z"/>
		<path class="st11" d="M208.8,34.4c-0.4-1,0.2-2.1,1.1-2.5c1-0.4,2.1,0.2,2.5,1.1c0.4,1-0.2,2.1-1.1,2.5
			C210.2,35.9,209.1,35.4,208.8,34.4z"/>
		<path class="st11" d="M217.7,56.2c-0.5-1.3-0.4-2.5,0.1-2.7c0.5-0.2,1.3,0.7,1.8,2c0.5,1.3,2.2,8.8,2.2,8.8S218.2,57.5,217.7,56.2
			z"/>
		<path class="st12" d="M222.1,68.3c-0.2-0.5,0.1-1,0.6-1.2c0.5-0.2,1,0.1,1.2,0.6c0.2,0.5-0.1,1-0.6,1.2
			C222.9,69.1,222.3,68.8,222.1,68.3z"/>
		<path class="st9" d="M201.3,48.8c-1.1-1.3-1.5-2.8-0.9-3.3c0.6-0.5,2,0.1,3.1,1.5c1.1,1.3,6.2,9.6,6.2,9.6S202.4,50.1,201.3,48.8z
			"/>
		<path class="st11" d="M195.6,42.7c-0.7-0.8-0.6-2,0.2-2.7c0.8-0.7,2-0.6,2.7,0.2c0.7,0.8,0.6,2-0.2,2.7
			C197.5,43.6,196.3,43.5,195.6,42.7z"/>
		<path class="st11" d="M211.5,60.1c-0.9-1.1-1.3-2.2-0.9-2.5c0.4-0.3,1.4,0.2,2.3,1.3c0.9,1.1,5.1,7.5,5.1,7.5
			S212.4,61.2,211.5,60.1z"/>
		<path class="st12" d="M219.8,70c-0.3-0.4-0.3-1,0.1-1.4c0.4-0.3,1-0.3,1.4,0.1c0.3,0.4,0.3,1-0.1,1.4
			C220.7,70.5,220.1,70.4,219.8,70z"/>
		<path class="st9" d="M193.5,58.7c-1.5-0.9-2.4-2.1-2-2.8c0.4-0.7,1.9-0.6,3.4,0.3c1.5,0.9,9.1,6.9,9.1,6.9S195,59.6,193.5,58.7z"
			/>
		<path class="st11" d="M186,55c-0.9-0.5-1.2-1.7-0.7-2.6c0.5-0.9,1.7-1.2,2.6-0.7c0.9,0.5,1.2,1.7,0.7,2.6
			C188.1,55.2,187,55.5,186,55z"/>
		<path class="st11" d="M207,65.9c-1.2-0.7-1.9-1.6-1.7-2.1c0.3-0.5,1.4-0.3,2.6,0.4c1.2,0.7,7.4,5.3,7.4,5.3S208.1,66.6,207,65.9z"
			/>
		<path class="st12" d="M218.1,72.4c-0.5-0.3-0.6-0.9-0.4-1.3c0.3-0.5,0.9-0.6,1.3-0.4c0.5,0.3,0.6,0.9,0.4,1.3
			C219.2,72.5,218.6,72.6,218.1,72.4z"/>
		<path class="st9" d="M189.6,70.8c-1.7-0.3-2.9-1.2-2.8-2c0.1-0.8,1.6-1.2,3.3-0.9c1.7,0.3,10.9,3.4,10.9,3.4
			S191.3,71.1,189.6,70.8z"/>
		<path class="st11" d="M181.3,69.8c-1-0.2-1.7-1.2-1.6-2.2c0.2-1,1.2-1.7,2.2-1.6c1,0.2,1.7,1.2,1.6,2.2
			C183.3,69.3,182.3,70,181.3,69.8z"/>
		<path class="st11" d="M204.7,72.9c-1.4-0.2-2.4-0.9-2.3-1.4c0.1-0.5,1.3-0.8,2.6-0.5c1.4,0.2,8.7,2.5,8.7,2.5S206,73.2,204.7,72.9
			z"/>
		<path class="st12" d="M217.4,75.2c-0.5-0.1-0.9-0.6-0.8-1.1c0.1-0.5,0.6-0.9,1.1-0.8c0.5,0.1,0.9,0.6,0.8,1.1
			C218.4,74.9,217.9,75.3,217.4,75.2z"/>
		<path class="st9" d="M190,83.4c-1.7,0.3-3.2-0.1-3.3-0.9c-0.1-0.8,1.1-1.7,2.8-2c1.7-0.3,11.4-0.6,11.4-0.6S191.7,83.1,190,83.4z"
			/>
		<path class="st11" d="M181.8,85.3c-1,0.2-2-0.5-2.2-1.6c-0.2-1,0.5-2,1.6-2.2c1-0.2,2,0.5,2.2,1.6
			C183.6,84.2,182.9,85.2,181.8,85.3z"/>
		<path class="st11" d="M204.9,80.3c-1.4,0.2-2.5,0-2.6-0.5c-0.1-0.5,0.9-1.1,2.3-1.4c1.4-0.2,9.1-0.6,9.1-0.6
			S206.3,80.1,204.9,80.3z"/>
		<path class="st12" d="M217.6,78.1c-0.5,0.1-1-0.3-1.1-0.8c-0.1-0.5,0.3-1,0.8-1.1c0.5-0.1,1,0.3,1.1,0.8
			C218.5,77.5,218.1,78,217.6,78.1z"/>
		<path class="st10" d="M194.7,95.1c-1.5,0.9-3,1-3.4,0.3c-0.4-0.7,0.5-1.9,2-2.8c1.5-0.9,10.5-4.4,10.5-4.4S196.2,94.3,194.7,95.1z
			"/>
		<path class="st11" d="M187.7,99.8c-0.9,0.5-2.1,0.2-2.6-0.7c-0.5-0.9-0.2-2.1,0.7-2.6c0.9-0.5,2.1-0.2,2.6,0.7
			C189,98.1,188.6,99.2,187.7,99.8z"/>
		<path class="st11" d="M207.7,87.1c-1.2,0.7-2.4,0.9-2.6,0.4c-0.3-0.5,0.5-1.4,1.7-2.1c1.2-0.7,8.3-3.7,8.3-3.7
			S208.9,86.4,207.7,87.1z"/>
		<path class="st12" d="M218.8,80.7c-0.5,0.3-1,0.1-1.3-0.4c-0.3-0.5-0.1-1,0.4-1.3c0.5-0.3,1-0.1,1.3,0.4
			C219.5,79.8,219.3,80.4,218.8,80.7z"/>
		<path class="st10" d="M203.2,104.6c-1.1,1.3-2.5,2-3.1,1.5c-0.6-0.5-0.2-2,0.9-3.3c1.1-1.3,8.3-7.7,8.3-7.7
			S204.3,103.3,203.2,104.6z"/>
		<path class="st11" d="M198.2,111.3c-0.7,0.8-1.9,0.9-2.7,0.2c-0.8-0.7-0.9-1.9-0.2-2.7c0.7-0.8,1.9-0.9,2.7-0.2
			C198.7,109.3,198.9,110.5,198.2,111.3z"/>
		<path class="st11" d="M212.6,92.6c-0.9,1.1-1.9,1.6-2.3,1.3c-0.4-0.3,0-1.5,0.9-2.5c0.9-1.1,6.5-6.3,6.5-6.3
			S213.5,91.5,212.6,92.6z"/>
		<path class="st12" d="M220.9,82.7c-0.3,0.4-0.9,0.5-1.4,0.1c-0.4-0.3-0.5-0.9-0.1-1.4c0.3-0.4,0.9-0.5,1.4-0.1
			C221.2,81.7,221.2,82.3,220.9,82.7z"/>
		<path class="st10" d="M214.4,110.5c-0.6,1.6-1.7,2.7-2.4,2.4c-0.7-0.3-0.9-1.8-0.3-3.4c0.6-1.6,5.2-10.1,5.2-10.1
			S214.9,108.9,214.4,110.5z"/>
		<path class="st11" d="M211.9,118.6c-0.4,1-1.5,1.5-2.5,1.1c-1-0.4-1.5-1.5-1.1-2.5c0.4-1,1.5-1.5,2.5-1.1
			C211.8,116.5,212.3,117.6,211.9,118.6z"/>
		<path class="st11" d="M219.1,96.1c-0.5,1.3-1.3,2.2-1.8,2c-0.5-0.2-0.5-1.4-0.1-2.7c0.5-1.3,4-8.2,4-8.2S219.6,94.8,219.1,96.1z"
			/>
		<path class="st12" d="M223.5,84c-0.2,0.5-0.7,0.8-1.2,0.6c-0.5-0.2-0.8-0.7-0.6-1.2c0.2-0.5,0.7-0.8,1.2-0.6
			C223.4,82.9,223.7,83.5,223.5,84z"/>
	</g>
	<g>
		<path class="st10" d="M283.3,179.7c0,1.2-0.4,2.1-1,2.1c-0.5,0-1-0.9-1-2.1c0-1.2,1-7.7,1-7.7S283.3,178.5,283.3,179.7z"/>
		<circle class="st11" cx="282.3" cy="185.4" r="1.3"/>
		<path class="st11" d="M283,169.3c0,0.9-0.3,1.7-0.7,1.7c-0.4,0-0.7-0.8-0.7-1.7c0-0.9,0.6-6.1,0.6-6.1S283,168.4,283,169.3z"/>
		<circle class="st12" cx="282.3" cy="160.6" r="0.7"/>
		<path class="st10" d="M291.7,177.9c0.4,1.1,0.3,2.1-0.2,2.3c-0.5,0.2-1.2-0.6-1.6-1.6c-0.4-1.1-1.7-7.5-1.7-7.5
			S291.3,176.8,291.7,177.9z"/>
		<path class="st11" d="M294,183.1c0.2,0.7-0.1,1.4-0.8,1.7c-0.7,0.2-1.4-0.1-1.7-0.8c-0.2-0.7,0.1-1.4,0.8-1.7
			C293,182.1,293.7,182.5,294,183.1z"/>
		<path class="st11" d="M287.9,168.3c0.3,0.9,0.3,1.7,0,1.8c-0.3,0.1-0.9-0.5-1.2-1.4c-0.3-0.9-1.5-6-1.5-6S287.5,167.4,287.9,168.3
			z"/>
		<path class="st12" d="M284.9,160.1c0.1,0.3-0.1,0.7-0.4,0.8c-0.3,0.1-0.7-0.1-0.8-0.4c-0.1-0.3,0.1-0.7,0.4-0.8
			C284.4,159.6,284.7,159.7,284.9,160.1z"/>
		<path class="st10" d="M299,173.4c0.7,0.9,1,1.9,0.6,2.2c-0.4,0.3-1.4-0.1-2.1-1c-0.7-0.9-4.2-6.5-4.2-6.5S298.3,172.5,299,173.4z"
			/>
		<path class="st11" d="M302.9,177.5c0.5,0.6,0.4,1.4-0.2,1.8c-0.6,0.5-1.4,0.4-1.8-0.2c-0.5-0.6-0.4-1.4,0.2-1.8
			C301.6,176.9,302.5,177,302.9,177.5z"/>
		<path class="st11" d="M292.1,165.6c0.6,0.7,0.9,1.5,0.6,1.7c-0.3,0.2-1-0.2-1.6-0.9c-0.6-0.7-3.5-5.1-3.5-5.1
			S291.5,164.9,292.1,165.6z"/>
		<path class="st12" d="M286.5,158.9c0.2,0.3,0.2,0.7-0.1,0.9c-0.3,0.2-0.7,0.2-0.9-0.1c-0.2-0.3-0.2-0.7,0.1-0.9
			C285.8,158.6,286.2,158.7,286.5,158.9z"/>
		<path class="st9" d="M304.3,166.6c1,0.6,1.6,1.4,1.3,1.9c-0.3,0.5-1.3,0.4-2.3-0.2c-1-0.6-6.2-4.7-6.2-4.7S303.3,166,304.3,166.6z
			"/>
		<path class="st11" d="M309.4,169.2c0.6,0.4,0.8,1.2,0.5,1.8c-0.4,0.6-1.2,0.8-1.8,0.5c-0.6-0.4-0.8-1.2-0.5-1.8
			C308,169,308.8,168.8,309.4,169.2z"/>
		<path class="st11" d="M295.2,161.7c0.8,0.5,1.3,1.1,1.1,1.4c-0.2,0.3-1,0.2-1.8-0.3c-0.8-0.5-5-3.6-5-3.6S294.4,161.2,295.2,161.7
			z"/>
		<path class="st12" d="M287.6,157.3c0.3,0.2,0.4,0.6,0.2,0.9c-0.2,0.3-0.6,0.4-0.9,0.2c-0.3-0.2-0.4-0.6-0.2-0.9
			C286.9,157.3,287.3,157.1,287.6,157.3z"/>
		<path class="st9" d="M307,158.4c1.1,0.2,2,0.8,1.9,1.3c-0.1,0.5-1.1,0.8-2.2,0.6c-1.1-0.2-7.4-2.3-7.4-2.3S305.8,158.2,307,158.4z
			"/>
		<path class="st11" d="M312.6,159.1c0.7,0.1,1.2,0.8,1.1,1.5c-0.1,0.7-0.8,1.2-1.5,1.1c-0.7-0.1-1.2-0.8-1.1-1.5
			C311.3,159.4,311.9,159,312.6,159.1z"/>
		<path class="st11" d="M296.7,156.9c0.9,0.2,1.6,0.6,1.5,0.9c-0.1,0.4-0.9,0.5-1.8,0.3c-0.9-0.2-5.9-1.7-5.9-1.7
			S295.8,156.8,296.7,156.9z"/>
		<path class="st12" d="M288.1,155.4c0.4,0.1,0.6,0.4,0.5,0.8c-0.1,0.4-0.4,0.6-0.8,0.5c-0.4-0.1-0.6-0.4-0.5-0.8
			C287.4,155.6,287.8,155.4,288.1,155.4z"/>
		<path class="st9" d="M306.7,149.8c1.1-0.2,2.2,0.1,2.2,0.6c0.1,0.5-0.8,1.1-1.9,1.3c-1.1,0.2-7.7,0.4-7.7,0.4
			S305.5,150,306.7,149.8z"/>
		<path class="st11" d="M312.3,148.5c0.7-0.1,1.4,0.3,1.5,1.1c0.1,0.7-0.3,1.4-1.1,1.5c-0.7,0.1-1.4-0.3-1.5-1.1
			C311.1,149.3,311.5,148.6,312.3,148.5z"/>
		<path class="st11" d="M296.6,151.9c0.9-0.2,1.7,0,1.8,0.3c0.1,0.4-0.6,0.8-1.5,0.9c-0.9,0.2-6.2,0.4-6.2,0.4
			S295.6,152.1,296.6,151.9z"/>
		<path class="st12" d="M287.9,153.5c0.4-0.1,0.7,0.2,0.8,0.5c0.1,0.4-0.2,0.7-0.5,0.8c-0.4,0.1-0.7-0.2-0.8-0.5
			C287.4,153.9,287.6,153.5,287.9,153.5z"/>
		<path class="st9" d="M303.5,141.8c1-0.6,2-0.7,2.3-0.2c0.3,0.5-0.3,1.3-1.3,1.9c-1,0.6-7.1,3-7.1,3S302.5,142.4,303.5,141.8z"/>
		<path class="st11" d="M308.3,138.7c0.6-0.4,1.4-0.1,1.8,0.5c0.4,0.6,0.1,1.4-0.5,1.8c-0.6,0.4-1.4,0.1-1.8-0.5
			C307.4,139.9,307.6,139.1,308.3,138.7z"/>
		<path class="st11" d="M294.7,147.3c0.8-0.5,1.6-0.6,1.8-0.3c0.2,0.3-0.3,0.9-1.1,1.4c-0.8,0.5-5.6,2.5-5.6,2.5
			S293.9,147.8,294.7,147.3z"/>
		<path class="st12" d="M287.1,151.7c0.3-0.2,0.7-0.1,0.9,0.2c0.2,0.3,0.1,0.7-0.2,0.9c-0.3,0.2-0.7,0.1-0.9-0.2
			C286.7,152.3,286.8,151.9,287.1,151.7z"/>
		<path class="st9" d="M297.7,135.4c0.7-0.9,1.7-1.3,2.1-1c0.4,0.3,0.1,1.4-0.6,2.2c-0.7,0.9-5.7,5.3-5.7,5.3S297,136.3,297.7,135.4
			z"/>
		<path class="st11" d="M301.2,130.9c0.5-0.6,1.3-0.6,1.8-0.2c0.6,0.5,0.6,1.3,0.2,1.8c-0.5,0.6-1.3,0.6-1.8,0.2
			C300.8,132.2,300.7,131.4,301.2,130.9z"/>
		<path class="st11" d="M291.3,143.6c0.6-0.7,1.3-1.1,1.6-0.9c0.3,0.2,0,1-0.6,1.7c-0.6,0.7-4.4,4.3-4.4,4.3
			S290.7,144.3,291.3,143.6z"/>
		<path class="st12" d="M285.7,150.3c0.2-0.3,0.6-0.3,0.9-0.1c0.3,0.2,0.3,0.6,0.1,0.9c-0.2,0.3-0.6,0.3-0.9,0.1
			C285.5,151,285.5,150.6,285.7,150.3z"/>
		<path class="st9" d="M290.2,131.4c0.4-1.1,1.1-1.8,1.6-1.6c0.5,0.2,0.6,1.2,0.2,2.3c-0.4,1.1-3.5,6.9-3.5,6.9
			S289.8,132.5,290.2,131.4z"/>
		<path class="st11" d="M291.8,125.9c0.2-0.7,1-1,1.7-0.8c0.7,0.2,1,1,0.8,1.7c-0.2,0.7-1,1-1.7,0.8
			C291.9,127.4,291.6,126.6,291.8,125.9z"/>
		<path class="st11" d="M286.9,141.2c0.3-0.9,0.9-1.5,1.2-1.4c0.3,0.1,0.4,0.9,0,1.8c-0.3,0.9-2.7,5.6-2.7,5.6
			S286.6,142.1,286.9,141.2z"/>
		<path class="st12" d="M283.9,149.5c0.1-0.3,0.5-0.5,0.8-0.4c0.3,0.1,0.5,0.5,0.4,0.8c-0.1,0.3-0.5,0.5-0.8,0.4
			C284,150.2,283.8,149.8,283.9,149.5z"/>
		<path class="st9" d="M281.6,130.2c0-1.2,0.4-2.1,1-2.1c0.5,0,1,0.9,1,2.1c0,1.2-1,7.7-1,7.7S281.6,131.3,281.6,130.2z"/>
		<path class="st11" d="M281.3,124.5c0-0.7,0.6-1.3,1.3-1.3c0.7,0,1.3,0.6,1.3,1.3c0,0.7-0.6,1.3-1.3,1.3
			C281.9,125.8,281.3,125.2,281.3,124.5z"/>
		<path class="st11" d="M282,140.5c0-0.9,0.3-1.7,0.7-1.7c0.4,0,0.7,0.8,0.7,1.7c0,0.9-0.6,6.1-0.6,6.1S282,141.5,282,140.5z"/>
		<path class="st12" d="M282,149.3c0-0.4,0.3-0.7,0.7-0.7c0.4,0,0.7,0.3,0.7,0.7c0,0.4-0.3,0.7-0.7,0.7
			C282.3,149.9,282,149.6,282,149.3z"/>
		<path class="st9" d="M273.2,132c-0.4-1.1-0.3-2.1,0.2-2.3c0.5-0.2,1.2,0.6,1.6,1.6c0.4,1.1,1.7,7.5,1.7,7.5S273.6,133.1,273.2,132
			z"/>
		<path class="st11" d="M271,126.7c-0.2-0.7,0.1-1.4,0.8-1.7c0.7-0.2,1.4,0.1,1.7,0.8c0.2,0.7-0.1,1.4-0.8,1.7
			C272,127.7,271.2,127.4,271,126.7z"/>
		<path class="st11" d="M277.1,141.6c-0.3-0.9-0.3-1.7,0-1.8c0.3-0.1,0.9,0.5,1.2,1.4c0.3,0.9,1.5,6,1.5,6S277.4,142.4,277.1,141.6z
			"/>
		<path class="st12" d="M280.1,149.8c-0.1-0.3,0.1-0.7,0.4-0.8c0.3-0.1,0.7,0.1,0.8,0.4c0.1,0.3-0.1,0.7-0.4,0.8
			C280.6,150.3,280.2,150.1,280.1,149.8z"/>
		<path class="st9" d="M265.9,136.5c-0.7-0.9-1-1.9-0.6-2.2c0.4-0.3,1.4,0.1,2.1,1c0.7,0.9,4.2,6.5,4.2,6.5S266.7,137.4,265.9,136.5
			z"/>
		<path class="st11" d="M262,132.3c-0.5-0.6-0.4-1.4,0.2-1.8c0.6-0.5,1.4-0.4,1.8,0.2c0.5,0.6,0.4,1.4-0.2,1.8
			C263.3,133,262.5,132.9,262,132.3z"/>
		<path class="st11" d="M272.8,144.2c-0.6-0.7-0.9-1.5-0.6-1.7c0.3-0.2,1,0.2,1.6,0.9c0.6,0.7,3.5,5.1,3.5,5.1
			S273.4,144.9,272.8,144.2z"/>
		<path class="st12" d="M278.5,150.9c-0.2-0.3-0.2-0.7,0.1-0.9c0.3-0.2,0.7-0.2,0.9,0.1c0.2,0.3,0.2,0.7-0.1,0.9
			C279.1,151.2,278.7,151.2,278.5,150.9z"/>
		<path class="st9" d="M260.6,143.3c-1-0.6-1.6-1.4-1.3-1.9c0.3-0.5,1.3-0.4,2.3,0.2c1,0.6,6.2,4.7,6.2,4.7S261.6,143.9,260.6,143.3
			z"/>
		<path class="st11" d="M255.5,140.7c-0.6-0.4-0.8-1.2-0.5-1.8c0.4-0.6,1.2-0.8,1.8-0.5c0.6,0.4,0.8,1.2,0.5,1.8
			C257,140.8,256.2,141.1,255.5,140.7z"/>
		<path class="st11" d="M269.8,148.2c-0.8-0.5-1.3-1.1-1.1-1.4c0.2-0.3,1-0.2,1.8,0.3c0.8,0.5,5,3.6,5,3.6S270.6,148.6,269.8,148.2z
			"/>
		<path class="st12" d="M277.3,152.5c-0.3-0.2-0.4-0.6-0.2-0.9c0.2-0.3,0.6-0.4,0.9-0.2c0.3,0.2,0.4,0.6,0.2,0.9
			C278,152.6,277.6,152.7,277.3,152.5z"/>
		<path class="st9" d="M258,151.4c-1.1-0.2-2-0.8-1.9-1.3c0.1-0.5,1.1-0.8,2.2-0.6c1.1,0.2,7.4,2.3,7.4,2.3S259.1,151.6,258,151.4z"
			/>
		<path class="st11" d="M252.3,150.8c-0.7-0.1-1.2-0.8-1.1-1.5c0.1-0.7,0.8-1.2,1.5-1.1c0.7,0.1,1.2,0.8,1.1,1.5
			C253.7,150.4,253,150.9,252.3,150.8z"/>
		<path class="st11" d="M268.2,152.9c-0.9-0.2-1.6-0.6-1.5-0.9c0.1-0.4,0.9-0.5,1.8-0.3c0.9,0.2,5.9,1.7,5.9,1.7
			S269.1,153.1,268.2,152.9z"/>
		<path class="st12" d="M276.8,154.4c-0.4-0.1-0.6-0.4-0.5-0.8c0.1-0.4,0.4-0.6,0.8-0.5c0.4,0.1,0.6,0.4,0.5,0.8
			C277.5,154.3,277.2,154.5,276.8,154.4z"/>
		<path class="st9" d="M258.2,160c-1.1,0.2-2.2-0.1-2.2-0.6c-0.1-0.5,0.8-1.1,1.9-1.3c1.1-0.2,7.7-0.4,7.7-0.4
			S259.4,159.8,258.2,160z"/>
		<path class="st11" d="M252.7,161.3c-0.7,0.1-1.4-0.3-1.5-1.1c-0.1-0.7,0.3-1.4,1.1-1.5c0.7-0.1,1.4,0.3,1.5,1.1
			C253.9,160.5,253.4,161.2,252.7,161.3z"/>
		<path class="st11" d="M268.4,157.9c-0.9,0.2-1.7,0-1.8-0.3c-0.1-0.4,0.6-0.8,1.5-0.9c0.9-0.2,6.2-0.4,6.2-0.4
			S269.3,157.8,268.4,157.9z"/>
		<path class="st12" d="M277,156.4c-0.4,0.1-0.7-0.2-0.8-0.5c-0.1-0.4,0.2-0.7,0.5-0.8c0.4-0.1,0.7,0.2,0.8,0.5
			C277.6,156,277.3,156.3,277,156.4z"/>
		<path class="st10" d="M261.5,168c-1,0.6-2,0.7-2.3,0.2c-0.3-0.5,0.3-1.3,1.3-1.9c1-0.6,7.1-3,7.1-3S262.5,167.4,261.5,168z"/>
		<path class="st11" d="M256.7,171.1c-0.6,0.4-1.4,0.1-1.8-0.5c-0.4-0.6-0.1-1.4,0.5-1.8c0.6-0.4,1.4-0.1,1.8,0.5
			C257.5,170,257.3,170.8,256.7,171.1z"/>
		<path class="st11" d="M270.2,162.6c-0.8,0.5-1.6,0.6-1.8,0.3c-0.2-0.3,0.3-0.9,1.1-1.4c0.8-0.5,5.6-2.5,5.6-2.5
			S271.1,162.1,270.2,162.6z"/>
		<path class="st12" d="M277.8,158.2c-0.3,0.2-0.7,0.1-0.9-0.2c-0.2-0.3-0.1-0.7,0.2-0.9c0.3-0.2,0.7-0.1,0.9,0.2
			C278.2,157.6,278.1,158,277.8,158.2z"/>
		<path class="st10" d="M267.2,174.4c-0.7,0.9-1.7,1.3-2.1,1c-0.4-0.3-0.1-1.4,0.6-2.2c0.7-0.9,5.7-5.3,5.7-5.3
			S267.9,173.5,267.2,174.4z"/>
		<path class="st11" d="M263.8,179c-0.5,0.6-1.3,0.6-1.8,0.2c-0.6-0.5-0.6-1.3-0.2-1.8c0.5-0.6,1.3-0.6,1.8-0.2
			C264.2,177.6,264.2,178.4,263.8,179z"/>
		<path class="st11" d="M273.6,166.3c-0.6,0.7-1.3,1.1-1.6,0.9c-0.3-0.2,0-1,0.6-1.7c0.6-0.7,4.4-4.3,4.4-4.3
			S274.2,165.6,273.6,166.3z"/>
		<path class="st12" d="M279.2,159.6c-0.2,0.3-0.6,0.3-0.9,0.1c-0.3-0.2-0.3-0.6-0.1-0.9c0.2-0.3,0.6-0.3,0.9-0.1
			C279.4,158.9,279.5,159.3,279.2,159.6z"/>
		<path class="st10" d="M274.8,178.5c-0.4,1.1-1.1,1.8-1.6,1.6c-0.5-0.2-0.6-1.2-0.2-2.3c0.4-1.1,3.5-6.9,3.5-6.9
			S275.2,177.4,274.8,178.5z"/>
		<path class="st11" d="M273.1,183.9c-0.2,0.7-1,1-1.7,0.8c-0.7-0.2-1-1-0.8-1.7c0.2-0.7,1-1,1.7-0.8
			C273,182.5,273.4,183.3,273.1,183.9z"/>
		<path class="st11" d="M278,168.6c-0.3,0.9-0.9,1.5-1.2,1.4c-0.3-0.1-0.4-0.9,0-1.8c0.3-0.9,2.7-5.6,2.7-5.6S278.3,167.8,278,168.6
			z"/>
		<path class="st12" d="M281,160.4c-0.1,0.3-0.5,0.5-0.8,0.4c-0.3-0.1-0.5-0.5-0.4-0.8c0.1-0.3,0.5-0.5,0.8-0.4
			C281,159.7,281.1,160.1,281,160.4z"/>
	</g>
	<g>
		<circle class="st13" cx="182.9" cy="132.3" r="1"/>
		<circle class="st13" cx="183.1" cy="135.4" r="1"/>
		<circle class="st13" cx="183.9" cy="138.6" r="1"/>
		<circle class="st13" cx="184.8" cy="141.7" r="1"/>
		<circle class="st13" cx="186" cy="144.8" r="1"/>
		<circle class="st13" cx="186.8" cy="148" r="1"/>
		<circle class="st13" cx="187" cy="151.1" r="1"/>
		<circle class="st13" cx="186.4" cy="154" r="1"/>
		<circle class="st13" cx="184.8" cy="157.7" r="1"/>
		<circle class="st13" cx="183" cy="160.4" r="1"/>
		<circle class="st13" cx="180.6" cy="162.7" r="1"/>
		<circle class="st13" cx="177.8" cy="164.1" r="1"/>
		<circle class="st13" cx="174.8" cy="165.1" r="1"/>
		<circle class="st13" cx="171.5" cy="165.4" r="1"/>
		<circle class="st13" cx="168.4" cy="165" r="1"/>
		<circle class="st13" cx="165.3" cy="164" r="1"/>
		<circle class="st13" cx="162.1" cy="162.4" r="1"/>
		<circle class="st13" cx="159.2" cy="160.6" r="1"/>
		<circle class="st13" cx="156.3" cy="158.5" r="1"/>
		<circle class="st13" cx="153.9" cy="156.5" r="1"/>
		<circle class="st13" cx="152" cy="154.2" r="1"/>
		<circle class="st13" cx="150.1" cy="151.5" r="1"/>
		<circle class="st13" cx="149" cy="148.5" r="1"/>
		<circle class="st13" cx="148.6" cy="145.2" r="1"/>
		<circle class="st13" cx="148.9" cy="142.2" r="1"/>
		<circle class="st13" cx="150.1" cy="138.9" r="1"/>
		<circle class="st13" cx="152.2" cy="136.4" r="1"/>
		<circle class="st13" cx="154.7" cy="134.2" r="1"/>
		<circle class="st13" cx="157.4" cy="132.5" r="1"/>
		<circle class="st13" cx="160.2" cy="131.2" r="1"/>
		<circle class="st13" cx="163.4" cy="130.3" r="1"/>
		<circle class="st13" cx="166.7" cy="129.9" r="1"/>
		<circle class="st13" cx="170.1" cy="129.8" r="1"/>
		<circle class="st13" cx="173.4" cy="130" r="1"/>
		<circle class="st13" cx="176.3" cy="130.5" r="1"/>
		<circle class="st13" cx="179.4" cy="131.1" r="1"/>
		<circle class="st13" cx="174.3" cy="135.4" r="1"/>
		<circle class="st13" cx="171.5" cy="136.4" r="1"/>
		<circle class="st13" cx="168.9" cy="138.3" r="1"/>
		<circle class="st13" cx="166.6" cy="140.4" r="1"/>
		<circle class="st13" cx="164.7" cy="142.9" r="1"/>
		<circle class="st13" cx="163" cy="145.5" r="1"/>
		<circle class="st13" cx="161.4" cy="148.3" r="1"/>
		<circle class="st13" cx="160.3" cy="151.3" r="1"/>
		<circle class="st13" cx="159.8" cy="154.4" r="1"/>
		<circle class="st14" cx="176.9" cy="167.9" r="1"/>
		<circle class="st14" cx="178.1" cy="170.7" r="1"/>
		<circle class="st14" cx="178.8" cy="173.6" r="1"/>
		<circle class="st14" cx="179.1" cy="176.7" r="1"/>
		<circle class="st14" cx="178.9" cy="179.7" r="1"/>
		<circle class="st14" cx="176" cy="178.9" r="1"/>
		<circle class="st14" cx="173.4" cy="177.7" r="1"/>
		<circle class="st14" cx="170.8" cy="176.4" r="1"/>
		<circle class="st14" cx="168.2" cy="174.7" r="1"/>
		<circle class="st14" cx="166.1" cy="172.5" r="1"/>
		<circle class="st14" cx="164.3" cy="170.1" r="1"/>
		<circle class="st14" cx="163" cy="167.3" r="1"/>
		<circle class="st14" cx="153.1" cy="159.7" r="1"/>
		<circle class="st14" cx="150" cy="159.8" r="1"/>
		<circle class="st14" cx="147.1" cy="159.6" r="1"/>
		<circle class="st14" cx="144.1" cy="158.5" r="1"/>
		<circle class="st14" cx="141.5" cy="157.1" r="1"/>
		<circle class="st14" cx="139.2" cy="155.5" r="1"/>
		<circle class="st14" cx="137" cy="153.4" r="1"/>
		<circle class="st14" cx="134.9" cy="151.1" r="1"/>
		<circle class="st14" cx="137.5" cy="148.5" r="1"/>
		<circle class="st14" cx="140.6" cy="147.8" r="1"/>
		<circle class="st14" cx="143.8" cy="147.2" r="1"/>
		<circle class="st14" cx="146.6" cy="146.9" r="1"/>
	</g>
	<g>
		<g>
			<path class="st9" d="M222.9,123.8c-0.7,5.5-1.5,11-2.3,16.5c-0.9,6.1-1.7,12.2-2.4,18.3c-0.8,6.8-1.4,13.6-1.8,20.4
				c-0.4,7.4-0.6,14.8-0.5,22.2c0.2,8.1,0.7,16.3,1.6,24.4c0.1,1.1,0.3,2.1,0.4,3.2c0.1,0.6,1.1,0.6,1,0c-1-8.2-1.7-16.4-1.9-24.6
				c-0.2-7.5-0.1-15,0.2-22.5c0.3-6.9,0.9-13.8,1.7-20.6c0.7-6.2,1.5-12.4,2.4-18.6c0.8-5.6,1.6-11.1,2.4-16.7
				c0.1-0.6,0.2-1.3,0.3-1.9C224,123.1,223,123.2,222.9,123.8L222.9,123.8z"/>
		</g>
	</g>
	<g>
		<g>
			<path class="st9" d="M183.3,167.9c6.4,5.9,11.4,13.1,15.3,20.9c4.1,8.2,7.1,16.8,9.6,25.6c1.5,5.1,2.9,10.3,4.2,15.5
				c0-0.1,0.9-0.4,0.9-0.5c-2.4-9.1-4.8-18.3-8-27.1c-3-8.3-6.6-16.5-11.7-23.8c-2.7-4-5.9-7.7-9.5-11
				C184.1,167.4,183.4,168,183.3,167.9L183.3,167.9z"/>
		</g>
	</g>
	<path class="st5" d="M313.7,90.8"/>
	<g>
		<rect x="335.7" y="42.8" class="st15" width="7.1" height="11.7"/>
		<rect x="309.2" y="54.2" class="st6" width="38.2" height="17.9"/>
		<circle class="st15" cx="316.7" cy="60.6" r="2.2"/>
		<circle class="st15" cx="324.1" cy="60.6" r="2.2"/>
		<circle class="st15" cx="331.5" cy="60.6" r="2.2"/>
		<circle class="st15" cx="338.9" cy="60.6" r="2.2"/>
		<polygon class="st15" points="299.9,66.4 360.9,66.4 353.6,83.2 307.7,83.2 		"/>
		<rect x="335.8" y="44.7" class="st6" width="7" height="1.2"/>
		<rect x="335.8" y="48.2" class="st6" width="7" height="1.2"/>
	</g>
</g>
</svg>
