<?xml version="1.0" encoding="utf-8"?>
<!-- Generator: Adobe Illustrator 25.0.1, SVG Export Plug-In . SVG Version: 6.00 Build 0)  -->
<svg version="1.1" id="レイヤー_1" xmlns="http://www.w3.org/2000/svg" xmlns:xlink="http://www.w3.org/1999/xlink" x="0px"
	 y="0px" viewBox="0 0 60 60" style="enable-background:new 0 0 60 60;" xml:space="preserve">
<style type="text/css">
	.st0{fill:#3E3A39;}
	.st1{fill:#FFFFFF;}
</style>
<g id="nav-mobile-open" transform="translate(-315)">
	<rect id="長方形_14" x="315" class="st0" width="60" height="60"/>
	<g id="グループ_487">
		<path id="長方形_112" class="st1" d="M335,19h20c1.1,0,2,0.9,2,2l0,0c0,1.1-0.9,2-2,2h-20c-1.1,0-2-0.9-2-2l0,0
			C333,19.9,333.9,19,335,19z"/>
		<path id="長方形_130" class="st1" d="M335,28h20c1.1,0,2,0.9,2,2l0,0c0,1.1-0.9,2-2,2h-20c-1.1,0-2-0.9-2-2l0,0
			C333,28.9,333.9,28,335,28z"/>
		<path id="パス_163" class="st1" d="M335,37h20c1.1,0,2,0.9,2,2s-0.9,2-2,2h-20c-1.1,0-2-0.9-2-2S333.9,37,335,37z"/>
	</g>
</g>
</svg>
