<?xml version="1.0" encoding="utf-8"?>
<!-- Generator: Adobe Illustrator 25.0.1, SVG Export Plug-In . SVG Version: 6.00 Build 0)  -->
<svg version="1.1" id="レイヤー_1" xmlns="http://www.w3.org/2000/svg" xmlns:xlink="http://www.w3.org/1999/xlink" x="0px"
	 y="0px" viewBox="0 0 60 60" style="enable-background:new 0 0 60 60;" xml:space="preserve">
<style type="text/css">
	.st0{fill:#3E3A39;}
	.st1{fill:#FFFFFF;}
</style>
<g id="nav-mobile-close" transform="translate(-315)">
	<rect id="長方形_117" x="315" class="st0" width="60" height="60"/>
	<path id="長方形_115" class="st1" d="M337.2,19.4l18.4,18.4c0.8,0.8,0.8,2,0,2.8l0,0c-0.8,0.8-2,0.8-2.8,0l-18.4-18.4
		c-0.8-0.8-0.8-2,0-2.8l0,0C335.2,18.6,336.4,18.6,337.2,19.4z"/>
	<path id="長方形_116" class="st1" d="M334.4,37.8l18.4-18.4c0.8-0.8,2-0.8,2.8,0l0,0c0.8,0.8,0.8,2,0,2.8l-18.4,18.4
		c-0.8,0.8-2,0.8-2.8,0l0,0C333.6,39.8,333.6,38.6,334.4,37.8z"/>
</g>
</svg>
