<?xml version="1.0" encoding="utf-8"?>
<!-- Generator: Adobe Illustrator 25.0.1, SVG Export Plug-In . SVG Version: 6.00 Build 0)  -->
<svg version="1.1" id="レイヤー_1" xmlns="http://www.w3.org/2000/svg" xmlns:xlink="http://www.w3.org/1999/xlink" x="0px"
	 y="0px" viewBox="0 0 100 100" style="enable-background:new 0 0 100 100;" xml:space="preserve">
<style type="text/css">
	.st0{fill:#FFFFFF;}
	.st1{fill:#999999;}
</style>
<circle class="st0" cx="50" cy="50.3" r="49"/>
<path class="st1" d="M47.1,16.4L20.5,47.1c-2.2,2.5-0.4,6.4,2.9,6.4h53.2c3.3,0,5.1-3.9,2.9-6.4L52.9,16.4
	C51.4,14.7,48.6,14.7,47.1,16.4z"/>
<g>
	<path class="st1" d="M33.4,66.1h-3.3V75h-2.8v-8.9h-3.3v-2h9.3V66.1z"/>
	<path class="st1" d="M46.9,69.5c0,3.9-2.1,5.6-5.2,5.6c-3,0-5.2-1.7-5.2-5.6s2.1-5.6,5.2-5.6C44.7,63.9,46.9,65.6,46.9,69.5z
		 M43.8,69.5c0-2.8-0.8-3.8-2.1-3.8c-1.4,0-2.1,1-2.1,3.8s0.8,3.8,2.1,3.8C43.1,73.3,43.8,72.3,43.8,69.5z"/>
	<path class="st1" d="M54.6,64c2.9,0,4.4,1.1,4.4,3.6c0,2.7-2,3.9-4.7,3.9h-1V75h-2.7V64H54.6z M54.4,69.7c1,0,1.7-0.6,1.7-1.9
		c0-1.3-0.7-1.9-1.7-1.9h-1.1v3.8H54.4z"/>
	<path class="st1" d="M62.5,69.9c1.4-1.1,2.6-2.1,3.5-3.1c0.6-0.6,1.2-1,1.9-1c0.7,0,1.3,0.3,2,1c1.8,1.6,4.1,3.1,7,4.7l0,0.2
		l-1.4,1.8l-0.2,0c-2.8-1.6-4.9-3.3-6.5-4.7c-0.3-0.3-0.6-0.5-0.8-0.5c-0.2,0-0.4,0.1-0.7,0.4c-0.9,0.8-1.9,1.9-3.3,3l-0.1,0
		l-1.5-1.6L62.5,69.9z"/>
</g>
</svg>
